<svg id="Capa_1" data-name="Capa 1" xmlns="http://www.w3.org/2000/svg" viewBox="0 0 352 330"><defs><style>.cls-1{fill:#fff;}</style></defs><path class="cls-1" d="M169.57,146.57H120.84a6.12,6.12,0,0,0-6.26,6v21.74l8.31.63.64-13.71c0-2.71-.39-6.53,2.45-6.53h43.59Z"/><path d="M122.89,175.57h0l-8.31-.64a.65.65,0,0,1-.6-.65V152.54a6.78,6.78,0,0,1,6.91-6.63h48.73a.66.66,0,0,1,.66.66v8.1a.65.65,0,0,1-.66.65H126a1.39,1.39,0,0,0-1,.39c-.8.81-.77,2.91-.75,4.59,0,.31,0,.61,0,.9l-.64,13.74a.65.65,0,0,1-.66.63Zm-7.65-1.9,7,.54.61-13c0-.25,0-.55,0-.85,0-2-.06-4.33,1.12-5.54a2.71,2.71,0,0,1,2-.77h42.94v-6.79H120.84a5.47,5.47,0,0,0-5.6,5.32Z"/><path class="cls-1" d="M98,232.21c0,38,18.66,68.87,41.69,68.87s41.7-30.84,41.7-68.87-18.67-68.87-41.7-68.87S98,194.18,98,232.21Zm4.15,0c0-34.25,16.81-62,37.54-62s37.55,27.76,37.55,62-16.81,62-37.55,62S102.1,266.46,102.1,232.21Z"/><path d="M139.64,301.73c-23.35,0-42.35-31.19-42.35-69.52s19-69.52,42.35-69.52S182,193.87,182,232.21,163,301.73,139.64,301.73Zm0-137.73c-22.63,0-41,30.6-41,68.21s18.41,68.21,41,68.21,41-30.6,41-68.21S162.27,164,139.64,164Zm0,130.88c-21.06,0-38.2-28.11-38.2-62.67s17.14-62.67,38.2-62.67,38.2,28.11,38.2,62.67S160.71,294.88,139.64,294.88Zm0-124c-20.34,0-36.89,27.53-36.89,61.36s16.55,61.36,36.89,61.36,36.89-27.53,36.89-61.36S160,170.85,139.64,170.85Z"/><path class="cls-1" d="M168.72,214.39h68.63l-.85-111.94c-12.36-25.79-64.16-15.86-67.78.21Z"/><path d="M237.35,215H168.72a.66.66,0,0,1-.66-.65V102.66a.77.77,0,0,1,0-.15c1.71-7.61,14.08-14.39,29.39-16.13,14.7-1.66,32.83,1.61,39.62,15.78a.89.89,0,0,1,.07.28L238,214.38a.67.67,0,0,1-.19.47A.68.68,0,0,1,237.35,215Zm-68-1.31h67.31l-.85-111.13c-6.54-13.44-24-16.52-38.22-14.91-14.73,1.66-26.59,8-28.24,15Z"/><path class="cls-1" d="M153,205.23h84.67a0,0,0,0,1,0,0v4.71a5.06,5.06,0,0,1-5.06,5.06H158a5.06,5.06,0,0,1-5.06-5.06v-4.71A0,0,0,0,1,153,205.23Z" transform="translate(390.61 420.22) rotate(180)"/><path d="M237.64,215.65H153a.66.66,0,0,1-.66-.66v-3.66a6.76,6.76,0,0,1,6.76-6.76h72.47a6.77,6.77,0,0,1,6.76,6.76V215A.66.66,0,0,1,237.64,215.65Zm-84-1.31H237v-3a5.45,5.45,0,0,0-5.44-5.44H159.07a5.45,5.45,0,0,0-5.44,5.44Z"/><path class="cls-1" d="M247.22,82c5.07-1.36,13.15-.27,19.81,1.29a5.53,5.53,0,0,0,0-11h-20.4a2.28,2.28,0,0,0-2.28,2.28v5.29A2.27,2.27,0,0,0,247.22,82Z"/><path d="M267,84a.39.39,0,0,1-.15,0c-8.26-1.92-15.36-2.39-19.49-1.28a2.93,2.93,0,0,1-3.69-2.83V74.53a2.94,2.94,0,0,1,2.93-2.94H267A6.18,6.18,0,1,1,267,84Zm-14.16-3.22a67.35,67.35,0,0,1,14.23,1.91A4.87,4.87,0,0,0,267,72.9h-20.4A1.63,1.63,0,0,0,245,74.53v5.29a1.62,1.62,0,0,0,2,1.56A23,23,0,0,1,252.87,80.73ZM247.22,82h0Z"/><path d="M237.78,215.85H154.44a.66.66,0,0,1-.66-.65.67.67,0,0,1,.66-.66h82.67L235.48,85.6a9.84,9.84,0,0,1,9.82-9.83.66.66,0,0,1,0,1.32,8.51,8.51,0,0,0-8.5,8.51l1.63,129.59a.63.63,0,0,1-.18.47A.7.7,0,0,1,237.78,215.85Z"/><path class="cls-1" d="M62.42,289.6h84.67a0,0,0,0,1,0,0v4.71a5.06,5.06,0,0,1-5.06,5.06H67.48a5.06,5.06,0,0,1-5.06-5.06V289.6a0,0,0,0,1,0,0Z" transform="translate(209.52 588.96) rotate(180)"/><path d="M147.09,300H62.42a.65.65,0,0,1-.65-.66V295.7a6.76,6.76,0,0,1,6.75-6.76H141a6.76,6.76,0,0,1,6.76,6.76v3.66A.66.66,0,0,1,147.09,300Zm-84-1.31h83.36v-3a5.45,5.45,0,0,0-5.45-5.44H68.52a5.45,5.45,0,0,0-5.44,5.44Z"/><path d="M92.81,263.4S73.58,230.79,87.75,188s86-26.39,86-26.39Z"/><path class="cls-1" d="M108.24,275.12s2.5,7.4,2.46,13a4.23,4.23,0,0,1-4.13,4.17c-7.91.22-27.64.68-37.52.12a1.72,1.72,0,0,1-1.52-2.59c2.74-4.17,10.17-12.73,26.68-16.62Z"/><path d="M82.22,293.35c-5,0-9.71-.07-13.21-.27a2.58,2.58,0,0,1-2.16-1.36,2.24,2.24,0,0,1,.13-2.24c3-4.65,10.63-13,27.07-16.9a.66.66,0,0,1,.24,0l14,1.9a.65.65,0,0,1,.54.44c.1.31,2.54,7.57,2.49,13.24a4.86,4.86,0,0,1-4.76,4.82C101.41,293.11,91.36,293.35,82.22,293.35Zm12-19.46C78.32,277.67,71,285.73,68.08,290.2a.88.88,0,0,0-.06.92,1.24,1.24,0,0,0,1.07.65c9.83.56,29.47.11,37.46-.11a3.57,3.57,0,0,0,3.49-3.52c0-4.73-1.8-10.85-2.3-12.42Z"/><path d="M221.16,145.9s23.57,54.68-15.56,58.87-57,.43-57,.43L115.5,277.63s-14.62,1.33-26.9-6.52c0,0,8.42-57,20.68-86.09s76.18-28.25,76.18-28.25Z"/><path class="cls-1" d="M88,273h-.11a.65.65,0,0,1-.54-.75c.41-2.48,10.15-61.08,21.28-87.46,4.17-9.88,14.56-17.41,30.88-22.38a.65.65,0,1,1,.38,1.25c-15.93,4.86-26,12.14-30.05,21.64C98.81,211.51,89.09,270,88.68,272.43A.65.65,0,0,1,88,273Z"/><path d="M89.68,283.62a.65.65,0,0,1-.54-.29l-4.63-6.78a.65.65,0,1,1,1.08-.74l4.63,6.78a.65.65,0,0,1-.17.91A.63.63,0,0,1,89.68,283.62Z"/><path d="M107.43,289H73.7a.66.66,0,0,1,0-1.32h33.73a.66.66,0,0,1,0,1.32Z"/><path d="M83.82,284.93a.67.67,0,0,1-.56-.31l-3.6-5.75a.65.65,0,0,1,.2-.9.66.66,0,0,1,.91.21l3.6,5.74a.66.66,0,0,1-.2.91A.64.64,0,0,1,83.82,284.93Z"/><path class="cls-1" d="M197.82,232.21c0,38,18.67,68.87,41.7,68.87s41.69-30.84,41.69-68.87-18.67-68.87-41.69-68.87S197.82,194.18,197.82,232.21Zm4.15,0c0-34.25,16.81-62,37.55-62s37.54,27.76,37.54,62-16.81,62-37.54,62S202,266.46,202,232.21Z"/><path d="M239.52,301.73c-23.36,0-42.35-31.19-42.35-69.52s19-69.52,42.35-69.52,42.35,31.18,42.35,69.52S262.87,301.73,239.52,301.73Zm0-137.73c-22.63,0-41,30.6-41,68.21s18.41,68.21,41,68.21,41-30.6,41-68.21S262.15,164,239.52,164Zm0,130.88c-21.07,0-38.21-28.11-38.21-62.67s17.14-62.67,38.21-62.67,38.2,28.11,38.2,62.67S260.58,294.88,239.52,294.88Zm0-124c-20.34,0-36.89,27.53-36.89,61.36s16.55,61.36,36.89,61.36,36.89-27.53,36.89-61.36S259.86,170.85,239.52,170.85Z"/><ellipse class="cls-1" cx="239.52" cy="232.21" rx="5.98" ry="9.87"/><path d="M239.52,242.74c-3.72,0-6.64-4.63-6.64-10.53s2.92-10.53,6.64-10.53,6.63,4.63,6.63,10.53S243.24,242.74,239.52,242.74Zm0-19.75c-2.89,0-5.32,4.22-5.32,9.22s2.43,9.21,5.32,9.21,5.32-4.22,5.32-9.21S242.4,223,239.52,223Z"/><path class="cls-1" d="M144.06,126.15s26.73-46.6,30.41-48.83,0,21.34,0,21.34l-20,33.32Z"/><path d="M154.51,132.64a.72.72,0,0,1-.32-.08l-10.45-5.84a.69.69,0,0,1-.31-.4.62.62,0,0,1,.06-.5C146.24,121,170.41,79,174.13,76.75a1.29,1.29,0,0,1,1.47,0c2.49,1.66.26,17.29-.48,22A.5.5,0,0,1,175,99l-20,33.32A.64.64,0,0,1,154.51,132.64ZM145,125.9l9.31,5.2,19.57-32.67c1.43-9.23,2.24-19.64,1.06-20.6l-.09,0C172.24,79.44,155.69,107.22,145,125.9Z"/><path class="cls-1" d="M213.93,76.37a48.44,48.44,0,0,0-39.46.95s-8.29,18.92-7,35.57c2.13,28.13-1,42.45-1.7,46-1.28,6.35,44.76-1.28,55-3,9.45-1.57-2.44-21.06-3.39-28.6S213.93,76.37,213.93,76.37Z"/><path d="M174.49,162.06q-7.34,0-8.91-1.62a1.79,1.79,0,0,1-.49-1.64l.06-.3c2.46-12.11,3-27.44,1.64-45.56-1.26-16.62,7-35.7,7.08-35.89a.68.68,0,0,1,.32-.33,49.59,49.59,0,0,1,40-.94.7.7,0,0,1,.37.56c0,.43,2.47,43.49,3.4,50.92.28,2.23,1.59,5.64,3,9.25,2.54,6.63,5.42,14.15,3.29,17.87a4.58,4.58,0,0,1-3.43,2.21C199,160.23,183.49,162.06,174.49,162.06ZM175,77.8c-.92,2.18-8,19.71-6.88,35,1.38,18.24.82,33.69-1.66,45.92l-.06.3a.46.46,0,0,0,.15.47c1.2,1.24,8.86,3.3,54.09-4.23a3.31,3.31,0,0,0,2.5-1.57c1.82-3.18-.94-10.39-3.38-16.75-1.41-3.69-2.75-7.17-3.05-9.55-.89-7.09-3.14-46.23-3.39-50.62A48.34,48.34,0,0,0,175,77.8Z"/><path class="cls-1" d="M212.41,125.39l-26.17-15.61L172,114.54a3.17,3.17,0,0,0,3.27.71,7.53,7.53,0,0,1,6.9,1.17c2,1.65,4.77,0,4.77,0s16.64,24.64,31.3,25.15c11.93.41,5.41-41.47,2.56-57.15a10.5,10.5,0,0,0-6.58-7.91l-4.39-1.67Z"/><path d="M218.44,142.23h-.2c-13.87-.48-29-21.42-31.5-25a4.76,4.76,0,0,1-5-.33,6.88,6.88,0,0,0-6.27-1.06,3.79,3.79,0,0,1-4-.89.66.66,0,0,1,.27-1.06L186,109.16a.64.64,0,0,1,.54.06l25.13,15-2.51-49.32a.67.67,0,0,1,.27-.57.65.65,0,0,1,.62-.08l4.39,1.68a11.19,11.19,0,0,1,7,8.4c2.58,14.18,7.84,48,.9,56.07A5,5,0,0,1,218.44,142.23ZM187,115.76a.64.64,0,0,1,.54.29c.17.24,16.62,24.38,30.79,24.87a3.72,3.72,0,0,0,3.08-1.41c6.75-7.82.79-44-1.2-55A9.89,9.89,0,0,0,214,77.12l-3.45-1.31,2.52,49.54a.66.66,0,0,1-1,.6L186.16,110.5l-12.54,4.2a2.61,2.61,0,0,0,1.47-.08,8.25,8.25,0,0,1,7.51,1.29c1.65,1.34,4,0,4-.06A.69.69,0,0,1,187,115.76Z"/><path d="M144.93,131.12l42.44,1.72a1.84,1.84,0,0,0,1.57-2.8L167.53,95.19a2.89,2.89,0,0,0-2.46-1.38l-42.9,1Z"/><polygon class="cls-1" points="141.88 132.84 187.69 132.84 163.72 93.81 117.91 93.81 141.88 132.84"/><path d="M187.69,133.49H141.88a.66.66,0,0,1-.56-.31l-24-39a.65.65,0,0,1,0-.66.67.67,0,0,1,.58-.34h45.8a.65.65,0,0,1,.56.32l24,39a.67.67,0,0,1,0,.67A.68.68,0,0,1,187.69,133.49Zm-45.44-1.31h44.26L163.35,94.47H119.08Z"/><path class="cls-1" d="M138.54,131.29s.78-4.06,0-6.77-5.58-10.77-6.95-12.45S129.05,128.39,138.54,131.29Z"/><path d="M138.54,132a.63.63,0,0,1-.19,0c-5.86-1.79-8.14-9.07-8.33-15.28-.05-1.8,0-4.89,1.1-5.29a.87.87,0,0,1,1,.3c1.46,1.8,6.29,9.95,7.07,12.69s.05,6.9,0,7.08a.7.7,0,0,1-.31.44A.67.67,0,0,1,138.54,132Zm-7-18.85a23.73,23.73,0,0,0,1,10.57c.82,2.41,2.43,5.46,5.46,6.73a15.77,15.77,0,0,0-.11-5.7C137.25,122.38,133.29,115.59,131.53,113.1Z"/><path d="M183.07,55.21c3.06,4.81,9.86,7.4,15.37,6.92,7.78-.69,8.76-7.16,14.93-6.9C220,55.5,221.62,63.15,228,64c3.65.49,9-1.21,16.46-10.84.56.94,4.66,7.58,12.43,8.59,8.28,1.08,15.26-4.92,18-11.09,2.67-6,2.37-14.63-1.64-17-3.55-2.13-7.57,2.1-13.37.06-4.58-1.6-3.9-5.59-7.19-6.48-7-1.9-13.43,13.76-21.33,12.33-4.68-.84-4-6.63-9.77-8.73-7.55-2.75-12.43,5.79-21.1,3.57-6.27-1.6-5.88-6.64-12.5-8.27-6.22-1.52-13.39,1.24-17.72,6C164,39,163.67,50.24,166.85,52s8.91-6.13,12.88-4C181.85,49.17,180.89,51.78,183.07,55.21Z"/><path d="M183.07,29.25c-2.66-2.15-1-8.51.73-11.94.63-1.29,3.49-7,7.24-6.82s7.54,6.7,6.17,11.82C195.49,28.72,186.19,31.78,183.07,29.25Z"/><path class="cls-1" d="M183.13,63.14a3.07,3.07,0,0,1-3.54-.54,18,18,0,0,1-2.7-3.44l-1.17-.44-1.25-5.62c-1.85-4.76-.67-7.86-.67-7.86.24-2.63,6.86-4.19,10.57.86,2.52,3.44,6.14,0,6.14,0s1.9-5.11,4.12-2-2.18,8.67-2.18,8.67l3.28,14a10,10,0,0,0,6.17,7.07l3.16,1.21s-4.93,16.15-18.9,15.85c-10.66-.23-6.06-14.63-6.06-14.63l1.4-.62a8.37,8.37,0,0,0,4.78-9.51L185.34,62Z"/><path d="M186.54,91.6h-.39a7.23,7.23,0,0,1-6.1-2.84c-3.16-4.41-.69-12.32-.58-12.65a.65.65,0,0,1,.36-.4l1.4-.62a7.72,7.72,0,0,0,4.41-8.76L184.89,63l-1.46.73a3.74,3.74,0,0,1-4.31-.66,19.5,19.5,0,0,1-2.67-3.37l-1-.36a.67.67,0,0,1-.41-.47l-1.24-5.58c-1.75-4.52-.87-7.64-.68-8.2.15-1.2,1.27-2.24,3-2.7a8.28,8.28,0,0,1,8.79,3.33,2.69,2.69,0,0,0,2,1.24,4.86,4.86,0,0,0,3.1-1.24c.28-.69,1.33-3,2.94-3.25a2.43,2.43,0,0,1,2.27,1.29c2.2,3.13-1.13,8-2,9.2l3.21,13.7a9.35,9.35,0,0,0,5.76,6.6l3.16,1.21a.66.66,0,0,1,.39.81C205.63,75.44,200.54,91.6,186.54,91.6Zm-5.9-14.82c-.4,1.41-2,7.76.48,11.22a6,6,0,0,0,5,2.28c11.83.28,17-12,18.06-14.81l-2.56-1A10.64,10.64,0,0,1,195.1,67l-3.29-14a.67.67,0,0,1,.12-.56c1.14-1.43,3.75-5.64,2.16-7.89-.25-.36-.65-.79-1-.74-.71.1-1.58,1.59-1.94,2.56a.62.62,0,0,1-.17.25,6.19,6.19,0,0,1-4.22,1.69,4,4,0,0,1-2.9-1.78,7,7,0,0,0-7.38-2.84c-1.16.33-1.94,1-2,1.64a1.16,1.16,0,0,1,0,.18s-1.06,3,.66,7.39l0,.09,1.17,5.28.84.32a.67.67,0,0,1,.33.27,18,18,0,0,0,2.6,3.32,2.4,2.4,0,0,0,2.79.41l2.21-1.1a.65.65,0,0,1,.93.44l.94,4.14a9.05,9.05,0,0,1-5.16,10.26Z"/><path d="M185.34,62.69a.67.67,0,0,1-.59-.37.66.66,0,0,1,.31-.88,4.63,4.63,0,0,0,2.81-4.93.65.65,0,0,1,.51-.77.66.66,0,0,1,.78.51,6,6,0,0,1-3.53,6.37A.59.59,0,0,1,185.34,62.69Z"/><path class="cls-1" d="M166.47,212.46a.65.65,0,0,1-.66-.66v-49a10.61,10.61,0,0,1,10.59-10.6h61.24a.66.66,0,0,1,0,1.32H176.4a9.29,9.29,0,0,0-9.28,9.28v49A.65.65,0,0,1,166.47,212.46Z"/><path class="cls-1" d="M160.57,277.66h6.37L167,165.05c0-4.9,3.11-8.86,6.93-8.85l63.25-.82-.28-7.54-63.67.2c-6.94,0-12.58,7.18-12.6,16.07Z"/><path d="M166.94,278.33h-6.37a.66.66,0,0,1-.65-.66L160,164.11c0-9.23,6-16.73,13.23-16.73h0l63.66-.19h0a.65.65,0,0,1,.65.63l.29,7.53a.7.7,0,0,1-.18.48.67.67,0,0,1-.47.2l-63.25.82h0c-3.46,0-6.27,3.68-6.28,8.2l-.08,112.62a.65.65,0,0,1-.2.47A.66.66,0,0,1,166.94,278.33ZM161.23,277h5.05l.09-112c0-5.25,3.41-9.51,7.58-9.51h0l62.56-.81-.24-6.23-63,.19h0c-6.56,0-11.9,6.92-11.92,15.43Z"/><path class="cls-1" d="M146.12,293.45c0-12.28,7.65-21.9,17.41-21.9s17.41,9.62,17.41,21.9-7.64,21.89-17.41,21.89S146.12,305.73,146.12,293.45Zm7.33,0c0,8.28,4.62,15.28,10.08,15.28s10.08-7,10.08-15.28-4.61-15.29-10.08-15.29S153.45,285.16,153.45,293.45Z"/><path d="M163.53,316c-10.13,0-18.06-9.91-18.06-22.55s7.93-22.56,18.06-22.56,18.07,9.91,18.07,22.56S173.66,316,163.53,316Zm0-43.79c-9.39,0-16.75,9.33-16.75,21.24s7.36,21.24,16.75,21.24,16.76-9.33,16.76-21.24S172.93,272.21,163.53,272.21Zm0,37.18c-5.82,0-10.73-7.3-10.73-15.94s4.91-15.95,10.73-15.95,10.74,7.3,10.74,15.95S169.35,309.39,163.53,309.39Zm0-30.57c-5.1,0-9.42,6.7-9.42,14.63s4.32,14.63,9.42,14.63,9.43-6.7,9.43-14.63S168.64,278.82,163.53,278.82Z"/><path class="cls-1" d="M156.36,117.29h-5.12l7.39,20c0,1.21-1,1.06-2.16,1L137.71,138a2.68,2.68,0,0,0-3.09,2.24l-.21,6.29h4.15l-.11-2.56a1.92,1.92,0,0,1,1.92-1.6l20,.49a1.57,1.57,0,0,0,.29,0,4.06,4.06,0,0,0,3.27-5.5Z"/><path d="M138.56,147.22h-4.15a.67.67,0,0,1-.48-.2.66.66,0,0,1-.18-.48l.21-6.28a3.19,3.19,0,0,1,1-2,3.52,3.52,0,0,1,2.77-.84l19,.32a2.75,2.75,0,0,0,1.12-.08.39.39,0,0,0,.05-.19l-7.34-19.92a.62.62,0,0,1,.08-.6.63.63,0,0,1,.53-.28h5.12a.65.65,0,0,1,.61.42l7.62,20.09a4.71,4.71,0,0,1-.39,4.18,4.59,4.59,0,0,1-3.42,2.21l-.39,0-20-.49a1.48,1.48,0,0,0-1,.42.8.8,0,0,0-.27.52l.11,2.53a.66.66,0,0,1-.18.48A.67.67,0,0,1,138.56,147.22Zm-3.48-1.31h2.8L137.8,144a2.08,2.08,0,0,1,.67-1.49,2.68,2.68,0,0,1,1.92-.8l20,.5.2,0a3.27,3.27,0,0,0,2.45-1.58,3.45,3.45,0,0,0,.28-3L155.91,118h-3.72l7.06,19.15a.62.62,0,0,1,0,.23,1.66,1.66,0,0,1-.45,1.24,2.76,2.76,0,0,1-2.08.46h-.31l-18.75-.32a2.25,2.25,0,0,0-1.76.46,2,2,0,0,0-.67,1.13Z"/><rect class="cls-1" x="71.64" y="49.36" width="70.89" height="30.02" rx="3.38"/><path d="M139.15,80H75a4,4,0,0,1-4-4V52.74a4,4,0,0,1,4-4H87.67a.66.66,0,0,1,0,1.32H75a2.72,2.72,0,0,0-2.73,2.72V76A2.73,2.73,0,0,0,75,78.73h64.13A2.72,2.72,0,0,0,141.87,76V52.74A2.72,2.72,0,0,0,139.15,50h-43a.66.66,0,0,1,0-1.32h43a4,4,0,0,1,4,4V76A4,4,0,0,1,139.15,80Z"/><path d="M133.17,61.09h-51a.66.66,0,1,1,0-1.31h51a.66.66,0,0,1,0,1.31Z"/><path d="M133.17,67.9H122.51a.66.66,0,1,1,0-1.31h10.66a.66.66,0,0,1,0,1.31Z"/><path d="M115.7,67.9H82.2a.66.66,0,1,1,0-1.31h33.5a.66.66,0,1,1,0,1.31Z"/></svg>