<svg id="Capa_1" data-name="Capa 1" xmlns="http://www.w3.org/2000/svg" xmlns:xlink="http://www.w3.org/1999/xlink" viewBox="0 0 352 330"><defs><style>.cls-1{fill:none;}.cls-2{clip-path:url(#clip-path);}.cls-3{fill:#fff;}</style><clipPath id="clip-path"><rect class="cls-1" x="17" width="313" height="313"/></clipPath></defs><g class="cls-2"><polygon class="cls-3" points="248.49 203.31 239.94 290.83 233.84 290.57 236.87 198.56 248.49 203.31"/><path d="M239.94,291.39h0l-6.1-.25a.57.57,0,0,1-.54-.58l3-92a.56.56,0,0,1,.77-.51l11.62,4.75a.57.57,0,0,1,.35.57l-8.55,87.53A.56.56,0,0,1,239.94,291.39ZM234.42,290l5,.21,8.46-86.58-10.48-4.28Z"/><polygon class="cls-3" points="133.84 200.16 142.18 291.05 148.48 290.57 145.45 195.25 133.84 200.16"/><path d="M142.18,291.61a.56.56,0,0,1-.56-.51l-8.34-90.89a.55.55,0,0,1,.34-.57l11.61-4.91a.55.55,0,0,1,.53,0,.59.59,0,0,1,.26.46l3,95.33a.57.57,0,0,1-.52.58l-6.31.47Zm-7.74-91.09,8.25,89.93,5.21-.4-3-94Z"/><polygon class="cls-3" points="104.8 178.77 107.25 274.21 112.18 273.14 116.69 174.23 104.8 178.77"/><path d="M107.26,274.78a.56.56,0,0,1-.35-.13.58.58,0,0,1-.22-.42l-2.45-95.44a.55.55,0,0,1,.36-.54l11.89-4.54a.56.56,0,0,1,.53.07.55.55,0,0,1,.24.48l-4.52,98.91a.56.56,0,0,1-.44.53l-4.93,1.06Zm-1.89-95.62,2.43,94.36,3.84-.83,4.45-97.62Z"/><polygon class="cls-3" points="201.02 176.64 203.47 272.08 208.59 272.11 212.91 172.1 201.02 176.64"/><path class="cls-3" d="M176.3,102.1v22.21c0,21.72,17.13,39.32,38.26,39.32s38.25,17.61,38.25,39.33a3.5,3.5,0,0,1-3.49,3.5H148c-31.67,0-57.35-26.39-57.35-59V100.12c0-13,10.21-23.44,22.81-23.44h38.06C165.22,76.68,176.3,88.06,176.3,102.1Z"/><path d="M249.32,207H148c-31.93,0-57.92-26.7-57.92-59.51V100.12c0-13.24,10.49-24,23.38-24h38.06c13.95,0,25.3,11.66,25.3,26v22.21c0,21.37,16.91,38.76,37.7,38.76,21.4,0,38.82,17.89,38.82,39.89A4.06,4.06,0,0,1,249.32,207ZM113.5,77.24c-12.27,0-22.25,10.27-22.25,22.88v47.39c0,32.19,25.48,58.39,56.79,58.39H249.32a2.94,2.94,0,0,0,2.93-2.94c0-21.38-16.91-38.77-37.69-38.77-21.41,0-38.83-17.89-38.83-39.88V102.1c0-13.71-10.84-24.86-24.17-24.86Z"/><path d="M80.88,60.66a7.66,7.66,0,0,1-3.78-3.29c-1.27-2.27-2-5.91.91-11.11,6.46-11.73,17.25-6.18,21.38-7.54,9.26-3,7.07-8,10.83-12.91,2.81-3.64,12.52-10.5,27.27,2.28,0,0,6.63,9,14.14,5.6,9.22-4.23,27.76,5.34,21.9,19.55a16.84,16.84,0,0,1-8.44,9,21.9,21.9,0,0,1-2.2.88,7.37,7.37,0,0,0-4.68,5.52c-1.89,8.66-9,25.37-35.52,8.55a6.65,6.65,0,0,0-6.44-.47c-2.54,1.18-5.29,5.75-17.54,3.82C90.84,79.27,88.34,70.12,86.26,66A10.71,10.71,0,0,0,80.88,60.66Z"/><path class="cls-3" d="M217.12,124.56c-10.42,3.26-30.38-5.78-33.78-20.94-2.7-12-6.92-18.13-8.55-20.14a15.61,15.61,0,0,0-3.16-3.78c-9.71-8.53-26.52-5.76-33.79-4.57-8.25,1.36-15.09,2.48-19.74,7.72a14.41,14.41,0,0,0-2.71,4.39h0c-8.88,16.72-1.68,34,2.75,42,.74,32-9.84,27-7,41.16,4,20,36.25,12.53,48,10,4.11-.89,25.64,5.5,30.91-11.11,3.07-9.69-2.77-14.17-7.92-30.66,26.39,16.41,46-11.57,46-11.57l2-9.81A37.58,37.58,0,0,1,217.12,124.56Z"/><path d="M134,184.41c-6.24,0-12.27-1-16.72-3.89a15.09,15.09,0,0,1-6.68-10.05c-1.28-6.37.06-9,1.91-12.61,2.3-4.51,5.46-10.68,5.07-28.51-4.84-8.73-11.53-25.74-2.7-42.37a14.8,14.8,0,0,1,2.79-4.51c4.78-5.38,11.86-6.55,20.07-7.89,7.28-1.2,24.34-4,34.25,4.7a15.72,15.72,0,0,1,3.25,3.88c1.72,2.13,5.94,8.31,8.64,20.33,1.46,6.53,6.4,12.64,13.53,16.76,6.75,3.89,14.42,5.38,19.54,3.78a37.2,37.2,0,0,0,12.81-7.26.56.56,0,0,1,.66-.08.55.55,0,0,1,.28.6l-2,9.81a.4.4,0,0,1-.09.21,48.69,48.69,0,0,1-13.27,12.1c-7.38,4.45-18.87,8-32.2.4a129.36,129.36,0,0,0,4.73,12.06c2.89,6.62,4.8,11,2.73,17.52-4.28,13.51-18.95,12.29-26.83,11.63a21.39,21.39,0,0,0-4.49-.14l-.73.16C152.69,182.32,143.12,184.41,134,184.41ZM115.85,87.56c-8.58,16.22-1.94,32.88,2.79,41.37a.59.59,0,0,1,.07.26c.41,18.21-2.82,24.55-5.19,29.18-1.81,3.55-3,5.89-1.8,11.88a14,14,0,0,0,6.18,9.33c10.56,6.89,30.7,2.48,40.38.36l.73-.16a20.28,20.28,0,0,1,4.82.12c8.1.67,21.66,1.8,25.67-10.85,1.94-6.13.2-10.12-2.69-16.73a125.57,125.57,0,0,1-5.23-13.59.58.58,0,0,1,.19-.62.57.57,0,0,1,.64,0c10.75,6.68,21.61,6.81,32.29.38a47.91,47.91,0,0,0,12.9-11.7l1.67-8.09a38.21,38.21,0,0,1-12,6.43c-5.4,1.69-13.42.17-20.43-3.87-7.41-4.28-12.54-10.65-14.07-17.49-2.66-11.86-6.79-17.87-8.44-19.91l0-.07a14.52,14.52,0,0,0-3.05-3.63c-9.5-8.36-26.19-5.61-33.32-4.44-8.32,1.36-14.89,2.44-19.41,7.53a13.73,13.73,0,0,0-2.61,4.22A.27.27,0,0,1,115.85,87.56Zm101.27,37h0Z"/><path class="cls-3" d="M171.06,122s19-6.93,24.95-19.6L208.24,91s-.17,5.51-3.8,7.81c0,0,3.11,6.28-1.49,10.62,0,0-3.45,2.74-5.51,2.79,0,0-6,19.79-22.29,25.69A29,29,0,0,1,171.06,122Z"/><path d="M175.15,138.42a.56.56,0,0,1-.47-.25,29.21,29.21,0,0,1-4.18-16.25.56.56,0,0,1,.37-.5c.19-.07,18.86-7,24.63-19.31a.66.66,0,0,1,.12-.17l12.24-11.4a.53.53,0,0,1,.61-.1.55.55,0,0,1,.33.53c0,.23-.21,5.44-3.67,8,.63,1.57,2.32,6.94-1.79,10.82-.17.14-3.26,2.58-5.48,2.91-.93,2.74-7.4,20.21-22.52,25.69A.63.63,0,0,1,175.15,138.42Zm-3.54-16.07a28.75,28.75,0,0,0,3.78,14.82c15.5-5.93,21.46-25,21.51-25.16a.59.59,0,0,1,.53-.4c1.53,0,4.25-1.94,5.17-2.67,4.2-4,1.45-9.69,1.33-9.93a.55.55,0,0,1,.2-.72c2.22-1.41,3.06-4.17,3.37-5.88l-11,10.28C190.83,114.56,174.32,121.31,171.61,122.35Z"/><path d="M153.93,144.15c-15.84,0-24.93-7.85-25.05-8a.56.56,0,0,1,.74-.84c.16.14,16.34,14.05,43.27,4.06a.56.56,0,0,1,.39,1.06A55.55,55.55,0,0,1,153.93,144.15Z"/><path d="M163.65,122.71c-13.8,0-21.83-7.85-26.23-14.78A49.58,49.58,0,0,1,130.85,91a.56.56,0,1,1,1.11-.17,48.74,48.74,0,0,0,6.43,16.48c6.73,10.59,16.52,15.32,29.08,14a.56.56,0,0,1,.62.5.57.57,0,0,1-.51.62A38.32,38.32,0,0,1,163.65,122.71Z"/><path d="M174.35,112.74h-.08a.57.57,0,0,1-.48-.64c2.49-17-5.28-26.57-5.36-26.66a.58.58,0,0,1,.08-.8.57.57,0,0,1,.79.08c.33.4,8.17,10.05,5.61,27.54A.57.57,0,0,1,174.35,112.74Z"/><path class="cls-3" d="M170.84,65.05c-.52-3.53.32-12.91.17-12.68-1.52,2.22-6.5-.41-11-.59s-3,6.57-3,6.57-1.32-4.58-4.12-1.71c-1.62,1.66.17,3.8,1.84,5.2-.46.53-8.55,9.24-13.5,14.42l11,8.33,5.49-5.13-1.12-1.79a4.27,4.27,0,0,1-.19-4.21l2.69-4.56A12.43,12.43,0,0,0,161.25,71a3.45,3.45,0,0,0,4.47-.37,12.68,12.68,0,0,0,3.5-5.31Z"/><path d="M152.26,85.16a.54.54,0,0,1-.34-.12l-11-8.33a.6.6,0,0,1-.22-.41.58.58,0,0,1,.16-.43c4.52-4.73,11.38-12.12,13.09-14-1.06-1-2.16-2.3-2.23-3.65a2.61,2.61,0,0,1,.8-2,2.75,2.75,0,0,1,2.64-1.05,2.4,2.4,0,0,1,1.07.62,5.63,5.63,0,0,1,1-3.47,3.25,3.25,0,0,1,2.79-1.12,28.4,28.4,0,0,1,5,.83c2.53.59,4.72,1.09,5.46,0a.58.58,0,0,1,.65-.22c.45.15.45.15.31,2.62-.16,2.84-.46,8.12-.1,10.52a.57.57,0,0,1-.46.64l-1.29.22a13.59,13.59,0,0,1-3.54,5.22,4,4,0,0,1-5.18.42,10.41,10.41,0,0,1-1.71-1.6l-2.29,3.88a3.71,3.71,0,0,0,.18,3.62l1.12,1.79a.57.57,0,0,1-.09.71L152.64,85A.54.54,0,0,1,152.26,85.16Zm-10.14-9,10.1,7.67,4.81-4.5L156.16,78a4.88,4.88,0,0,1-.22-4.77l2.71-4.58a.58.58,0,0,1,.44-.28.59.59,0,0,1,.48.2,10.89,10.89,0,0,0,2,2,2.88,2.88,0,0,0,3.77-.3,12.15,12.15,0,0,0,3.34-5.08.57.57,0,0,1,.44-.39l1.1-.18a82.68,82.68,0,0,1,.15-10.2c0-.29,0-.58,0-.84-1.35.58-3.35.12-5.59-.4a28,28,0,0,0-4.83-.81,2.2,2.2,0,0,0-1.88.72c-1.09,1.31-.75,4.17-.52,5.16a.58.58,0,0,1-.41.67.56.56,0,0,1-.68-.39c-.15-.51-.76-2-1.62-2.22q-.66-.16-1.56.75a1.48,1.48,0,0,0-.47,1.15c0,.89.85,2,2.27,3.23a.55.55,0,0,1,.2.39.6.6,0,0,1-.14.42C154.77,62.7,147.19,70.87,142.12,76.19Z"/><path class="cls-3" d="M158.27,67.7l.86,1.2Z"/><path d="M159.13,69.47a.59.59,0,0,1-.46-.24l-.85-1.2a.56.56,0,1,1,.91-.65l.86,1.2a.56.56,0,0,1-.13.78A.57.57,0,0,1,159.13,69.47Z"/><path class="cls-3" d="M253.76,245.76c-.11.44,5.15,24.52,5.15,24.52l-12.09-2-3.64-20.35Z"/><path d="M258.91,270.84h-.09l-12.09-2a.57.57,0,0,1-.47-.46L242.62,248a.56.56,0,0,1,.44-.65l10.59-2.15a.57.57,0,0,1,.51.17.53.53,0,0,1,.16.41c.08,1,3.11,15.09,5.14,24.38a.57.57,0,0,1-.14.51A.58.58,0,0,1,258.91,270.84Zm-11.61-3.08,10.88,1.83c-3.59-16.46-4.61-21.54-4.88-23.17l-9.47,1.92Z"/><path class="cls-3" d="M252.49,262.38a5.26,5.26,0,0,1,3.14-1.29,5.05,5.05,0,0,1,4.72,3.05c2.09,4.66,7.62,17.64,9.18,28.25.56,3.75-2.27,6.8-6.68,4.35-7.23-4-17.25-13.28-22.5-26.93a4.94,4.94,0,0,1,.6-4.69,23.59,23.59,0,0,1,3.18-3.58,3.29,3.29,0,0,1,4.3-.07l1.14.93A2.28,2.28,0,0,0,252.49,262.38Z"/><path d="M265.83,298.19a6.75,6.75,0,0,1-3.26-1C255,293,245.07,283.65,239.82,270a5.47,5.47,0,0,1,.68-5.22,23.46,23.46,0,0,1,3.25-3.67,3.84,3.84,0,0,1,5-.09l1.14.94a1.72,1.72,0,0,0,2.2,0,5.86,5.86,0,0,1,3.48-1.42,5.64,5.64,0,0,1,5.25,3.38c2.26,5,7.67,17.82,9.23,28.4a5.21,5.21,0,0,1-1.87,5.16A4.23,4.23,0,0,1,265.83,298.19Zm-19.52-36.93a2.68,2.68,0,0,0-1.81.7,22.12,22.12,0,0,0-3.09,3.49,4.36,4.36,0,0,0-.54,4.16c5.14,13.36,14.86,22.52,22.25,26.64,1.75,1,3.33,1.07,4.46.29a4.1,4.1,0,0,0,1.4-4.06c-1.54-10.44-6.91-23.14-9.15-28.11a4.46,4.46,0,0,0-4.17-2.71,4.63,4.63,0,0,0-2.81,1.15,2.84,2.84,0,0,1-3.64,0l-1.13-.94A2.83,2.83,0,0,0,246.31,261.26Z"/><path d="M266.78,294c-.95,0-11.15-.59-23.51-25a.57.57,0,0,1,1-.51c12.39,24.49,22.41,24.42,22.52,24.41a.57.57,0,0,1,0,1.13Z"/><path d="M259,280.51a.56.56,0,0,1-.2-1.09l5.73-2.26a.56.56,0,0,1,.41,1l-5.73,2.26A.52.52,0,0,1,259,280.51Z"/><path d="M257,276.12a.57.57,0,0,1-.53-.36.57.57,0,0,1,.32-.73l6.72-2.62a.57.57,0,0,1,.73.32.56.56,0,0,1-.32.73l-6.72,2.62A.51.51,0,0,1,257,276.12Z"/><path class="cls-3" d="M201.72,247.94c-.28.36-5.63,24.42-5.63,24.42L186,265.44l5.25-20Z"/><path d="M196.09,272.92a.5.5,0,0,1-.31-.1l-10.13-6.92a.56.56,0,0,1-.22-.6l5.25-20a.56.56,0,0,1,.67-.41l10.51,2.51a.58.58,0,0,1,.4.36.56.56,0,0,1,0,.44c-.34,1-3.52,15-5.58,24.28a.57.57,0,0,1-.34.4A.52.52,0,0,1,196.09,272.92Zm-9.47-7.72,9.1,6.22c3.66-16.44,4.87-21.48,5.31-23.06l-9.4-2.25Z"/><path class="cls-3" d="M193.59,262.49a5.2,5.2,0,0,1,3.39.16,5,5,0,0,1,3,4.74c-.06,5.11-.5,19.22-3.54,29.5-1.08,3.64-4.93,5.21-7.9,1.13-4.86-6.69-10.07-19.29-9.09-33.89a4.93,4.93,0,0,1,2.52-4,23.58,23.58,0,0,1,4.38-1.92,3.32,3.32,0,0,1,3.94,1.75l.64,1.33A2.28,2.28,0,0,0,193.59,262.49Z"/><path d="M192.44,301c-1.12,0-2.76-.47-4.35-2.65-5.09-7-10.18-19.67-9.2-34.25a5.46,5.46,0,0,1,2.8-4.46,23.94,23.94,0,0,1,4.5-2,3.84,3.84,0,0,1,4.61,2l.64,1.32a1.71,1.71,0,0,0,2,.91,5.77,5.77,0,0,1,3.75.18,5.61,5.61,0,0,1,3.35,5.27c-.06,5.5-.53,19.4-3.56,29.65a5.2,5.2,0,0,1-3.87,3.89A3.33,3.33,0,0,1,192.44,301Zm-5.12-42.37a2.72,2.72,0,0,0-.8.12,22.67,22.67,0,0,0-4.28,1.87,4.36,4.36,0,0,0-2.23,3.55c-1,14.28,4,26.68,9,33.52,1.17,1.62,2.56,2.38,3.92,2.14a4.11,4.11,0,0,0,3-3.1c3-10.12,3.45-23.89,3.51-29.34a4.47,4.47,0,0,0-2.65-4.22,4.59,4.59,0,0,0-3-.13,2.86,2.86,0,0,1-3.31-1.51l-.64-1.32A2.73,2.73,0,0,0,187.32,258.63Z"/><path d="M193.55,297.23a.54.54,0,0,1-.21-.05c-.41-.17-9.9-4.48-10.87-32.62a.56.56,0,1,1,1.12,0c.95,27.43,10.09,31.58,10.18,31.62a.57.57,0,0,1-.22,1.09Z"/><path d="M198.3,282.11h0l-6.15-.36a.56.56,0,0,1,.06-1.12l6.16.35a.56.56,0,0,1,.52.6A.55.55,0,0,1,198.3,282.11Z"/><path d="M199.37,277.37h0l-7.2-.45a.57.57,0,0,1-.53-.6.56.56,0,0,1,.6-.52l7.2.45a.56.56,0,0,1,0,1.12Z"/><path d="M145.17,153.13s73.63-3.2,81.68,4.28C237.77,167.55,256.53,252,256.53,252L238.41,257s-27.29-69.28-34-69.28-70.51-2.27-70.51-2.27Z"/><path d="M140.3,151.29a12.11,12.11,0,0,0-12.39,9.25c-2.12,8.78-4,20.78.79,24,7.73,5.2,63.43,4.76,61.5,4.11s-5,46.68-5,64.88l17.53.68s27.95-73.2,24.94-81.37c-5.39-14.62-46.88-18-60.15-19.93C165.75,152.62,150.61,151.82,140.3,151.29Z"/><path class="cls-3" d="M218.43,213.08a.47.47,0,0,1-.17,0,.56.56,0,0,1-.37-.7c.63-2,1.26-3.91,1.87-5.81,4.91-15.16,9.15-28.26,7.4-33.55-3.73-11.25-31.59-15.56-40.75-17a.55.55,0,0,1-.47-.64.56.56,0,0,1,.64-.47c16.19,2.5,38.11,7.07,41.65,17.73,1.87,5.65-2.22,18.27-7.39,34.26q-.93,2.85-1.87,5.8A.57.57,0,0,1,218.43,213.08Z"/><path d="M376.85,257.65a39.39,39.39,0,0,1-.46,11.07,6,6,0,0,1-5.92,4.72h-33.7a2.58,2.58,0,0,1-1.66-4.56c6-5,17-12.7,30.57-15l3.78,5.3Z"/><path class="cls-3" d="M373.3,269.36H338.37a.56.56,0,1,1,0-1.12H373.3a.56.56,0,0,1,0,1.12Z"/><path class="cls-3" d="M351.78,264.33a.57.57,0,0,1-.54-.39l-1.33-4.05a.56.56,0,1,1,1.07-.35l1.33,4a.56.56,0,0,1-.35.71Z"/><path class="cls-3" d="M192.49,151.55H474.36c5.25,0,9.33,3.46,8.74,7.4L463.64,288.08H449.58l12.19-121.19c.21-2.14-2-4-4.86-4H215c-4.24,0-7.58,2.73-7.26,5.92l12.06,120H205.7L185.9,157.13C185.45,154.16,188.53,151.55,192.49,151.55Z"/><path d="M219.75,289.4H205.7a.56.56,0,0,1-.56-.48l-19.8-131.71a4.65,4.65,0,0,1,1.16-3.74,7.94,7.94,0,0,1,6-2.48H474.36a10.36,10.36,0,0,1,7.81,3.22,6,6,0,0,1,1.49,4.82L464.19,288.16a.56.56,0,0,1-.55.48H449.58a.6.6,0,0,1-.42-.18A.63.63,0,0,1,449,288l12.19-121.19a2.52,2.52,0,0,0-.69-1.92,4.91,4.91,0,0,0-3.61-1.42H215a7.58,7.58,0,0,0-5.6,2.22,4,4,0,0,0-1.1,3.08l12.06,120a.55.55,0,0,1-.14.43A.57.57,0,0,1,219.75,289.4Zm-13.57-1.13h12.95l-12-119.36a5.14,5.14,0,0,1,1.38-4,8.75,8.75,0,0,1,6.44-2.58h242a6,6,0,0,1,4.44,1.79,3.58,3.58,0,0,1,1,2.78L450.2,287.52h12.95l19.39-128.65a4.78,4.78,0,0,0-1.23-3.92,9.14,9.14,0,0,0-6.95-2.83H192.49a6.82,6.82,0,0,0-5.14,2.08,3.52,3.52,0,0,0-.89,2.85Z"/><path class="cls-3" d="M183.5,148.15h81.87a0,0,0,0,1,0,0v2.76a1.64,1.64,0,0,1-1.64,1.64h-78.6a1.64,1.64,0,0,1-1.64-1.64v-2.76a0,0,0,0,1,0,0Z"/><path d="M261.69,153.11h-74.5a4.25,4.25,0,0,1-4.25-4.25v-.71a.56.56,0,0,1,.56-.56h81.87a.57.57,0,0,1,.57.56v.71A4.26,4.26,0,0,1,261.69,153.11Zm-77.63-4.4v.15a3.13,3.13,0,0,0,3.13,3.12h74.5a3.12,3.12,0,0,0,3.12-3.12v-.15Z"/><path class="cls-3" d="M265.37,148.23H218.53l14.88-43.81a4.9,4.9,0,0,1,4.11-2.21h39.6a2.46,2.46,0,0,1,2.37,3.29c-.23.61-.48,1.21-.69,1.84Z"/><path d="M265.37,148.79H218.53a.56.56,0,0,1-.46-.23.58.58,0,0,1-.08-.51l14.89-43.81a.31.31,0,0,1,.06-.13,5.43,5.43,0,0,1,4.58-2.46h39.6a3,3,0,0,1,2.56,1.33,3,3,0,0,1,.34,2.72l-.2.52c-.17.42-.34.86-.48,1.29l-13.43,40.9A.56.56,0,0,1,265.37,148.79Zm-46.06-1.12H265l13.3-40.51c.15-.46.33-.91.5-1.35l.2-.51a1.83,1.83,0,0,0-.22-1.69,2,2,0,0,0-1.63-.83h-39.6a4.31,4.31,0,0,0-3.6,1.89Z"/><path d="M248,124.63a3.07,3.07,0,1,0,3.93-2.47A3.3,3.3,0,0,0,248,124.63Z"/></g></svg>