<svg id="Capa_1" data-name="Capa 1" xmlns="http://www.w3.org/2000/svg" viewBox="0 0 352 330"><defs><style>.cls-1{fill:#fff;}</style></defs><path d="M197,284.06H172.16a7.28,7.28,0,0,1-7.33-5.5L149.12,212.3a.47.47,0,1,1,.92-.22l15.71,66.26a6.28,6.28,0,0,0,6.41,4.77H197a.48.48,0,0,1,.47.48A.47.47,0,0,1,197,284.06Z"/><path class="cls-1" d="M243.43,271.48c-3.64-7.49-4-15.05,0-22.68l-2.86-3.43-78.3,2.57,2.7,24.88,75.79.87Z"/><path d="M240.76,274.17h0l-75.8-.88a.48.48,0,0,1-.47-.42L161.79,248a.49.49,0,0,1,.12-.37.44.44,0,0,1,.34-.16l78.31-2.58a.52.52,0,0,1,.38.17l2.86,3.44a.49.49,0,0,1,.06.52c-3.77,7.21-3.77,14.49,0,22.25a.47.47,0,0,1-.12.58l-2.67,2.21A.51.51,0,0,1,240.76,274.17Zm-75.37-1.82,75.2.87,2.25-1.87c-3.64-7.72-3.64-15.28,0-22.49l-2.52-3-77.56,2.55Z"/><path class="cls-1" d="M99.55,242.63H244.89a3.08,3.08,0,0,1,0,6.15H178.07a8.86,8.86,0,0,0-8.86,8.86v5a8.86,8.86,0,0,0,8.86,8.86h66.82a3.08,3.08,0,0,1,0,6.15H99.55A16.34,16.34,0,0,1,83.21,261.3V259A16.34,16.34,0,0,1,99.55,242.63Z"/><path d="M244.89,278.11H99.55A16.83,16.83,0,0,1,82.74,261.3V259a16.83,16.83,0,0,1,16.81-16.81H244.89a3.56,3.56,0,0,1,0,7.11H178.07a8.39,8.39,0,0,0-8.38,8.38v5a8.4,8.4,0,0,0,8.38,8.39h66.82a3.55,3.55,0,0,1,0,7.1Zm-145.34-35A15.87,15.87,0,0,0,83.69,259v2.34a15.88,15.88,0,0,0,15.86,15.86H244.89a2.6,2.6,0,1,0,0-5.2H178.07a9.35,9.35,0,0,1-9.34-9.34v-5a9.34,9.34,0,0,1,9.34-9.33h66.82a2.6,2.6,0,1,0,0-5.2Z"/><path d="M207,255.85h-5.73a.47.47,0,0,1-.47-.47.48.48,0,0,1,.47-.48H207a.48.48,0,0,1,.47.48A.47.47,0,0,1,207,255.85Z"/><path d="M240.85,255.85h-30.3a.48.48,0,0,1-.48-.47.49.49,0,0,1,.48-.48h30.3a.48.48,0,0,1,.47.48A.47.47,0,0,1,240.85,255.85Z"/><path d="M240.57,259.56H204.72a.48.48,0,0,1,0-.95h35.85a.48.48,0,0,1,0,.95Z"/><path d="M202.22,266.2h-6.51a.48.48,0,1,1,0-.95h6.51a.48.48,0,1,1,0,.95Z"/><path d="M240.85,266.2H205a.48.48,0,0,1,0-.95h35.85a.48.48,0,0,1,0,.95Z"/><path class="cls-1" d="M241.17,313.39H109.9V281.23H241.17C237.3,292.09,237.19,302.82,241.17,313.39Z"/><path d="M241.17,313.86H109.9a.47.47,0,0,1-.48-.47V281.23a.47.47,0,0,1,.48-.48H241.17a.48.48,0,0,1,.45.64,45.08,45.08,0,0,0,0,31.83.49.49,0,0,1-.06.44A.45.45,0,0,1,241.17,313.86Zm-130.8-.95H240.49a46,46,0,0,1,0-31.21H110.37Z"/><path d="M125.7,282.81H242.08a2.53,2.53,0,1,0,0-5.06h-151a11.13,11.13,0,0,0-11.14,11.13v17.51a11.13,11.13,0,0,0,11.14,11.13h151a2.53,2.53,0,0,0,0-5.06H125.7a7.87,7.87,0,0,1-7.87-7.87V290.68A7.87,7.87,0,0,1,125.7,282.81Z"/><path d="M242.08,318h-151a11.63,11.63,0,0,1-11.61-11.61V288.88a11.63,11.63,0,0,1,11.61-11.61h151a3,3,0,1,1,0,6H125.7a7.4,7.4,0,0,0-7.39,7.39v13.91A7.39,7.39,0,0,0,125.7,312H242.08a3,3,0,1,1,0,6Zm-151-39.78A10.67,10.67,0,0,0,80.4,288.88v17.51a10.67,10.67,0,0,0,10.66,10.66h151a2.06,2.06,0,0,0,0-4.12H125.7a8.35,8.35,0,0,1-8.34-8.34V290.68a8.35,8.35,0,0,1,8.34-8.34H242.08a2.06,2.06,0,0,0,0-4.12Z"/><path d="M238.85,289.34H219.47a.48.48,0,1,1,0-.95h19.38a.48.48,0,1,1,0,.95Z"/><path d="M216.14,289.34H180.91a.48.48,0,1,1,0-.95h35.23a.48.48,0,1,1,0,.95Z"/><path d="M238.44,293.63H190a.48.48,0,0,1,0-.95h48.44a.48.48,0,1,1,0,.95Z"/><path d="M185.9,293.63H176a.48.48,0,0,1,0-.95h9.86a.48.48,0,1,1,0,.95Z"/><path d="M238.44,302.59H187.08a.48.48,0,1,1,0-.95h51.36a.48.48,0,1,1,0,.95Z"/><path d="M183.47,302.59h-2.56a.48.48,0,1,1,0-.95h2.56a.48.48,0,0,1,0,.95Z"/><path d="M260.64,295.34h0c.06,0,10.29-3.3,27-35.75,14.16-27.48,1.53-54-1-71.81a1.73,1.73,0,0,0-3.35-.34c-4.25,11.93-11.08,33.64-10,47C274.91,253.67,260.68,295.23,260.64,295.34Z"/><path d="M271.74,277.54h0l3.65-28.84a65.86,65.86,0,0,0-5.9-36.61,65.78,65.78,0,0,1-1.71-52.79l5.86-14.64a1.78,1.78,0,0,0-3-1.88l-8.23,9.05A78,78,0,0,0,246,228l15.16,47.52h0Z"/><path class="cls-1" d="M273.5,264.12a.47.47,0,0,1-.34-.15.51.51,0,0,1-.13-.43l1.89-14.9a65.32,65.32,0,0,0-1.12-22.73.48.48,0,0,1,.36-.57.49.49,0,0,1,.57.36,66.47,66.47,0,0,1,1.13,23.06L274,263.7A.48.48,0,0,1,273.5,264.12Z"/><path d="M267,278.49h0l-12.65-32.33a32.12,32.12,0,0,0-20.56-19.06l-8.63-2.61a2,2,0,0,0-1.77,3.48l5.31,4.13a24.29,24.29,0,0,1,9.33,18.64,24.26,24.26,0,0,0,3.54,12.17L250.18,277h0Z"/><path class="cls-1" d="M265.16,263.78h0a.46.46,0,0,1-.43-.51c1.93-20.64-2.22-33.93-5.87-45.66a123.21,123.21,0,0,1-4.24-16c-4.48-26,10.78-48.52,10.94-48.75a.48.48,0,0,1,.66-.12.47.47,0,0,1,.12.66c-.15.22-15.19,22.46-10.78,48.05a122.58,122.58,0,0,0,4.2,15.92c3.69,11.81,7.86,25.19,5.92,46A.49.49,0,0,1,265.16,263.78Z"/><path class="cls-1" d="M259.79,254.26a.48.48,0,0,1-.45-.33c-1.63-5-5.33-10.09-8.14-13.54a.48.48,0,0,1,.17-.73.5.5,0,0,1,.58.15c2.86,3.51,6.62,8.74,8.29,13.83a.47.47,0,0,1-.3.6Z"/><path class="cls-1" d="M282,250h-.08a.48.48,0,0,1-.39-.55c3.45-20.39,2.25-51.77,2.24-52.08a.49.49,0,0,1,.46-.5.48.48,0,0,1,.49.46c0,.32,1.21,31.8-2.25,52.28A.48.48,0,0,1,282,250Z"/><path class="cls-1" d="M251.8,266.86a.47.47,0,0,1-.47-.47c-.25-25.36-20.53-36.53-20.73-36.64a.47.47,0,0,1-.19-.64.48.48,0,0,1,.64-.2c.21.12,21,11.53,21.23,37.47a.47.47,0,0,1-.47.48Z"/><path class="cls-1" d="M254.55,219.35a.5.5,0,0,1-.38-.19c-5.49-7-7.93-16.59-7.95-16.68a.48.48,0,0,1,.35-.58.47.47,0,0,1,.57.35c0,.09,2.42,9.44,7.78,16.33a.48.48,0,0,1-.08.67A.53.53,0,0,1,254.55,219.35Z"/><path class="cls-1" d="M240.07,270.67H288a0,0,0,0,1,0,0v27.93A17.44,17.44,0,0,1,270.57,316H257.51a17.44,17.44,0,0,1-17.44-17.44V270.67a0,0,0,0,1,0,0Z"/><path d="M272,316.52H256.11A16.51,16.51,0,0,1,239.59,300V270.67a.47.47,0,0,1,.48-.47H288a.48.48,0,0,1,.48.47V300A16.52,16.52,0,0,1,272,316.52Zm-31.43-45.37V300a15.57,15.57,0,0,0,15.57,15.56H272A15.57,15.57,0,0,0,287.54,300V271.15h-47Z"/><path d="M283.31,279.16H244.79a.49.49,0,0,1-.49-.36.48.48,0,0,1,.46-.59h38.53a.48.48,0,0,1,.48.36A.47.47,0,0,1,283.31,279.16Z"/><path d="M289.91,128.54a.42.42,0,0,1-.19.06.47.47,0,0,1-.5-.45C287.66,98.77,277,77.86,268.34,65.49c-9.38-13.39-18.48-19.91-18.57-20a.47.47,0,0,1-.12-.66.48.48,0,0,1,.67-.12c.09.07,9.33,6.68,18.8,20.21,8.74,12.47,19.48,33.54,21.05,63.15A.47.47,0,0,1,289.91,128.54Z"/><path d="M280.09,123a.3.3,0,0,1-.16,0,.47.47,0,0,1-.53-.41c-4.52-34.88-16-45.38-16.15-45.48a.48.48,0,0,1,.63-.72c.48.43,11.9,10.85,16.46,46.08A.47.47,0,0,1,280.09,123Z"/><path d="M255.26,67.34a.47.47,0,0,1-.68-.3.5.5,0,0,1,.25-.55l2.82-1.55a.47.47,0,1,1,.44.84l-2.82,1.56Z"/><path d="M245.34,72.81a.48.48,0,1,1-.43-.85l2.81-1.55a.47.47,0,1,1,.44.84l-2.81,1.55Z"/><path d="M249.85,65.77a.48.48,0,0,1-.65-.2l-1.49-2.81a.47.47,0,0,1,.19-.64h0a.48.48,0,0,1,.65.19L250,65.13a.47.47,0,0,1-.19.64Z"/><path d="M255.09,75.63a.48.48,0,0,1-.64-.2L253,72.61a.47.47,0,0,1,.19-.64h0a.48.48,0,0,1,.64.2L255.28,75a.48.48,0,0,1-.19.65Z"/><path d="M136.18,32.3a.48.48,0,0,1-.32-.26.47.47,0,0,1,.23-.63c13.06-6.18,38.59-16.36,62.85-15.22a.47.47,0,0,1,.45.49.48.48,0,0,1-.5.46c-24-1.13-49.42,9-62.4,15.13A.55.55,0,0,1,136.18,32.3Z"/><path d="M115.87,35a.5.5,0,0,1-.29-.21.48.48,0,0,1,.16-.66C140.49,19,160.76,16,161,16a.49.49,0,0,1,.54.41.47.47,0,0,1-.41.53c-.2,0-20.28,3-44.86,18A.46.46,0,0,1,115.87,35Z"/><path d="M209.49,23.47a4.44,4.44,0,0,1-1-.38,4.18,4.18,0,1,1,3.94-7.38,4.18,4.18,0,0,1-2.93,7.76Zm1.71-7.21a3.23,3.23,0,0,0-2.27,6,3.23,3.23,0,0,0,3-5.7A3.28,3.28,0,0,0,211.2,16.26Z"/><path d="M115.08,115.63a.39.39,0,0,1-.18,0l-3-1.26a.48.48,0,0,1,.37-.88l3,1.26a.49.49,0,0,1,.25.63A.48.48,0,0,1,115.08,115.63Z"/><path d="M104.64,111.22a.39.39,0,0,1-.18,0l-3-1.26a.48.48,0,0,1,.37-.88l3,1.26a.48.48,0,0,1,.25.63A.47.47,0,0,1,104.64,111.22Z"/><path d="M110,109.14a.41.41,0,0,1-.19,0,.47.47,0,0,1-.25-.62l1.29-2.92a.48.48,0,0,1,.62-.25.49.49,0,0,1,.25.63l-1.29,2.92A.47.47,0,0,1,110,109.14Z"/><path d="M105.48,119.36a.43.43,0,0,1-.19,0,.48.48,0,0,1-.24-.63l1.28-2.92a.48.48,0,0,1,.63-.24.48.48,0,0,1,.24.63l-1.28,2.92A.5.5,0,0,1,105.48,119.36Z"/><path d="M103.91,85.9a3.61,3.61,0,1,1,.92-7.1h0a3.61,3.61,0,0,1-.92,7.1Zm0-6.27a2.68,2.68,0,0,0-2.58,2,2.66,2.66,0,1,0,3.25-1.89A2.57,2.57,0,0,0,103.91,79.63Z"/><path d="M117.79,212.88s33.07,12.28,73.25-4.63c0,0,6.52,31.46-29.08,36.86S117.83,219.44,117.79,212.88Z"/><path class="cls-1" d="M189.52,198a13.36,13.36,0,0,1-4-4.43c-3.28-5.55-10.37-25.74-13.9-31.22a1.74,1.74,0,0,0-.11-.18,3.51,3.51,0,0,0-.64-.83l-.12-.1c-1.78-1.57-8.77-7-15.51-7.84-6.9-.86-22.49,1.73-28.34,9.39l0,0a35.48,35.48,0,0,0-9.3,27.54c.86,8.76,2.16,15.55,5.72,20.2a21,21,0,0,0,1.43,5.95c3.3,6.45,37.19,6.67,50.95-1.82,0,0-.24-4.13-.5-9.95,2.35,3.48,5.2,6.51,8.37,7.61.08,0,1.79-.58,1.87-.56,3,1,5-3,6.33-5.86A6.26,6.26,0,0,0,189.52,198Z"/><path d="M144.77,221.73a58.83,58.83,0,0,1-14.8-1.59c-3-.85-5-2-5.67-3.38a20.51,20.51,0,0,1-1.46-6c-3.57-4.73-4.88-11.56-5.75-20.34a35.72,35.72,0,0,1,9.42-27.9h0c6-7.88,21.94-10.42,28.78-9.57,6.23.77,13,5.54,15.76,7.95l.15.13a4.08,4.08,0,0,1,.71.92,2.12,2.12,0,0,1,.12.2c1.87,2.9,4.74,9.94,7.52,16.74,2.49,6.11,4.84,11.88,6.37,14.46a12.92,12.92,0,0,0,3.86,4.27,6.77,6.77,0,0,1,2.39,8.53c-1.27,2.67-3.39,7.11-6.78,6.15l-.74.23c-1,.33-1.08.35-1.27.28-2.57-.88-5.14-3-7.66-6.45.22,4.89.42,8.28.42,8.32a.46.46,0,0,1-.22.43C168.4,219.76,155.65,221.73,144.77,221.73Zm-17.52-58.6,0,0A34.78,34.78,0,0,0,118,190.35c.86,8.68,2.14,15.39,5.63,20a.43.43,0,0,1,.09.22,21.13,21.13,0,0,0,1.38,5.8c.58,1.13,2.34,2.13,5.09,2.89,11.21,3.14,34.48,1.51,45-4.76-.06-1-.27-4.77-.48-9.67a.47.47,0,0,1,.86-.29c2.67,3.94,5.36,6.42,8,7.38.17,0,.53-.16.78-.24.93-.3,1-.32,1.19-.27,2.47.78,4.27-2.49,5.76-5.62a5.82,5.82,0,0,0-2.05-7.33h0a13.8,13.8,0,0,1-4.16-4.58c-1.56-2.64-3.93-8.44-6.43-14.58-2.76-6.77-5.62-13.76-7.45-16.62a1.28,1.28,0,0,0-.1-.15l0-.05a3.13,3.13,0,0,0-.55-.71l-.09-.08c-.11-.1-7.77-6.81-15.28-7.75-6.65-.83-22.1,1.61-27.9,9.21Z"/><path d="M144.47,209a.46.46,0,0,1-.3-.11c-14-11.69-12.22-32.4-12.2-32.61a.48.48,0,0,1,.95.09c0,.2-1.71,20.42,11.86,31.79a.49.49,0,0,1,.06.67A.5.5,0,0,1,144.47,209Z"/><path d="M144.85,144.74c-2.89,1.19-5.37,2.17-8.66,1.79-.56-.07-7.55-1-8.52-5.28-.42-1.89-2.8-6.83-2.63-8.79a54.82,54.82,0,0,0-.32-9.23c-1.06-6.91,6.31-12,7.9-13,1.88-1.21,6.29-4,10.33-2.24a8,8,0,0,1,3.56,3.4,8.77,8.77,0,0,1,3.06-1.9c4.54-1.62,10,1,12.66,4.7a9,9,0,0,1,2.07,6c-.19,2.35-1.55,3.47-3.24,6-3.06,4.66-1.74,5.73-4.1,9.52C153.54,141.18,147.9,143.49,144.85,144.74Z"/><path class="cls-1" d="M142.48,143.87c.12.63,1.07,6.82-1.38,9.57a12.22,12.22,0,0,1-4.81,3.51s11.22,2.62,17.26,1.22,5.26-3,5.26-3l-3.42-1.79a3.12,3.12,0,0,1-1.65-3l.07-.72a8.12,8.12,0,0,0,5.83-1c3.32-2.07,3.65-6,3.69-7.11.07-2.23-.85-1.85-1.63-5.85-.67-3.44-.3-5.19-1.68-7.8a11.34,11.34,0,0,0-1.43-2.1,10.09,10.09,0,0,0-5.87,2c-1.86,1.43-1.68,2.54-3.52,3.66-2.68,1.62-5.12.5-5.92,1.9-.3.52-.4,1.43.57,3.16,0,0-2.54-1.67-4.29-.65a2.77,2.77,0,0,0-1.2,1.57C137.8,139.28,139.47,141.86,142.48,143.87Z"/><path d="M149.17,159.06a66.26,66.26,0,0,1-13-1.65.47.47,0,0,1-.37-.44.49.49,0,0,1,.33-.47,12,12,0,0,0,4.61-3.38c2-2.25,1.57-7.37,1.29-9-3.13-2.14-4.75-4.83-4.13-6.87a3.23,3.23,0,0,1,1.41-1.84,4.09,4.09,0,0,1,3.52,0,2.78,2.78,0,0,1,0-2.36c.52-.91,1.53-1,2.6-1.1a7.65,7.65,0,0,0,3.5-1,5,5,0,0,0,1.67-1.67,7.71,7.71,0,0,1,1.8-2,10.65,10.65,0,0,1,6.14-2.06.49.49,0,0,1,.38.17,11.59,11.59,0,0,1,1.49,2.19,12.28,12.28,0,0,1,1.3,4.94c.09.86.2,1.84.42,3a13.13,13.13,0,0,0,1.1,3.47,4.47,4.47,0,0,1,.54,2.49c0,1.21-.44,5.33-3.9,7.5a8.54,8.54,0,0,1-5.67,1.13v.21a2.59,2.59,0,0,0,1.39,2.55l3.42,1.8a.47.47,0,0,1,.21.21,1.12,1.12,0,0,1-.05.95c-.5,1.05-2.36,2-5.53,2.69A20.14,20.14,0,0,1,149.17,159.06Zm-11.4-2.28c3.17.63,11,2,15.68.93,4-.93,4.76-1.89,4.89-2.22l-3.17-1.66a3.57,3.57,0,0,1-1.9-3.49l.06-.72a.53.53,0,0,1,.19-.34.47.47,0,0,1,.38-.08,7.66,7.66,0,0,0,5.49-.92c3.07-1.92,3.43-5.63,3.46-6.72a3.64,3.64,0,0,0-.45-2.06,13.63,13.63,0,0,1-1.17-3.69c-.23-1.19-.34-2.19-.44-3.07a11.34,11.34,0,0,0-1.19-4.6,11.08,11.08,0,0,0-1.22-1.84,9.57,9.57,0,0,0-5.37,1.85,6.86,6.86,0,0,0-1.6,1.75,6,6,0,0,1-2,1.94,8.45,8.45,0,0,1-3.9,1.11c-1,.09-1.6.17-1.86.63-.39.68.1,1.84.57,2.69a.47.47,0,0,1-.67.63s-2.32-1.5-3.79-.64a2.35,2.35,0,0,0-1,1.29c-.5,1.65,1.07,4,3.92,5.92a.48.48,0,0,1,.2.3c0,.07,1.27,6.89-1.48,10A14.68,14.68,0,0,1,137.77,156.78Z"/><path d="M153.33,150.16c-3.85,0-7.1-3.11-7.24-3.25a.47.47,0,0,1,0-.67.47.47,0,0,1,.67,0s3.39,3.23,7,3a.48.48,0,1,1,.07.95Z"/><path class="cls-1" d="M180.09,219.44a2.79,2.79,0,0,1-2.66,2.37H148.36a2,2,0,0,1-2-2.37l5.69-38.58a2.78,2.78,0,0,1,2.65-2.31H183.4a2,2,0,0,1,2,2.31Z"/><path d="M177.43,222.28H148.36a2.47,2.47,0,0,1-1.9-.84,2.52,2.52,0,0,1-.56-2.07l5.69-38.57a3.27,3.27,0,0,1,3.12-2.72H183.4a2.45,2.45,0,0,1,1.89.83,2.49,2.49,0,0,1,.57,2l-5.3,38.57h0A3.28,3.28,0,0,1,177.43,222.28ZM154.71,179a2.27,2.27,0,0,0-2.18,1.9l-5.69,38.58a1.61,1.61,0,0,0,.34,1.31,1.54,1.54,0,0,0,1.18.51h29.07a2.3,2.3,0,0,0,2.19-2l5.3-38.57a1.58,1.58,0,0,0-.35-1.27,1.53,1.53,0,0,0-1.17-.5Zm25.38,40.41h0Z"/><path class="cls-1" d="M145.94,220.27s-5.77-4.56-1-12.49,4.35-1,4.19,1.19-2.1,12.68-3,11.64Z"/><path d="M146.25,221.15a.66.66,0,0,1-.5-.24.57.57,0,0,1-.11-.27c-.2-.17-6-5-1.13-13.1,1.82-3,3-4.21,4-3.89s1.3,1.91,1.05,5.36c0,.58-1.62,11.62-3.13,12.11Zm2-16.6c-.14,0-.92.17-2.91,3.48-4.48,7.48.86,11.82.92,11.86l0,.05c.82-1.71,2.2-8.89,2.35-11,.29-4.05-.31-4.36-.38-4.39Z"/><path d="M161,236.92s22.7-23.41,29.28-29.26,11.13-9.62,17.45-6.36-2.42,30.55-17,40.29S166.92,247,166.92,247Z"/><path class="cls-1" d="M157.4,238.84,151.52,250s5.8,7.45,17.39,5.22,9.45-6.26,7.12-8.35S161.77,238.39,157.4,238.84Z"/><path d="M164.72,256.06a17.9,17.9,0,0,1-13.58-5.82.47.47,0,0,1,0-.51L157,238.62a.49.49,0,0,1,.37-.25c4.62-.48,16.75,6.07,19,8.09,1.13,1,2.38,2.59,1.89,4.34-.59,2.14-3.7,3.77-9.24,4.83A22.09,22.09,0,0,1,164.72,256.06Zm-12.63-6.17c1.09,1.21,6.73,6.74,16.73,4.81,6.42-1.24,8.17-2.94,8.51-4.16s-.85-2.69-1.61-3.37c-2.39-2.15-13.71-8-18-7.87Z"/><path d="M165.31,253.77a47.78,47.78,0,0,1-6.64-.51.48.48,0,0,1-.39-.55.47.47,0,0,1,.55-.39c.1,0,10.82,1.71,14.39-1.26a2.82,2.82,0,0,0,1.08-2.21.47.47,0,0,1,.49-.47.46.46,0,0,1,.46.48,3.76,3.76,0,0,1-1.42,2.93C172,253.36,168.47,253.77,165.31,253.77Z"/><path d="M161.49,248.48h-.08a.49.49,0,0,1-.39-.55,18.06,18.06,0,0,1,3.21-7.61.47.47,0,1,1,.74.59,17.39,17.39,0,0,0-3,7.18A.47.47,0,0,1,161.49,248.48Z"/><path d="M165.83,249.33h-.07a.46.46,0,0,1-.4-.53c.68-4.59,2.52-6.74,2.6-6.83a.48.48,0,1,1,.72.62,13.32,13.32,0,0,0-2.38,6.34A.47.47,0,0,1,165.83,249.33Z"/><path d="M161,236.92l-8.84,14.91s-30-7.53-41.67-18.35S93.15,213.12,99.77,206s19.24-3.77,27.3,4.24S148.88,231.81,161,236.92Z"/><path class="cls-1" d="M185.41,201.55s-.65-5.29-3-4.94-3,14.08.48,13.55S185.41,201.55,185.41,201.55Z"/><path d="M182.73,210.65c-.81,0-2-.59-2.48-3.79-.53-3.48,0-10.39,2.12-10.72a1.87,1.87,0,0,1,1.46.39c1.55,1.17,2,4.57,2,5h0c.05.35,1,8.55-2.89,9.14Zm-.07-13.58h-.15c-.92.15-2,5.4-1.32,9.63.11.74.56,3.15,1.65,3,2.46-.37,2.35-6,2.1-8.09-.12-.93-.64-3.52-1.69-4.31A.92.92,0,0,0,182.66,197.07Z"/></svg>