<svg id="Capa_1" data-name="Capa 1" xmlns="http://www.w3.org/2000/svg" viewBox="0 0 350 669"><defs><style>.cls-1{fill:#fff;}</style></defs><polygon class="cls-1" points="172.38 549.88 187.03 592.18 207.5 591.13 192.88 544.37 172.38 549.88"/><path d="M187,593.27a1.11,1.11,0,0,1-1-.73l-14.65-42.31a1.09,1.09,0,0,1,.75-1.4l20.5-5.51a1.08,1.08,0,0,1,1.31.72l14.62,46.77a1,1,0,0,1-.14.94,1.09,1.09,0,0,1-.84.47l-20.46,1Zm-13.24-42.64,14,40.42,18.25-.93-13.89-44.43Z"/><path class="cls-1" d="M180.21,613.4s-2.54-20.72,4.57-30.18l15.89,5.16v-3.1a1.88,1.88,0,0,1,1.78-1.87l8.86-.46a21,21,0,0,1,9.63,1.8c10.61,4.76,35,17,34.27,28.79C255.21,613.54,236,617.89,180.21,613.4Z"/><path d="M225.32,616.53c-11.24,0-26.06-.51-45.2-2a1.09,1.09,0,0,1-1-1c-.11-.86-2.51-21.27,4.79-31a1.06,1.06,0,0,1,1.2-.38l14.47,4.69v-1.6a3,3,0,0,1,2.8-2.95l8.87-.47a22.09,22.09,0,0,1,10.12,1.9c13.38,6,35.7,17.85,34.91,29.85a1.09,1.09,0,0,1-.84,1C254.93,614.71,246.53,616.53,225.32,616.53Zm-44.12-4.14c48.07,3.81,68.71,1,72.93.24-.52-11.17-25.76-23.35-33.64-26.88a19.79,19.79,0,0,0-9.12-1.72l-8.86.47a.78.78,0,0,0-.75.78v3.1a1.08,1.08,0,0,1-1.42,1l-15.13-4.91C179.75,592.64,180.83,608.49,181.2,612.39Z"/><path d="M207.28,610.15a224.77,224.77,0,0,1-23.8-1.21,1.09,1.09,0,0,1,.23-2.16c33.8,3.58,64.86-2,65.16-2.09a1.08,1.08,0,1,1,.4,2.13A258.13,258.13,0,0,1,207.28,610.15Z"/><path d="M226.16,599.21a1.11,1.11,0,0,1-.6-.18l-15.29-10a1.09,1.09,0,1,1,1.19-1.82l15.3,10a1.08,1.08,0,0,1-.6,2Z"/><polygon class="cls-1" points="87.64 555.24 82.53 591.13 71.46 591.13 70.85 555.83 87.64 555.24"/><path d="M82.53,592.22H71.46a1.09,1.09,0,0,1-1.08-1.07l-.62-35.3a1.09,1.09,0,0,1,1-1.1l16.79-.59a1.07,1.07,0,0,1,.85.36,1.1,1.1,0,0,1,.27.87L83.6,591.28A1.08,1.08,0,0,1,82.53,592.22Zm-10-2.18h9.06l4.79-33.67L72,556.88Z"/><path class="cls-1" d="M202.4,561.81s-12-80.78-12.63-106.95S172.13,319.1,172.13,319.1l-18.42-1.29c1.17-3.58,1.83-5.53,1.83-5.53l-67.35-3.9C54.52,363.29,67.38,570,67.38,570c18.22,3,25-.75,25-.75.47-35.9,16.45-100.7,32.21-156.24C140.47,473.63,177,573,177,573,187.73,573.06,202.4,561.81,202.4,561.81Z"/><path d="M177.11,574.09H177a1.1,1.1,0,0,1-1-.71c-.35-1-35.25-96-51.46-156.24-14.18,50.32-30.62,116.14-31.1,152.15a1.09,1.09,0,0,1-.56.94c-.29.15-7.31,3.86-25.69.86a1.08,1.08,0,0,1-.91-1c-.52-8.46-12.49-207.7,21-262.27a1.06,1.06,0,0,1,1-.52l67.35,3.9a1.08,1.08,0,0,1,1,1.43l-1.39,4.19,17,1.2a1.1,1.1,0,0,1,1,.92c.17,1.09,17,110,17.65,135.89s12.49,106,12.61,106.82a1.1,1.1,0,0,1-.41,1C202.45,563.14,188,574.09,177.11,574.09ZM124.58,411.94h0a1.1,1.1,0,0,1,1,.81c15,57.15,48.79,150,52.15,159.15,9-.4,20.86-8.69,23.44-10.57-1.13-7.71-11.91-81.75-12.54-106.44s-15.91-124.42-17.5-134.76l-17.56-1.24a1.09,1.09,0,0,1-.82-.47,1.07,1.07,0,0,1-.13-.95c.6-1.84,1.07-3.25,1.38-4.18l-65.28-3.78c-31.59,53-21.21,244.94-20.37,259.57,14.12,2.19,21,.2,22.88-.52.7-37.32,17.89-105.26,32.25-155.83A1.08,1.08,0,0,1,124.58,411.94Z"/><path class="cls-1" d="M83,625.44a88.23,88.23,0,0,1-24.06-.8,5.65,5.65,0,0,1-4.49-7.1c2.53-9,8-26.07,14.86-33.83l1.5,4.38,2.4-4a2,2,0,0,1,1.53-1l5-.46a2,2,0,0,1,2.16,1.65l.67,3.78,1.89-4.87,3.55,36A5.64,5.64,0,0,1,83,625.44Z"/><path d="M73.93,627a90.27,90.27,0,0,1-15.2-1.29,6.75,6.75,0,0,1-5.36-8.47C56,607.83,61.5,590.86,68.46,583a1.09,1.09,0,0,1,1.85.37l.74,2.17,1.2-2A3.08,3.08,0,0,1,74.61,582l5-.46a3.12,3.12,0,0,1,3.32,2.49l.49-1.24a1.08,1.08,0,0,1,2.09.28l3.55,36a6.75,6.75,0,0,1-6,7.36A84.61,84.61,0,0,1,73.93,627Zm9-1.56h0ZM68.88,585.91c-6.11,8.07-11,23.25-13.42,31.92A4.52,4.52,0,0,0,56,621.5a4.6,4.6,0,0,0,3.1,2.07,87,87,0,0,0,23.75.79,4.57,4.57,0,0,0,4-5l-3.1-31.52-.25.63a1.09,1.09,0,0,1-2.08-.21l-.67-3.78a.92.92,0,0,0-1-.76l-5,.47a.9.9,0,0,0-.7.44l-2.4,4a1.09,1.09,0,0,1-1,.52,1.07,1.07,0,0,1-.91-.73Z"/><path d="M70.4,620.88a50.1,50.1,0,0,1-12.64-1.52,1.09,1.09,0,1,1,.55-2.11c12.2,3.21,25.21,0,25.34,0a1.09,1.09,0,0,1,.53,2.11A62.12,62.12,0,0,1,70.4,620.88Z"/><path d="M77.8,606.84H65.93a1.09,1.09,0,0,1,0-2.17H77.8a1.09,1.09,0,1,1,0,2.17Z"/><path class="cls-1" d="M155.34,168.67c8.86-.64,17.79-2.93,24.11-6.72a52.54,52.54,0,0,0,8.28-6.44c4-3.69,8-8,9-13.38,2-10.91-11.74-9.76-11.39-17,.09-1.86,1.51-3.45,1.7-5.3.58-5.71-7.49-5.57-11-5.61,1.62-6.21-1.64-13.36-6.84-17-3.74-2.63-8.43-3.62-13-3.68-5.92-.08-14.73,1.56-18.15,7.14-1,1.58-.35,5.17-1.69,6.27-3.36,2.75-3.82-1.46-6.79-1.92a16.84,16.84,0,0,0-13,3.19,13.24,13.24,0,0,0-4.93,12.16c.39,2.36,1.36,5.19-.38,6.84-3,2.85-7,1.47-8.79,6.24-1.28,3.44.22,7.47,2.94,9.93s6.41,3.56,10,4c.25,2.45-2.78,3.7-4.48,5.48-6.19,6.45,2.86,11.85,8.58,11.61,3.45-.14,7-.87,10.32.09,2.15.63,4.06,1.93,6.21,2.55A57,57,0,0,0,155.34,168.67Z"/><path d="M150.39,169.93a53.91,53.91,0,0,1-14.57-1.82,21.81,21.81,0,0,1-3.29-1.35,20.63,20.63,0,0,0-2.93-1.21,19.83,19.83,0,0,0-7.24-.23c-.91.07-1.82.15-2.73.19-4.06.17-9.56-2.19-11.26-6-.78-1.72-1.09-4.42,1.85-7.48a16.41,16.41,0,0,1,1.85-1.58,6.94,6.94,0,0,0,2.2-2.22,18,18,0,0,1-9.56-4.12c-3.24-2.94-4.57-7.5-3.23-11.11,1.25-3.35,3.56-4.14,5.59-4.84a8.87,8.87,0,0,0,3.48-1.81c.94-.9.72-2.42.28-4.64-.09-.42-.17-.83-.24-1.24a14.28,14.28,0,0,1,5.33-13.18,18,18,0,0,1,13.83-3.42,6,6,0,0,1,3.22,1.89c1.11,1.06,1.41,1.35,2.72.27.4-.33.54-1.66.64-2.63a8.44,8.44,0,0,1,.81-3.36c3.55-5.8,12.54-7.74,19.1-7.67,5.39.07,10.1,1.41,13.62,3.88,5.47,3.85,8.5,10.74,7.54,16.84,3,0,7.34.32,9.49,2.72a5.08,5.08,0,0,1,1.21,4.07,9.17,9.17,0,0,1-.94,2.89,6.92,6.92,0,0,0-.76,2.35c-.11,2.44,1.69,3.67,4.65,5.47,3.55,2.17,8,4.86,6.73,11.7-1,5.76-5.29,10.31-9.32,14a53.39,53.39,0,0,1-8.45,6.57c-6.15,3.69-15.11,6.19-24.59,6.87C153.73,169.87,152,169.93,150.39,169.93Zm-24.38-7a14.68,14.68,0,0,1,4.2.54,21.27,21.27,0,0,1,3.25,1.33,19.91,19.91,0,0,0,3,1.22,56.12,56.12,0,0,0,18.85,1.56c9.15-.65,17.76-3.05,23.62-6.57a50.77,50.77,0,0,0,8.1-6.3c3.76-3.44,7.73-7.65,8.65-12.77,1-5.38-2.28-7.36-5.72-9.46-2.89-1.77-5.87-3.59-5.69-7.43a8.58,8.58,0,0,1,1-3.15,7.75,7.75,0,0,0,.76-2.21,3,3,0,0,0-.67-2.4c-1.75-2-6.37-2-8.86-2h-.35a1.05,1.05,0,0,1-.85-.43,1,1,0,0,1-.19-.93c1.43-5.47-1.33-12.28-6.41-15.86-3.16-2.22-7.45-3.42-12.4-3.48-6-.08-14.14,1.61-17.21,6.62a7.39,7.39,0,0,0-.51,2.46c-.16,1.57-.33,3.19-1.42,4.08-2.81,2.3-4.49.69-5.6-.38a4.07,4.07,0,0,0-2.05-1.31,15.8,15.8,0,0,0-12.14,3,12.23,12.23,0,0,0-4.54,11.13c.06.38.14.77.22,1.16.43,2.17,1,4.86-.92,6.65a10.9,10.9,0,0,1-4.26,2.29c-1.89.64-3.37,1.15-4.26,3.54-1,2.79,0,6.39,2.65,8.74,2.2,2,5.37,3.24,9.44,3.72a1.09,1.09,0,0,1,1,1c.24,2.33-1.57,3.74-3.17,5a15.49,15.49,0,0,0-1.61,1.37c-1.69,1.76-2.17,3.47-1.44,5.08,1.28,2.86,5.94,4.83,9.19,4.7.88,0,1.76-.11,2.64-.19C123.44,163,124.73,162.93,126,162.93Z"/><path class="cls-1" d="M267.21,165.06a10.1,10.1,0,0,1,3.05-3.56l15.24-14.17s2,6.83-.42,10.85a52.6,52.6,0,0,1,8.37,1s7-6.14,8.7-7.19,4-2.74,6.33-2.71a9.22,9.22,0,0,1,4.65,1.82l-13.38,17-24.34,6.7-5.06,41.91L252.6,200.2Z"/><path d="M270.35,217.72a1.05,1.05,0,0,1-.73-.29L251.86,201a1.1,1.1,0,0,1-.27-1.21l14.61-35.15,0-.07a11.19,11.19,0,0,1,3.33-3.9l15.2-14.13a1.09,1.09,0,0,1,1.78.49c.08.26,1.66,5.83.19,10.15a52.9,52.9,0,0,1,6.41.79c1.61-1.41,6.86-6,8.44-6.95l.74-.46c1.69-1.07,3.79-2.4,6.09-2.4h.08a10.21,10.21,0,0,1,5.3,2,1.12,1.12,0,0,1,.42.73,1.09,1.09,0,0,1-.23.8l-13.38,17a1.06,1.06,0,0,1-.57.37l-23.63,6.51-5,41.18a1.08,1.08,0,0,1-.7.89A1,1,0,0,1,270.35,217.72Zm-16.46-17.8,15.64,14.47,4.8-39.8a1.08,1.08,0,0,1,.79-.92l24-6.6,12.43-15.75a6.84,6.84,0,0,0-3.08-1h0c-1.67,0-3.4,1.1-4.93,2.06l-.77.48c-1.35.83-6.62,5.39-8.54,7.08a1.08,1.08,0,0,1-.94.25,51.7,51.7,0,0,0-8.19-.93,1.11,1.11,0,0,1-.92-.56,1.12,1.12,0,0,1,0-1.08c1.43-2.39,1.09-6,.71-8.21L271,162.3l-.09.07a9.19,9.19,0,0,0-2.72,3.15Z"/><path d="M276.67,193.21l-19.4-11.56s-22.9,30.52-32.82,30.58c-8.67.05-29.33-22-34.39-27.6a.76.76,0,0,0-1.31.43l-6.45,63S274.43,293.17,276.67,193.21Z"/><path d="M189.34,184s-30.58-27.23-74.71-3.19c0,0-3.31,41.08-15.34,77.43s-26.66,58.69-24.49,83a33,33,0,0,1,20.61-3.56l84.11,13.07c5.61.87,10.89-3.43,12-9.91,1.62-9.06,3-25.28,2-54.1C193,269.88,202.4,201.51,189.34,184Z"/><path class="cls-1" d="M80.28,261.84l13.89,25.1,14.16-7.77,24.3,6.77s-4.11,5.35-15.85.59l17.88,9.57s-5.44,3.5-16.13-3.31l10.25,8.33s-8.27-2.49-12.69-3l-4.41-.48a35.4,35.4,0,0,0-8.76,1.57,22.66,22.66,0,0,1-15,.24l-5.63-2L64.93,271.14Z"/><path d="M128.78,302.21a1.12,1.12,0,0,1-.31,0c-.08,0-8.23-2.47-12.49-2.93l-4.33-.47a34.43,34.43,0,0,0-8.37,1.5,24,24,0,0,1-15.75.25l-5.63-2a1.15,1.15,0,0,1-.55-.42L64,271.74a1.09,1.09,0,0,1,.35-1.53l15.35-9.3a1.12,1.12,0,0,1,.84-.12,1.08,1.08,0,0,1,.67.53l13.36,24.15,13.21-7.25a1.06,1.06,0,0,1,.82-.09l24.3,6.77a1.08,1.08,0,0,1,.57,1.7c-.14.18-2.59,3.26-8.73,3l10.41,5.58a1.08,1.08,0,0,1,.08,1.87c-.18.11-3.33,2.05-9.29.41l3.51,2.85a1.09,1.09,0,0,1-.69,1.93ZM83,296.59l5.28,1.87a21.85,21.85,0,0,0,14.31-.25,35.93,35.93,0,0,1,9.08-1.62h.16l4.41.48a62.73,62.73,0,0,1,7.85,1.61l-6.21-5.05a1.08,1.08,0,0,1,1.26-1.76c6.18,3.93,10.42,4.28,12.76,4l-15.6-8.35a1.09,1.09,0,0,1,.92-2c7.08,2.87,11.11,1.92,13.07.89l-21.8-6.07L94.69,287.9a1.09,1.09,0,0,1-1.47-.43L79.88,263.36l-13.42,8.13Z"/><path d="M119.51,219.7,92.58,231a12,12,0,0,0-6.8,14.55l4.35,27.57-17.9,15.67s-49.61-42.9-34.62-69.09c12.75-22.29,79.75-39.45,79.75-39.45Z"/><path class="cls-1" d="M167.26,147.33l-5.85,26L178,179.25s-22.08,13.25-54.29,1.3l16.94-9,11.29-31.77Z"/><path d="M150.29,186.59a77.34,77.34,0,0,1-27-5,1.09,1.09,0,0,1-.13-2l16.57-8.84,11.15-31.38a1.1,1.1,0,0,1,1.51-.61l15.34,7.6a1.08,1.08,0,0,1,.58,1.21l-5.63,25.09,15.65,5.57a1.09,1.09,0,0,1,.19,2C178.38,180.28,167.57,186.59,150.29,186.59Zm-23.92-6.24c24.48,8.29,42.75,1.84,48.84-.93l-14.16-5a1.08,1.08,0,0,1-.7-1.26L166,147.93l-13.48-6.68-10.88,30.62a1.14,1.14,0,0,1-.52.6Z"/><path class="cls-1" d="M150.83,147.33s-6.31,1.72-7.41-3.71,4.11-4.62,4.11-4.62-4.5-12.11,4.3-12.42a51.51,51.51,0,0,0,15.43-2.92s5.27,11.65,6.43,21.1c.69,5.71-.11,10.61-4.47,11.69C157.29,159.38,150.83,147.33,150.83,147.33Z"/><path d="M165.55,158c-8.53,0-13.79-7.14-15.26-9.44a8.16,8.16,0,0,1-5.37-.82,5.71,5.71,0,0,1-2.57-3.9c-.41-2-.1-3.58.92-4.65a4.53,4.53,0,0,1,2.78-1.27c-.64-2.33-1.5-6.89.46-9.81a6.23,6.23,0,0,1,5.28-2.61,50.5,50.5,0,0,0,15.07-2.85,1.09,1.09,0,0,1,1.39.57c.22.48,5.35,11.91,6.51,21.42,1.14,9.29-2.24,12.13-5.28,12.87A16.32,16.32,0,0,1,165.55,158Zm-14.73-11.74a1.08,1.08,0,0,1,1,.57c.25.46,6.23,11.27,17.18,8.57,3.18-.78,4.4-4.31,3.65-10.49-.94-7.68-4.7-17-5.94-19.88a53.9,53.9,0,0,1-14.81,2.65,4.08,4.08,0,0,0-3.55,1.64c-1.69,2.53-.4,7.58.24,9.32a1.09,1.09,0,0,1-1.19,1.45,3.28,3.28,0,0,0-2.53.61,3,3,0,0,0-.35,2.71,3.57,3.57,0,0,0,1.57,2.48c1.79,1.11,4.47.41,4.49.4Z"/><path class="cls-1" d="M129.05,278.23a1.09,1.09,0,0,1-.29-2.14c20.85-5.77,38.12-15.28,51.31-28.27a1.09,1.09,0,1,1,1.53,1.54c-13.47,13.26-31,22.95-52.26,28.83A1,1,0,0,1,129.05,278.23Z"/><path class="cls-1" d="M192.81,222.2h-.11a1.08,1.08,0,0,1-1-1.19c.86-8.28.63-11.81.12-19.53-.13-1.91-.27-4.07-.42-6.61a1.09,1.09,0,0,1,2.17-.13c.15,2.54.29,4.69.41,6.59.52,7.85.76,11.44-.12,19.91A1.09,1.09,0,0,1,192.81,222.2Z"/></svg>