<svg id="Capa_1" data-name="Capa 1" xmlns="http://www.w3.org/2000/svg" viewBox="0 0 352 330"><defs><style>.cls-1{fill:#fff;}</style></defs><path d="M149.79,218.72l-5.49,28.34s50.77,14.63,73.51-9.89l-6.66-18.45Z"/><path class="cls-1" d="M65.51,149.27l12,6.39a96.26,96.26,0,0,0-.11,16l-12.05,6.24A14.36,14.36,0,0,0,72.45,205l13.61-.47A96.2,96.2,0,0,0,94,218.44L86.64,229.9a14.37,14.37,0,0,0,19.71,19.93l11.51-7.19a96.09,96.09,0,0,0,13.83,8.06l-.62,13.58a14.37,14.37,0,0,0,27,7.41l6.39-12a95.18,95.18,0,0,0,16,.11l6.24,12a14.36,14.36,0,0,0,27.11-7.1l-.47-13.6a96.26,96.26,0,0,0,13.89-7.92l11.46,7.33a14.37,14.37,0,0,0,19.93-19.71l-7.19-11.51a94.59,94.59,0,0,0,8-13.83l13.59.62a14.36,14.36,0,0,0,7.4-27l-12-6.39a96.25,96.25,0,0,0,.11-16l12.05-6.24a14.36,14.36,0,0,0-7.1-27.11l-13.61.47a96.74,96.74,0,0,0-7.91-13.89l7.33-11.46a14.37,14.37,0,0,0-19.71-19.93l-11.51,7.19a95.12,95.12,0,0,0-13.83-8L215,64.08a14.36,14.36,0,0,0-27-7.4l-6.39,12a95.19,95.19,0,0,0-16-.12l-6.24-12a14.37,14.37,0,0,0-27.11,7.11l.47,13.6a96.2,96.2,0,0,0-13.89,7.91l-11.46-7.33A14.37,14.37,0,0,0,87.36,97.52L94.55,109a95.12,95.12,0,0,0-8,13.83l-13.59-.62a14.36,14.36,0,0,0-7.4,27Zm34-5.22a76.24,76.24,0,1,1,53.4,93.67A76.23,76.23,0,0,1,99.48,144.05Z"/><path d="M199.44,280.17a14.84,14.84,0,0,1-13.2-8.07l-6.07-11.72a94.89,94.89,0,0,1-15.35-.11L158.6,272a14.93,14.93,0,0,1-28.09-7.69l.6-13.22a96,96,0,0,1-13.27-7.72l-11.19,7A14.93,14.93,0,0,1,86.16,229.6l7.13-11.15a97.32,97.32,0,0,1-7.59-13.32l-13.23.46a14.93,14.93,0,0,1-7.38-28.18l11.72-6.07A94.89,94.89,0,0,1,76.92,156l-11.68-6.22a14.93,14.93,0,0,1,7.69-28.09l13.22.6A96,96,0,0,1,93.87,109l-7-11.19a14.93,14.93,0,0,1,20.71-20.49l11.15,7.14a96.35,96.35,0,0,1,13.32-7.6l-.46-13.22a14.93,14.93,0,0,1,28.18-7.39L165.85,68a96,96,0,0,1,15.35.11l6.22-11.68a14.93,14.93,0,0,1,28.09,7.69l-.6,13.22A96,96,0,0,1,228.18,85l11.19-7a14.93,14.93,0,0,1,20.49,20.71l-7.13,11.15a97.92,97.92,0,0,1,7.59,13.32l13.23-.46A14.93,14.93,0,0,1,280.93,151L269.21,157a95,95,0,0,1-.11,15.36l11.68,6.21a14.93,14.93,0,0,1-7.69,28.09l-13.22-.6a96,96,0,0,1-7.72,13.27l7,11.2A14.93,14.93,0,0,1,238.43,251l-11.15-7.13A97.32,97.32,0,0,1,214,251.49l.46,13.23a15,15,0,0,1-15,15.45ZM180.5,259.23a.56.56,0,0,1,.5.3l6.24,12.05a13.8,13.8,0,0,0,26-6.82l-.47-13.6a.58.58,0,0,1,.32-.54A96.07,96.07,0,0,0,227,242.75a.58.58,0,0,1,.62,0L239,250.08a13.8,13.8,0,0,0,19.14-18.94L251,219.63a.56.56,0,0,1,0-.62,95.15,95.15,0,0,0,8-13.75.55.55,0,0,1,.54-.32l13.59.61a13.8,13.8,0,0,0,7.11-26l-12-6.39a.58.58,0,0,1-.3-.55,94,94,0,0,0,.12-15.91.57.57,0,0,1,.3-.55L280.41,150a13.8,13.8,0,0,0-6.82-26l-13.61.47a.56.56,0,0,1-.53-.32,96.61,96.61,0,0,0-7.87-13.81.56.56,0,0,1,0-.62l7.33-11.47A13.8,13.8,0,0,0,240,79L228.46,86.2a.58.58,0,0,1-.63,0,95,95,0,0,0-13.74-8,.56.56,0,0,1-.32-.54l.61-13.59a13.8,13.8,0,0,0-26-7.11L182,69a.58.58,0,0,1-.55.3,95.09,95.09,0,0,0-15.91-.12.57.57,0,0,1-.55-.3l-6.24-12a13.8,13.8,0,0,0-26.05,6.83l.47,13.6a.57.57,0,0,1-.32.53,96.61,96.61,0,0,0-13.81,7.87.56.56,0,0,1-.62,0L107,78.29A13.8,13.8,0,0,0,87.84,97.22L95,108.73a.58.58,0,0,1,0,.63,95,95,0,0,0-8,13.74.58.58,0,0,1-.54.33l-13.59-.62a13.8,13.8,0,0,0-7.11,26l12,6.4a.56.56,0,0,1,.3.55,93.92,93.92,0,0,0-.12,15.9.56.56,0,0,1-.3.55l-12,6.25a13.8,13.8,0,0,0,6.82,26L86,204a.56.56,0,0,1,.53.33,96.5,96.5,0,0,0,7.87,13.8.56.56,0,0,1,0,.62l-7.33,11.47a13.8,13.8,0,0,0,18.93,19.14l11.51-7.19a.58.58,0,0,1,.63,0,95.47,95.47,0,0,0,13.74,8,.54.54,0,0,1,.32.53l-.61,13.59a13.79,13.79,0,0,0,26,7.11l6.4-12a.55.55,0,0,1,.54-.3,94,94,0,0,0,15.91.12ZM173.13,241a76.85,76.85,0,0,1-74.2-97.12l.55.15-.55-.15A76.78,76.78,0,1,1,173.13,241Zm-.24-152.55A75.89,75.89,0,1,0,193,91.19,76.11,76.11,0,0,0,172.89,88.47Z"/><path class="cls-1" d="M75.57,93.41S74.39,78.5,73.85,74.48c-.61-4.57,6,.21,7.22,14.28Z"/><path d="M75.57,94a.57.57,0,0,1-.22,0,.56.56,0,0,1-.34-.48c0-.15-1.19-14.94-1.72-18.9a2.11,2.11,0,0,1,.53-2.09,1.31,1.31,0,0,1,1.39-.06c2.17,1,5.6,6.68,6.42,16.31a.59.59,0,0,1-.2.48l-5.49,4.65A.64.64,0,0,1,75.57,94Zm-1.06-20.6h0s-.18.3-.08,1c.45,3.35,1.35,14.34,1.64,17.86l4.43-3.75c-.81-8.83-3.8-13.86-5.52-15A1,1,0,0,0,74.51,73.37Z"/><path class="cls-1" d="M67.52,162.48s8.9-48.82,9-50.44a8.47,8.47,0,0,0-.47-3.46c-1.14-3.25-3.51-10.2-3.53-12.14s1.69-3.51,2.45-4.09c.45-.34.88-.71,1.31-1.08l4-3.46c1-.81,1.48-2.16,2.84-2,2.61.39,3.38,4.87,3.38,4.87s2.53-2,3.91-1,3.69,7.91.42,15-4.23,3.87-4.49,11.28c-.1,3,.39,31,.39,31a3.1,3.1,0,0,0,4.54,2.73L109,140.4l5.9,30-31.57,7.2A13.08,13.08,0,0,1,67.52,162.48Z"/><path d="M80.38,178.47A13.65,13.65,0,0,1,67,162.38h0C70,145.51,75.88,113.26,76,112a7.89,7.89,0,0,0-.44-3.23C74.21,105,72,98.42,72,96.45c0-2.26,1.86-3.94,2.68-4.55.45-.34.88-.71,1.28-1.06l4-3.45a6.82,6.82,0,0,0,.74-.78,2.73,2.73,0,0,1,2.56-1.31c2.24.33,3.27,3.06,3.65,4.48,1-.6,2.66-1.41,3.87-.57,1.76,1.22,3.88,8.63.61,15.75a22.22,22.22,0,0,1-2.93,5c-1,1.28-1.35,1.76-1.5,6.1-.1,2.91.38,30.73.39,31a2.52,2.52,0,0,0,3.7,2.24l17.7-9.37a.57.57,0,0,1,.51,0,.6.6,0,0,1,.31.4l5.89,30a.56.56,0,0,1-.43.66l-31.57,7.2A13.7,13.7,0,0,1,80.38,178.47Zm-12.3-15.89A12.51,12.51,0,0,0,83.17,177l31-7.08-5.64-28.69-17,9A3.65,3.65,0,0,1,86.18,147c0-1.14-.49-28.12-.39-31.06.15-4.49.54-5.19,1.73-6.75a21.25,21.25,0,0,0,2.81-4.74c3.29-7.19.75-13.67-.24-14.35-.78-.54-2.51.45-3.23,1a.58.58,0,0,1-.55.08.57.57,0,0,1-.36-.43c-.19-1.13-1.1-4.13-2.9-4.4-.61-.09-1,.26-1.53.94a7.35,7.35,0,0,1-.87.9l-4,3.45c-.41.36-.86.74-1.34,1.1-.68.51-2.25,1.89-2.23,3.63,0,1.31,1.33,5.78,3.51,12a9.12,9.12,0,0,1,.5,3.69C77,113.71,68.44,160.58,68.08,162.58Z"/><path d="M80.68,104a3,3,0,0,1-1.36-.31A2.65,2.65,0,0,1,78,100.76a7.51,7.51,0,0,1,2.41-4.4.57.57,0,0,1,.71.89,6.45,6.45,0,0,0-2,3.69,1.53,1.53,0,0,0,.71,1.73c.81.42,2.43.24,4.3-1.65,3.06-3.08,1.79-10.42,1.77-10.49a.57.57,0,0,1,.46-.66.56.56,0,0,1,.65.46c.06.32,1.4,8-2.08,11.49A6.25,6.25,0,0,1,80.68,104Z"/><path class="cls-1" d="M271.45,247c-4.19-2.38-5.87-4.3-7.42-8.24,0,0-8.65-27.43-15.41-44.64-2.71-6.89-8.77-19.78-14.93-32.51l-21.88,12.21a6.25,6.25,0,0,0-.66.43c10.73,18,30.45,50.88,32.56,53.92,0,0,10.73,15.87,10.21,24.11-.33,5.2,1.7,14.81,9.38,20.19a2,2,0,0,0,2.91-2.39l0-.08a55.23,55.23,0,0,0-3.33-5.73,15.46,15.46,0,0,1,8.59,3.5c4.39,3.46,13.72,9.67,15.65,7.58C290.4,271.81,288.42,256.68,271.45,247Z"/><path d="M285.89,276.35c-4.46,0-14.33-7.73-14.81-8.11A16,16,0,0,0,264,265a51.44,51.44,0,0,1,2.72,4.79l0,.1A2.52,2.52,0,0,1,263,273c-8.28-5.81-9.92-16.08-9.62-20.7.5-8-10-23.6-10.12-23.76-2.09-3-21.31-35.09-32.58-53.94a.57.57,0,0,1,.15-.74,5.89,5.89,0,0,1,.72-.47l21.88-12.22a.59.59,0,0,1,.45,0,.54.54,0,0,1,.34.29c7.59,15.69,12.62,26.64,14.94,32.55,6.7,17,15.34,44.4,15.43,44.68,1.52,3.84,3.12,5.63,7.16,7.92,13.95,7.92,16.58,18.58,17.06,21.66.51,3.31,0,6.14-1.29,7.57A2.09,2.09,0,0,1,285.89,276.35Zm-23.05-12.62h0a15.85,15.85,0,0,1,8.94,3.63c6,4.73,13.6,9,14.89,7.64,1.07-1.16,1.46-3.7,1-6.63s-3-13.17-16.5-20.85c-4.25-2.41-6-4.41-7.66-8.53-.1-.31-8.74-27.64-15.42-44.63-2.28-5.82-7.21-16.57-14.65-31.94l-21.36,11.93-.18.1c11.3,18.89,30.22,50.45,32.27,53.42.45.66,10.84,16.14,10.31,24.47-.28,4.41,1.28,14.19,9.15,19.7a1.39,1.39,0,0,0,2.06-1.7l0-.07a55.8,55.8,0,0,0-3.29-5.66.55.55,0,0,1,0-.58A.58.58,0,0,1,262.84,263.73Z"/><path class="cls-1" d="M100.23,138.8l4.66-5.23a71.31,71.31,0,0,1,29-19.44l7.59-2.73c.59-.21,43.77-4.65,58.44.2,9.16,3,21.13,10.12,37.42,43.12a5.27,5.27,0,0,1-2.13,6.84l-23.89,13.33c-2.08,1.16-2,3.77-1.71,6.14l7.09,38.42a5.52,5.52,0,0,1-2.41,5.66c-5.93,3.82-23.22,9.75-61.07,3.66a22.09,22.09,0,0,1-18-16.85l-6.93-30.09c-.43-2.54-3.92-3.79-6.62-4.38a16.54,16.54,0,0,0-4.61-.25,7.26,7.26,0,0,1-7.39-5l-10.57-27A6.21,6.21,0,0,1,100.23,138.8Z"/><path d="M182.58,231.94a187,187,0,0,1-29.49-2.61A22.57,22.57,0,0,1,134.63,212L127.7,182c-.4-2.36-4-3.49-6.19-4a15.64,15.64,0,0,0-4.45-.25,7.8,7.8,0,0,1-8-5.39L98.54,145.43a6.72,6.72,0,0,1,1.27-7l4.66-5.23a72.28,72.28,0,0,1,29.19-19.6l7.59-2.72c.28-.1,43.86-4.75,58.81.2,9.65,3.19,21.68,10.84,37.75,43.4a5.82,5.82,0,0,1-2.37,7.58l-23.88,13.34c-1.78,1-1.72,3.36-1.43,5.56l7.09,38.4a6.05,6.05,0,0,1-2.67,6.23C211.71,227.41,202.63,231.94,182.58,231.94Zm-64-55.36a15.25,15.25,0,0,1,3.21.32c3,.64,6.57,2,7.05,4.84l6.93,30a21.43,21.43,0,0,0,17.54,16.42c40.93,6.59,56.79-1.07,60.67-3.58a4.93,4.93,0,0,0,2.17-5.08L209,181.13c-.34-2.6-.37-5.41,2-6.73l23.88-13.34A4.68,4.68,0,0,0,236.8,155c-15.89-32.19-27.67-39.71-37.1-42.83-14.13-4.67-56.52-.54-58.12-.19L134,114.66a71.15,71.15,0,0,0-28.73,19.28l-4.66,5.24h0A5.6,5.6,0,0,0,99.59,145l10.56,27a6.69,6.69,0,0,0,6.83,4.65Q117.81,176.58,118.54,176.58ZM100.23,138.8h0Z"/><path d="M179.92,173.45a.54.54,0,0,1-.34-.12c-10-7.66-13-16.09-13.13-16.44a.57.57,0,0,1,1.07-.37c0,.08,3,8.47,12.74,15.92a.56.56,0,0,1,.11.79A.58.58,0,0,1,179.92,173.45Z"/><path d="M144.3,172.24a.57.57,0,0,1-.46-.22c-7.59-10.07-8.21-19-8.23-19.37a.57.57,0,1,1,1.13-.07c0,.09.63,9,8,18.76a.56.56,0,0,1-.11.79A.55.55,0,0,1,144.3,172.24Z"/><path class="cls-1" d="M180.11,131.61c-24.08,10.86-38.59-10.56-38.59-10.56a7.69,7.69,0,0,0-1.33-1.16l.21-.07.82-.3a27.5,27.5,0,0,0,17.33-26.34l-.15-6.63,18-.19s.47,24.25,8.78,24.43l4.59.53C193.21,119.18,188.18,128,180.11,131.61Z"/><path d="M166.8,135.23c-15.74,0-25.17-13-25.73-13.82a6.7,6.7,0,0,0-1.2-1,.59.59,0,0,1-.24-.54.58.58,0,0,1,.38-.46l.2-.07.81-.3a26.92,26.92,0,0,0,17-25.8l-.15-6.62a.57.57,0,0,1,.16-.41.54.54,0,0,1,.4-.17l18-.19a.56.56,0,0,1,.57.55c.13,6.6,1.86,23.73,8.23,23.87l4.65.54a.57.57,0,0,1,.45.34c3.78,8.65-2.09,17.48-9.95,21A32.81,32.81,0,0,1,166.8,135.23Zm-25.46-15.15q.32.28.6.6l0,.06a35.56,35.56,0,0,0,10.13,9.2c8.63,5.18,18,5.57,27.76,1.16l.24.51-.24-.51c7.28-3.28,12.75-11.34,9.51-19.25l-4.27-.5c-8.06-.18-9.13-20.64-9.26-24.41L159,87.11l.14,6.06A28,28,0,0,1,141.43,120Z"/><path class="cls-1" d="M158.47,87.49l-.91-12.16a10.38,10.38,0,0,1,10.12-11.16l15.63-.33s1.21,7.62,5.29,11.22l-1.82,3.43L185,84.79a3.77,3.77,0,0,1-2.92,2.68H158.47Z"/><path d="M158.47,88.06a.57.57,0,0,1-.56-.52L157,75.37a10.94,10.94,0,0,1,10.67-11.76l15.63-.34a.56.56,0,0,1,.57.48c0,.07,1.23,7.47,5.11,10.89a.55.55,0,0,1,.13.68l-1.8,3.38L185.52,85A4.33,4.33,0,0,1,182.15,88h-9.52a.57.57,0,0,1-.57-.57.56.56,0,0,1,.56-.56H182a3.21,3.21,0,0,0,2.44-2.27l1.8-6.31a.54.54,0,0,1,.05-.11l1.62-3c-3.39-3.27-4.73-9.05-5.06-10.77l-15.15.33a9.81,9.81,0,0,0-9.57,10.55L159,87.45a.58.58,0,0,1-.52.61Z"/><path d="M169.76,116.83a7,7,0,0,1-1.67-.21.57.57,0,0,1,.28-1.1,4.54,4.54,0,0,0,4.1-.71.56.56,0,0,1,.8,0,.57.57,0,0,1,0,.8A5.25,5.25,0,0,1,169.76,116.83Z"/><path d="M186.42,62.91l-7.86,4.17a16.28,16.28,0,0,0-8.5,12.13c-1,7.24-1.88,19.77-8.77,30.35a31.08,31.08,0,0,1-24.09,13.86c-6.43.4-14,2.84-18.09,6.94,0,0-12.93-16.91.06-31.76S149.23,84.72,152.6,69c3.22-15.08,21.6-26.25,34.58-9.76A2.47,2.47,0,0,1,186.42,62.91Z"/></svg>