<svg id="Capa_1" data-name="Capa 1" xmlns="http://www.w3.org/2000/svg" viewBox="0 0 352 330"><defs><style>.cls-1{fill:#fff;}</style></defs><path class="cls-1" d="M244,61.93a17.42,17.42,0,0,1,13.35-8.52l.39-22.72c-16.49.06-31,9.35-37.68,23.09Z"/><path d="M244,62.32a.25.25,0,0,1-.12,0l-24-8.15a.41.41,0,0,1-.23-.22.4.4,0,0,1,0-.32c6.81-14.1,21.74-23.25,38-23.31a.38.38,0,0,1,.28.12.33.33,0,0,1,.11.28l-.39,22.72a.41.41,0,0,1-.35.38,17,17,0,0,0-13.05,8.33A.39.39,0,0,1,244,62.32Zm-23.4-8.77,23.23,7.91A17.78,17.78,0,0,1,257,53.06l.39-22C241.67,31.28,227.33,40.05,220.62,53.55Z"/><path d="M242.9,37.26a.38.38,0,0,1-.36-.25.37.37,0,0,1,.21-.5,40.31,40.31,0,0,1,11.66-2.8.39.39,0,0,1,.43.36.41.41,0,0,1-.36.42A39.52,39.52,0,0,0,243,37.23.35.35,0,0,1,242.9,37.26Z"/><path d="M229.75,46a.43.43,0,0,1-.27-.11.39.39,0,0,1,0-.55,38.7,38.7,0,0,1,9.69-7.19.39.39,0,1,1,.36.69,38,38,0,0,0-9.5,7A.36.36,0,0,1,229.75,46Z"/><path class="cls-1" d="M275.85,72c-1.35,7.47-8.15,13.33-16.48,13.59a17.74,17.74,0,0,1-7-1.19l-13,20.14a42.71,42.71,0,0,0,20,3.65c20.77-1.19,37.1-16.83,38.91-35.65Z"/><path d="M256.87,108.65a43,43,0,0,1-17.68-3.76.4.4,0,0,1-.17-.57l13-20.13a.39.39,0,0,1,.47-.15,17.08,17.08,0,0,0,6.85,1.16c8-.24,14.77-5.83,16.11-13.27a.41.41,0,0,1,.4-.32l22.43.54a.37.37,0,0,1,.28.13.41.41,0,0,1,.1.3c-1.87,19.34-18.75,34.82-39.28,36C258.55,108.63,257.71,108.65,256.87,108.65Zm-16.94-4.29a42.31,42.31,0,0,0,19.41,3.44c20-1.15,36.48-16.11,38.51-34.88l-21.68-.52C274.62,80,267.61,85.73,259.38,86a17.89,17.89,0,0,1-6.87-1.1Z"/><path d="M256.83,105.4a39.6,39.6,0,0,1-12.71-2.07.4.4,0,0,1-.25-.49.41.41,0,0,1,.5-.25,38.6,38.6,0,0,0,12.46,2c.77,0,1.56,0,2.33-.07a.39.39,0,0,1,0,.78C258.42,105.37,257.62,105.4,256.83,105.4Z"/><path d="M267.39,104a.39.39,0,0,1-.38-.29.4.4,0,0,1,.28-.48c13.64-3.72,24.18-14.55,26.84-27.59a.38.38,0,0,1,.46-.3.39.39,0,0,1,.31.46c-2.73,13.32-13.48,24.39-27.41,28.19Z"/><path class="cls-1" d="M235.28,102.42,248.4,82.23A15.6,15.6,0,0,1,242,69.67a15.37,15.37,0,0,1,.42-3.61l-24-8.06a37,37,0,0,0-2,12C216.36,83.79,223.94,95.69,235.28,102.42Z"/><path d="M235.28,102.81a.36.36,0,0,1-.2-.06C223.11,95.65,216,83.4,216,70a37.51,37.51,0,0,1,2-12.11.39.39,0,0,1,.49-.24l24,8.06a.38.38,0,0,1,.25.46,15.4,15.4,0,0,0-.41,3.52,15.15,15.15,0,0,0,6.29,12.24.4.4,0,0,1,.09.53l-13.12,20.19A.41.41,0,0,1,235.28,102.81ZM218.59,58.49A36.79,36.79,0,0,0,216.75,70c0,13,6.87,24.92,18.41,31.91l12.72-19.57a15.84,15.84,0,0,1-5.95-16Z"/><path class="cls-1" d="M264.82,52.55a16.3,16.3,0,0,1,14.11,14.27l36.68,1.07v0c0-26.91-21.44-49.94-50.14-52.9Z"/><path d="M315.61,68.28h0l-36.68-1.07a.38.38,0,0,1-.38-.35,15.86,15.86,0,0,0-13.78-13.92.39.39,0,0,1-.33-.4l.65-37.61a.38.38,0,0,1,.14-.28.4.4,0,0,1,.29-.1,57.65,57.65,0,0,1,36.08,17.59A52,52,0,0,1,316,67.84a.41.41,0,0,1-.12.3A.38.38,0,0,1,315.61,68.28Zm-36.33-1.84,35.94,1c-.19-26.72-21.31-49-49.36-52.12l-.65,36.85A16.64,16.64,0,0,1,279.28,66.44Z"/><polygon class="cls-1" points="120.82 279.8 121.89 290.06 128.83 290.87 128.83 278.7 120.82 279.8"/><path d="M128.83,291.26h0l-6.94-.82a.38.38,0,0,1-.34-.34l-1.08-10.26a.4.4,0,0,1,.33-.43l8-1.09a.38.38,0,0,1,.44.38v12.17a.39.39,0,0,1-.13.29A.4.4,0,0,1,128.83,291.26Zm-6.58-1.56,6.19.73V279.15l-7.2,1Z"/><path class="cls-1" d="M129.92,308.73a48.33,48.33,0,0,1-13.19,0,3.1,3.1,0,0,1-2.6-3.81c1.23-5,3.34-14.42,7-18.8l.9,2.37,1.25-2.23a1.07,1.07,0,0,1,.82-.56l2.73-.35a1.11,1.11,0,0,1,1.21.87l.43,2.06.95-2.71,3.17,19.7A3.1,3.1,0,0,1,129.92,308.73Z"/><path d="M123.37,309.57a49.54,49.54,0,0,1-6.7-.46,3.49,3.49,0,0,1-2.41-1.5,3.45,3.45,0,0,1-.5-2.79l.26-1.07c1.25-5.14,3.34-13.74,6.77-17.89a.4.4,0,0,1,.37-.14.38.38,0,0,1,.3.25l.6,1.59.84-1.5a1.48,1.48,0,0,1,1.11-.76l2.73-.34a1.49,1.49,0,0,1,1.64,1.17l.15.69.49-1.38a.39.39,0,0,1,.75.06l3.17,19.69a3.49,3.49,0,0,1-3,3.92l-.06-.38.06.38A47.45,47.45,0,0,1,123.37,309.57ZM121,286.89c-3.08,4.2-5,12.18-6.2,17l-.27,1.08a2.71,2.71,0,0,0,.39,2.16,2.73,2.73,0,0,0,1.88,1.17,48,48,0,0,0,13.09,0,2.71,2.71,0,0,0,2.3-3l-2.93-18.17-.44,1.26a.4.4,0,0,1-.39.26.39.39,0,0,1-.36-.31l-.43-2.06a.72.72,0,0,0-.79-.56l-2.72.34a.74.74,0,0,0-.53.36l-1.24,2.24a.41.41,0,0,1-.37.2.39.39,0,0,1-.34-.25Z"/><path d="M121.89,306.27a26.79,26.79,0,0,1-5.85-.62.39.39,0,0,1,.18-.76c6.79,1.55,13.91-.44,14-.46a.39.39,0,0,1,.48.26.4.4,0,0,1-.27.49A34,34,0,0,1,121.89,306.27Z"/><path d="M120.23,298.64a.39.39,0,0,1,0-.78l6.5-.22a.39.39,0,0,1,.4.38.38.38,0,0,1-.37.4l-6.51.22Z"/><polygon class="cls-1" points="153.31 274.33 154.35 289.31 162.69 289.31 163.08 274.33 153.31 274.33"/><path d="M162.7,289.69h-8.35a.38.38,0,0,1-.39-.36l-1-15a.38.38,0,0,1,.1-.29.41.41,0,0,1,.29-.13h9.77a.4.4,0,0,1,.28.12.35.35,0,0,1,.11.28l-.38,15A.39.39,0,0,1,162.7,289.69Zm-8-.77h7.61l.36-14.2h-9Z"/><path class="cls-1" d="M152.17,297.76a3,3,0,0,0,2.32,3c4.8,1.11,15.61,3.6,18.7,4.06,4,.6,8.92-.63,11-3s-4.73-7.93-8-10c-4.83-3-9.47-9-11.42-9.26s-5.58,5.37-5.58,5.37l-5.93-2.49A72.62,72.62,0,0,0,152.17,297.76Z"/><path d="M175.28,305.34a15.22,15.22,0,0,1-2.15-.15c-3.12-.47-14.13-3-18.72-4.07a3.42,3.42,0,0,1-2.63-3.37,73.77,73.77,0,0,1,1.15-12.34.39.39,0,0,1,.2-.27.38.38,0,0,1,.33,0l5.64,2.37c.92-1.39,3.84-5.55,5.77-5.28,1.1.15,2.68,1.65,4.86,3.72a46.57,46.57,0,0,0,6.71,5.6c2.61,1.63,8.13,5.95,8.54,8.88a1.93,1.93,0,0,1-.47,1.67C182.73,304.07,179,305.34,175.28,305.34ZM153.6,286a76.41,76.41,0,0,0-1,11.73,2.64,2.64,0,0,0,2,2.6c4.58,1.06,15.58,3.59,18.66,4.05,4,.6,8.71-.65,10.69-2.84a1.21,1.21,0,0,0,.28-1c-.35-2.49-5.5-6.66-8.18-8.33a46.8,46.8,0,0,1-6.84-5.7c-1.83-1.74-3.57-3.39-4.42-3.51-1.24-.17-3.84,3.1-5.2,5.2a.39.39,0,0,1-.48.15Zm-1.43,11.73Z"/><path d="M175.2,302.6c-8.68,0-20.34-4.71-21-5a.39.39,0,0,1,.3-.73c.21.09,21.35,8.63,27.57,3a.39.39,0,0,1,.55,0,.38.38,0,0,1,0,.55C180.89,302,178.22,302.6,175.2,302.6Z"/><path d="M165.94,293.52a.42.42,0,0,1-.29-.12.39.39,0,0,1,0-.55l4.25-3.83a.38.38,0,0,1,.55,0,.39.39,0,0,1,0,.55l-4.24,3.83A.39.39,0,0,1,165.94,293.52Z"/><path d="M118.45,176.73s-2.59,46.81-3.94,63,3.17,42.13,3.17,42.13l12.88-.68s.88-31.58,1.84-40.34c0,0,5.44-11.89,7.06-22.49s7.1-27.35,7.1-27.35,4.47,83.58,4.9,90.15c0,0,10.1.45,13.72-1.83,0,0,6.42-30.48,5.5-47.06s.09-57.78.09-57.78Z"/><path class="cls-1" d="M130,241.18h-3.94a.38.38,0,0,1-.39-.39.39.39,0,0,1,.39-.39H130a.4.4,0,0,1,.39.39A.39.39,0,0,1,130,241.18Z"/><path class="cls-1" d="M158.08,265.49h0a.39.39,0,0,1-.38-.39c.14-7.73,8.62-21.58,9-22.17a.39.39,0,0,1,.67.41c-.09.14-8.73,14.26-8.87,21.77A.39.39,0,0,1,158.08,265.49Z"/><path class="cls-1" d="M174.85,101.88c.93-.07,5.54,9.35,20,9s26-16.52,26-16.52,5-8.39,8.75-11.42,4.37-3.44,4.37-3.44a3.07,3.07,0,0,1,0,3.44,54.31,54.31,0,0,1-4.45,5.33,4.78,4.78,0,0,1,2,6.09c-1.87,4.74-7.13,4.36-7.13,4.36S213.59,146,169.45,123.5Z"/><path d="M191.34,130c-6.71,0-14.09-2-22.07-6.1a.4.4,0,0,1-.2-.45l5.4-21.62a.38.38,0,0,1,.35-.29c.38,0,.69.31,1.42,1.13,2.19,2.44,7.3,8.14,18.55,7.83,14.05-.39,25.54-16.2,25.66-16.36.18-.31,5-8.45,8.82-11.5s4.37-3.43,4.4-3.45a.39.39,0,0,1,.53.09,3.45,3.45,0,0,1,0,3.88,48.38,48.38,0,0,1-4.18,5,5.12,5.12,0,0,1,1.74,6.3c-1.67,4.24-6,4.6-7.19,4.61-.67,2.63-5.9,21.19-20.78,28.17A28.87,28.87,0,0,1,191.34,130Zm-21.44-6.66c12.95,6.53,24.24,7.62,33.56,3.25,15.61-7.32,20.39-27.74,20.44-27.95a.38.38,0,0,1,.4-.3c.21,0,5,.29,6.75-4.11a4.37,4.37,0,0,0-1.81-5.61.37.37,0,0,1-.19-.28.37.37,0,0,1,.1-.33,54.32,54.32,0,0,0,4.4-5.27,2.65,2.65,0,0,0,.21-2.65c-.48.36-1.58,1.22-4,3.16-3.68,3-8.61,11.24-8.66,11.32s-11.86,16.31-26.29,16.71h-.9c-11,0-16-5.65-18.25-8.1l-.57-.62Z"/><path class="cls-1" d="M103.44,123.5s4.32-27.91,19.6-34.78,35.94-5.91,41.64-2.48,20.55,18.93,20.55,18.93L172.1,123.5s3,49.32.63,62.34c0,0-14.6,1.71-20.79-.73s-26.56-5.86-36.29-1.39l1.77-62.44Z"/><path d="M162.43,186.82c-3.88,0-8-.3-10.64-1.35-6.09-2.4-26.25-5.86-36-1.39a.43.43,0,0,1-.38,0,.4.4,0,0,1-.17-.34l1.75-62-13.51,2.15a.4.4,0,0,1-.34-.11.37.37,0,0,1-.11-.33c.18-1.15,4.53-28.2,19.83-35.07,15.05-6.77,35.85-6.16,42-2.46,5.67,3.41,20,18.36,20.63,19a.39.39,0,0,1,0,.5l-13,18.21c.17,2.91,2.91,49.73.61,62.3a.38.38,0,0,1-.33.32A99.55,99.55,0,0,1,162.43,186.82Zm-33.55-5.67c9.23,0,19.2,2,23.2,3.6,5.56,2.18,18.24,1,20.32.74,2.24-13.25-.66-61.48-.69-62a.38.38,0,0,1,.08-.25l12.93-18.06c-1.88-1.95-15-15.5-20.25-18.63s-26-4.37-41.27,2.5c-13.76,6.18-18.59,30.07-19.29,34l13.45-2.14a.42.42,0,0,1,.32.09.44.44,0,0,1,.13.31l-1.75,61.83C119.51,181.7,124.1,181.15,128.88,181.15Z"/><path d="M129.07,171.24a.39.39,0,0,1-.07-.77c23.21-4.1,30-20.18,30.06-20.34a.39.39,0,0,1,.72.29c-.07.17-7,16.64-30.65,20.82Z"/><polygon points="171 143 141.27 143 150.58 109.8 180.31 109.8 171 143"/><path class="cls-1" d="M106.06,123.61l15-6.73S119,142.37,149.42,130.6a21.73,21.73,0,0,1-1-7.1c.15-3.83,2.44-.13,2.76,3s7.47,1.85,11.76.63,9.94-.43,0,5-12.1,3-12.1,3-12.68,17.75-28.46,14C103,144.53,106.06,123.61,106.06,123.61Z"/><path d="M126.82,150.08a18.91,18.91,0,0,1-4.49-.53c-10.21-2.44-14.2-9.39-15.75-14.79a29.57,29.57,0,0,1-.91-11.21.4.4,0,0,1,.23-.3l15-6.73a.42.42,0,0,1,.39,0,.4.4,0,0,1,.16.35c0,.1-.69,9.35,5.37,13.88,4.69,3.51,12.12,3.37,22.08-.42a22.14,22.14,0,0,1-.87-6.89c0-.49.08-2,1-2h0c1.18,0,2.33,3,2.54,5a1.33,1.33,0,0,0,.62,1c1.78,1.21,6.85.37,10.65-.71,2-.57,5.37-1,6,.46.49,1.2-1.36,2.94-5.66,5.31C155,137,151.94,136.28,151,135.74,149.33,137.87,139.41,150.08,126.82,150.08Zm-20.4-26.21a29.37,29.37,0,0,0,.92,10.7c2.17,7.55,7.27,12.34,15.17,14.22a18.52,18.52,0,0,0,4.32.51c13.32,0,23.62-14.17,23.73-14.33a.37.37,0,0,1,.3-.16.37.37,0,0,1,.31.13s2.24,2.05,11.63-3.12c5.61-3.1,5.35-4.22,5.3-4.33-.24-.59-2.53-.72-5,0-2,.58-8.78,2.32-11.3.61a2.07,2.07,0,0,1-.95-1.57c-.24-2.26-1.38-4.2-1.76-4.26,0,0-.19.22-.23,1.25a21.32,21.32,0,0,0,.94,7,.38.38,0,0,1-.23.49c-10.4,4-18.2,4.18-23.17.46-5.52-4.13-5.77-11.66-5.71-13.92Z"/><path d="M146.21,76c-1.3,1.19-3.84,2.64-5.82,1.64-1.49-.75-2.31-2.68-2.26-4.89a3,3,0,0,1-2.23-.56c-1-.87-.8-2.48-.76-3.53.18-4.87-2.65-5.62-2-8.92a7.91,7.91,0,0,1,3-4.44c1.92-1.46,3.23-1,6.47-1.84,5.44-1.42,5.62-3.77,9.21-3.78.21,0,5.09.05,6.75,3.43,1.35,2.74-.23,6.08-1.86,7.83-2.11,2.27-3.62,1.15-5.74,3C147.27,67.34,150.07,72.47,146.21,76Z"/><path class="cls-1" d="M157.09,67.32l-.22-.19a6.61,6.61,0,0,1-2.48-3.4c-1.22-5.93-6.65-8.08-6.9-2.64-.06,1.38-5.08,1.31-4.48,2.75,1.55,3.76,1.58,2.74-.61,4.13a1.9,1.9,0,0,0-.73.17,2.51,2.51,0,0,0-.88,3.41,2.93,2.93,0,0,0,1.78,1.6v5.93a5.5,5.5,0,0,1-3.41,5.08l-2,.82s9.35,6.1,18.84-.6l-1.27-.57A6.4,6.4,0,0,1,151,78.18V77a5.05,5.05,0,0,0,1.83-.15c2.65-.77,3.53-3.83,3.08-7.63l1.08-.59A.81.81,0,0,0,157.09,67.32Z"/><path d="M146.4,87.89a19.13,19.13,0,0,1-9.46-2.59.4.4,0,0,1-.17-.36.37.37,0,0,1,.24-.32l2-.82a5.08,5.08,0,0,0,3.17-4.72V73.42a3.35,3.35,0,0,1-1.75-1.71,2.89,2.89,0,0,1,1.08-3.92,2.25,2.25,0,0,1,.77-.2c.36-.23.66-.39.9-.52s.54-.28.54-.35a5.15,5.15,0,0,0-.5-1.37L142.64,64a.91.91,0,0,1,0-.76c.3-.62,1.27-.89,2.39-1.21.81-.23,2-.57,2-.94.14-3,1.7-3.45,2.37-3.5,1.92-.15,4.49,2.13,5.3,6.07a6.31,6.31,0,0,0,2.36,3.19l.21.18a1.19,1.19,0,0,1,.41,1,1.21,1.21,0,0,1-.63.93l-.84.45c.43,4.2-.8,7-3.4,7.79a5.08,5.08,0,0,1-1.54.19v.75a6,6,0,0,0,3.54,5.27l1.27.57a.43.43,0,0,1,.23.32.4.4,0,0,1-.17.36A16.75,16.75,0,0,1,146.4,87.89ZM138.05,85c2.23,1.17,9.63,4.32,17.15-.58l-.63-.28a6.83,6.83,0,0,1-4-6V77a.4.4,0,0,1,.12-.29.41.41,0,0,1,.3-.1,4.42,4.42,0,0,0,1.69-.14c2.25-.65,3.27-3.28,2.8-7.21a.38.38,0,0,1,.21-.39l1.08-.58A.45.45,0,0,0,157,68a.44.44,0,0,0-.15-.37h0l-.21-.18A7,7,0,0,1,154,63.81c-.7-3.42-2.88-5.58-4.47-5.45-1,.07-1.57,1.08-1.65,2.75,0,.94-1.3,1.29-2.62,1.66-.74.21-1.76.49-1.9.8,0,0,0,0,0,.12.22.54.41,1,.57,1.35.73,1.69.89,2-.39,2.72-.25.13-.56.3-.94.54a.33.33,0,0,1-.19.06,1.38,1.38,0,0,0-.58.14,2.12,2.12,0,0,0-.7,2.88,2.5,2.5,0,0,0,1.54,1.39.4.4,0,0,1,.28.38v5.93a5.85,5.85,0,0,1-3.65,5.44Z"/><path d="M151,77.41h-.06a8.15,8.15,0,0,1-5.62-3.63.4.4,0,0,1,.15-.54.4.4,0,0,1,.53.15A7.45,7.45,0,0,0,151,76.63a.39.39,0,0,1,.32.45A.39.39,0,0,1,151,77.41Z"/><path d="M24.18,128.81a3.71,3.71,0,0,1-3.43-2.32,3.69,3.69,0,1,1,3.43,2.32Zm0-6.62a2.83,2.83,0,0,0-1.09.22,2.92,2.92,0,0,0,0,5.39,2.92,2.92,0,1,0,1.14-5.61Z"/><path d="M296.67,137a.41.41,0,0,1-.27-.1.4.4,0,0,1,0-.56l1.83-1.91a.39.39,0,0,1,.55,0,.38.38,0,0,1,0,.55L297,136.89A.36.36,0,0,1,296.67,137Z"/><path d="M290.28,143.7a.39.39,0,0,1-.27-.11.39.39,0,0,1,0-.55l1.83-1.91a.38.38,0,0,1,.55,0,.39.39,0,0,1,0,.55l-1.83,1.91A.39.39,0,0,1,290.28,143.7Z"/><path d="M292.07,137.12a.36.36,0,0,1-.27-.12l-1.86-1.82a.4.4,0,0,1,0-.56.39.39,0,0,1,.55,0l1.85,1.83a.38.38,0,0,1,0,.55A.39.39,0,0,1,292.07,137.12Z"/><path d="M298.56,143.51a.35.35,0,0,1-.27-.11l-1.86-1.83A.39.39,0,0,1,297,141l1.86,1.83a.39.39,0,0,1,0,.55A.38.38,0,0,1,298.56,143.51Z"/><path d="M164.26,25.51a.43.43,0,0,1-.27-.11.39.39,0,0,1,0-.55l1.83-1.91a.39.39,0,0,1,.55,0,.38.38,0,0,1,0,.55l-1.83,1.91A.36.36,0,0,1,164.26,25.51Z"/><path d="M157.87,32.2a.39.39,0,0,1-.27-.11.39.39,0,0,1,0-.55l1.83-1.91a.39.39,0,0,1,.55,0,.4.4,0,0,1,0,.56l-1.83,1.91A.39.39,0,0,1,157.87,32.2Z"/><path d="M159.66,25.61a.35.35,0,0,1-.27-.11l-1.86-1.83a.39.39,0,0,1,.55-.55L159.93,25a.38.38,0,0,1,0,.55A.43.43,0,0,1,159.66,25.61Z"/><path d="M166.15,32a.39.39,0,0,1-.27-.11L164,30.07a.39.39,0,0,1,0-.55.38.38,0,0,1,.55,0l1.86,1.82a.4.4,0,0,1,0,.56A.43.43,0,0,1,166.15,32Z"/></svg>