<svg id="Capa_1" data-name="Capa 1" xmlns="http://www.w3.org/2000/svg" viewBox="0 0 352 330"><defs><style>.cls-1{fill:#fff;}</style></defs><polygon class="cls-1" points="228.27 80.61 177.32 72.82 126.36 80.61 75.41 72.82 75.41 222.72 126.36 230.51 177.32 222.72 228.27 230.51 277.76 222.72 277.76 72.82 228.27 80.61"/><path class="cls-1" d="M177.32,222.72l51,7.79,49.49-7.79V118.91a13.09,13.09,0,0,0-5.87,5.53c-5.26,9.65,1.66,17.1,1.86,26.31.61,28.3-39,12.78-54.76,20.71s-6.28,38.63-42.29,39.95c-3.82.14-8.76,6.6-12.93,13.38Z"/><path d="M228.27,230.76h0L177.32,223,163.81,225a.22.22,0,0,1-.24-.1.27.27,0,0,1,0-.26c5.43-8.84,9.84-13.38,13.13-13.5,22.37-.82,27.1-13.16,31.27-24,2.54-6.62,4.94-12.87,10.92-15.88,5.54-2.79,13.8-2.7,22.55-2.62,10.94.11,22.26.22,28.06-5.64,2.82-2.85,4.13-6.85,4-12.23a34.63,34.63,0,0,0-1.94-9.4c-1.69-5.54-3.29-10.77.11-17a13.36,13.36,0,0,1,6-5.64.26.26,0,0,1,.24,0,.25.25,0,0,1,.11.21V222.72a.25.25,0,0,1-.21.24l-49.48,7.79Zm-51-8.28h0l50.92,7.79,49.24-7.75V119.31a12.76,12.76,0,0,0-5.41,5.25c-3.31,6.08-1.74,11.21-.07,16.65a34.88,34.88,0,0,1,2,9.53c.12,5.52-1.24,9.63-4.15,12.58-5.95,6-17.37,5.9-28.41,5.79-8.69-.09-16.89-.17-22.33,2.57-5.82,2.92-8.18,9.09-10.68,15.61-4.23,11-9,23.53-31.71,24.37-3,.11-7.32,4.54-12.45,12.81l13-2Z"/><path class="cls-1" d="M75.41,203a9.86,9.86,0,0,0,2.81,1.73c9.74,4,14.89-3.16,20.12,1.48,2.13,1.89,1.11,13.41,5.87,17.94a21.22,21.22,0,0,0,2.79,3.41l19.36,3,32.38-4.95c2.37-7.79,3.08-11.1.46-17.39-4.15-10-9.61-17.06-7.67-20.73s8.21-4.25,11.92.05,13.2,8.82,18.18,7c6.13-2.29,5.06-14.09,7.5-17.7s14-4.89,19.44-12.47,23.09-3.36,33.28-4.46c12.67-1.37,20.82-5.71,22.31-8.25,4.74-8-6.22-12.79-3-19.32s4.09-11,2.61-15c-2.17-5.73,7.24-3.61,13.94-4.32V72.82l-49.49,7.79-51-7.79-51,7.79L75.41,72.82Z"/><path d="M126.36,230.76h0l-19.36-3a.19.19,0,0,1-.14-.07A21.73,21.73,0,0,1,104,224.3c-2.89-2.77-3.67-8-4.3-12.19-.41-2.7-.75-5-1.54-5.72-2.48-2.2-4.92-1.65-8-1s-7,1.59-12.06-.48a10.18,10.18,0,0,1-2.87-1.78.23.23,0,0,1-.08-.18V72.82a.27.27,0,0,1,.08-.19.26.26,0,0,1,.2,0l50.91,7.78,50.92-7.78a.08.08,0,0,1,.07,0l50.92,7.78,49.45-7.78a.25.25,0,0,1,.19,0,.25.25,0,0,1,.09.19V113a.25.25,0,0,1-.22.24,52.81,52.81,0,0,1-5.67.17c-3.64,0-7.08,0-8.07,1.4a2.54,2.54,0,0,0,0,2.42c1.5,4,.72,8.48-2.61,15.14-1.46,2.92.05,5.5,1.64,8.23,1.93,3.29,3.91,6.69,1.3,11.12-1.51,2.55-9.7,7-22.49,8.36a78.47,78.47,0,0,1-11,0c-9.06-.38-18.44-.78-22.14,4.36-3.25,4.52-8.64,6.83-13,8.69-3,1.26-5.51,2.36-6.47,3.78-.85,1.25-1.28,3.63-1.74,6.14-.86,4.75-1.83,10.13-5.88,11.64a7.72,7.72,0,0,1-2.74.45c-5.34,0-12.7-4-15.72-7.47a8.12,8.12,0,0,0-7-2.88,5.67,5.67,0,0,0-4.48,2.79c-1.24,2.35.74,6.25,3.48,11.64,1.33,2.63,2.84,5.6,4.21,8.87,2.59,6.22,2,9.57-.46,17.56a.22.22,0,0,1-.19.17l-32.38,4.95Zm-19.24-3.43,19.24,2.94,32.19-4.92c2.4-7.92,3-11,.43-17.09-1.36-3.26-2.87-6.22-4.19-8.84-2.81-5.52-4.84-9.52-3.48-12.09a6.14,6.14,0,0,1,4.85-3,8.58,8.58,0,0,1,7.47,3.05c3.49,4,12.91,8.75,17.92,6.88,3.79-1.42,4.74-6.66,5.57-11.27.49-2.68.91-5,1.81-6.33,1-1.55,3.66-2.66,6.68-4,4.28-1.83,9.59-4.11,12.76-8.52,3.86-5.36,13.37-5,22.56-4.56a77.19,77.19,0,0,0,10.89,0c12.63-1.36,20.67-5.65,22.13-8.12,2.47-4.18.56-7.46-1.3-10.62-1.66-2.85-3.23-5.54-1.66-8.69,3.27-6.53,4-10.94,2.6-14.75a3,3,0,0,1,.05-2.88c1.14-1.64,4.54-1.63,8.47-1.61,1.82,0,3.69,0,5.4-.14V73.1l-49.2,7.75h-.07l-50.92-7.79L126.4,80.85h-.07L75.65,73.1V202.88a10.08,10.08,0,0,0,2.66,1.62c4.88,2,8.54,1.19,11.77.46s5.75-1.3,8.42,1.06c.92.82,1.26,3.11,1.7,6,.62,4.14,1.39,9.28,4.18,11.94l0,0A20.63,20.63,0,0,0,107.12,227.33Z"/><path class="cls-1" d="M202.69,169.59a48.52,48.52,0,0,0-9.3-13.93c-5.52-5.79-3.2-11.28-5.19-15.88s-17.66-12.06-19.62-17-1.27-14.63,0-19.63c5.42-22.15-2.56-1-4.85,5.2a22.37,22.37,0,0,0-1.38,6.81,16.07,16.07,0,0,0,1.11,6.83c3.55,8.22,11.09,11.69,15.51,16.91,1.74,2.06,2.41,2.78,2.49,4.32-2.53-1-5.68-.78-9.18-4-2.55-2.36-5.78-6-5.78-6s-5.85-8.15-10.59-10.57-22.51-7.65-29.39-14.44c-6.26-6.18-8.32-15.74-16.23-20.35-4-2.3-9.42-2.54-13.43-4.32-3.55-1.57-5.46-5.12-6.56-8.42l-6.57-1c.66,4.48,2.38,10.75,6.83,13.23,3,1.65,13.28,1.09,18.94,4.09s6.3,14.55,10.48,19c6.88,7.36,22.38,10.16,26.18,11.21,8.9,2.46,14.71,9,18.54,13.41s7.3,7.85,9,8.52c4,1.6,6.08,1.33,7.66,1.91-.11.93-.27,2.09-.46,3.59-1.23,9.6.87,8.06,7.09,15.16,2.7,3.08-.41,15.64-.79,20Z"/><path d="M187.13,184.5h0a.24.24,0,0,1-.22-.26c.09-1.09.35-2.67.65-4.49.86-5.23,2.16-13.13.2-15.37a53.87,53.87,0,0,0-3.86-4c-3.17-3-4.23-4-3.3-11.39.08-.6.15-1.15.22-1.65.09-.66.16-1.23.22-1.74a10.38,10.38,0,0,0-1.8-.36,23.47,23.47,0,0,1-5.68-1.49c-1.55-.62-4.59-3.51-9.06-8.59-3.82-4.34-9.59-10.9-18.42-13.33-.52-.14-1.23-.31-2.14-.53-5.89-1.41-18.16-4.34-24.16-10.75-1.82-2-3-5.14-4.15-8.51-1.54-4.32-3.12-8.8-6.27-10.46s-7.84-2.23-12-2.7c-3-.35-5.68-.66-7-1.39-4.48-2.49-6.26-8.66-7-13.4a.24.24,0,0,1,.07-.21.26.26,0,0,1,.21-.07l6.57,1a.24.24,0,0,1,.19.16c1.4,4.23,3.57,7,6.43,8.28a33.79,33.79,0,0,0,5.8,1.74,28.41,28.41,0,0,1,7.65,2.59c4.69,2.74,7.39,7.25,10,11.62a42.76,42.76,0,0,0,6.29,8.76c4.95,4.88,15.75,9,22.9,11.77,2.85,1.09,5.11,2,6.43,2.63,4.7,2.41,10.34,10.18,10.67,10.64.18.2,3.31,3.72,5.75,6a13.38,13.38,0,0,0,6.81,3.33c.67.16,1.32.31,1.93.52-.16-1.16-.77-1.89-2.2-3.57l-.19-.23a44,44,0,0,0-5.46-5.09c-3.81-3.19-7.76-6.49-10.09-11.89a15.84,15.84,0,0,1-1.13-6.93,22.41,22.41,0,0,1,1.39-6.88C169.2,92.73,170,93,170.32,93.07s.88.27-1.55,10.16c-1.23,5-1.91,14.61,0,19.48,1,2.46,5.59,5.65,10,8.73s8.57,5.94,9.57,8.25a16.48,16.48,0,0,1,1.06,5.36c.3,3.34.61,6.8,4.08,10.44a49.37,49.37,0,0,1,9.35,14,.25.25,0,0,1-.13.32.25.25,0,0,1-.32-.13,48.61,48.61,0,0,0-9.25-13.86c-3.59-3.77-3.92-7.47-4.21-10.74a16.52,16.52,0,0,0-1-5.21c-.95-2.18-5.25-5.16-9.41-8-4.51-3.12-9.19-6.36-10.22-9-2-5-1.3-14.67,0-19.78,1.73-7,1.91-9,1.85-9.48-.63.7-2.56,4.88-6.23,14.83a21.74,21.74,0,0,0-1.36,6.73,15.38,15.38,0,0,0,1.09,6.72c2.28,5.29,6.18,8.55,9.95,11.71a43.52,43.52,0,0,1,5.52,5.15l.19.22c1.61,1.89,2.27,2.68,2.35,4.24a.23.23,0,0,1-.1.21.26.26,0,0,1-.23,0,16.89,16.89,0,0,0-2.24-.64,13.91,13.91,0,0,1-7-3.44c-2.53-2.35-5.76-6-5.8-6v0c-.06-.08-5.86-8.12-10.5-10.49-1.3-.67-3.66-1.57-6.38-2.62-7.19-2.75-18-6.92-23.07-11.87A43.13,43.13,0,0,1,120,99.49c-2.58-4.32-5.24-8.78-9.82-11.45a28.12,28.12,0,0,0-7.52-2.54,34.1,34.1,0,0,1-5.88-1.76c-3-1.32-5.21-4.15-6.65-8.43L84,74.38C84.7,79,86.44,84.75,90.64,87.1c1.22.68,3.81,1,6.81,1.33,4.14.47,8.84,1,12.12,2.75s4.93,6.32,6.5,10.73c1.18,3.32,2.29,6.46,4,8.33,5.9,6.31,18.08,9.22,23.93,10.62.91.21,1.63.38,2.15.53,9,2.47,14.8,9.1,18.65,13.48,4.36,4.95,7.43,7.87,8.88,8.45a22.59,22.59,0,0,0,5.57,1.47,11.15,11.15,0,0,1,2.08.44.25.25,0,0,1,.16.26c-.06.56-.15,1.2-.25,1.94-.06.5-.14,1-.21,1.66-.91,7.09,0,8,3.15,11,1,1,2.34,2.24,3.88,4,2.11,2.41.85,10.13-.08,15.77-.3,1.81-.55,3.38-.65,4.45A.24.24,0,0,1,187.13,184.5Z"/><path class="cls-1" d="M232.69,112.24c1.74,3.56,8.38,4.44,10.71.86,3.69-5.66,7.61-4.52,11.38-4.65,4.78-.17,5.38-5.42,4.61-7.93s-3.5-7.73-9.94-6.11-7.14,5.57-11.28,4.85-11.32-2.52-14.71,1.62C217,108.74,230.2,107.14,232.69,112.24Z"/><path d="M238.61,115.63h-.5a6.64,6.64,0,0,1-5.64-3.27c-.92-1.9-3.42-2.84-5.84-3.74s-4.61-1.74-5.07-3.46c-.32-1.18.24-2.62,1.72-4.43,3.16-3.88,9.53-2.7,13.75-1.92l1.18.22c2.07.36,3.21-.49,4.8-1.66a16.86,16.86,0,0,1,6.38-3.19c7.36-1.85,9.82,4.9,10.23,6.28a7.75,7.75,0,0,1-.89,6.24,4.8,4.8,0,0,1-3.94,2c-.6,0-1.21,0-1.8,0-3.12,0-6.35-.11-9.38,4.54A5.79,5.79,0,0,1,238.61,115.63Zm-5.7-3.49a6.15,6.15,0,0,0,5.23,3A5.45,5.45,0,0,0,243.2,113c3.18-4.89,6.55-4.82,9.8-4.77.58,0,1.19,0,1.77,0a4.33,4.33,0,0,0,3.56-1.8,7.22,7.22,0,0,0,.83-5.82c-.4-1.3-2.72-7.69-9.65-6a16.34,16.34,0,0,0-6.21,3.11c-1.62,1.2-2.9,2.14-5.17,1.75l-1.19-.22c-4.1-.76-10.3-1.9-13.29,1.75-1.36,1.67-1.9,3-1.62,4,.4,1.49,2.52,2.29,4.77,3.13C229.31,109.09,231.9,110.06,232.91,112.14Z"/><path class="cls-1" d="M277.76,173.44a12.7,12.7,0,0,0-1.38,0c-17,1-15.41,13.49-23.49,19.15-5.62,3.94-4.28,9.6,3.18,8.71,11.79-1.4,12,4.74,13.37,7.7s4.7,4.5,8.32,5.13Z"/><path d="M277.76,214.37h0c-4.23-.74-7.32-2.65-8.5-5.27a13.89,13.89,0,0,1-.52-1.36c-1.1-3.12-2.6-7.39-12.6-6.2-3.43.41-5.93-.53-6.69-2.52s.53-4.66,3.34-6.63,4.39-4.7,6.09-7.61c3.14-5.38,6.38-10.94,17.52-11.58a13.3,13.3,0,0,1,1.41,0,.25.25,0,0,1,.23.25v40.69a.21.21,0,0,1-.09.18A.22.22,0,0,1,277.76,214.37Zm-18.52-13.51c7.56,0,9,4,9.92,6.72a13.12,13.12,0,0,0,.5,1.32c1.09,2.41,3.94,4.2,7.85,4.94V173.67a10.51,10.51,0,0,0-1.12,0c-10.88.62-14.06,6.07-17.13,11.34-1.65,2.82-3.35,5.75-6.23,7.76-2.62,1.84-3.87,4.22-3.17,6.05s3,2.6,6.18,2.22A27.14,27.14,0,0,1,259.24,200.86Z"/><path class="cls-1" d="M223.75,216.93c-8.54-5.07-15.55,5-16.87,10.32l21.35,3.26,17.89-2.81C242.67,218.37,234.73,223.46,223.75,216.93Z"/><path d="M228.23,230.76h0l-21.36-3.26a.25.25,0,0,1-.17-.11.21.21,0,0,1,0-.19c.87-3.45,4.24-9.2,9-11.19a8.8,8.8,0,0,1,8.21.72,31.86,31.86,0,0,0,12.11,4c4.65.77,8.33,1.39,10.37,6.9a.22.22,0,0,1,0,.21.24.24,0,0,1-.17.12l-17.89,2.81Zm-21-3.71,21,3.22,17.56-2.77c-2-5-5.3-5.55-9.89-6.31a32.82,32.82,0,0,1-12.27-4.05,8.33,8.33,0,0,0-7.78-.69C211.34,218.33,208.12,223.68,207.18,227.05Z"/><path d="M205.49,141.84a.26.26,0,0,1-.25-.24.25.25,0,0,1,.24-.25,13.29,13.29,0,0,0,1.9-.19.25.25,0,0,1,.28.2.23.23,0,0,1-.2.28,12.89,12.89,0,0,1-2,.2Zm3.82-.66a.24.24,0,0,1-.23-.17.23.23,0,0,1,.15-.31A16.08,16.08,0,0,0,211,140a.24.24,0,0,1,.32.11.24.24,0,0,1-.12.33,16.21,16.21,0,0,1-1.83.73Zm3.51-1.65a.22.22,0,0,1-.2-.12.23.23,0,0,1,.08-.33c.49-.29,1-.61,1.63-1a.25.25,0,0,1,.27.41c-.65.43-1.16.75-1.65,1.05A.28.28,0,0,1,212.82,139.53Zm3.26-2.13a.22.22,0,0,1-.2-.11A.24.24,0,0,1,216,137l.26-.18a13.18,13.18,0,0,0,1.29-.95.24.24,0,0,1,.34,0,.25.25,0,0,1,0,.35,16,16,0,0,1-1.33,1l-.26.17A.23.23,0,0,1,216.08,137.4Zm3-2.43a.27.27,0,0,1-.18-.08.24.24,0,0,1,0-.34c.42-.4.87-.85,1.38-1.37a.24.24,0,0,1,.35.34c-.51.52-1,1-1.39,1.38A.28.28,0,0,1,219.11,135Zm2.72-2.79a.23.23,0,0,1-.16-.06.24.24,0,0,1,0-.35l1.2-1.29.12-.13a.24.24,0,0,1,.35,0,.25.25,0,0,1,0,.34l-.12.13-1.21,1.3A.24.24,0,0,1,221.83,132.18Zm2.66-2.85a.27.27,0,0,1-.17-.06.26.26,0,0,1,0-.35c.44-.46.89-.94,1.35-1.41a.24.24,0,0,1,.35.34c-.46.47-.9.94-1.34,1.41A.26.26,0,0,1,224.49,129.33Zm2.71-2.79a.23.23,0,0,1-.17-.07.25.25,0,0,1,0-.34c.48-.48,1-.93,1.42-1.35a.23.23,0,0,1,.34,0,.24.24,0,0,1,0,.34c-.46.42-.93.87-1.41,1.34A.21.21,0,0,1,227.2,126.54Zm2.87-2.63a.24.24,0,0,1-.16-.43c.51-.44,1-.85,1.52-1.24a.24.24,0,0,1,.34.05.25.25,0,0,1,0,.34c-.5.38-1,.79-1.5,1.22A.27.27,0,0,1,230.07,123.91Zm3.08-2.38a.26.26,0,0,1-.2-.1.24.24,0,0,1,.06-.34c.55-.38,1.11-.73,1.65-1.06a.25.25,0,0,1,.34.09.24.24,0,0,1-.09.33c-.54.32-1.08.67-1.62,1A.25.25,0,0,1,233.15,121.53Zm3.35-2a.24.24,0,0,1-.22-.14.24.24,0,0,1,.11-.32c.59-.3,1.2-.56,1.79-.8a.24.24,0,0,1,.32.14.23.23,0,0,1-.14.31c-.58.23-1.17.49-1.76.78A.19.19,0,0,1,236.5,119.56Zm3.61-1.41a.24.24,0,0,1-.06-.48c.63-.18,1.27-.33,1.91-.45a.23.23,0,0,1,.28.2.24.24,0,0,1-.19.28,17.48,17.48,0,0,0-1.87.44Zm3.82-.7a.24.24,0,0,1-.24-.22.25.25,0,0,1,.22-.27c.65,0,1.31-.07,2-.06a.25.25,0,0,1,0,.49h0q-1,0-1.92.06Zm3.89,0a.26.26,0,0,1-.25-.24.25.25,0,0,1,.24-.25c.65,0,1.3-.06,1.92-.12a.24.24,0,0,1,.27.22.24.24,0,0,1-.22.26c-.63.07-1.29.11-2,.13Zm3.86-.39a.24.24,0,0,1,0-.48c.64-.11,1.27-.25,1.88-.41a.24.24,0,0,1,.3.17.26.26,0,0,1-.18.3c-.62.16-1.26.3-1.91.42Zm3.75-1a.23.23,0,0,1-.22-.15.24.24,0,0,1,.14-.32,17.28,17.28,0,0,0,1.76-.76.24.24,0,0,1,.32.11.24.24,0,0,1-.11.33,19.52,19.52,0,0,1-1.8.78Zm3.48-1.73a.26.26,0,0,1-.21-.11.25.25,0,0,1,.07-.34,16.06,16.06,0,0,0,1.54-1.13.25.25,0,0,1,.35,0,.25.25,0,0,1,0,.34,16.68,16.68,0,0,1-1.59,1.17A.22.22,0,0,1,258.91,114.27Zm3-2.49a.23.23,0,0,1-.16-.06.25.25,0,0,1,0-.35,12.21,12.21,0,0,0,1.21-1.48.25.25,0,0,1,.4.29,15.06,15.06,0,0,1-1.25,1.52A.22.22,0,0,1,261.88,111.78Zm2.26-3.15a.27.27,0,0,1-.12,0,.24.24,0,0,1-.09-.33,16,16,0,0,0,.79-1.74.24.24,0,0,1,.45.17,14.61,14.61,0,0,1-.82,1.8A.23.23,0,0,1,264.14,108.63Zm1.38-3.63h-.06a.24.24,0,0,1-.18-.29,13.32,13.32,0,0,0,.32-1.89.24.24,0,0,1,.27-.21.25.25,0,0,1,.22.27,14.32,14.32,0,0,1-.34,1.94A.24.24,0,0,1,265.52,105Zm.4-3.86a.24.24,0,0,1-.24-.24,14.91,14.91,0,0,0-.18-1.9.24.24,0,1,1,.48-.08,14.42,14.42,0,0,1,.18,2,.23.23,0,0,1-.23.25Zm-.63-3.83a.25.25,0,0,1-.24-.17,11.77,11.77,0,0,0-.71-1.76.25.25,0,1,1,.44-.22,12.4,12.4,0,0,1,.74,1.84.24.24,0,0,1-.16.3Zm-1.74-3.46a.24.24,0,0,1-.19-.1,10.15,10.15,0,0,0-1.26-1.43.24.24,0,0,1,.34-.35,11.74,11.74,0,0,1,1.31,1.49.25.25,0,0,1-.05.34A.3.3,0,0,1,263.55,93.85Zm-19.36-1a.25.25,0,0,1-.21-.12.25.25,0,0,1,.09-.33c.58-.34,1.15-.66,1.72-.94a.24.24,0,0,1,.33.1.25.25,0,0,1-.11.33c-.56.28-1.13.59-1.69.93A.28.28,0,0,1,244.19,92.85Zm16.55-1.66a.22.22,0,0,1-.13,0,9.5,9.5,0,0,0-1.68-.86.24.24,0,0,1-.14-.32.25.25,0,0,1,.32-.13,10.42,10.42,0,0,1,1.76.9.25.25,0,0,1,.08.34A.26.26,0,0,1,260.74,91.19Zm-13.07-.09a.25.25,0,0,1-.23-.15.25.25,0,0,1,.13-.32c.62-.26,1.24-.49,1.84-.69a.25.25,0,0,1,.31.16.24.24,0,0,1-.16.3c-.59.2-1.19.42-1.8.68Zm3.69-1.2a.24.24,0,0,1-.23-.19.24.24,0,0,1,.18-.29,17.14,17.14,0,0,1,1.95-.31.24.24,0,0,1,.26.21.23.23,0,0,1-.21.27,14,14,0,0,0-1.89.31Zm5.79-.15h0a11.76,11.76,0,0,0-1.89-.22.25.25,0,0,1-.24-.25.26.26,0,0,1,.25-.24,13.79,13.79,0,0,1,2,.23.25.25,0,0,1,.19.29A.23.23,0,0,1,257.15,89.75Z"/><path d="M194.31,140.26a.19.19,0,0,1-.1,0c-.58-.28-1.16-.6-1.73-.94a.25.25,0,1,1,.26-.42,18.48,18.48,0,0,0,1.68.92.25.25,0,0,1,.11.33A.24.24,0,0,1,194.31,140.26Zm-3.32-2a.23.23,0,0,1-.14,0c-.52-.38-1-.78-1.54-1.22a.23.23,0,0,1,0-.34.25.25,0,0,1,.34,0c.5.43,1,.83,1.52,1.19a.25.25,0,0,1,.05.34A.23.23,0,0,1,191,138.24Zm-3-2.5a.23.23,0,0,1-.17-.07c-.45-.44-.91-.9-1.37-1.39a.24.24,0,0,1,0-.35.25.25,0,0,1,.34,0c.45.49.91.95,1.36,1.38a.24.24,0,0,1,0,.34A.27.27,0,0,1,188,135.74Zm-2.66-2.84a.27.27,0,0,1-.19-.08c-.41-.48-.83-1-1.24-1.51a.23.23,0,0,1,0-.34.24.24,0,0,1,.34,0c.41.52.83,1,1.23,1.49a.25.25,0,0,1,0,.35A.33.33,0,0,1,185.36,132.9Zm-2.43-3a.25.25,0,0,1-.2-.09c-.37-.5-.76-1-1.15-1.58a.23.23,0,0,1,0-.33.24.24,0,0,1,.34,0c.4.55.78,1.07,1.15,1.56a.25.25,0,0,1-.05.35A.23.23,0,0,1,182.93,129.86Zm-2.28-3.15a.24.24,0,0,1-.2-.11l-1.11-1.6a.25.25,0,0,1,.07-.34.23.23,0,0,1,.33.06l1.11,1.61a.25.25,0,0,1-.2.38Zm-2.2-3.21a.23.23,0,0,1-.2-.11l-.12-.17-1-1.44a.25.25,0,0,1,.07-.34.24.24,0,0,1,.33.07c.33.47.66.95,1,1.44l.12.17a.24.24,0,0,1-.07.33A.24.24,0,0,1,178.45,123.5Zm-2.2-3.22a.23.23,0,0,1-.2-.1l-1.12-1.59a.24.24,0,0,1,.4-.28l1.12,1.59a.24.24,0,0,1-.06.34A.23.23,0,0,1,176.25,120.28ZM174,117.12a.23.23,0,0,1-.19-.1l-1.18-1.54a.23.23,0,0,1,0-.34.25.25,0,0,1,.34,0l1.19,1.55a.24.24,0,0,1-.05.34A.23.23,0,0,1,174,117.12Zm-2.41-3.05a.25.25,0,0,1-.19-.09c-.42-.5-.85-1-1.27-1.45a.24.24,0,0,1,0-.35.24.24,0,0,1,.34,0c.43.47.87,1,1.29,1.47a.23.23,0,0,1,0,.34A.22.22,0,0,1,171.57,114.07ZM169,111.2a.25.25,0,0,1-.18-.08c-.46-.47-.93-.92-1.39-1.34a.24.24,0,0,1,.33-.36c.46.43.94.89,1.41,1.36a.25.25,0,0,1-.17.42Zm-2.87-2.63a.3.3,0,0,1-.16,0c-.51-.42-1-.82-1.53-1.18a.24.24,0,0,1,.29-.39c.51.36,1,.77,1.55,1.19a.24.24,0,0,1,0,.34A.21.21,0,0,1,166.08,108.57Zm-3.17-2.26-.12,0c-.56-.34-1.13-.66-1.69-.93a.25.25,0,1,1,.22-.44c.57.28,1.15.6,1.72,1a.25.25,0,0,1,.08.34A.26.26,0,0,1,162.91,106.31Zm-16.62-.69a.22.22,0,0,1-.21-.12.24.24,0,0,1,.09-.33,18,18,0,0,1,1.78-.85.24.24,0,0,1,.32.13.25.25,0,0,1-.13.32,18.1,18.1,0,0,0-1.73.82A.27.27,0,0,1,146.29,105.62Zm13.14-1-.09,0q-.92-.33-1.83-.57a.24.24,0,0,1-.18-.29.26.26,0,0,1,.3-.18,17,17,0,0,1,1.88.59.24.24,0,0,1,.14.31A.22.22,0,0,1,159.43,104.6Zm-9.55-.46a.24.24,0,0,1-.23-.17.24.24,0,0,1,.16-.3,13.33,13.33,0,0,1,1.93-.42.24.24,0,0,1,.28.2.25.25,0,0,1-.2.28,15.6,15.6,0,0,0-1.87.4Zm5.78-.47h0a13.58,13.58,0,0,0-1.91-.1h0a.25.25,0,0,1,0-.49,14.69,14.69,0,0,1,2,.11.23.23,0,0,1,.21.27A.24.24,0,0,1,155.66,103.67Z"/><path d="M110.56,170.7a12.88,12.88,0,0,1-1.75-.13.25.25,0,0,1-.21-.28.24.24,0,0,1,.27-.2,12.22,12.22,0,0,0,1.69.12h.22a.24.24,0,0,1,0,.48Zm2.15-.21a.25.25,0,0,1-.24-.2.24.24,0,0,1,.19-.28,12,12,0,0,0,1.83-.54.25.25,0,0,1,.17.46,10.82,10.82,0,0,1-1.9.55Zm-5.77-.34h-.07a15.81,15.81,0,0,1-1.85-.66.25.25,0,0,1-.13-.32.24.24,0,0,1,.32-.13,17,17,0,0,0,1.8.65.25.25,0,0,1,.17.3A.24.24,0,0,1,106.94,170.15Zm9.38-1.06a.25.25,0,0,1-.21-.12.24.24,0,0,1,.09-.33,14.28,14.28,0,0,0,1.57-1.09.23.23,0,0,1,.34,0,.25.25,0,0,1,0,.34,15.27,15.27,0,0,1-1.62,1.13A.31.31,0,0,1,116.32,169.09Zm-12.95-.45a.18.18,0,0,1-.12,0c-.56-.3-1.12-.64-1.68-1a.24.24,0,0,1-.07-.34.24.24,0,0,1,.33-.07c.55.36,1.11.7,1.65,1a.24.24,0,0,1-.11.45Zm16-2a.23.23,0,0,1-.17-.07.25.25,0,0,1,0-.34q.69-.68,1.32-1.41a.24.24,0,0,1,.34,0,.25.25,0,0,1,0,.34c-.43.49-.88,1-1.35,1.43A.22.22,0,0,1,119.36,166.68Zm-19.24-.18a.2.2,0,0,1-.15-.05c-.51-.39-1-.81-1.52-1.25a.24.24,0,0,1,0-.34.25.25,0,0,1,.35,0c.48.43,1,.84,1.49,1.23a.24.24,0,0,1-.15.43Zm-2.93-2.57a.23.23,0,0,1-.17-.07c-.85-.85-1.33-1.42-1.35-1.45a.25.25,0,0,1,.38-.31s.48.58,1.31,1.41a.24.24,0,0,1,0,.35A.22.22,0,0,1,97.19,163.93Zm24.72-.18a.19.19,0,0,1-.14-.05.24.24,0,0,1,0-.34c.38-.5.75-1,1.1-1.58a.25.25,0,0,1,.41.27c-.36.55-.73,1.09-1.12,1.61A.25.25,0,0,1,121.91,163.75ZM124,160.5a.27.27,0,0,1-.12,0,.24.24,0,0,1-.09-.33c.3-.55.61-1.13.89-1.71a.23.23,0,0,1,.32-.12.24.24,0,0,1,.12.33c-.29.59-.6,1.18-.91,1.73A.24.24,0,0,1,124,160.5Zm1.7-3.5h-.09a.25.25,0,0,1-.13-.32c.25-.59.48-1.19.71-1.8a.25.25,0,0,1,.31-.15.26.26,0,0,1,.15.32c-.23.62-.47,1.23-.72,1.82A.24.24,0,0,1,125.73,157Zm1.36-3.64H127a.25.25,0,0,1-.16-.31c.2-.6.39-1.22.57-1.85a.24.24,0,0,1,.3-.17.25.25,0,0,1,.17.3c-.19.64-.38,1.27-.57,1.87A.26.26,0,0,1,127.09,153.36Zm1.07-3.74h-.06a.25.25,0,0,1-.18-.3c.15-.6.3-1.23.45-1.88a.24.24,0,1,1,.47.1c-.14.66-.3,1.3-.45,1.9A.24.24,0,0,1,128.16,149.62Zm.85-3.8h0a.26.26,0,0,1-.19-.29c.13-.6.25-1.25.37-1.9a.23.23,0,0,1,.28-.2.24.24,0,0,1,.2.28c-.12.66-.25,1.31-.37,1.92A.24.24,0,0,1,129,145.82Zm.71-3.82h0a.23.23,0,0,1-.2-.28c.1-.64.21-1.28.31-1.92a.24.24,0,1,1,.48.08c-.1.64-.21,1.28-.31,1.92A.25.25,0,0,1,129.72,142Zm.61-3.86h0a.24.24,0,0,1-.2-.28c.1-.64.19-1.28.29-1.92a.25.25,0,0,1,.27-.21.25.25,0,0,1,.21.28c-.1.64-.19,1.28-.29,1.93A.24.24,0,0,1,130.33,138.14Zm.58-3.85h0a.24.24,0,0,1-.2-.28c.09-.64.19-1.28.29-1.92a.24.24,0,0,1,.28-.21.25.25,0,0,1,.2.28c-.1.64-.2,1.28-.29,1.92A.24.24,0,0,1,130.91,134.29Zm.59-3.85h0a.25.25,0,0,1-.2-.28c.11-.64.22-1.29.33-1.92a.24.24,0,0,1,.48.08l-.33,1.92A.24.24,0,0,1,131.5,130.44Zm.69-3.83h-.05a.25.25,0,0,1-.19-.29c.13-.67.26-1.31.4-1.91a.26.26,0,0,1,.29-.19.24.24,0,0,1,.18.29c-.13.6-.26,1.24-.39,1.9A.25.25,0,0,1,132.19,126.61Zm.85-3.8H133a.24.24,0,0,1-.18-.29c.17-.65.34-1.29.52-1.89a.24.24,0,1,1,.46.14c-.17.6-.34,1.22-.51,1.87A.24.24,0,0,1,133,122.81Zm1.11-3.73h-.08a.24.24,0,0,1-.15-.31c.22-.63.45-1.25.69-1.83a.25.25,0,0,1,.32-.13.24.24,0,0,1,.13.32c-.24.57-.47,1.17-.68,1.8A.25.25,0,0,1,134.15,119.08Zm1.49-3.58a.19.19,0,0,1-.1,0,.25.25,0,0,1-.11-.33c.3-.59.62-1.17.95-1.71a.24.24,0,1,1,.41.25c-.32.53-.63,1.1-.93,1.68A.24.24,0,0,1,135.64,115.5Zm2-3.31a.19.19,0,0,1-.14,0,.24.24,0,0,1-.05-.34,18.59,18.59,0,0,1,1.27-1.5.24.24,0,1,1,.35.33,17.71,17.71,0,0,0-1.23,1.47A.25.25,0,0,1,137.67,112.19Z"/><path d="M134.4,88.25c0,3.89,6.19,13.22,7.68,15.41a.38.38,0,0,0,.63,0,82.56,82.56,0,0,0,6.43-11.06,12.06,12.06,0,0,0,1.24-4.34,8,8,0,0,0-16,0Z"/><circle class="cls-1" cx="142.39" cy="88.25" r="3.65"/><circle class="cls-1" cx="142.39" cy="107.7" r="2.55"/><path d="M142.39,110.49a2.79,2.79,0,1,1,2.79-2.79A2.79,2.79,0,0,1,142.39,110.49Zm0-5.09a2.3,2.3,0,1,0,2.31,2.3A2.3,2.3,0,0,0,142.39,105.4Z"/><path d="M80.78,124.44c0,6.24,9.94,21.23,12.32,24.73a.62.62,0,0,0,1,0c1.7-2.51,7.28-10.91,10.31-17.76a19.35,19.35,0,0,0,2-7,12.83,12.83,0,0,0-25.66,0Z"/><circle class="cls-1" cx="93.61" cy="124.44" r="5.87"/><circle class="cls-1" cx="93.61" cy="155.66" r="4.09"/><path d="M93.61,160a4.33,4.33,0,1,1,4.33-4.33A4.33,4.33,0,0,1,93.61,160Zm0-8.17a3.85,3.85,0,1,0,3.84,3.84A3.85,3.85,0,0,0,93.61,151.82Z"/><path d="M233,78.67c0,3,4.76,10.16,5.9,11.83a.29.29,0,0,0,.48,0A63.2,63.2,0,0,0,244.31,82a9.49,9.49,0,0,0,1-3.34,6.14,6.14,0,0,0-12.28,0Z"/><circle class="cls-1" cx="239.13" cy="78.67" r="2.81"/><circle class="cls-1" cx="239.13" cy="94.76" r="2.55"/><path d="M239.13,97.55a2.79,2.79,0,1,1,2.79-2.79A2.8,2.8,0,0,1,239.13,97.55Zm0-5.1a2.31,2.31,0,1,0,2.3,2.31A2.31,2.31,0,0,0,239.13,92.45Z"/><path d="M200,82.45a18,18,0,0,0-18,18c0,2.48,1.13,6,2.82,9.77,4.27,9.62,12.12,21.4,14.52,24.92a.87.87,0,0,0,1.43,0c3.35-4.91,17.33-25.94,17.33-34.69A18,18,0,0,0,200,82.45Z"/><circle class="cls-1" cx="200.04" cy="100.41" r="12.9"/><circle class="cls-1" cx="200.04" cy="141.59" r="3.76"/><path d="M200,145.6a4,4,0,1,1,4-4A4,4,0,0,1,200,145.6Zm0-7.53a3.52,3.52,0,1,0,3.52,3.52A3.53,3.53,0,0,0,200,138.07Z"/><path class="cls-1" d="M253.34,162.86a11,11,0,0,0,3,5.48.09.09,0,0,1,0,.16,3.43,3.43,0,0,1-1.47.07.1.1,0,0,0-.11.13,19.12,19.12,0,0,0,3.19,5.4.26.26,0,0,1-.15.44,6.42,6.42,0,0,1-1.94,0,.1.1,0,0,0-.11.11c.12.72,1.48,4.45,4.3,5.85a.35.35,0,0,1-.05.66c-1.88.54-6.54,1.5-13.86.55a.61.61,0,0,1-.34-1,15.2,15.2,0,0,0,4-6.31.09.09,0,0,0-.12-.12,8.39,8.39,0,0,1-1.64.29.35.35,0,0,1-.33-.53c.82-1.25,2.65-4.13,2.95-5.48a.09.09,0,0,0-.12-.11,4.6,4.6,0,0,1-1.73.24.09.09,0,0,1-.06-.16,15.32,15.32,0,0,0,3.89-5.61A.38.38,0,0,1,253.34,162.86Z"/><path d="M252.11,182.32a47.79,47.79,0,0,1-6-.41.88.88,0,0,1-.71-.59.86.86,0,0,1,.23-.88,14.91,14.91,0,0,0,3.87-5.94,10,10,0,0,1-1.42.22.56.56,0,0,1-.56-.28.58.58,0,0,1,0-.63,29.56,29.56,0,0,0,2.85-5.14,4.45,4.45,0,0,1-1.57.17.31.31,0,0,1-.29-.22.32.32,0,0,1,.09-.36,15.08,15.08,0,0,0,3.82-5.51.62.62,0,0,1,1.18.06,10.77,10.77,0,0,0,2.94,5.35.34.34,0,0,1,.1.33.35.35,0,0,1-.25.25,4.23,4.23,0,0,1-1.32.12,18.66,18.66,0,0,0,3,5.08.48.48,0,0,1,.1.51.51.51,0,0,1-.39.33,6.29,6.29,0,0,1-1.8,0c.26.94,1.53,4.19,4.12,5.47a.61.61,0,0,1,.34.6.58.58,0,0,1-.43.51A28.72,28.72,0,0,1,252.11,182.32ZM249.69,174a.31.31,0,0,1,.24.1.33.33,0,0,1,.08.34,15.59,15.59,0,0,1-4.08,6.41.33.33,0,0,0-.1.37.35.35,0,0,0,.3.26c7.4,1,12.09-.06,13.77-.54a.09.09,0,0,0,.07-.09.11.11,0,0,0-.07-.13c-2.82-1.39-4.29-5.14-4.43-6a.33.33,0,0,1,.1-.29.31.31,0,0,1,.29-.09,6.22,6.22,0,0,0,1.86,0l.19-.2-.18.17a19.52,19.52,0,0,1-3.24-5.48.34.34,0,0,1,.06-.35.34.34,0,0,1,.33-.1,2.83,2.83,0,0,0,1.09,0,11.36,11.36,0,0,1-2.87-5.4.13.13,0,0,0-.12-.1.13.13,0,0,0-.13.09,15.27,15.27,0,0,1-3.69,5.46,4.48,4.48,0,0,0,1.28-.24.35.35,0,0,1,.34.07.34.34,0,0,1,.1.33c-.3,1.34-2,4.05-3,5.55a.1.1,0,0,0,0,.11.1.1,0,0,0,.1.05,8.52,8.52,0,0,0,1.6-.28Zm6.09.79Zm.4-6.22Z"/><path class="cls-1" d="M241.32,187.38a15.54,15.54,0,0,0,4.26,7.77.13.13,0,0,1-.05.23,5,5,0,0,1-2.09.1.14.14,0,0,0-.16.18,27.39,27.39,0,0,0,4.53,7.66.37.37,0,0,1-.22.62,8.91,8.91,0,0,1-2.75-.06.14.14,0,0,0-.15.16c.16,1,2.1,6.32,6.09,8.29a.51.51,0,0,1-.06.95c-2.67.76-9.28,2.12-19.66.77a.86.86,0,0,1-.48-1.48,21.73,21.73,0,0,0,5.7-8.95.13.13,0,0,0-.16-.17,12,12,0,0,1-2.34.41.49.49,0,0,1-.46-.76c1.16-1.76,3.76-5.85,4.18-7.76a.13.13,0,0,0-.17-.16,6.59,6.59,0,0,1-2.46.34.13.13,0,0,1-.08-.23,21.78,21.78,0,0,0,5.52-7.95A.53.53,0,0,1,241.32,187.38Z"/><path d="M239.59,214.87a66,66,0,0,1-8.56-.58,1.13,1.13,0,0,1-.92-.76,1.1,1.1,0,0,1,.3-1.14,21.59,21.59,0,0,0,5.58-8.65,13,13,0,0,1-2.19.36.72.72,0,0,1-.7-.35.73.73,0,0,1,0-.78c1.08-1.63,3.57-5.54,4.11-7.5a6.53,6.53,0,0,1-2.36.29.36.36,0,0,1-.33-.25.35.35,0,0,1,.09-.4,21.44,21.44,0,0,0,5.46-7.85.77.77,0,0,1,1.48.07,15.3,15.3,0,0,0,4.19,7.64.38.38,0,0,1,.11.37.35.35,0,0,1-.28.27,5.33,5.33,0,0,1-2,.15,26.55,26.55,0,0,0,4.41,7.4.64.64,0,0,1,.13.62.65.65,0,0,1-.49.4,9.16,9.16,0,0,1-2.67,0c.31,1.41,2.27,6.16,5.93,8a.77.77,0,0,1,.43.76.73.73,0,0,1-.53.64A41,41,0,0,1,239.59,214.87Zm-3.44-11.67a.36.36,0,0,1,.27.12.36.36,0,0,1,.09.38,22,22,0,0,1-5.77,9.05.57.57,0,0,0-.16.63.59.59,0,0,0,.51.43c10.51,1.36,17.18-.08,19.56-.77a.26.26,0,0,0,.19-.22.27.27,0,0,0-.17-.27c-4-2-6-7.23-6.22-8.48a.37.37,0,0,1,.43-.43,8.78,8.78,0,0,0,2.68.06.14.14,0,0,0,.1-.08.14.14,0,0,0,0-.13,27.51,27.51,0,0,1-4.58-7.74.38.38,0,0,1,.44-.51,4.35,4.35,0,0,0,1.78-.05,15.81,15.81,0,0,1-4.18-7.75.29.29,0,0,0-.27-.22.29.29,0,0,0-.28.2,21.68,21.68,0,0,1-5.4,7.87,6.41,6.41,0,0,0,2.11-.34.38.38,0,0,1,.49.44c-.42,1.89-2.83,5.73-4.22,7.85a.24.24,0,0,0,0,.26.28.28,0,0,0,.25.12,13.22,13.22,0,0,0,2.28-.4Z"/><path class="cls-1" d="M143.15,128.53a10.72,10.72,0,0,0,2.95,5.38.09.09,0,0,1,0,.16,3.35,3.35,0,0,1-1.45.07.1.1,0,0,0-.11.13,19,19,0,0,0,3.14,5.31.26.26,0,0,1-.15.43,6.16,6.16,0,0,1-1.9,0,.09.09,0,0,0-.11.1c.11.72,1.46,4.39,4.22,5.75a.35.35,0,0,1,0,.66c-1.85.53-6.43,1.47-13.63.53a.59.59,0,0,1-.33-1,15.11,15.11,0,0,0,4-6.2.09.09,0,0,0-.11-.12,8.52,8.52,0,0,1-1.62.28.34.34,0,0,1-.32-.52c.8-1.23,2.6-4.06,2.9-5.39a.09.09,0,0,0-.12-.11,4.46,4.46,0,0,1-1.7.24.09.09,0,0,1-.06-.16,15.13,15.13,0,0,0,3.82-5.51A.37.37,0,0,1,143.15,128.53Z"/><path d="M141.94,147.66a46,46,0,0,1-5.94-.4.85.85,0,0,1-.69-.58.83.83,0,0,1,.22-.87,14.81,14.81,0,0,0,3.8-5.84,9.64,9.64,0,0,1-1.39.22.56.56,0,0,1-.56-.28.58.58,0,0,1,0-.62,28.8,28.8,0,0,0,2.8-5,4.74,4.74,0,0,1-1.53.16.33.33,0,0,1-.3-.22.34.34,0,0,1,.09-.36,14.64,14.64,0,0,0,3.76-5.41.61.61,0,0,1,1.17.05,10.55,10.55,0,0,0,2.88,5.26.3.3,0,0,1,.1.33.34.34,0,0,1-.24.25,4.38,4.38,0,0,1-1.29.12,18.25,18.25,0,0,0,3,5,.5.5,0,0,1,.11.51.52.52,0,0,1-.4.33,6.39,6.39,0,0,1-1.76,0c.26.93,1.51,4.11,4,5.37a.59.59,0,0,1,.34.59.57.57,0,0,1-.42.51A28.42,28.42,0,0,1,141.94,147.66Zm-2.38-8.24a.39.39,0,0,1,.25.1.35.35,0,0,1,.07.34,15.28,15.28,0,0,1-4,6.31.34.34,0,0,0-.09.36.33.33,0,0,0,.29.24c7.27.95,11.89-.05,13.53-.53a.09.09,0,0,0,.08-.08.13.13,0,0,0-.07-.12c-2.78-1.37-4.22-5.06-4.36-5.93a.35.35,0,0,1,.09-.29.33.33,0,0,1,.3-.09,6.37,6.37,0,0,0,1.83,0,19.62,19.62,0,0,1-3.18-5.41.32.32,0,0,1,.06-.35.34.34,0,0,1,.33-.1,2.69,2.69,0,0,0,1.06,0,11.17,11.17,0,0,1-2.82-5.3.12.12,0,0,0-.11-.1.13.13,0,0,0-.13.09,14.8,14.8,0,0,1-3.62,5.35,4.47,4.47,0,0,0,1.25-.22.31.31,0,0,1,.33.06.37.37,0,0,1,.11.33,24.73,24.73,0,0,1-2.94,5.46.09.09,0,0,0,0,.1.08.08,0,0,0,.09.05,10,10,0,0,0,1.58-.27Zm.05.48Zm-.83-5.71Zm7.16-.1Zm-7.25-.16Z"/><path d="M177.32,116.51a.25.25,0,0,1-.25-.24V72.82a.24.24,0,0,1,.25-.24.24.24,0,0,1,.24.24v43.45A.24.24,0,0,1,177.32,116.51Z"/><path d="M177.32,146.63a.25.25,0,0,1-.25-.24V126.6a.25.25,0,1,1,.49,0v19.79A.24.24,0,0,1,177.32,146.63Z"/><path d="M126.36,134.62a.24.24,0,0,1-.24-.24V80.61a.24.24,0,0,1,.24-.24.24.24,0,0,1,.25.24v53.77A.24.24,0,0,1,126.36,134.62Z"/><path d="M126.36,168.91a.24.24,0,0,1-.24-.24v-6.09a.24.24,0,0,1,.24-.24.24.24,0,0,1,.25.24v6.09A.25.25,0,0,1,126.36,168.91Z"/><path d="M228.27,119.88a.24.24,0,0,1-.24-.24v-39a.24.24,0,0,1,.24-.24.24.24,0,0,1,.25.24v39A.25.25,0,0,1,228.27,119.88Z"/><path d="M228.27,197.09a.24.24,0,0,1-.24-.24V134.38a.25.25,0,0,1,.49,0v62.47A.25.25,0,0,1,228.27,197.09Z"/><path d="M84.87,224.41h0L75.37,223a.23.23,0,0,1-.2-.24V72.82a.23.23,0,0,1,.28-.24l50.91,7.78,50.92-7.78a.08.08,0,0,1,.07,0l50.92,7.78,2.28-.36a.25.25,0,0,1,.28.21.25.25,0,0,1-.21.28l-2.31.36h-.07l-50.92-7.79L126.4,80.85h-.07L75.65,73.1V222.51l9.25,1.42a.24.24,0,0,1,.21.28A.25.25,0,0,1,84.87,224.41Z"/><path d="M228.27,230.76h0l-9.07-1.38a.24.24,0,0,1-.21-.27.24.24,0,0,1,.28-.21l9,1.38,49.24-7.75V73.1L248,77.76a.26.26,0,0,1-.28-.21.25.25,0,0,1,.21-.28l29.83-4.69a.25.25,0,0,1,.19,0,.25.25,0,0,1,.09.19v149.9a.25.25,0,0,1-.21.24l-49.48,7.79Z"/><path d="M267,244.7a.24.24,0,0,1-.18-.07l-1.06-1.06a.25.25,0,0,1,0-.34.24.24,0,0,1,.35,0l1.06,1.05a.26.26,0,0,1,0,.35A.23.23,0,0,1,267,244.7Z"/><path d="M270.7,248.41a.25.25,0,0,1-.18-.08l-1.06-1.05a.25.25,0,0,1,.35-.35l1.06,1.06a.25.25,0,0,1-.17.42Z"/><path d="M265.93,248.41a.25.25,0,0,1-.18-.08.25.25,0,0,1,0-.34l1.06-1.06a.25.25,0,0,1,.35.35l-1.06,1.05A.25.25,0,0,1,265.93,248.41Z"/><path d="M269.64,244.7a.24.24,0,0,1-.18-.07.26.26,0,0,1,0-.35l1.06-1.05a.24.24,0,0,1,.35,0,.25.25,0,0,1,0,.34l-1.06,1.06A.23.23,0,0,1,269.64,244.7Z"/><path d="M240.69,140.17a.24.24,0,0,1-.24-.24V138.6a.24.24,0,1,1,.48,0v1.33A.24.24,0,0,1,240.69,140.17Z"/><rect x="240.45" y="143.01" width="0.49" height="1.82" rx="0.24"/><path d="M239,141.83H237.7a.24.24,0,0,1-.25-.24.25.25,0,0,1,.25-.24H239a.24.24,0,0,1,.24.24A.24.24,0,0,1,239,141.83Z"/><path d="M243.69,141.84h-1.33a.25.25,0,1,1,0-.49h1.33a.25.25,0,0,1,0,.49Z"/><path d="M250.69,257.56a2.45,2.45,0,1,1,2.45-2.45A2.45,2.45,0,0,1,250.69,257.56Zm0-4.41a2,2,0,1,0,2,2A2,2,0,0,0,250.69,253.15Z"/></svg>