<svg id="Capa_1" data-name="Capa 1" xmlns="http://www.w3.org/2000/svg" viewBox="0 0 352 330"><defs><style>.cls-1{fill:#fff;}</style></defs><path d="M80.93,251.2C54.38,226.73,68.12,211,68.12,211s11.86-19.22,53.48,5.9,81.9,15.78,91,12,40.94-27.44,58.88-28.77c10-.74,21.92,6.77,11.44,27.06-21.67,42-80.53,46.73-80.53,46.73s-28.53,5.36-57.84.17C144.56,274.06,107.47,275.67,80.93,251.2Z"/><polygon class="cls-1" points="149.82 256.21 159.22 261.47 154.53 271.23 146.74 266.24 149.82 256.21"/><path d="M154.53,271.92a.7.7,0,0,1-.38-.11l-7.78-5a.7.7,0,0,1-.29-.79l3.08-10a.69.69,0,0,1,1-.4l9.4,5.26a.69.69,0,0,1,.28.9l-4.69,9.76a.72.72,0,0,1-.44.36A.57.57,0,0,1,154.53,271.92Zm-7-6,6.68,4.27,4.07-8.46-8.08-4.52Z"/><path class="cls-1" d="M155.53,260.23a2.68,2.68,0,0,1,4.27,0l4.56,6.2-6.16,7.94L150,270.65C150.59,267.13,153.45,262.91,155.53,260.23Z"/><path d="M158.2,275.1a.59.59,0,0,1-.29-.07l-8.17-3.75a.69.69,0,0,1-.39-.74c.57-3.6,3.38-7.83,5.63-10.73a3.34,3.34,0,0,1,2.67-1.31h0a3.33,3.33,0,0,1,2.66,1.36l4.57,6.19a.71.71,0,0,1,0,.84l-6.17,7.94A.7.7,0,0,1,158.2,275.1Zm-7.39-4.85,7.18,3.3,5.5-7.1-4.25-5.76a2,2,0,0,0-1.57-.81,1.87,1.87,0,0,0-1.59.77h0C153.23,264.33,151.38,267.71,150.81,270.25Zm4.72-10h0Z"/><path class="cls-1" d="M154.58,266.82l2.49-2.52a2.77,2.77,0,0,1,3.4-.42l1.77,1.07.38-.82a1.92,1.92,0,0,1,2.36-1c5.68,1.89,24.57,8.4,30.89,13.08,7.47,5.54,2.16,17.85-10.87,16.6-10.33-1-24.44-12.51-29.85-17.25a1.93,1.93,0,0,1,.49-3.22h0l-1.38-2A2.76,2.76,0,0,1,154.58,266.82Z"/><path d="M186.88,293.57c-.63,0-1.27,0-1.95-.09-10.49-1-24.64-12.52-30.24-17.42a2.64,2.64,0,0,1,0-3.94l-1-1.39a3.45,3.45,0,0,1,.38-4.4l2.49-2.52a3.44,3.44,0,0,1,4.24-.52l1.11.67.06-.12a2.62,2.62,0,0,1,3.21-1.39c5.67,1.9,24.68,8.45,31.08,13.19a8.67,8.67,0,0,1,3.06,10.42C198,289.66,193.9,293.57,186.88,293.57ZM159,264.17a2.07,2.07,0,0,0-1.46.61l-2.5,2.53a2.06,2.06,0,0,0-.22,2.63l1.38,2a.7.7,0,0,1-.32,1,1.21,1.21,0,0,0-.72.94,1.25,1.25,0,0,0,.41,1.12c5.5,4.81,19.38,16.11,29.47,17.08,7.46.72,11.65-3.07,13-6.53a7.34,7.34,0,0,0-2.6-8.82c-6.23-4.62-25.07-11.11-30.69-13a1.22,1.22,0,0,0-1.51.66l-.39.82a.65.65,0,0,1-.42.37.65.65,0,0,1-.56-.07l-1.77-1.07A2.12,2.12,0,0,0,159,264.17Zm-4.45,2.65h0Z"/><path d="M170.79,281a.66.66,0,0,1-.3-.07.69.69,0,0,1-.32-.92l4.22-8.88a.68.68,0,0,1,.92-.32.7.7,0,0,1,.33.92l-4.22,8.87A.7.7,0,0,1,170.79,281Z"/><path class="cls-1" d="M190.35,256.12a.71.71,0,0,1-.52-.23l-1.38-1.57a.7.7,0,0,1-.17-.52.71.71,0,0,1,.27-.48l43.88-33.86a.69.69,0,0,1,.85,1.09L190,254l.89,1a.69.69,0,0,1-.06,1A.67.67,0,0,1,190.35,256.12Z"/><polygon class="cls-1" points="191.86 258.17 172.76 265.03 175.78 275.42 198.85 269.13 191.86 258.17"/><path d="M175.78,276.11a.68.68,0,0,1-.66-.5l-3-10.39a.69.69,0,0,1,.43-.84l19.11-6.86a.7.7,0,0,1,.82.28l7,11a.7.7,0,0,1-.4,1L176,276.09Zm-2.18-10.65,2.66,9.12,21.5-5.87-6.18-9.7Z"/><path class="cls-1" d="M176.6,264.41a2.67,2.67,0,0,0-4.21-.66l-5.52,5.36,4.77,8.84,8.67-2.36C180.34,272,178.21,267.4,176.6,264.41Z"/><path d="M171.64,278.64a.68.68,0,0,1-.61-.36l-4.77-8.85a.68.68,0,0,1,.12-.82l5.52-5.36a3.38,3.38,0,0,1,5.31.83C179,267.32,181,272,181,275.6a.68.68,0,0,1-.51.66l-8.67,2.36A.55.55,0,0,1,171.64,278.64Zm-3.92-9.4,4.27,7.9,7.61-2.07c-.13-2.6-1.4-6.24-3.61-10.33a2,2,0,0,0-1.44-1,1.93,1.93,0,0,0-1.68.54Zm12.59,6.35h0Z"/><path class="cls-1" d="M176.45,271.07l-2-2.9a2.74,2.74,0,0,0-3.28-1l-1.92.76-.24-.87a1.93,1.93,0,0,0-2.16-1.4c-5.92.94-25.62,4.25-32.62,7.82-8.28,4.23-5.08,17.25,8,18.16,10.35.72,26.17-8.32,32.29-12.1a1.93,1.93,0,0,0,0-3.25h0l1.68-1.73A2.74,2.74,0,0,0,176.45,271.07Z"/><path d="M143.36,292.4c-.42,0-.83,0-1.24,0-8.24-.57-12.15-5.58-13-9.69a8.68,8.68,0,0,1,4.74-9.77c7.09-3.62,26.92-7,32.83-7.89a2.61,2.61,0,0,1,2.94,1.89l0,.13,1.21-.48a3.43,3.43,0,0,1,4.09,1.22l2.05,2.9a3.45,3.45,0,0,1-.35,4.39l-1.19,1.22a2.71,2.71,0,0,1,.59,1.69,2.61,2.61,0,0,1-1.25,2.19C168.74,283.92,153.84,292.4,143.36,292.4Zm23.75-26h-.19c-5.86.93-25.51,4.23-32.42,7.76a7.34,7.34,0,0,0-4,8.27c.74,3.63,4.26,8.06,11.73,8.58,10.1.72,25.66-8.16,31.88-12a1.2,1.2,0,0,0,.58-1,1.23,1.23,0,0,0-.56-1.06.74.74,0,0,1-.32-.5.7.7,0,0,1,.19-.56l1.69-1.73a2.09,2.09,0,0,0,.21-2.64l-2-2.89a2,2,0,0,0-2.45-.73l-1.93.77a.69.69,0,0,1-.56,0,.67.67,0,0,1-.36-.43l-.24-.88A1.23,1.23,0,0,0,167.11,266.36Z"/><path d="M158.25,282.36a.71.71,0,0,1-.67-.5l-2.7-9.45a.7.7,0,0,1,.48-.86.69.69,0,0,1,.85.48l2.7,9.45a.68.68,0,0,1-.47.85Z"/><path d="M142.92,289.64a.69.69,0,0,1-.37-.1c-10.55-6.61-6.36-15.18-6.31-15.27a.68.68,0,0,1,.93-.3.69.69,0,0,1,.3.93c-.16.3-3.64,7.55,5.81,13.46a.69.69,0,0,1,.22,1A.67.67,0,0,1,142.92,289.64Z"/><path class="cls-1" d="M150.41,254.56h-.14a.71.71,0,0,1-.54-.82l.58-2.85c-1.92-1.54-12.21-9.68-28.54-21.69-18.07-13.29-22-16-22.07-16a.68.68,0,0,1-.18-1,.69.69,0,0,1,1-.18s4,2.75,22.11,16.07,28.81,21.9,28.92,22a.71.71,0,0,1,.24.68l-.66,3.27A.7.7,0,0,1,150.41,254.56Z"/><path class="cls-1" d="M236.55,190.74c-1.37-6.11-10.08-28.63-16.65-45.22-5.24-13.24-17.92-22.79-33-24.71a174.61,174.61,0,0,0-35.11-.8c-19.53,1.54-36.29,13.49-42.75,30.62-5.82,15.43-12.16,34.38-12.3,44-.15,10.22,6,20,12.76,27.58a51.46,51.46,0,0,0,33.74,16.75c18.71,1.73,47.91,3.47,61.18-.87C224.75,231.42,239.85,205.53,236.55,190.74Z"/><path d="M178.23,241.49c-11.51,0-24.2-.87-35.07-1.87a51.85,51.85,0,0,1-34.18-17c-8.72-9.81-13.07-19.25-12.94-28,.15-9.86,6.79-29.48,12.34-44.2,6.53-17.31,23.54-29.51,43.34-31.07a175.57,175.57,0,0,1,35.26.8c15.34,1.95,28.2,11.59,33.57,25.15,6.85,17.32,15.32,39.25,16.67,45.32,3.41,15.25-11.79,41.33-32.6,48.13C198.4,240.75,188.82,241.49,178.23,241.49ZM165.45,120.17c-4.56,0-9.12.18-13.62.53-19.27,1.52-35.82,13.37-42.15,30.18C104.16,165.5,97.57,185,97.42,194.61c-.13,8.45,4.11,17.57,12.59,27.11a50.45,50.45,0,0,0,33.28,16.52c17,1.57,47.47,3.55,60.9-.83,19.83-6.48,34.9-32.11,31.68-46.52-1.33-6-9.77-27.84-16.61-45.12-5.18-13.08-17.62-22.39-32.45-24.28A172.05,172.05,0,0,0,165.45,120.17Z"/><rect class="cls-1" x="130.44" y="162.41" width="102.96" height="73" rx="7.27"/><path d="M226.13,236.09H137.71a8,8,0,0,1-8-8V169.67a8,8,0,0,1,8-7.95h88.42a8,8,0,0,1,8,7.95v58.47A8,8,0,0,1,226.13,236.09Zm-88.42-73a6.58,6.58,0,0,0-6.58,6.57v58.47a6.58,6.58,0,0,0,6.58,6.57h88.42a6.58,6.58,0,0,0,6.58-6.57V169.67a6.58,6.58,0,0,0-6.58-6.57Z"/><path class="cls-1" d="M232,235.75H130.34a4.58,4.58,0,0,0,0,9.15H232a4.58,4.58,0,0,0,0-9.15Z"/><path d="M232,245.59H130.34a5.27,5.27,0,0,1,0-10.53H232a5.27,5.27,0,1,1,0,10.53Zm-101.65-9.14a3.88,3.88,0,0,0,0,7.76H232a3.88,3.88,0,0,0,0-7.76Z"/><path d="M185.76,195.78a5.3,5.3,0,1,1-5.3-5.29A5.3,5.3,0,0,1,185.76,195.78Z"/><path class="cls-1" d="M191.29,93.37c.07-.29-5.33-6-5.33-6l-9.84.78c-5.89-.27-6.49,11.06-6.49,11.06a16.2,16.2,0,0,1,.62,2.66,35.08,35.08,0,0,1-7.16,13.06c-3.82,4.34-6.92,5.54-6.69,7.94.38,4,9.41,6.09,13.53,7,4.31,1,14.65,2.82,15.69.12.22-.57.61-2.87-9.33-9.4l1.46-3,.05,0a4.42,4.42,0,0,0,6.7-2.52l1.74-5.21,1.31.33A1.17,1.17,0,0,0,189,108.9C188.17,102.72,190.76,95.49,191.29,93.37Z"/><path d="M180.93,132.13a56.33,56.33,0,0,1-11.16-1.56c-4.43-1-13.63-3.18-14.06-7.66-.17-1.86,1.19-3.07,3.07-4.75a42.58,42.58,0,0,0,3.8-3.72,34.48,34.48,0,0,0,7-12.65A18.35,18.35,0,0,0,169,99.4a.75.75,0,0,1,0-.26c0-.48.7-11.72,7-11.72h.19l9.8-.77a.68.68,0,0,1,.56.21c5.66,6,5.61,6.23,5.5,6.67s-.22.81-.39,1.38c-.83,2.87-2.57,8.83-1.89,13.9a1.86,1.86,0,0,1-2.3,2l-.69-.18-1.54,4.61A5.38,5.38,0,0,1,182,118.7a5.1,5.1,0,0,1-3.94-.19l-.89,1.86c6.81,4.53,9.87,7.86,9.09,9.89C185.72,131.66,183.56,132.13,180.93,132.13Zm-10.6-33a17.57,17.57,0,0,1,.61,2.66.77.77,0,0,1,0,.3,35.77,35.77,0,0,1-7.3,13.31,41.09,41.09,0,0,1-3.91,3.83c-1.84,1.64-2.72,2.48-2.61,3.59.34,3.49,9.53,5.63,13,6.44,7.65,1.78,14.32,2,14.89.54,0-.09.69-2.17-9.06-8.57a.7.7,0,0,1-.25-.88l1.47-3a.66.66,0,0,1,.42-.36.67.67,0,0,1,.55.06l.08.05a3.84,3.84,0,0,0,3.34.39,4,4,0,0,0,2.32-2.55l1.74-5.21a.68.68,0,0,1,.82-.45l1.32.32a.45.45,0,0,0,.43-.1.46.46,0,0,0,.16-.42c-.72-5.35,1.07-11.51,1.94-14.46l.3-1.06c-.55-.73-2.77-3.17-4.87-5.42l-9.51.75h-.09C171.23,88.58,170.42,97.9,170.33,99.09Zm20.29-5.89Z"/><path d="M177.39,99.79a10.64,10.64,0,0,0,.17-1.32c.16-2.9-1-4.35-.28-5.53a2.52,2.52,0,0,1,1.59-1c2.13-.57,4,1.1,8.07,3.79,5,3.33,5.58,3.75,6.76,3.75,3,0,5.76-2.73,6.92-5.44.32-.76,1.94-4.85-.6-8.35a8.31,8.31,0,0,0-8.33-3.15,4.42,4.42,0,0,0-.8-3.19c-2-2.33-6.73-.91-8.4-.41a16.93,16.93,0,0,0-7.23,4.44,6,6,0,0,0-4-2.39c-3.31-.23-5.45,3.22-5.65,3.55-2.3,3.85-.41,8.83,1,12.59a30,30,0,0,0,3.15,6.09l2.47-.33a7.61,7.61,0,0,1-1.19-4.2c0-.64.07-3.23,1.43-3.7,1-.34,2.07.6,2.22.74,1.66,1.43,1.2,4,1.16,4.19Z"/><path class="cls-1" d="M171,108.18v.5c0,1.11.22,3.14,1,4l5.82,4.92Z"/><path d="M177.75,118.25a.69.69,0,0,1-.45-.16l-5.81-4.92-.07-.07c-1.11-1.21-1.14-4.1-1.14-4.42v-.5a.7.7,0,0,1,1.39,0v.5a6.73,6.73,0,0,0,.75,3.46L178.2,117a.71.71,0,0,1,.08,1A.69.69,0,0,1,177.75,118.25Z"/><path d="M155.31,68.48l-18.6.47a5.86,5.86,0,0,0-5.24,3.58L126.9,83.32l-6.35-10.89a5.88,5.88,0,0,0-5.22-2.93L98.22,70a5.91,5.91,0,0,1-6-5.76l-1-36.57a5.88,5.88,0,0,1,5.71-6.06L154,20.09a5.89,5.89,0,0,1,6,5.75l1,36.57A5.88,5.88,0,0,1,155.31,68.48Z"/><path class="cls-1" d="M134.33,47a5.48,5.48,0,0,0-4.3,2.28l-10.81-3.89c0-.14,0-.28,0-.42a6.65,6.65,0,0,0-.1-.78L130,38.86a5.5,5.5,0,0,0,9.57-3.9,5.53,5.53,0,1,0-11.06.26,4.9,4.9,0,0,0,.09.78l-10.83,5.36a5.5,5.5,0,0,0-9.57,3.9,5.57,5.57,0,0,0,5.68,5.44,5.48,5.48,0,0,0,4.3-2.28L129,52.31a2.86,2.86,0,0,0,0,.42,5.53,5.53,0,1,0,5.38-5.7Z"/></svg>