<svg id="Capa_1" data-name="Capa 1" xmlns="http://www.w3.org/2000/svg" viewBox="0 0 352 330"><defs><style>.cls-1{fill:#fff;}</style></defs><path d="M213.64,102.32c-3.31-5.55-6.87-10.32-17.76-12.46-7.45-1.47-19.61,4-25.59,10.38a1.12,1.12,0,0,1-1.71,0c-1.29-1.62-4.34-5.29-7-5.61-7.83-.93-15.85,9.21-18.7,14.43a81,81,0,0,0-7.36,22.43,1.24,1.24,0,0,1-1.3,1,16,16,0,0,0-17.87,17.54c1,11.56,12.77,20.1,21.67,24.73a40.14,40.14,0,0,0,11.88,4.42,1.1,1.1,0,0,0,.62,0,30.94,30.94,0,0,0,14.45-1.36c9.46-3.29,8.74-19,8.74-19l-1.19-3a7.51,7.51,0,0,1-.09-5.61c2.23-5.46,10.47-1.35,10.78-1.42,15.5-3.22,21-7.76,23.79-10.85C217.05,126.94,221.66,115.77,213.64,102.32Z"/><ellipse cx="68.9" cy="138.7" rx="31.81" ry="31.99" transform="translate(-33.52 22.54) rotate(-14.99)"/><ellipse class="cls-1" cx="64.77" cy="139.48" rx="31.81" ry="31.99" transform="translate(-44.04 30.81) rotate(-20.13)"/><path d="M64.94,171.84a32.57,32.57,0,0,1-7.93-1,32.44,32.44,0,0,1-8.79-59.19A32.2,32.2,0,0,1,92.4,123a32.39,32.39,0,0,1-11.09,44.33A31.77,31.77,0,0,1,64.94,171.84Zm-.34-64a31.14,31.14,0,0,0-16,4.44,31.68,31.68,0,0,0,8.58,57.8,31.11,31.11,0,0,0,23.73-3.47A31.67,31.67,0,0,0,64.6,107.87Z"/><path d="M82.11,149.26a.41.41,0,0,1-.18,0l-16.51-9a2.76,2.76,0,0,1-1.31-1.56l-4.47-13.43a.38.38,0,0,1,.24-.48.38.38,0,0,1,.48.24l4.47,13.43a2,2,0,0,0,1,1.13l16.51,8.95a.38.38,0,0,1,.16.52A.4.4,0,0,1,82.11,149.26Z"/><path d="M53.37,116.67a2,2,0,1,1-2.79-.71A2,2,0,0,1,53.37,116.67Z"/><ellipse cx="42.57" cy="127.19" rx="2.03" ry="2.04" transform="translate(-41.14 22.4) rotate(-20.11)"/><ellipse cx="39.67" cy="139.72" rx="2.03" ry="2.04" transform="translate(-45.65 22.18) rotate(-20.12)"/><path d="M42.1,150.84a2,2,0,1,1-.7,2.8A2,2,0,0,1,42.1,150.84Z"/><ellipse cx="52.82" cy="161.48" rx="2.03" ry="2.04" transform="translate(-52.37 28.06) rotate(-20.14)"/><ellipse cx="65.54" cy="164.65" rx="2.03" ry="2.04" transform="translate(-52.67 32.62) rotate(-20.13)"/><ellipse cx="78.11" cy="161" rx="2.03" ry="2.04" transform="translate(-50.66 36.75) rotate(-20.14)"/><ellipse cx="87.16" cy="151.52" rx="2.03" ry="2.04" transform="translate(-46.84 39.27) rotate(-20.14)"/><ellipse cx="90.06" cy="138.99" rx="2.03" ry="2.04" transform="translate(-42.27 39.41) rotate(-20.1)"/><path d="M87.43,128.11a2,2,0,0,1-2.79-.71,2.05,2.05,0,0,1,.7-2.8,2,2,0,0,1,2.09,3.51Z"/><ellipse cx="76.92" cy="117.23" rx="2.03" ry="2.04" transform="translate(-35.67 33.66) rotate(-20.15)"/><ellipse cx="64.19" cy="114.07" rx="2.03" ry="2.04" transform="translate(-35.3 29.02) rotate(-20.11)"/><path class="cls-1" d="M234.58,227.67s-6.92-42.11-11-53.81c-2.44-7-31.17-19.2-31.17-19.2s-1.65-4.07-5.19-5S172,148,172,148s-13.56.67-17.1,1.63-5.19,5-5.19,5-28.73,12.19-31.17,19.2c-4.08,11.7-11,53.81-11,53.81l20.61,11.48s-1.68,17,1.1,18.73c2.23,1.41,6.87,2.39,17.26,4.8.12,0,45.53.63,45.68.55,4-1,18.06-3.7,20.67-5.35,2.79-1.77,1.1-18.73,1.1-18.73Z"/><path d="M190.84,263.61c-2.21,0-7.7-.06-21.51-.24-2.32,0-22.74-.29-22.9-.32l-2.6-.6c-8.71-2-12.69-2.93-14.78-4.25-2.79-1.77-1.55-16.2-1.3-18.84L107.36,228a.37.37,0,0,1-.19-.39c.07-.42,7-42.28,11-53.88,2.4-6.9,28.81-18.32,31.24-19.36.34-.77,2.05-4.21,5.38-5.11,3.54-1,16.62-1.61,17.18-1.64h0c.48,0,11.76.68,15.3,1.64,3.33.9,5,4.34,5.38,5.11,2.43,1,28.84,12.46,31.24,19.36,4,11.6,10.94,53.46,11,53.88a.37.37,0,0,1-.19.39l-20.39,11.36c.25,2.64,1.49,17.07-1.3,18.84-2,1.29-10.35,3.1-16.41,4.41-1.83.4-3.41.75-4.38,1h0C192.14,263.6,191.79,263.61,190.84,263.61Zm-44.28-1.31c1.22,0,44.1.62,45.56.55,1-.24,2.56-.58,4.38-1,5.67-1.23,14.24-3.1,16.16-4.32s1.57-11.89.93-18.36a.38.38,0,0,1,.19-.37l20.38-11.35c-.6-3.6-7.09-42.43-10.94-53.49-2.36-6.77-30.67-18.85-31-19a.39.39,0,0,1-.2-.2s-1.63-3.92-4.94-4.81-14.57-1.59-15.12-1.62-13.6.7-17,1.62-4.92,4.77-4.94,4.81a.39.39,0,0,1-.2.2c-.29.12-28.61,12.2-31,19C115.05,185,108.56,223.87,108,227.47l20.38,11.35a.38.38,0,0,1,.19.37c-.64,6.47-1,17.17.93,18.36s5.92,2.17,14.54,4.16Z"/><path d="M131,236.66h-.07a.38.38,0,0,1-.3-.45l7.86-38.5a.38.38,0,1,1,.74.15l-7.86,38.5A.38.38,0,0,1,131,236.66Z"/><path d="M211.15,236.66a.39.39,0,0,1-.38-.31l-7.86-38.5a.39.39,0,0,1,.3-.45.38.38,0,0,1,.45.3l7.86,38.5a.38.38,0,0,1-.3.45Z"/><path class="cls-1" d="M157.26,153.4a7.2,7.2,0,0,0-5,7.4c.12,6,3.31,80.52-5.74,101.88,0,0,17.5,7.43,45.68,1.49,0,0-6.91-24.37-8.45-45.94s5.64-57.51,1.78-62.15S157.26,153.4,157.26,153.4Z"/><path d="M170.93,266.83c-15.36,0-24.44-3.75-24.57-3.8a.39.39,0,0,1-.2-.5c3.79-8.95,7.87-33.41,5.78-99.13,0-1.24-.06-2.12-.07-2.59a7.62,7.62,0,0,1,5.29-7.77h.07c1-.09,24.65-1.94,28.58,2.81,2.13,2.56,1.15,13.27-.1,26.84-1.08,11.86-2.32,25.3-1.59,35.52,1.52,21.28,8.37,45.62,8.43,45.87a.37.37,0,0,1-.28.47A103.31,103.31,0,0,1,170.93,266.83ZM147,262.46c2.6,1,19.36,6.67,44.7,1.42-.89-3.23-6.93-25.75-8.35-45.63-.73-10.28.51-23.75,1.59-35.64,1.18-12.86,2.2-24,.28-26.29-3.62-4.36-26.84-2.62-27.9-2.54a6.78,6.78,0,0,0-4.7,7c0,.47,0,1.35.08,2.59C154.35,215,152.38,249.26,147,262.46Z"/><path class="cls-1" d="M159.73,136.5l-1.54,18.16a7.27,7.27,0,0,0-3.78,4.53,6.6,6.6,0,0,0,.72,5.67l11.37,17.79a3.38,3.38,0,0,0,5.69,0l11.62-17.86a6.62,6.62,0,0,0-.79-8.28,7.16,7.16,0,0,0-2.3-1.55l-.8-18.48Z"/><path d="M169.35,184.59h0a3.72,3.72,0,0,1-3.15-1.74l-11.37-17.78a6.94,6.94,0,0,1-.76-6,7.65,7.65,0,0,1,3.78-4.65l1.52-18a.39.39,0,0,1,.38-.34h20.19a.38.38,0,0,1,.38.36l.79,18.24a7.82,7.82,0,0,1,2.2,1.54,7,7,0,0,1,.84,8.76l-11.62,17.86A3.76,3.76,0,0,1,169.35,184.59Zm-9.27-47.71-1.51,17.82a.42.42,0,0,1-.22.31,6.81,6.81,0,0,0-3.58,4.3,6.19,6.19,0,0,0,.68,5.35l11.37,17.79a3,3,0,0,0,2.52,1.38h0a3,3,0,0,0,2.52-1.36l11.62-17.86a6.24,6.24,0,0,0-.74-7.81,6.89,6.89,0,0,0-2.17-1.47.39.39,0,0,1-.24-.34l-.79-18.11Zm-1.89,17.78Z"/><path class="cls-1" d="M182.71,127.66v-9.88s-1-7-8.84-7S158.16,116,158.16,116c0,1.39-.67,11.66-.67,11.66a2.82,2.82,0,0,0-2.59.12c-1.15.81-.52,7,3.29,7.85L160.6,143A6.23,6.23,0,0,0,165,147l1.12.29a14.17,14.17,0,0,0,6.54.12l2.84-.62a6.21,6.21,0,0,0,4.67-4.42l1.93-7a3,3,0,0,0,3.06-2.73C185.43,129.88,186.07,126.3,182.71,127.66Z"/><path d="M169.61,148.13a14.41,14.41,0,0,1-3.64-.46l-1.12-.29a6.56,6.56,0,0,1-4.61-4.31l-2.35-7.13c-2.73-.76-3.54-3.87-3.73-4.83-.28-1.43-.23-3.11.53-3.64a3,3,0,0,1,2.46-.34c.13-2.07.66-9.94.63-11.12a.35.35,0,0,1,.17-.32c.32-.22,8-5.24,15.93-5.24a8.87,8.87,0,0,1,9.22,7.28v9.39a2,2,0,0,1,1.89.17c1.06.82.81,2.89.57,4.9l-.06.51a3.34,3.34,0,0,1-3.15,3.05l-1.85,6.74a6.59,6.59,0,0,1-5,4.69l-2.84.62A14.52,14.52,0,0,1,169.61,148.13Zm-13.39-20.36a1.9,1.9,0,0,0-1.1.33c-.28.19-.52,1.33-.22,2.87.17.86.92,3.72,3.37,4.29a.37.37,0,0,1,.28.25l2.41,7.32a5.83,5.83,0,0,0,4.08,3.82l1.12.29a13.85,13.85,0,0,0,6.37.12l2.84-.62a5.8,5.8,0,0,0,4.38-4.15l1.93-7a.4.4,0,0,1,.38-.28,2.61,2.61,0,0,0,2.67-2.39l.06-.52c.2-1.62.44-3.64-.27-4.19-.32-.25-.88-.21-1.67.11a.39.39,0,0,1-.36,0,.39.39,0,0,1-.17-.31l0-9.85c-.08-.51-1.19-6.6-8.46-6.6-7,0-14.15,4.26-15.34,5,0,2-.64,11.07-.67,11.47a.39.39,0,0,1-.54.32A3,3,0,0,0,156.22,127.77Z"/><path d="M161.93,115.15s-5.08,6.77-4.44,12.51c0,0-6.16-8.25,1.92-15.18,0,0-5.92-6.15-1.66-8.45s6.05,4.29,9.77,3.15a17.82,17.82,0,0,1,10.33-.24c3.18.93,3.13,5.46,4.42,6.47s6.34,3.79.44,14.25a23.88,23.88,0,0,1-2.32-8c-.24-4,1.2-5.47-3-4.91S163.05,116.88,161.93,115.15Z"/><path d="M95.26,279.63C74,260.06,85,247.44,85,247.44s9.49-15.37,42.77,4.72,65.51,12.62,72.79,9.61,32.75-21.94,47.09-23c8-.6,17.54,5.41,9.16,21.63-17.33,33.55-64.41,37.38-64.41,37.38s-22.82,4.29-46.26.13C146.15,297.91,116.49,299.2,95.26,279.63Z"/><path class="cls-1" d="M182.77,283.4a.39.39,0,0,1-.28-.13L181.38,282a.39.39,0,0,1-.09-.29.37.37,0,0,1,.15-.27l35.1-27.08a.38.38,0,0,1,.46.6l-34.78,26.84.84.94a.38.38,0,0,1,0,.54A.39.39,0,0,1,182.77,283.4Z"/><path class="cls-1" d="M150.83,282.14h-.08a.39.39,0,0,1-.29-.45l.48-2.38c-1.31-1.05-9.6-7.63-22.91-17.42-14.48-10.64-17.63-12.81-17.66-12.83a.38.38,0,0,1-.1-.53.38.38,0,0,1,.53-.1s3.19,2.2,17.68,12.85,23,17.51,23.12,17.58a.37.37,0,0,1,.13.37l-.53,2.61A.37.37,0,0,1,150.83,282.14Z"/><path class="cls-1" d="M182.58,285.08s-19.14,7.62-26.88,8.19-21.33,4.15-22.89,4.79-1.09,3.93,1.09,4.7c0,0-.62,2.79,1.4,3.72a3,3,0,0,0,2.64,3.21s-.87,1.54,2.75,1.87a38.89,38.89,0,0,0,14.17-2.27c3.34-1.44,15.8-10.08,15.8-10.08l17.51-5.36Z"/><path d="M142.08,312c-.52,0-1,0-1.43-.06-1.65-.15-2.67-.58-3-1.27a1.33,1.33,0,0,1-.14-.67,3.34,3.34,0,0,1-2.56-3.29c-1.63-.92-1.54-2.93-1.44-3.72a3.62,3.62,0,0,1-1.95-3.14,2.1,2.1,0,0,1,1.15-2.14c1.47-.61,15.07-4.24,23-4.82,7.59-.56,26.58-8.09,26.77-8.17a.39.39,0,0,1,.46.15l5.59,8.77a.37.37,0,0,1,0,.34.39.39,0,0,1-.24.23l-17.45,5.35c-1,.67-12.55,8.67-15.82,10.08A40.45,40.45,0,0,1,142.08,312Zm40.35-26.45c-2.53,1-19.43,7.56-26.7,8.1-7.86.57-21.32,4.16-22.77,4.76a1.39,1.39,0,0,0-.68,1.42A2.8,2.8,0,0,0,134,302.4a.37.37,0,0,1,.25.44c0,.1-.53,2.5,1.19,3.29a.4.4,0,0,1,.22.37,2.64,2.64,0,0,0,2.31,2.82.38.38,0,0,1,.29.2.38.38,0,0,1,0,.36.5.5,0,0,0,0,.44c.14.25.64.7,2.43.86a38.72,38.72,0,0,0,14-2.24c3.27-1.41,15.61-10,15.73-10a.27.27,0,0,1,.11,0l17-5.22Z"/><path d="M135.45,302.32a.37.37,0,0,1-.37-.3.38.38,0,0,1,.3-.45l2.56-.51a.39.39,0,0,1,.45.3.38.38,0,0,1-.3.45l-2.56.51Z"/><path class="cls-1" d="M149.45,285.08s19.14,7.62,26.88,8.19,21.33,4.15,22.89,4.79,1.09,3.93-1.09,4.7c0,0,.62,2.79-1.4,3.72a3,3,0,0,1-2.64,3.21s.87,1.54-2.75,1.87a38.89,38.89,0,0,1-14.17-2.27c-3.34-1.44-15.8-10.08-15.8-10.08l-17.51-5.36Z"/><path d="M190,312A40.45,40.45,0,0,1,177,309.64c-3.27-1.41-14.84-9.41-15.82-10.08l-17.45-5.35a.39.39,0,0,1-.24-.23.37.37,0,0,1,0-.34l5.59-8.77a.39.39,0,0,1,.46-.15c.19.08,19.18,7.61,26.77,8.17,7.93.58,21.53,4.21,23,4.82a2.1,2.1,0,0,1,1.15,2.14,3.62,3.62,0,0,1-1.95,3.14c.1.79.19,2.8-1.44,3.72a3.34,3.34,0,0,1-2.56,3.29,1.33,1.33,0,0,1-.14.67c-.37.69-1.39,1.12-3,1.27C191,312,190.47,312,190,312Zm-45.5-18.37,17,5.22a.27.27,0,0,1,.11,0c.12.08,12.46,8.63,15.73,10a38.72,38.72,0,0,0,14,2.24c1.87-.17,2.33-.66,2.44-.87a.53.53,0,0,0,0-.43.38.38,0,0,1,0-.36.38.38,0,0,1,.29-.2,2.63,2.63,0,0,0,2.31-2.82.4.4,0,0,1,.22-.37c1.73-.79,1.2-3.26,1.19-3.29a.37.37,0,0,1,.25-.44,2.8,2.8,0,0,0,1.74-2.57,1.39,1.39,0,0,0-.68-1.42c-1.45-.6-14.91-4.19-22.77-4.76-7.27-.54-24.17-7.11-26.7-8.1Z"/><path d="M196.58,302.32h-.08l-2.56-.51a.38.38,0,0,1-.3-.45.39.39,0,0,1,.45-.3l2.56.51a.38.38,0,0,1,.3.45A.37.37,0,0,1,196.58,302.32Z"/><path class="cls-1" d="M87.85,222.55l32.74,7.78a13.7,13.7,0,0,1,10.24,16.15A9.57,9.57,0,0,1,116.94,253l-30.2-16.21a11,11,0,0,0-10-.19l-15.06,7.36a6.67,6.67,0,0,1,2.22-4.75c2.38-2.43,7.23-4.43,7.23-4.43s-13.79,4.6-18.91-1.31c0,0,1.12-2.19,5-2.17l-5-3.39a3.7,3.7,0,0,1,5-2.27c3.81,1.26,12.38-.36,12.38-.36s-8.13-2.46-6.59-10.33,8.56-6.72,8.56-6.72l0,.65a7.1,7.1,0,0,1-1.65,4.92,3,3,0,0,0-.36,2.53c.7,3.5,2,4.73,4.61,4.12,3.55-.83,2.89-3.31,1.76-5.18a17.6,17.6,0,0,1-2.36-6.66l0-.33s4.19-3,7.19,4.7c.85,2.15,1.47,3.78,1.94,5A7.46,7.46,0,0,0,87.85,222.55Z"/><path d="M121.46,254.47a9.85,9.85,0,0,1-4.7-1.19l-30.2-16.21a10.69,10.69,0,0,0-9.68-.18l-15.06,7.36a.38.38,0,0,1-.36,0,.37.37,0,0,1-.19-.3,7.08,7.08,0,0,1,2.33-5.05,18.24,18.24,0,0,1,3.93-2.83c-4.53,1-12,1.75-15.63-2.39a.38.38,0,0,1,0-.42c0-.09,1-2,4.21-2.32L52,228.17a.38.38,0,0,1-.15-.43,4.41,4.41,0,0,1,2.05-2.41,4.3,4.3,0,0,1,3.38-.1c2.8.93,8.36.23,10.89-.16-2.29-1.1-6.79-4.1-5.59-10.25,1.59-8.14,8.92-7,9-7a.39.39,0,0,1,.32.35l0,.66A7.45,7.45,0,0,1,70.18,214a2.71,2.71,0,0,0-.29,2.21c.39,1.94,1,3.09,1.77,3.62a3.88,3.88,0,0,0,4.61-1.23c.41-1-.16-2.27-.7-3.18a17.7,17.7,0,0,1-2.42-6.79l0-.34a.38.38,0,0,1,.15-.36,4,4,0,0,1,3.28-.48c1.8.53,3.31,2.34,4.49,5.35.76,2,1.41,3.63,1.94,5a7.06,7.06,0,0,0,5,4.37L120.68,230a14,14,0,0,1,10.52,16.6,9.87,9.87,0,0,1-5.54,7A10,10,0,0,1,121.46,254.47ZM81.54,235.06a11.5,11.5,0,0,1,5.38,1.34l30.2,16.21a9.18,9.18,0,0,0,13.34-6.21,13.25,13.25,0,0,0-10-15.7l-32.75-7.78a7.85,7.85,0,0,1-5.51-4.84c-.52-1.39-1.17-3.07-1.93-5-1.07-2.74-2.45-4.44-4-4.9a3.27,3.27,0,0,0-2.44.25l0,.09A16.9,16.9,0,0,0,76.22,215c.93,1.55,1.18,2.84.75,3.86a3.62,3.62,0,0,1-2.75,1.89,3.73,3.73,0,0,1-3-.31c-1-.65-1.67-2-2.1-4.11a3.36,3.36,0,0,1,.43-2.83,6.7,6.7,0,0,0,1.57-4.66l0-.34c-1.32-.11-6.53-.14-7.82,6.45-1.46,7.45,6,9.79,6.32,9.89a.38.38,0,0,1,0,.74c-.35.07-8.71,1.63-12.57.35a3.54,3.54,0,0,0-2.8.06,3.59,3.59,0,0,0-1.56,1.7l4.76,3.23a.38.38,0,0,1,.15.43.37.37,0,0,1-.36.26h-.06c-2.87,0-4.1,1.24-4.48,1.75,5,5.33,18.18,1,18.31,1a.38.38,0,0,1,.48.22.38.38,0,0,1-.21.49s-4.81,2-7.11,4.34a7,7,0,0,0-2.07,3.86l14.48-7.07A11.33,11.33,0,0,1,81.54,235.06Z"/><path class="cls-1" d="M254.27,222.55l-32.75,7.78a13.7,13.7,0,0,0-10.23,16.15A9.57,9.57,0,0,0,225.18,253l30.2-16.21a11,11,0,0,1,10-.19l15.06,7.36a6.63,6.63,0,0,0-2.21-4.75c-2.39-2.43-7.23-4.43-7.23-4.43s13.79,4.6,18.91-1.31c0,0-1.12-2.19-5-2.17l5-3.39a3.7,3.7,0,0,0-4.95-2.27c-3.81,1.26-12.38-.36-12.38-.36s8.13-2.46,6.58-10.33-8.55-6.72-8.55-6.72l-.05.65a7.16,7.16,0,0,0,1.66,4.92,3.06,3.06,0,0,1,.36,2.53c-.7,3.5-2,4.73-4.61,4.12-3.56-.83-2.89-3.31-1.76-5.18a17.77,17.77,0,0,0,2.36-6.66l0-.33s-4.18-3-7.19,4.7c-.84,2.15-1.47,3.78-1.93,5A7.46,7.46,0,0,1,254.27,222.55Z"/><path d="M220.66,254.47a10.07,10.07,0,0,1-4.21-.93,9.87,9.87,0,0,1-5.54-7A14,14,0,0,1,221.44,230l32.74-7.78a7.06,7.06,0,0,0,5-4.37c.53-1.4,1.19-3.09,1.94-5,1.18-3,2.69-4.82,4.49-5.35a4,4,0,0,1,3.28.48.38.38,0,0,1,.15.36l-.05.34a17.68,17.68,0,0,1-2.41,6.79c-.55.91-1.11,2.2-.7,3.18a3,3,0,0,0,2.22,1.44,3,3,0,0,0,2.39-.21c.82-.53,1.38-1.68,1.76-3.62a2.67,2.67,0,0,0-.28-2.21,7.5,7.5,0,0,1-1.74-5.18l.05-.66a.38.38,0,0,1,.32-.35c.07,0,7.39-1.12,9,7,1.2,6.15-3.3,9.15-5.59,10.25,2.53.39,8.09,1.09,10.89.16a4.31,4.31,0,0,1,3.38.1,4.46,4.46,0,0,1,2.05,2.41.38.38,0,0,1-.15.43l-4.08,2.76c3.17.36,4.16,2.23,4.21,2.32a.38.38,0,0,1,0,.42c-3.59,4.14-11.1,3.35-15.63,2.39a18.49,18.49,0,0,1,3.93,2.83,7,7,0,0,1,2.32,5.05.37.37,0,0,1-.19.3.36.36,0,0,1-.35,0l-15.06-7.36a10.66,10.66,0,0,0-9.68.18l-30.2,16.21A9.85,9.85,0,0,1,220.66,254.47Zm33.69-31.55-32.74,7.78a13.25,13.25,0,0,0-10,15.7A9.18,9.18,0,0,0,225,252.61l30.2-16.21a11.42,11.42,0,0,1,10.37-.19L280,243.28a7,7,0,0,0-2.06-3.86c-2.31-2.34-7.06-4.32-7.11-4.34a.38.38,0,0,1-.21-.49.37.37,0,0,1,.48-.22c.13,0,13.27,4.34,18.31-1-.38-.51-1.64-1.76-4.54-1.75h0a.37.37,0,0,1-.36-.26.38.38,0,0,1,.15-.43l4.76-3.23a3.67,3.67,0,0,0-1.57-1.7,3.56,3.56,0,0,0-2.79-.06c-3.86,1.28-12.22-.28-12.58-.35a.36.36,0,0,1-.3-.35.38.38,0,0,1,.26-.39c.32-.1,7.79-2.45,6.33-9.89-1.29-6.59-6.5-6.57-7.82-6.45l0,.34a6.79,6.79,0,0,0,1.57,4.66,3.36,3.36,0,0,1,.44,2.83c-.43,2.16-1.1,3.46-2.1,4.11a3.73,3.73,0,0,1-3,.31,3.6,3.6,0,0,1-2.75-1.89c-.43-1-.18-2.31.75-3.86a16.9,16.9,0,0,0,2.31-6.51v-.09a3.25,3.25,0,0,0-2.44-.25c-1.53.46-2.91,2.16-4,4.9-.76,1.92-1.41,3.61-1.94,5A7.81,7.81,0,0,1,254.35,222.92Z"/><path class="cls-1" d="M300.74,163.22h10.08a1.52,1.52,0,0,0,1.51-1.51v-54.5a1.69,1.69,0,0,0-1.69-1.69H285.1Z"/><path d="M310.82,163.6H300.74a.38.38,0,1,1,0-.76h10.08a1.14,1.14,0,0,0,1.13-1.13v-54.5a1.31,1.31,0,0,0-1.31-1.31H285.1a.38.38,0,0,1,0-.76h25.54a2.07,2.07,0,0,1,2.07,2.07v54.5A1.89,1.89,0,0,1,310.82,163.6Z"/><path class="cls-1" d="M300.41,165.69a1.17,1.17,0,0,1-1.14.94h-58.9a1.17,1.17,0,0,1-1.14-1.39l11.71-58.8a1.18,1.18,0,0,1,1.14-.94H311a1.17,1.17,0,0,1,1.14,1.39Z"/><path d="M299.27,167h-58.9a1.54,1.54,0,0,1-1.51-1.84l11.71-58.8a1.55,1.55,0,0,1,1.51-1.25H311a1.53,1.53,0,0,1,1.19.57,1.55,1.55,0,0,1,.32,1.28l-11.71,58.8A1.54,1.54,0,0,1,299.27,167Zm-47.19-61.12a.78.78,0,0,0-.77.63l-11.71,58.8a.78.78,0,0,0,.17.64.76.76,0,0,0,.6.29h58.9a.8.8,0,0,0,.77-.63l11.71-58.8a.8.8,0,0,0-.17-.65.78.78,0,0,0-.6-.28Z"/><path d="M255.25,143.38h-6.83a.42.42,0,0,1-.3-.13.41.41,0,0,1-.08-.32l1.24-6.47a.38.38,0,0,1,.37-.31h6.83a.37.37,0,0,1,.29.14.38.38,0,0,1,.08.31l-1.23,6.47A.38.38,0,0,1,255.25,143.38Zm-6.37-.76h6.05l1.09-5.71H250Z"/><polygon class="cls-1" points="256.1 143 257.33 136.53 264.16 136.53 262.93 143 256.1 143"/><path d="M270.61,143.38h-6.83a.39.39,0,0,1-.29-.13.38.38,0,0,1-.08-.32l1.23-6.47a.38.38,0,0,1,.37-.31h6.83a.37.37,0,0,1,.29.14.32.32,0,0,1,.08.31L271,143.07A.38.38,0,0,1,270.61,143.38Zm-6.37-.76h6.05l1.09-5.71h-6.05Z"/><polygon class="cls-1" points="271.46 143 272.69 136.53 279.52 136.53 278.29 143 271.46 143"/><path d="M286,143.38h-6.83a.39.39,0,0,1-.29-.13.41.41,0,0,1-.08-.32l1.23-6.47a.39.39,0,0,1,.38-.31h6.82a.39.39,0,0,1,.3.14.38.38,0,0,1,.08.31l-1.24,6.47A.38.38,0,0,1,286,143.38Zm-6.37-.76h6.06l1.08-5.71h-6.05Z"/><polygon class="cls-1" points="286.82 143 288.06 136.53 294.88 136.53 293.65 143 286.82 143"/><path d="M301.33,143.38H294.5a.39.39,0,0,1-.29-.13.41.41,0,0,1-.08-.32l1.23-6.47a.39.39,0,0,1,.38-.31h6.83a.37.37,0,0,1,.29.14.38.38,0,0,1,.08.31l-1.23,6.47A.39.39,0,0,1,301.33,143.38Zm-6.37-.76H301l1.09-5.71h-6.06Z"/><polygon class="cls-1" points="247.05 150.24 248.28 143.76 255.11 143.76 253.88 150.24 247.05 150.24"/><path d="M261.56,150.62h-6.83a.37.37,0,0,1-.29-.14.38.38,0,0,1-.08-.31l1.23-6.48a.38.38,0,0,1,.38-.3h6.82a.42.42,0,0,1,.3.13.41.41,0,0,1,.08.32l-1.24,6.47A.38.38,0,0,1,261.56,150.62Zm-6.37-.76h6.06l1.08-5.71h-6.05Z"/><polygon class="cls-1" points="262.41 150.24 263.65 143.76 270.48 143.76 269.24 150.24 262.41 150.24"/><path d="M276.92,150.62H270.1a.37.37,0,0,1-.3-.14.38.38,0,0,1-.08-.31l1.23-6.48a.39.39,0,0,1,.38-.3h6.83a.39.39,0,0,1,.29.13.41.41,0,0,1,.08.32l-1.23,6.47A.39.39,0,0,1,276.92,150.62Zm-6.36-.76h6.05l1.09-5.71h-6.06Z"/><polygon class="cls-1" points="277.78 150.24 279.01 143.76 285.84 143.76 284.61 150.24 277.78 150.24"/><path d="M292.29,150.62h-6.83a.4.4,0,0,1-.38-.45l1.24-6.48a.37.37,0,0,1,.37-.3h6.83a.39.39,0,0,1,.29.13.41.41,0,0,1,.08.32l-1.23,6.47A.38.38,0,0,1,292.29,150.62Zm-6.37-.76H292l1.09-5.71H287Z"/><polygon class="cls-1" points="293.14 150.24 294.37 143.76 301.2 143.76 299.97 150.24 293.14 150.24"/><path d="M258,128.91h-6.83a.37.37,0,0,1-.29-.14.36.36,0,0,1-.09-.31L252,122a.38.38,0,0,1,.37-.31h6.83a.37.37,0,0,1,.29.14.39.39,0,0,1,.08.31l-1.23,6.48A.38.38,0,0,1,258,128.91Zm-6.37-.76h6.05l1.09-5.72H252.7Z"/><polygon class="cls-1" points="258.83 128.52 260.07 122.05 266.89 122.05 265.66 128.52 258.83 128.52"/><path d="M273.34,128.91h-6.83a.37.37,0,0,1-.29-.14.39.39,0,0,1-.08-.31l1.23-6.48a.38.38,0,0,1,.37-.31h6.83a.37.37,0,0,1,.29.14.36.36,0,0,1,.09.31l-1.24,6.48A.38.38,0,0,1,273.34,128.91Zm-6.37-.76h6l1.09-5.72h-6.05Z"/><polygon class="cls-1" points="274.19 128.53 275.43 122.05 282.25 122.05 281.02 128.53 274.19 128.53"/><path d="M288.7,128.91h-6.83a.37.37,0,0,1-.29-.14.39.39,0,0,1-.08-.31l1.23-6.48a.39.39,0,0,1,.38-.31h6.82a.38.38,0,0,1,.38.45l-1.23,6.48A.39.39,0,0,1,288.7,128.91Zm-6.37-.76h6.06l1.08-5.72h-6.05Z"/><polygon class="cls-1" points="289.56 128.53 290.79 122.05 297.62 122.05 296.38 128.53 289.56 128.53"/><path d="M304.06,128.91h-6.82a.38.38,0,0,1-.38-.45L298.1,122a.38.38,0,0,1,.37-.31h6.83a.37.37,0,0,1,.29.14.39.39,0,0,1,.08.31l-1.23,6.48A.39.39,0,0,1,304.06,128.91Zm-6.36-.76h6.05l1.09-5.72h-6.06Z"/><polygon class="cls-1" points="249.78 135.76 251.02 129.29 257.84 129.29 256.61 135.76 249.78 135.76"/><polygon class="cls-1" points="257.46 135.76 258.7 129.29 265.52 129.29 264.29 135.76 257.46 135.76"/><polygon class="cls-1" points="265.14 135.76 266.38 129.29 273.21 129.29 271.97 135.76 265.14 135.76"/><path d="M279.65,136.15h-6.82a.39.39,0,0,1-.3-.14.4.4,0,0,1-.08-.32l1.24-6.47a.38.38,0,0,1,.37-.31h6.83a.37.37,0,0,1,.29.14.38.38,0,0,1,.08.31L280,135.84A.39.39,0,0,1,279.65,136.15Zm-6.36-.76h6l1.09-5.72h-6.06Z"/><polygon class="cls-1" points="280.51 135.76 281.74 129.29 288.57 129.29 287.34 135.76 280.51 135.76"/><polygon class="cls-1" points="295.78 135.76 297.01 129.29 303.84 129.29 302.61 135.76 295.78 135.76"/><path d="M295,136.15h-6.83a.37.37,0,0,1-.29-.14.34.34,0,0,1-.08-.32l1.23-6.47a.38.38,0,0,1,.37-.31h6.83a.37.37,0,0,1,.29.14.32.32,0,0,1,.08.31l-1.23,6.48A.38.38,0,0,1,295,136.15Zm-6.37-.76h6.05l1.09-5.72h-6.05Z"/><path d="M263.37,105.77a.38.38,0,0,1-.38-.38,4.52,4.52,0,0,0-1-2.83.4.4,0,0,1,.07-.54.38.38,0,0,1,.54.07,5.32,5.32,0,0,1,1.13,3.3A.38.38,0,0,1,263.37,105.77Z"/><path d="M258.37,110.77a5.38,5.38,0,0,1,0-10.75,5.3,5.3,0,0,1,3.11,1,.37.37,0,0,1,.09.53.38.38,0,0,1-.53.09,4.54,4.54,0,0,0-2.67-.85,4.61,4.61,0,0,0,0,9.22.39.39,0,0,1,0,.77Z"/><path d="M270.06,105.77a.38.38,0,0,1-.38-.38,4.55,4.55,0,0,0-1-2.89.38.38,0,0,1,.06-.53.39.39,0,0,1,.54,0,5.42,5.42,0,0,1,1.18,3.37A.38.38,0,0,1,270.06,105.77Z"/><path d="M265.07,110.77a5.38,5.38,0,1,1,0-10.75,5.28,5.28,0,0,1,3,.89.38.38,0,1,1-.42.63,4.56,4.56,0,0,0-2.54-.76,4.61,4.61,0,1,0,0,9.22.39.39,0,0,1,0,.77Z"/><path d="M276.75,105.77a.38.38,0,0,1-.38-.38,4.59,4.59,0,0,0-1.05-2.93.38.38,0,0,1,.59-.48,5.37,5.37,0,0,1,1.22,3.41A.38.38,0,0,1,276.75,105.77Z"/><path d="M271.76,110.77a5.38,5.38,0,1,1,3.07-9.79.38.38,0,1,1-.44.62,4.55,4.55,0,0,0-2.63-.82,4.61,4.61,0,1,0,0,9.22.39.39,0,0,1,0,.77Z"/><path d="M283.44,105.77a.38.38,0,0,1-.38-.38,4.64,4.64,0,0,0-1.07-3,.36.36,0,0,1,.05-.53.37.37,0,0,1,.53,0,5.38,5.38,0,0,1,1.25,3.45A.38.38,0,0,1,283.44,105.77Z"/><path d="M278.45,110.77a5.38,5.38,0,1,1,3-9.84.38.38,0,0,1,.1.53.36.36,0,0,1-.52.1,4.62,4.62,0,1,0-2.58,8.44.39.39,0,0,1,0,.77Z"/><path d="M290.13,105.77a.38.38,0,0,1-.38-.38,4.56,4.56,0,0,0-1-2.87.37.37,0,0,1,.07-.53.38.38,0,0,1,.53.06,5.32,5.32,0,0,1,1.16,3.34A.38.38,0,0,1,290.13,105.77Z"/><path d="M285.14,110.77a5.38,5.38,0,1,1,0-10.75,5.29,5.29,0,0,1,3,.91.37.37,0,0,1,.11.52.38.38,0,0,1-.53.11,4.61,4.61,0,1,0-2.57,8.44.39.39,0,0,1,0,.77Z"/><path d="M296.82,105.77a.38.38,0,0,1-.38-.38,4.58,4.58,0,0,0-1-2.85.38.38,0,1,1,.59-.48,5.3,5.3,0,0,1,1.15,3.33A.38.38,0,0,1,296.82,105.77Z"/><path d="M291.83,110.77a5.38,5.38,0,1,1,2.94-9.88.38.38,0,0,1,.11.52.38.38,0,0,1-.53.11,4.61,4.61,0,1,0-2.52,8.48.39.39,0,0,1,0,.77Z"/><path d="M303.52,105.77a.38.38,0,0,1-.38-.38,4.61,4.61,0,0,0-1-2.91.39.39,0,0,1,0-.54.38.38,0,0,1,.54.06,5.37,5.37,0,0,1,1.21,3.39A.38.38,0,0,1,303.52,105.77Z"/><path d="M298.52,110.77a5.38,5.38,0,1,1,2.93-9.89.38.38,0,0,1-.42.64,4.53,4.53,0,0,0-2.51-.74,4.61,4.61,0,1,0,0,9.22.39.39,0,0,1,0,.77Z"/><path d="M305.21,110.77a5.38,5.38,0,1,1,5.38-5.38.38.38,0,0,1-.76,0,4.62,4.62,0,1,0-4.62,4.61.39.39,0,0,1,0,.77Z"/><path d="M258.47,111.68a1.29,1.29,0,0,1-1-.43.37.37,0,0,1,0-.53.39.39,0,0,1,.54,0,.54.54,0,0,0,.4.18.55.55,0,1,0,0-1.1.54.54,0,0,0-.44.23.37.37,0,0,1-.53.08.38.38,0,0,1-.09-.53,1.31,1.31,0,1,1,1.06,2.08Z"/><path d="M265.05,111.68a1.33,1.33,0,0,1-1-.43.37.37,0,0,1,0-.53.38.38,0,0,1,.53,0,.58.58,0,0,0,.41.18.55.55,0,0,0,0-1.1.57.57,0,0,0-.45.23.37.37,0,0,1-.53.08.38.38,0,0,1-.08-.53,1.31,1.31,0,1,1,1.06,2.08Z"/><path d="M271.62,111.68a1.32,1.32,0,0,1-1-.43.38.38,0,0,1,0-.53.39.39,0,0,1,.54,0,.55.55,0,1,0,0-.69.38.38,0,0,1-.61-.45,1.29,1.29,0,0,1,1.05-.54,1.31,1.31,0,0,1,0,2.62Z"/><path d="M278.39,111.68a1.33,1.33,0,0,1-1-.43.37.37,0,0,1,0-.53.38.38,0,0,1,.53,0,.58.58,0,0,0,.41.18.55.55,0,0,0,0-1.1.57.57,0,0,0-.45.23.37.37,0,0,1-.53.08.38.38,0,0,1-.08-.53,1.31,1.31,0,1,1,1.06,2.08Z"/><path d="M285,111.68a1.3,1.3,0,0,1-1-.43.38.38,0,0,1,0-.53.39.39,0,0,1,.54,0,.55.55,0,1,0,.4-.92.54.54,0,0,0-.44.23.38.38,0,0,1-.61-.45,1.29,1.29,0,0,1,1-.54,1.31,1.31,0,0,1,0,2.62Z"/><path d="M292,111.68a1.32,1.32,0,0,1-1-.43.38.38,0,0,1,0-.53.39.39,0,0,1,.54,0,.57.57,0,0,0,.4.18.55.55,0,0,0,0-1.1.57.57,0,0,0-.44.23.38.38,0,0,1-.61-.45,1.29,1.29,0,0,1,1.05-.54,1.31,1.31,0,0,1,0,2.62Z"/><path d="M298.57,111.68a1.29,1.29,0,0,1-1-.43.36.36,0,0,1,0-.53.39.39,0,0,1,.54,0,.54.54,0,0,0,.4.18.55.55,0,0,0,0-1.1.54.54,0,0,0-.44.23.37.37,0,0,1-.53.08.38.38,0,0,1-.09-.53,1.31,1.31,0,1,1,1.06,2.08Z"/><path d="M305.15,111.68a1.33,1.33,0,0,1-1-.43.37.37,0,0,1,0-.53.38.38,0,0,1,.53,0,.58.58,0,0,0,.41.18.55.55,0,0,0,0-1.1.57.57,0,0,0-.45.23.37.37,0,0,1-.53.08.38.38,0,0,1-.08-.53,1.31,1.31,0,1,1,1.06,2.08Z"/><path d="M53.72,291.51a2.88,2.88,0,0,1-2.56-4.18A2.88,2.88,0,0,1,55,286.07a2.88,2.88,0,0,1-1.31,5.44Zm0-5a2.11,2.11,0,1,0,1,.22A2.13,2.13,0,0,0,53.73,286.52Zm-2.23,1Z"/><path d="M309.26,196.37a2.88,2.88,0,1,1,2.57-1.58A2.89,2.89,0,0,1,309.26,196.37Zm0-5a2.12,2.12,0,1,0,1,.23A2,2,0,0,0,309.27,191.38Zm-2.23,1Z"/><path d="M274,82a.38.38,0,0,1-.22-.07l-1.19-.83a.37.37,0,0,1-.09-.52.37.37,0,0,1,.53-.1l1.19.83a.38.38,0,0,1,.09.53A.36.36,0,0,1,274,82Z"/><path d="M278.17,84.86a.4.4,0,0,1-.21-.07l-1.2-.83a.38.38,0,0,1-.09-.53.37.37,0,0,1,.53-.09l1.19.82a.37.37,0,0,1,.09.53A.37.37,0,0,1,278.17,84.86Z"/><path d="M273.64,85.68a.39.39,0,0,1-.21-.06.38.38,0,0,1-.1-.53l.82-1.2a.38.38,0,1,1,.63.43l-.83,1.2A.36.36,0,0,1,273.64,85.68Z"/><path d="M276.52,81.49a.43.43,0,0,1-.22-.06.38.38,0,0,1-.09-.53l.82-1.2a.38.38,0,0,1,.53-.1.39.39,0,0,1,.1.53l-.83,1.2A.36.36,0,0,1,276.52,81.49Z"/><path d="M41.23,272.91h0a.38.38,0,0,1-.37-.39l.07-2a.38.38,0,0,1,.39-.37.39.39,0,0,1,.37.4l-.07,2A.38.38,0,0,1,41.23,272.91Z"/><path d="M41,279.93h0a.38.38,0,0,1-.37-.39l.07-2a.38.38,0,0,1,.39-.37.39.39,0,0,1,.37.4l-.07,2A.37.37,0,0,1,41,279.93Z"/><path d="M38.64,275.35h0l-2-.06a.39.39,0,0,1-.37-.39.38.38,0,0,1,.39-.37l2,.06A.38.38,0,0,1,39,275,.39.39,0,0,1,38.64,275.35Z"/><path d="M45.66,275.54h0l-2-.05a.39.39,0,0,1-.37-.39.39.39,0,0,1,.39-.37l2,0a.38.38,0,0,1,.37.39A.38.38,0,0,1,45.66,275.54Z"/><path d="M273.26,72.18a.36.36,0,0,1-.28-.12,135.13,135.13,0,0,0-36.74-28.49.39.39,0,0,1-.15-.52.38.38,0,0,1,.51-.15,135.92,135.92,0,0,1,36.94,28.65.37.37,0,0,1-.28.63Z"/><path d="M259.72,69a.38.38,0,0,1-.27-.11C246.24,55.7,230,45.53,211.09,38.68a.38.38,0,0,1-.23-.48.38.38,0,0,1,.49-.23c19,6.89,35.35,17.11,48.64,30.38a.38.38,0,0,1,0,.54A.35.35,0,0,1,259.72,69Z"/><path d="M64.19,96.2A2.48,2.48,0,0,1,61.83,93,2.48,2.48,0,0,1,65,91.36a2.44,2.44,0,0,1,1.44,1.23,2.4,2.4,0,0,1,.15,1.89A2.48,2.48,0,0,1,64.19,96.2Zm0-4.2a1.71,1.71,0,0,0-1.63,1.19,1.66,1.66,0,0,0,.1,1.31,1.72,1.72,0,0,0,3.17-.25,1.72,1.72,0,0,0-1.11-2.17A1.59,1.59,0,0,0,64.19,92Z"/><path d="M70.85,85.77a.37.37,0,0,1-.3-.61C82.62,69,95.21,59.67,103.64,54.73c9.16-5.37,15.55-6.92,15.62-6.94a.38.38,0,1,1,.17.74c-.25.06-25.33,6.31-48.27,37.09A.39.39,0,0,1,70.85,85.77Z"/><path d="M78,66.57a.39.39,0,0,1-.27-.11.38.38,0,0,1,0-.54c24-24.31,46.33-27.65,46.56-27.68a.39.39,0,0,1,.43.33.38.38,0,0,1-.33.42c-.22,0-22.34,3.35-46.12,27.47A.4.4,0,0,1,78,66.57Z"/><path d="M124.79,49.32h-.09a.38.38,0,0,1-.27-.25l-1.73-5a.38.38,0,0,1,.07-.37.36.36,0,0,1,.34-.13c2.41.31,6.19.57,6.23.57a.38.38,0,0,1,.33.25.37.37,0,0,1-.09.4l-4.52,4.44A.39.39,0,0,1,124.79,49.32Zm-1.17-4.94L125,48.25l3.49-3.43C127.32,44.73,125.28,44.57,123.62,44.38Z"/><path class="cls-1" d="M148.81,35.62l3,1.59a24.07,24.07,0,0,0,0,4l-3,1.55a3.57,3.57,0,0,0,1.77,6.74l3.38-.12a24,24,0,0,0,2,3.45l-1.83,2.85a3.57,3.57,0,0,0,4.9,5l2.86-1.79a23,23,0,0,0,3.44,2l-.15,3.38A3.56,3.56,0,0,0,171.82,66l1.59-3a24.07,24.07,0,0,0,4,0l1.55,3a3.57,3.57,0,0,0,6.74-1.77l-.12-3.38A24,24,0,0,0,189,59l2.85,1.82a3.57,3.57,0,0,0,4.95-4.9L195,53a22.94,22.94,0,0,0,2-3.44l3.37.16A3.57,3.57,0,0,0,202.24,43l-3-1.59a23.94,23.94,0,0,0,0-4l3-1.56a3.57,3.57,0,0,0-1.77-6.73l-3.38.11a23.54,23.54,0,0,0-2-3.45L197,23a3.57,3.57,0,0,0-4.9-4.95l-2.86,1.79a22.07,22.07,0,0,0-3.44-2l.16-3.38a3.57,3.57,0,0,0-6.72-1.84l-1.59,3a22,22,0,0,0-4,0l-1.56-3a3.57,3.57,0,0,0-6.73,1.77l.11,3.38a24.56,24.56,0,0,0-3.45,2l-2.85-1.83a3.57,3.57,0,0,0-4.95,4.9L156,25.62a23.93,23.93,0,0,0-2,3.44l-3.38-.16a3.57,3.57,0,0,0-1.84,6.72Zm8.44-1.3A18.95,18.95,0,1,1,170.52,57.6,19,19,0,0,1,157.25,34.32Z"/><path d="M182.09,68.79a4.33,4.33,0,0,1-3.85-2.35l-1.31-2.54a24.22,24.22,0,0,1-3.07,0l-1.35,2.53a4.35,4.35,0,0,1-8.19-2.24l.13-2.87a24.75,24.75,0,0,1-2.65-1.54l-2.42,1.51a4.35,4.35,0,0,1-6-6L155,52.82a24,24,0,0,1-1.52-2.66l-2.86.1A4.36,4.36,0,0,1,148.41,42L151,40.73a24.22,24.22,0,0,1,0-3.07l-2.53-1.35a4.35,4.35,0,0,1,2.25-8.19l2.86.13a24.75,24.75,0,0,1,1.54-2.65l-1.51-2.42a4.36,4.36,0,0,1,6-6L162,18.75a26,26,0,0,1,2.66-1.52l-.1-2.86a4.36,4.36,0,0,1,8.22-2.16l1.32,2.54a26.06,26.06,0,0,1,3.06,0l1.35-2.53a4.35,4.35,0,0,1,8.19,2.25l-.13,2.86a24.75,24.75,0,0,1,2.65,1.54l2.43-1.51a4.35,4.35,0,0,1,6,6l-1.55,2.41a26,26,0,0,1,1.52,2.66l2.87-.1a4.36,4.36,0,0,1,2.15,8.22l-2.54,1.32a24.07,24.07,0,0,1,0,3.06l2.53,1.35a4.35,4.35,0,0,1-2.24,8.19l-2.87-.13A24.75,24.75,0,0,1,196,53.05l1.52,2.43a4.35,4.35,0,0,1-6,6L189,59.9a25,25,0,0,1-2.66,1.52l.1,2.87a4.35,4.35,0,0,1-4.37,4.5Zm-4.25-6.53,1.8,3.46a2.78,2.78,0,0,0,5.25-1.38l-.13-3.9.47-.22a23,23,0,0,0,3.34-1.9L189,58l3.29,2.1a2.78,2.78,0,0,0,3.86-3.82L194.08,53l.3-.42a22.71,22.71,0,0,0,1.94-3.32l.22-.47,3.9.17a2.78,2.78,0,0,0,1.43-5.24l-3.44-1.83,0-.52a23.47,23.47,0,0,0,0-3.84l0-.52,3.46-1.79A2.79,2.79,0,0,0,200.54,30l-3.9.14-.22-.48a22,22,0,0,0-1.9-3.33l-.29-.43,2.1-3.29a2.78,2.78,0,0,0-3.82-3.86l-3.31,2.06-.42-.3a21.8,21.8,0,0,0-3.32-1.93l-.47-.23.18-3.9A2.79,2.79,0,0,0,179.92,13l-1.83,3.44-.52,0a22.41,22.41,0,0,0-3.84,0l-.52,0-1.79-3.46a2.79,2.79,0,0,0-5.26,1.38l.14,3.9-.47.22a22.85,22.85,0,0,0-3.34,1.9l-.43.29-3.29-2.1a2.79,2.79,0,0,0-3.86,3.83l2.06,3.3-.3.42a21.9,21.9,0,0,0-1.93,3.33l-.23.46-3.89-.17a2.75,2.75,0,0,0-2.82,2,2.78,2.78,0,0,0,1.38,3.2l3.44,1.83,0,.52a22.53,22.53,0,0,0,0,3.85l0,.51-3.46,1.79a2.79,2.79,0,0,0,1.38,5.26l3.9-.13.22.47a23.94,23.94,0,0,0,1.9,3.34l.3.42-2.11,3.29a2.79,2.79,0,0,0,3.83,3.86l3.3-2.06.42.3a22.82,22.82,0,0,0,3.33,1.94l.47.22-.18,3.9a2.78,2.78,0,0,0,5.24,1.43L173,62.23l.52.05a23.58,23.58,0,0,0,3.85,0Zm-2.32-3.2a19.84,19.84,0,0,1-5.2-.7,19.73,19.73,0,1,1,5.2.7Zm0-37.9A18.18,18.18,0,0,0,158,34.53h0A18.14,18.14,0,1,0,175.5,21.16Z"/><path d="M182.1,68.15a3.71,3.71,0,0,1-3.29-2l-1.5-2.91a23.23,23.23,0,0,1-3.82,0L172,66.11a3.71,3.71,0,0,1-7-1.91l.14-3.29A23.78,23.78,0,0,1,161.82,59L159,60.73A3.71,3.71,0,0,1,154,55.58l1.77-2.77a23.56,23.56,0,0,1-1.89-3.31l-3.29.12a3.72,3.72,0,0,1-1.83-7l2.91-1.51a24.27,24.27,0,0,1,0-3.81l-2.9-1.54a3.71,3.71,0,0,1,1.91-7l3.28.15a23.78,23.78,0,0,1,1.92-3.29l-1.74-2.79a3.71,3.71,0,0,1,5.15-5.09L162,19.52a23.56,23.56,0,0,1,3.31-1.89l-.11-3.29a3.71,3.71,0,0,1,7-1.83l1.51,2.91a24.26,24.26,0,0,1,3.81,0l1.55-2.9a3.71,3.71,0,0,1,7,1.91l-.15,3.28a23.89,23.89,0,0,1,3.3,1.92L192,17.92a3.71,3.71,0,0,1,5.09,5.15l-1.77,2.77a24.53,24.53,0,0,1,1.88,3.31l3.29-.11a3.71,3.71,0,0,1,1.83,7l-2.91,1.51a23.1,23.1,0,0,1,0,3.81l2.9,1.55a3.71,3.71,0,0,1-1.91,7l-3.29-.15a23.89,23.89,0,0,1-1.92,3.3l1.74,2.78a3.71,3.71,0,0,1-5.15,5.09L189,59.14A24.53,24.53,0,0,1,185.7,61l.12,3.29A3.71,3.71,0,0,1,183.05,68,3.93,3.93,0,0,1,182.1,68.15Zm-4.71-5.21a.13.13,0,0,1,.12.08l1.55,3a3.43,3.43,0,0,0,6.48-1.69l-.12-3.38a.13.13,0,0,1,.08-.13,24.71,24.71,0,0,0,3.43-2,.15.15,0,0,1,.16,0l2.84,1.82a3.43,3.43,0,0,0,4.76-4.7L194.9,53.1a.14.14,0,0,1,0-.15,24.46,24.46,0,0,0,2-3.42.13.13,0,0,1,.13-.08l3.38.16a3.44,3.44,0,0,0,1.77-6.46l-3-1.58a.13.13,0,0,1-.07-.14,23.71,23.71,0,0,0,0-4,.13.13,0,0,1,.07-.14l3-1.55a3.43,3.43,0,0,0-1.7-6.47l-3.38.11a.12.12,0,0,1-.13-.08,24.28,24.28,0,0,0-2-3.43.14.14,0,0,1,0-.15l1.82-2.85a3.43,3.43,0,0,0-4.7-4.76L189.31,20a.14.14,0,0,1-.16,0,24.46,24.46,0,0,0-3.42-2,.13.13,0,0,1-.08-.13l.16-3.38a3.43,3.43,0,0,0-6.45-1.76l-1.59,3a.16.16,0,0,1-.14.08,23.71,23.71,0,0,0-3.95,0,.16.16,0,0,1-.14-.08l-1.55-3a3.43,3.43,0,0,0-6.47,1.69l.11,3.38a.14.14,0,0,1-.08.14,24.22,24.22,0,0,0-3.43,1.95.14.14,0,0,1-.15,0L159.12,18a3.43,3.43,0,0,0-4.76,4.71l1.79,2.86a.12.12,0,0,1,0,.15,23.46,23.46,0,0,0-2,3.42.16.16,0,0,1-.14.08l-3.37-.15a3.43,3.43,0,0,0-1.77,6.45l3,1.59a.14.14,0,0,1,.08.13,23.83,23.83,0,0,0,0,4,.14.14,0,0,1-.08.13l-3,1.55a3.43,3.43,0,0,0,1.69,6.47l3.38-.11a.16.16,0,0,1,.14.08A23.68,23.68,0,0,0,156,52.73a.14.14,0,0,1,0,.15l-1.82,2.85a3.43,3.43,0,0,0,4.71,4.76l2.86-1.79a.14.14,0,0,1,.15,0,24.46,24.46,0,0,0,3.42,2,.13.13,0,0,1,.08.13l-.15,3.38A3.43,3.43,0,0,0,171.7,66l1.59-3a.12.12,0,0,1,.13-.07,23.83,23.83,0,0,0,4,0Zm-1.83-4.52a19.1,19.1,0,0,1-18.44-24.13l.13,0-.13,0a19.08,19.08,0,1,1,18.44,24.13Zm-.06-37.91a18.89,18.89,0,1,0,5,.68A19,19,0,0,0,175.5,20.51Z"/><path d="M182.09,68.93a4.46,4.46,0,0,1-4-2.43l-1.28-2.45a25.55,25.55,0,0,1-2.9,0l-1.3,2.45a4.5,4.5,0,0,1-8.46-2.32l.13-2.77a24.89,24.89,0,0,1-2.51-1.46l-2.35,1.46a4.49,4.49,0,0,1-6.16-6.23l1.49-2.34a26,26,0,0,1-1.43-2.52l-2.78.1a4.49,4.49,0,0,1-2.22-8.48l2.46-1.28a23.42,23.42,0,0,1,0-2.9l-2.45-1.3A4.5,4.5,0,0,1,150.69,28l2.78.13a24.89,24.89,0,0,1,1.46-2.51l-1.47-2.35a4.5,4.5,0,0,1,6.23-6.17l2.34,1.5a26,26,0,0,1,2.52-1.43l-.1-2.78a4.49,4.49,0,0,1,8.48-2.22l1.28,2.46a23.4,23.4,0,0,1,2.9,0l1.31-2.45a4.49,4.49,0,0,1,8.45,2.31l-.12,2.78a23.69,23.69,0,0,1,2.5,1.46l2.35-1.47a4.49,4.49,0,0,1,6.17,6.23l-1.5,2.34a25.18,25.18,0,0,1,1.44,2.52l2.77-.1a4.49,4.49,0,0,1,2.22,8.48L200.25,38a25.54,25.54,0,0,1,0,2.9l2.44,1.3a4.49,4.49,0,0,1-2.31,8.46l-2.77-.13a22.86,22.86,0,0,1-1.46,2.51l1.46,2.35a4.49,4.49,0,0,1-6.23,6.17L189,60.07a24.11,24.11,0,0,1-2.52,1.44l.1,2.77a4.47,4.47,0,0,1-3.35,4.5A4.56,4.56,0,0,1,182.09,68.93Zm-4.7-6.77h.47l.35.5,1.55,3a2.64,2.64,0,0,0,5-1.3l-.13-3.9.55-.35a23.17,23.17,0,0,0,3.32-1.9l.43-.29.59.28L192.36,60A2.65,2.65,0,0,0,196,56.38L194,53.08l.31-.59a22.29,22.29,0,0,0,1.92-3.29l.23-.48.65,0,3.37.15a2.64,2.64,0,0,0,1.37-5L198.36,42l0-.65a23.22,23.22,0,0,0,0-3.82l0-.52.54-.37,3-1.56a2.64,2.64,0,0,0-1.31-5l-3.9.14-.35-.56a24.59,24.59,0,0,0-1.89-3.31l-.3-.43.28-.6,1.82-2.84a2.65,2.65,0,0,0-3.63-3.67l-3.3,2.06-.59-.31a23.21,23.21,0,0,0-3.29-1.92l-.47-.22-.06-.65.15-3.38a2.64,2.64,0,0,0-5-1.36l-1.84,3.44-.65,0a22.18,22.18,0,0,0-3.82,0l-.52,0-.37-.53-1.56-3a2.64,2.64,0,0,0-5,1.31l.14,3.9-.56.35a22.1,22.1,0,0,0-3.31,1.89l-.43.29-.6-.28-2.84-1.82A2.65,2.65,0,0,0,155,22.27l2.06,3.31-.31.58a23.73,23.73,0,0,0-1.92,3.3l-.22.47L154,30l-3.37-.15a2.65,2.65,0,0,0-1.36,5l3.44,1.83,0,.65a22.18,22.18,0,0,0,0,3.82l0,.52-.53.38-3,1.55a2.64,2.64,0,0,0,1.31,5l3.9-.13.35.55a22.71,22.71,0,0,0,1.89,3.32l.29.43-.28.59-1.82,2.85a2.65,2.65,0,0,0,3.63,3.67l3.31-2.07.58.31a21.89,21.89,0,0,0,3.3,1.92l.47.23.05.65L166,64.24a2.65,2.65,0,0,0,5,1.37l1.83-3.45.66,0a22.17,22.17,0,0,0,3.82,0Zm-1.83-3a20.17,20.17,0,0,1-5.28-.71,19.86,19.86,0,0,1-13.92-24.41l.21-.76h0a19.87,19.87,0,1,1,19,25.88Zm-.06-37.9a18.08,18.08,0,1,0,4.79.65A17.78,17.78,0,0,0,175.5,21.3Z"/></svg>