<svg id="Capa_1" data-name="Capa 1" xmlns="http://www.w3.org/2000/svg" viewBox="0 0 350 669"><defs><style>.cls-1{fill:#fff;}</style></defs><path class="cls-1" d="M179.18,218.71c-.81-10.42,0-25.26,8.94-37.66,24.73-34.27,96.93-29.25,111-1.27C306.2,194,298.5,214.4,287,225.64c-17,16.63-45.71,16.47-63.23,6.48-16.68-9.52-21.86-27.18-32.45-25.53C185.42,207.5,181.5,213.81,179.18,218.71Z"/><path d="M223.46,232.65c-7.71-4.39-12.87-10.36-17.42-15.63-5.15-6-9.22-10.67-14.64-9.83-4.36.68-8.28,4.65-11.66,11.79a.62.62,0,0,1-.67.34.61.61,0,0,1-.5-.56c-1.19-15.29,1.86-28.1,9.05-38.07C194,171.89,204,165,216.49,160.9a96.53,96.53,0,0,1,37.13-4.14c22.24,1.78,39.87,10.5,46,22.74,7.3,14.56-.47,35.12-12.21,46.58-7.95,7.78-19.25,12.53-31.81,13.4-1.4.09-2.79.14-4.19.14A57.41,57.41,0,0,1,223.46,232.65Zm-34.84-51.24c-6.67,9.23-9.68,21-9,35,3.34-6.25,7.23-9.76,11.56-10.43,6.1-.95,10.36,4,15.76,10.23,4.49,5.2,9.58,11.08,17.1,15.37,17,9.7,45.72,10,62.49-6.38,11.17-10.91,18.93-31.28,12-45.15-5.95-11.86-23.19-20.31-45-22.07-2.42-.19-5-.29-7.56-.29C226,157.69,201.37,163.74,188.62,181.41Z"/><path d="M213.76,190.44h60.79a.62.62,0,0,0,.62-.62.61.61,0,0,0-.62-.61H213.76a.61.61,0,0,0-.61.61A.61.61,0,0,0,213.76,190.44Z"/><path d="M227.79,201.12h30.59a.61.61,0,0,0,.62-.61.62.62,0,0,0-.62-.62H227.79a.61.61,0,0,0-.61.62A.61.61,0,0,0,227.79,201.12Z"/><path class="cls-1" d="M288.38,234.61h0Z"/><path d="M174.63,573.67a.61.61,0,0,0,.62-.61v-4.77a.62.62,0,0,0-.62-.62.61.61,0,0,0-.61.62v4.77A.61.61,0,0,0,174.63,573.67Z"/><path d="M174.63,584.79a.62.62,0,0,0,.62-.62V579.4a.61.61,0,0,0-.62-.61.61.61,0,0,0-.61.61v4.77A.61.61,0,0,0,174.63,584.79Z"/><path d="M177.8,576.85h4.77a.62.62,0,0,0,.62-.62.61.61,0,0,0-.62-.61H177.8a.61.61,0,0,0-.61.61A.61.61,0,0,0,177.8,576.85Z"/><path d="M166.69,576.85h4.77a.61.61,0,0,0,.61-.62.61.61,0,0,0-.61-.61h-4.77a.61.61,0,0,0-.62.61A.62.62,0,0,0,166.69,576.85Z"/><path d="M124.51,174.42a.62.62,0,0,0,.26-.06.61.61,0,0,0,.3-.81l-2-4.34a.62.62,0,1,0-1.12.52l2,4.33A.61.61,0,0,0,124.51,174.42Z"/><path d="M129.16,184.51a.75.75,0,0,0,.26,0,.62.62,0,0,0,.3-.82l-2-4.33a.61.61,0,1,0-1.11.51l2,4.34A.63.63,0,0,0,129.16,184.51Z"/><path d="M128.72,176a.85.85,0,0,0,.26-.05l4.33-2a.62.62,0,0,0-.52-1.12l-4.33,2a.61.61,0,0,0,.26,1.17Z"/><path d="M118.63,180.63a.57.57,0,0,0,.25-.06l4.34-2a.62.62,0,0,0,.3-.81.63.63,0,0,0-.82-.31l-4.33,2a.62.62,0,0,0,.26,1.18Z"/><path d="M331.38,164.2a.6.6,0,0,0,.53-.3.61.61,0,0,0-.21-.84c-41.39-24.4-85.16-35.66-126.58-32.57a.62.62,0,1,0,.09,1.23c41.17-3.07,84.69,8.13,125.86,32.4A.6.6,0,0,0,331.38,164.2Z"/><path d="M298.61,139.18a.63.63,0,0,0,.57-.38.62.62,0,0,0-.34-.81c-29.94-12.38-59.94-18.17-89.19-17.19a.62.62,0,0,0-.59.64.59.59,0,0,0,.63.59c29.06-1,58.9,4.78,88.68,17.1A.69.69,0,0,0,298.61,139.18Z"/><path d="M52.33,493.61a.71.71,0,0,0,.31-.08.62.62,0,0,0,.21-.85c-17.93-30-29.27-62.41-32.79-93.61a.62.62,0,0,0-.68-.54.61.61,0,0,0-.54.68c3.53,31.37,14.93,63.91,33,94.1A.6.6,0,0,0,52.33,493.61Z"/><path d="M18,389.51h0a.61.61,0,0,0,.59-.63A183.55,183.55,0,0,1,19,368.4a.62.62,0,0,0-.57-.66.62.62,0,0,0-.66.57,185.89,185.89,0,0,0-.36,20.61A.61.61,0,0,0,18,389.51Z"/><path d="M21.19,336.11A5.09,5.09,0,0,1,20,329a5.14,5.14,0,0,1,7.15-1.15A5.1,5.1,0,0,1,28.35,335a5.13,5.13,0,0,1-7.16,1.15ZM21,329.7a3.89,3.89,0,0,0,.88,5.42,3.91,3.91,0,0,0,5.44-.88,3.89,3.89,0,0,0-3.15-6.15A3.91,3.91,0,0,0,21,329.7Z"/><path class="cls-1" d="M158.37,366.72c2.78,2.89-9.59,16.69-19.43,21.77l-16-21.32Z"/><path d="M138.45,388.86l-16-21.33a.59.59,0,0,1-.06-.64.61.61,0,0,1,.54-.34l35.42-.44a.65.65,0,0,1,.46.18,2.47,2.47,0,0,1,.51,2.19c-.85,5.1-11.75,16.24-20.11,20.55a.58.58,0,0,1-.28.07A.6.6,0,0,1,138.45,388.86Zm-14.28-21.09,15,19.93c8.45-4.56,18.29-15.15,19-19.42a1.74,1.74,0,0,0-.06-.94Z"/><path class="cls-1" d="M116.76,587.91s4,12.42,8.1,16.21,20.17,11.24,20.4,19.35c.26,9.41-5.21,11.15-19.85,7.75-10.58-2.45-19.31-8.92-22.43-12.61-2.75-3.26-1.21-6-.54-9.86a81.58,81.58,0,0,0,1-14.23v-7.79Z"/><path d="M125.27,631.82c-10.81-2.51-19.69-9.19-22.76-12.82-2.4-2.84-1.79-5.44-1.14-8.2.16-.69.33-1.4.46-2.16a82.12,82.12,0,0,0,1-14.12v-7.79a.61.61,0,0,1,.2-.45.59.59,0,0,1,.47-.16l13.33,1.18a.59.59,0,0,1,.53.42c0,.12,4,12.31,7.94,15.95a46.68,46.68,0,0,0,5.44,3.84c6.32,4.12,15,9.75,15.15,15.94.11,3.95-.75,6.53-2.7,8.13-1.52,1.24-3.68,1.86-6.74,1.86A51.36,51.36,0,0,1,125.27,631.82ZM104,587.4v7.12a83.91,83.91,0,0,1-1,14.34c-.14.78-.31,1.52-.48,2.23-.65,2.76-1.12,4.75.88,7.12,3,3.5,11.58,10,22.1,12.41,9.07,2.11,14.27,2.11,16.84,0,1.63-1.34,2.35-3.61,2.25-7.15-.15-5.54-8.5-11-14.59-14.93a48.35,48.35,0,0,1-5.61-4c-3.76-3.52-7.4-13.91-8.14-16.08Z"/><path d="M144.68,628a.62.62,0,0,0,0-1.23l-5.21-.37a54.12,54.12,0,0,1-34.68-16c-1.24-1.25-1.93-2-1.93-2.06a.62.62,0,0,0-.94.8s.72.84,2,2.12a55.26,55.26,0,0,0,35.47,16.33l5.21.38Z"/><path d="M113.26,608h.1c.3,0,7.28-1.25,10.09-4.9a.63.63,0,0,0-.12-.87.62.62,0,0,0-.86.12c-2.51,3.27-9.24,4.43-9.31,4.44a.6.6,0,0,0-.5.7A.61.61,0,0,0,113.26,608Z"/><path d="M119.45,612.21h.13c.28-.06,7-1.5,9.09-5.12a.61.61,0,0,0-1.06-.62c-1.87,3.15-8.22,4.52-8.28,4.54a.61.61,0,0,0,.12,1.21Z"/><path d="M126.11,616.19a.85.85,0,0,0,.22,0c.23-.09,5.7-2.16,7.42-5.77a.61.61,0,0,0-.29-.82.63.63,0,0,0-.82.29C131.13,613,126,615,125.9,615a.62.62,0,0,0,.21,1.2Z"/><path class="cls-1" d="M85.51,557.36c-.49,0-7.53-.7-11.61-1.11a2.9,2.9,0,0,0-3.16,2.57l-.8,7.38a45,45,0,0,1-1.55,7.71c-1.33,4.57-3.3,12.45-2.22,16.05,1.15,3.84,4.76,9.2,7.14,12.25a4.21,4.21,0,0,0,4.64,1.4c3-1,7.86-3,10.7-5.81,4.36-4.36-.35-12.72-.35-12.72Z"/><path d="M72.82,602.59c-2.63-3.37-6.1-8.65-7.24-12.46-1.08-3.58.62-10.89,2.22-16.39a44.51,44.51,0,0,0,1.53-7.6l.8-7.38A3.52,3.52,0,0,1,74,555.64c6.88.69,11.2,1.1,11.55,1.11a.62.62,0,0,1,.62.55l2.77,27.59c.59,1.09,4.59,9,.19,13.35-2.84,2.83-7.52,4.8-10.94,6a4.76,4.76,0,0,1-1.53.25A4.83,4.83,0,0,1,72.82,602.59Zm1-45.72a2.27,2.27,0,0,0-2.49,2l-.8,7.38A44.85,44.85,0,0,1,69,574.08c-1.27,4.38-3.26,12.24-2.22,15.7s4.27,8.51,7,12.05a3.61,3.61,0,0,0,4,1.19c2.7-.9,7.65-2.84,10.46-5.65,4-4-.41-11.91-.45-12a.75.75,0,0,1-.08-.24L85,557.94C83.59,557.83,79.86,557.47,73.84,556.87ZM88.3,585.08Z"/><path d="M79.86,603.22a.63.63,0,0,0,.35-.11.61.61,0,0,0,.15-.86c-8.32-11.71-7.77-14.72-6.55-21.33.26-1.45.56-3.08.81-5,.65-5,2.59-18.86,2.61-19a.61.61,0,1,0-1.21-.17c0,.14-2,14-2.62,19-.24,1.89-.54,3.51-.8,4.93-1.28,7-1.87,10.14,6.76,22.27A.6.6,0,0,0,79.86,603.22Z"/><path d="M78.69,582.08h.09l7.94-1.17a.61.61,0,1,0-.18-1.21l-7.94,1.16a.62.62,0,0,0,.09,1.23Z"/><path d="M79.51,587.8h.09l7.94-1.16a.63.63,0,0,0,.52-.7.62.62,0,0,0-.7-.52l-7.94,1.17a.61.61,0,0,0,.09,1.22Z"/><path d="M88.14,590.43c4.63,3.19,14.43,7.3,30.9,2.36l-7.86-208.52-28.43,5.11s-6.34,72-1.94,113.77a768.06,768.06,0,0,1,4.11,81A7.57,7.57,0,0,0,88.14,590.43Z"/><path d="M88.27,382.34l53.19-17.68,17.86,99.92c-1.85,24.61-30,89.76-40.66,97.05C101.93,573.14,88.27,382.34,88.27,382.34Z"/><path class="cls-1" d="M118.75,562.75a.62.62,0,0,0,.62-.6l3.44-136.63a.61.61,0,0,0-.6-.63.6.6,0,0,0-.63.6l-3.44,136.63a.61.61,0,0,0,.6.63Z"/><path class="cls-1" d="M193.33,264.07a.88.88,0,0,1-.71-.88c0-2.23.51-8.9,4.25-12,4.53-3.71,8.38-12.22,11.13-11.4s-3.3,8.24-2.61,9.06,5.49-3.84,7-6.59,3.34-8.12,5.53-7.94c3,.25,3.67,4.78-.31,13.71-3.79,8.49-16.53,10.77-17.52,16.41a.88.88,0,0,1-1,.7Z"/><path d="M198.94,265.78l-5.73-1.11a1.5,1.5,0,0,1-1.21-1.5c.06-2.68.61-9.25,4.48-12.42a35.41,35.41,0,0,0,5.24-6.09c2.49-3.36,4.45-6,6.45-5.42a1.56,1.56,0,0,1,1,.9c.52,1.29-.52,3.32-2,6.05-.36.63-.8,1.42-1,2a22.22,22.22,0,0,0,5.72-6.16c.35-.63.71-1.41,1.1-2.23,1.44-3.05,2.91-6.19,5-6a3,3,0,0,1,2.38,1.48c1.35,2.27.57,6.92-2.18,13.09-2.07,4.63-6.61,7.43-10.62,9.9-3.45,2.12-6.43,4-6.86,6.37a1.43,1.43,0,0,1-.61,1,1.54,1.54,0,0,1-.85.26Zm15.13-25.49c-.4.85-.78,1.64-1.14,2.31-1.28,2.31-5.53,6.84-7.19,7a1,1,0,0,1-.83-.31c-.5-.61,0-1.52,1.18-3.7.86-1.55,2.31-4.14,2-5a.31.31,0,0,0-.24-.19c-1.17-.35-3.18,2.35-5.11,5a35.73,35.73,0,0,1-5.45,6.31c-3.57,2.93-4,9.54-4,11.5a.26.26,0,0,0,.22.26l5.73,1.12a.28.28,0,0,0,.2-.05.2.2,0,0,0,.1-.16c.52-2.95,3.72-4.92,7.43-7.2s8.22-5.07,10.13-9.35c3.62-8.11,2.78-11.07,2.25-12a1.7,1.7,0,0,0-1.42-.88h-.06C216.57,235,215.07,238.17,214.07,240.29Zm-20.74,23.78Z"/><path d="M127.07,369.19a.59.59,0,0,0,.55-.34l15.58-31.76a.61.61,0,1,0-1.1-.55l-15.58,31.77a.61.61,0,0,0,.28.82A.66.66,0,0,0,127.07,369.19Z"/><path d="M140.7,358.71a.61.61,0,0,0,.57-.38L145.54,348a.62.62,0,0,0-.33-.81.61.61,0,0,0-.8.34l-4.27,10.34a.61.61,0,0,0,.33.8A.68.68,0,0,0,140.7,358.71Z"/><path class="cls-1" d="M81.43,298.44,82.86,301c-.45-.85-.92-1.7-1.43-2.54a58.18,58.18,0,0,1,17.73-6.24l18.16-4.1a62.81,62.81,0,0,1,17.35-1.47c6.66.36,15.09,1.39,20.6,4.14,10.34,5.17,15.28,11.47,21.35,9,5.09-2.08,11.75-27.64,13.76-35.81a2.68,2.68,0,0,1,3.13-2l6.37,1.27c14.55,26.25,4.29,54.28-12.7,61.24-11.57,4.74-27,0-38.65-10.79a73.74,73.74,0,0,1,4,16.43c1.27,10.34-.44,15.23,1.64,24.21a47.16,47.16,0,0,0,4.71,12.23.93.93,0,0,1-.74,1.37,151.76,151.76,0,0,0-29.82,5.68,153.53,153.53,0,0,0-47.08,23.46C81.51,385.91,84,378.26,92,365.8c3.69-5.71-9.36-18-16.33-27.1-11.3.25-15.39,5.65-14.31,10.2,1.14,4.77,11.29-1.38,15.07-3.87a1.66,1.66,0,0,1,2.33.52l5.87,9.52a.8.8,0,0,1-.13,1C80.41,360,49.84,388,37.07,362.44,19.54,327.4,81.43,298.44,81.43,298.44Z"/><path d="M81,397.63a.61.61,0,0,1-.33-.56c.26-11.62,2.89-19.3,10.85-31.61,2.59-4-4.53-12.36-10.8-19.73-1.93-2.25-3.75-4.39-5.31-6.41-5.8.18-10.15,1.79-12.28,4.55A5.75,5.75,0,0,0,62,348.76a1.45,1.45,0,0,0,.91,1.12c2,.79,6.92-1.22,13.23-5.37a2.26,2.26,0,0,1,1.74-.32,2.3,2.3,0,0,1,1.45,1l5.86,9.52a1.4,1.4,0,0,1-.22,1.75c-3.17,3-18.69,17.18-32.37,17.18a17.88,17.88,0,0,1-3.11-.26c-5.51-.95-9.87-4.56-12.94-10.71A28.32,28.32,0,0,1,35,340c8.34-24,45.09-41.59,46.11-42.08A58.55,58.55,0,0,1,99,291.6l18.16-4.1A63.49,63.49,0,0,1,134.7,286c6.36.35,15.13,1.36,20.85,4.21a90.8,90.8,0,0,1,8.69,5.12c5,3.25,8.36,5.4,12.15,3.86s9.44-19.31,13.39-35.38a3.28,3.28,0,0,1,3.85-2.44l6.37,1.27a.63.63,0,0,1,.42.31c7.46,13.45,9.07,28.75,4.42,42-3.39,9.64-9.74,17-17.42,20.12-11,4.5-25.52.83-37.53-9.34a74.71,74.71,0,0,1,3.27,14.34,84.47,84.47,0,0,1,.53,11.4,49.14,49.14,0,0,0,1.1,12.74,46.38,46.38,0,0,0,4.65,12.07,1.54,1.54,0,0,1-1.23,2.28,151.34,151.34,0,0,0-76.58,29,.63.63,0,0,1-.37.12A.72.72,0,0,1,81,397.63Zm68-84.38c11.8,10.86,27.08,15.15,38,10.67,7.36-3,13.46-10.08,16.72-19.38,4.51-12.82,3-27.65-4.19-40.74l-6.09-1.22a2.07,2.07,0,0,0-2.41,1.53c-2.51,10.18-8.9,34.1-14.13,36.23-4.38,1.78-8.11-.63-13.28-4a87.93,87.93,0,0,0-8.57-5c-5.53-2.77-14.13-3.75-20.37-4.09a62.58,62.58,0,0,0-17.18,1.46l-18.19,4.1a57.75,57.75,0,0,0-17,5.88c.37.62.73,1.29,1.11,2a.61.61,0,0,1-.25.83.62.62,0,0,1-.83-.24l-1.14-2c-4.51,2.21-37.26,18.94-45,41.13a27.13,27.13,0,0,0,1.42,21.78c2.89,5.78,7,9.16,12.05,10,13.77,2.39,31.08-13.4,34.42-16.59a.17.17,0,0,0,0-.22l-5.86-9.53a1.1,1.1,0,0,0-.67-.48,1.07,1.07,0,0,0-.8.15c-4,2.61-11.09,6.78-14.35,5.49a2.69,2.69,0,0,1-1.65-2,6.91,6.91,0,0,1,1.36-5.92c2.39-3.11,7.2-4.89,13.53-5a.62.62,0,0,1,.5.24c1.59,2.07,3.47,4.28,5.46,6.61,6.88,8.07,14,16.42,10.9,21.2-7.52,11.64-10.2,19.05-10.61,29.72a152.37,152.37,0,0,1,76.19-28.52.34.34,0,0,0,.25-.17.29.29,0,0,0,0-.29,48.25,48.25,0,0,1-4.77-12.39,50.92,50.92,0,0,1-1.13-13,83.49,83.49,0,0,0-.52-11.25,73.59,73.59,0,0,0-4-16.3.61.61,0,0,1,.24-.72.6.6,0,0,1,.34-.11A.58.58,0,0,1,148.94,313.25Z"/><path class="cls-1" d="M90.94,355.76l13.71.28a1.27,1.27,0,0,0,1.28-1.17l2.25-32.12H87.52l1.92,31.57A1.54,1.54,0,0,0,90.94,355.76Z"/><path d="M104.64,356.65l-13.72-.28a2.16,2.16,0,0,1-2.1-2l-1.91-31.57a.65.65,0,0,1,.16-.46.64.64,0,0,1,.45-.19h20.66a.61.61,0,0,1,.45.2.63.63,0,0,1,.16.46l-2.25,32.12a1.87,1.87,0,0,1-1.87,1.74ZM88.18,323.36l1.87,30.92a.92.92,0,0,0,.9.86l13.71.28a.66.66,0,0,0,.66-.6l2.2-31.46Z"/><rect class="cls-1" x="85.52" y="320.25" width="24.99" height="5" rx="1.37" transform="translate(196.03 645.49) rotate(180)"/><path d="M84.91,323.48V322a2.39,2.39,0,0,1,2.38-2.39h21.45a2.39,2.39,0,0,1,2.39,2.39v1.46a2.39,2.39,0,0,1-2.39,2.38H87.29A2.39,2.39,0,0,1,84.91,323.48Zm2.38-2.62A1.16,1.16,0,0,0,86.14,322v1.46a1.16,1.16,0,0,0,1.15,1.15h21.45a1.15,1.15,0,0,0,1.15-1.15V322a1.15,1.15,0,0,0-1.15-1.16Z"/><path class="cls-1" d="M79.53,346.75l6.77-7A60.13,60.13,0,0,0,109,336.07a14.33,14.33,0,0,1-10.15,10.68A89.13,89.13,0,0,0,84,352.7Z"/><path d="M83.55,353.07,79,347.12a.61.61,0,0,1,0-.8l6.78-7a.62.62,0,0,1,.46-.19,59,59,0,0,0,22.43-3.6.62.62,0,0,1,.6.11.59.59,0,0,1,.21.57A15.07,15.07,0,0,1,99,347.34a89.68,89.68,0,0,0-14.66,5.9.59.59,0,0,1-.29.07A.6.6,0,0,1,83.55,353.07Zm3-12.74-6.23,6.47,3.89,5.11a94.42,94.42,0,0,1,14.4-5.75,13.74,13.74,0,0,0,9.47-9.14A59.79,59.79,0,0,1,86.56,340.33Z"/><path class="cls-1" d="M116,277.68s-2,2.2-6.18,1.43Z"/><path d="M111.56,279.89a6.7,6.7,0,0,0,4.9-1.8.6.6,0,0,0,0-.86.63.63,0,0,0-.87,0c-.08.09-1.86,1.94-5.61,1.24a.61.61,0,1,0-.22,1.21A9.53,9.53,0,0,0,111.56,279.89Z"/><path d="M122.47,247.48c0,19.57-13,41.91-32.59,41.91S50.39,272.52,50.39,253s16.46-38.42,36-38.42S122.47,227.91,122.47,247.48Z"/><path d="M58.52,263.84a4.07,4.07,0,1,1-4.07-4.06A4.07,4.07,0,0,1,58.52,263.84Z"/><circle cx="60.63" cy="271.58" r="6.18" transform="translate(-99.32 43.88) rotate(-22.5)"/><circle cx="68.37" cy="278.02" r="7.4"/><circle cx="79.68" cy="282.15" r="8.4" transform="translate(-56.84 22.69) rotate(-11.98)"/><path d="M82.39,283.1a9.27,9.27,0,1,0,8.27-10.17A9.29,9.29,0,0,0,82.39,283.1Z"/><circle cx="54.35" cy="249.82" r="7.56"/><circle cx="58.6" cy="240.88" r="8.21"/><circle cx="54.35" cy="258.07" r="4.69"/><circle cx="118.21" cy="248.62" r="6.36" transform="translate(-141.18 156.41) rotate(-45)"/><circle cx="118.58" cy="240.45" r="6.74"/><circle cx="113.9" cy="232.4" r="7.13" transform="translate(-62.46 42.98) rotate(-16.85)"/><circle cx="108.84" cy="223.68" r="6.68"/><circle cx="100.37" cy="219.1" r="4.58"/><path d="M98,217.6a5.78,5.78,0,1,1-5.78-5.78A5.78,5.78,0,0,1,98,217.6Z"/><circle cx="82.97" cy="221.1" r="7.82" transform="translate(-151.28 251.05) rotate(-76.72)"/><circle cx="73.79" cy="221.51" r="6.99"/><circle cx="66.81" cy="225.27" r="7.6" transform="translate(-62.41 29.03) rotate(-16.84)"/><circle cx="56.74" cy="231.37" r="5.16" transform="translate(-84.22 39.33) rotate(-22.5)"/><path class="cls-1" d="M111.53,248.1c1.49.83,2.3,1,3.55,1.8,2.53,1.67,5.56,7.43,9.4,8,.76,1.93-.79,2.46-1.18,3.69.63.9,2.24,5.33,3.56,8a2.05,2.05,0,0,1-.72,2.63,17.55,17.55,0,0,1-5.15,2.23s-7.87,16.85,4.1,22.9L99.7,295.15l6.83-22.3c-.33-.05-4.63-.83-5.68-4.06-.39-1.19-.49-3.17.53-3.8s3,.13,4.55,2.21a14,14,0,0,0,.3-2.18,5.31,5.31,0,0,0-.36-3C115.35,257.36,104.52,249.36,111.53,248.1Z"/><path d="M125,298l-25.38-2.19a.67.67,0,0,1-.46-.27.6.6,0,0,1-.07-.52l6.62-21.66c-1.43-.36-4.54-1.46-5.48-4.33-.44-1.35-.59-3.66.79-4.51,1.17-.71,3-.13,4.49,1.35,0-.29,0-.58.08-.85.15-1.94-.15-2.5-.24-2.63a.61.61,0,0,1,.22-.92c4.73-2.3,4-5.32,3.24-8.24-.4-1.6-.78-3.11,0-4.26a3.65,3.65,0,0,1,2.61-1.42.56.56,0,0,1,.4.06c.63.35,1.13.57,1.61.79a12.41,12.41,0,0,1,2,1,17.57,17.57,0,0,1,3.11,3.12c1.79,2.09,3.83,4.45,6,4.78a.62.62,0,0,1,.48.39,2.9,2.9,0,0,1-.62,3.22,3.66,3.66,0,0,0-.44.64c.34.62.82,1.75,1.5,3.39.61,1.47,1.3,3.13,1.92,4.37a2.67,2.67,0,0,1-.93,3.42,18.74,18.74,0,0,1-5,2.23c-.9,2.1-6.59,16.52,3.93,21.83a.63.63,0,0,1,.31.72.62.62,0,0,1-.59.45Zm-7.43-44.64a17,17,0,0,0-2.86-2.89,10.56,10.56,0,0,0-1.81-.95c-.43-.19-.92-.41-1.5-.72a2.42,2.42,0,0,0-1.59.84c-.45.7-.15,1.9.2,3.29.7,2.82,1.66,6.64-3.36,9.37a7.64,7.64,0,0,1,.16,2.82,15.27,15.27,0,0,1-.31,2.28.62.62,0,0,1-.47.45.61.61,0,0,1-.62-.23c-1.44-1.91-3.13-2.42-3.74-2.05s-.64,1.93-.27,3.08c.95,2.91,5,3.62,5.2,3.65a.6.6,0,0,1,.48.78l-6.59,21.57,22.09,1.9c-9.15-7.08-2.25-22.16-2.18-22.33a.66.66,0,0,1,.4-.33,17.27,17.27,0,0,0,5-2.16,1.41,1.41,0,0,0,.49-1.83c-.63-1.28-1.33-3-2-4.45a29.66,29.66,0,0,0-1.56-3.45.63.63,0,0,1-.08-.55,4.3,4.3,0,0,1,.75-1.26c.44-.56.75-1,.55-1.7C121.52,257.87,119.44,255.45,117.6,253.31Z"/><path class="cls-1" d="M112.52,274.78a12.12,12.12,0,0,0,8.15-.25Z"/><path d="M116.24,276a12.63,12.63,0,0,0,4.66-.89.61.61,0,0,0-.45-1.14,11.58,11.58,0,0,1-7.7.25.62.62,0,1,0-.45,1.15A11.88,11.88,0,0,0,116.24,276Z"/><path class="cls-1" d="M122.19,426.12a.61.61,0,0,0,.5-.26l7.46-10.26a.62.62,0,0,0-.13-.86.61.61,0,0,0-.86.14l-7.47,10.26a.62.62,0,0,0,.5,1Z"/></svg>