<svg id="Capa_1" data-name="Capa 1" xmlns="http://www.w3.org/2000/svg" viewBox="0 0 352 330"><defs><style>.cls-1{fill:#fff;}</style></defs><path d="M165.68,84.55c0,21-14,45-35,45S88.36,111.41,88.36,90.42,106,49.2,127,49.2,165.68,63.55,165.68,84.55Z"/><path d="M97.08,102.1a4.36,4.36,0,1,1-4.36-4.36A4.36,4.36,0,0,1,97.08,102.1Z"/><circle cx="99.35" cy="110.4" r="6.63" transform="translate(-34.69 46.42) rotate(-22.5)"/><circle cx="107.65" cy="117.31" r="7.94"/><circle cx="119.78" cy="121.74" r="9.01" transform="translate(-22.66 27.52) rotate(-11.98)"/><path d="M122.7,122.76a9.94,9.94,0,1,0,8.86-10.91A9.95,9.95,0,0,0,122.7,122.76Z"/><circle cx="92.61" cy="87.06" r="8.11"/><circle cx="97.17" cy="77.47" r="8.81"/><circle cx="92.61" cy="95.91" r="5.03"/><circle cx="161.11" cy="85.77" r="6.82" transform="translate(-13.46 139.05) rotate(-45)"/><circle cx="161.52" cy="77" r="7.23"/><circle cx="156.49" cy="68.37" r="7.65" transform="matrix(0.96, -0.29, 0.29, 0.96, -13.1, 48.28)"/><circle cx="151.06" cy="59.02" r="7.17"/><circle cx="141.98" cy="54.11" r="4.91"/><path d="M139.42,52.49a6.2,6.2,0,1,1-6.2-6.2A6.19,6.19,0,0,1,139.42,52.49Z"/><circle cx="123.31" cy="56.25" r="8.39" transform="translate(40.24 163.33) rotate(-76.72)"/><circle cx="113.47" cy="56.69" r="7.49"/><circle cx="105.97" cy="60.73" r="8.15" transform="translate(-13.05 33.32) rotate(-16.84)"/><circle cx="95.18" cy="67.26" r="5.54" transform="translate(-18.49 41.54) rotate(-22.5)"/><path d="M93.77,224s52.1,19.35,115.41-7.3c0,0,10.28,49.59-45.82,58.09S93.82,234.3,93.77,224Z"/><path class="cls-1" d="M206.79,200.56a20.79,20.79,0,0,1-6.31-7c-5.18-8.74-16.35-40.57-21.9-49.2-.05-.09-.12-.19-.18-.28a5.78,5.78,0,0,0-1-1.31l-.2-.17c-2.79-2.47-13.81-11-24.43-12.35-10.87-1.35-35.43,2.73-44.66,14.81,0,0,0,0,0,0a55.92,55.92,0,0,0-14.66,43.4c1.36,13.8,3.42,24.5,9,31.83.59,4.33,1.35,7.63,2.25,9.38,5.2,10.16,58.61,10.5,80.29-2.88,0,0-.38-6.51-.79-15.67,3.71,5.48,8.19,10.26,13.19,12,.13.05,2.82-.91,2.95-.87,4.71,1.49,7.85-4.79,10-9.24A9.87,9.87,0,0,0,206.79,200.56Z"/><path d="M136.28,237.91c-9.2,0-17.55-.89-23.32-2.5-4.82-1.35-7.82-3.14-8.94-5.33-.91-1.77-1.68-4.94-2.31-9.42-5.61-7.46-7.68-18.22-9-32.06a56.21,56.21,0,0,1,14.83-44v0c9.5-12.42,34.56-16.42,45.34-15.08,9.83,1.22,20.55,8.73,24.84,12.53l.23.2a6.31,6.31,0,0,1,1.12,1.46,3.28,3.28,0,0,1,.2.31c2.94,4.57,7.47,15.66,11.84,26.38,3.93,9.63,7.63,18.71,10,22.78a20.27,20.27,0,0,0,6.08,6.73A10.68,10.68,0,0,1,211,213.38c-2,4.2-5.34,11.2-10.68,9.69l-1.17.37c-1.57.5-1.7.54-2,.44-4.05-1.4-8.1-4.82-12.08-10.18.36,7.71.67,13.06.67,13.12a.74.74,0,0,1-.35.68C173.51,234.81,153.42,237.91,136.28,237.91Zm-27.61-92.34,0,.06a54.76,54.76,0,0,0-14.46,42.83c1.35,13.68,3.37,24.26,8.86,31.45a.73.73,0,0,1,.15.35c.6,4.36,1.35,7.52,2.18,9.14s3.68,3.35,8,4.56c17.67,4.94,54.33,2.37,70.83-7.5-.09-1.63-.42-7.53-.76-15.24a.75.75,0,0,1,.52-.74.74.74,0,0,1,.85.29c4.2,6.2,8.44,10.11,12.63,11.63l1.23-.39c1.47-.47,1.59-.51,1.87-.43,3.9,1.24,6.74-3.91,9.08-8.84a9.16,9.16,0,0,0-3.23-11.55h0a21.68,21.68,0,0,1-6.55-7.21c-2.46-4.17-6.19-13.31-10.14-23-4.35-10.66-8.84-21.69-11.74-26.19a1.53,1.53,0,0,0-.15-.23.22.22,0,0,0-.05-.08,4.76,4.76,0,0,0-.87-1.13.76.76,0,0,0-.14-.13c-.16-.14-12.25-10.73-24.07-12.21-10.48-1.3-34.83,2.55-44,14.52Z"/><path d="M135.81,217.88a.78.78,0,0,1-.48-.17c-22-18.42-19.25-51.06-19.22-51.39a.75.75,0,1,1,1.49.14c0,.32-2.69,32.19,18.69,50.1a.75.75,0,0,1-.48,1.32Z"/><path d="M136.41,116.59c-4.57,1.88-8.48,3.43-13.65,2.82-.88-.1-11.9-1.52-13.42-8.32-.67-3-4.42-10.77-4.16-13.85a84.44,84.44,0,0,0-.5-14.54c-1.67-10.89,9.95-18.93,12.45-20.54,3-1.9,9.91-6.38,16.28-3.52A12.66,12.66,0,0,1,139,64a13.57,13.57,0,0,1,4.82-3c7.16-2.55,15.68,1.57,20,7.4,1,1.39,3.63,4.95,3.26,9.42-.31,3.69-2.45,5.47-5.11,9.5-4.83,7.34-2.74,9-6.46,15C150.1,111,141.21,114.63,136.41,116.59Z"/><path class="cls-1" d="M132.66,115.22c.2,1,1.69,10.75-2.16,15.08a19.4,19.4,0,0,1-7.59,5.53s17.68,4.13,27.21,1.93,8.28-4.69,8.28-4.69L153,130.25a4.88,4.88,0,0,1-2.59-4.76l.1-1.14a12.94,12.94,0,0,0,9.19-1.54c5.23-3.27,5.76-9.48,5.81-11.21.12-3.51-1.34-2.91-2.57-9.22-1.06-5.42-.47-8.18-2.65-12.29a17.47,17.47,0,0,0-2.25-3.32,16.14,16.14,0,0,0-9.25,3.09c-2.93,2.27-2.64,4-5.54,5.77-4.23,2.56-8.07.79-9.34,3-.46.81-.63,2.25.91,5,0,0-4-2.63-6.76-1a4.39,4.39,0,0,0-1.89,2.46C125.29,108,127.92,112.06,132.66,115.22Z"/><path d="M143.21,139.16a104.59,104.59,0,0,1-20.47-2.6.75.75,0,0,1-.06-1.44,18.79,18.79,0,0,0,7.26-5.32c3.16-3.54,2.47-11.61,2-14.14-4.94-3.38-7.49-7.6-6.51-10.83a5.08,5.08,0,0,1,2.22-2.89c1.81-1.06,4-.58,5.55,0a4.34,4.34,0,0,1,0-3.72c.82-1.44,2.41-1.58,4.1-1.74a12,12,0,0,0,5.5-1.53,7.86,7.86,0,0,0,2.64-2.63,12.28,12.28,0,0,1,2.83-3.09A16.74,16.74,0,0,1,158,86a.74.74,0,0,1,.61.26A18.1,18.1,0,0,1,163,97.52c.15,1.36.32,2.9.67,4.71a20.6,20.6,0,0,0,1.73,5.47,7.15,7.15,0,0,1,.86,3.92c-.06,1.91-.7,8.4-6.16,11.82a13.29,13.29,0,0,1-8.92,1.78l0,.33a4.11,4.11,0,0,0,2.2,4l5.39,2.83a.73.73,0,0,1,.32.33,1.71,1.71,0,0,1-.07,1.5c-.78,1.66-3.71,3.09-8.71,4.25A32.32,32.32,0,0,1,143.21,139.16Zm-18-3.6c5,1,17.4,3.16,24.7,1.47,6.34-1.47,7.5-3,7.71-3.5l-5-2.62a5.61,5.61,0,0,1-3-5.49l.1-1.14a.76.76,0,0,1,.3-.53.77.77,0,0,1,.59-.13,12.07,12.07,0,0,0,8.66-1.45c4.83-3,5.4-8.87,5.45-10.6a5.7,5.7,0,0,0-.71-3.23,21.51,21.51,0,0,1-1.85-5.82c-.36-1.88-.53-3.45-.69-4.83a17.79,17.79,0,0,0-1.88-7.25,17.35,17.35,0,0,0-1.92-2.9,15.15,15.15,0,0,0-8.46,2.91,11.12,11.12,0,0,0-2.52,2.76,9.33,9.33,0,0,1-3.09,3.06A13.35,13.35,0,0,1,137.51,98c-1.65.15-2.52.27-2.94,1-.61,1.08.16,2.9.91,4.24a.76.76,0,0,1-.14.92.75.75,0,0,1-.92.07s-3.66-2.35-6-1a3.67,3.67,0,0,0-1.55,2c-.79,2.59,1.69,6.34,6.18,9.32a.77.77,0,0,1,.32.48c0,.11,2,10.85-2.34,15.73A22.58,22.58,0,0,1,125.25,135.56Z"/><path d="M149.76,125.13c-6.06,0-11.18-4.89-11.41-5.11a.75.75,0,0,1,0-1.06.75.75,0,0,1,1.06,0s5.35,5.09,11.06,4.67a.76.76,0,0,1,.81.69.75.75,0,0,1-.7.8Q150.17,125.13,149.76,125.13Z"/><path class="cls-1" d="M191.94,234.3a4.41,4.41,0,0,1-4.21,3.73h-45.8a3.12,3.12,0,0,1-3.13-3.73l9-60.78a4.38,4.38,0,0,1,4.18-3.65h45.21a3.11,3.11,0,0,1,3.14,3.65Z"/><path d="M187.73,238.78h-45.8a3.85,3.85,0,0,1-3-1.32,4,4,0,0,1-.89-3.27l9-60.78a5.16,5.16,0,0,1,4.92-4.29h45.21a3.91,3.91,0,0,1,3,1.31,4,4,0,0,1,.9,3.19l-8.35,60.78h0A5.18,5.18,0,0,1,187.73,238.78Zm-35.79-68.16a3.61,3.61,0,0,0-3.44,3l-9,60.78a2.52,2.52,0,0,0,.54,2.07,2.4,2.4,0,0,0,1.85.8h45.8a3.62,3.62,0,0,0,3.46-3.09l8.35-60.78a2.46,2.46,0,0,0-.54-2,2.43,2.43,0,0,0-1.85-.8Zm40,63.68Z"/><path class="cls-1" d="M138.12,235.6s-9.09-7.18-1.61-19.66,6.85-1.63,6.6,1.87-3.3,20-4.71,18.33Z"/><path d="M138.61,237a1,1,0,0,1-.78-.38.72.72,0,0,1-.18-.43c-.31-.26-9.42-7.9-1.78-20.64,2.87-4.8,4.77-6.63,6.34-6.13s2,3,1.65,8.44c-.06.92-2.55,18.31-4.94,19.09A.84.84,0,0,1,138.61,237Zm3.11-26.16c-.21,0-1.44.26-4.57,5.48-7.06,11.78,1.35,18.63,1.44,18.7l.07.06c1.28-2.68,3.47-14,3.71-17.33.45-6.38-.5-6.87-.61-6.91Z"/><path d="M161.89,261.85S197.67,225,208,215.75s17.54-15.17,27.51-10-3.82,48.13-26.88,63.49-37.48,8.56-37.48,8.56Z"/><path class="cls-1" d="M156.18,264.88l-9.27,17.5s9.14,11.74,27.41,8.22,14.89-9.86,11.22-13.16S163.07,264.16,156.18,264.88Z"/><path d="M167.71,292c-14.08,0-21.31-9.06-21.39-9.16a.75.75,0,0,1-.07-.81l9.27-17.5a.76.76,0,0,1,.58-.4c7.28-.76,26.4,9.57,29.94,12.75,1.78,1.6,3.75,4.08,3,6.84-.93,3.37-5.83,5.93-14.56,7.61A35,35,0,0,1,167.71,292Zm-19.9-9.72c1.73,1.91,10.61,10.62,26.37,7.58,10.11-1.95,12.87-4.63,13.4-6.54.59-2.12-1.34-4.25-2.54-5.32-3.76-3.39-21.6-12.67-28.39-12.41Z"/><path d="M168.64,288.4a72.25,72.25,0,0,1-10.45-.81.75.75,0,1,1,.24-1.48c.17,0,17.06,2.7,22.68-2a4.47,4.47,0,0,0,1.7-3.49.75.75,0,1,1,1.5,0,5.93,5.93,0,0,1-2.25,4.61C179.1,287.75,173.62,288.4,168.64,288.4Z"/><path d="M162.63,280.07h-.12a.75.75,0,0,1-.62-.86,28.36,28.36,0,0,1,5.05-12,.75.75,0,0,1,1.05-.12.74.74,0,0,1,.12,1.05,27.46,27.46,0,0,0-4.74,11.31A.75.75,0,0,1,162.63,280.07Z"/><path d="M169.47,281.4h-.11a.75.75,0,0,1-.64-.85c1.07-7.22,4-10.61,4.1-10.76a.74.74,0,0,1,1.05-.07.76.76,0,0,1,.08,1.06s-2.75,3.24-3.74,10A.76.76,0,0,1,169.47,281.4Z"/><path d="M161.89,261.85,148,285.35s-47.22-11.87-65.66-28.92-27.38-32.09-16.94-43.29,30.31-5.94,43,6.69S142.76,253.79,161.89,261.85Z"/><path class="cls-1" d="M200.32,206.11s-1-8.34-4.68-7.78-4.69,22.18.75,21.35S200.32,206.11,200.32,206.11Z"/><path d="M196.09,220.45c-1.27,0-3.14-.93-3.91-6-.84-5.48,0-16.37,3.34-16.89a3,3,0,0,1,2.3.61c2.44,1.85,3.17,7.21,3.24,7.81h0c.07.55,1.52,13.47-4.56,14.4A2.63,2.63,0,0,1,196.09,220.45Zm-.1-21.39h-.24c-1.46.23-3.11,8.5-2.09,15.18.18,1.17.9,4.95,2.61,4.69,3.87-.59,3.7-9.4,3.31-12.74-.19-1.48-1-5.56-2.66-6.81A1.55,1.55,0,0,0,196,199.06Z"/><path d="M250.39,260.25h0c.08,0,12.46-4,32.7-43.27,17.14-33.26,1.86-65.4-1.23-86.9a2.09,2.09,0,0,0-4.05-.42c-5.14,14.45-13.41,40.71-12.07,56.88C267.66,209.82,250.44,260.12,250.39,260.25Z"/><path d="M263.82,238.71h0l4.41-34.91a79.54,79.54,0,0,0-7.14-44.3A79.65,79.65,0,0,1,259,95.61l7.09-17.72a2.15,2.15,0,0,0-3.57-2.28l-10,11a94.42,94.42,0,0,0-20,92.15L251,236.24h0Z"/><path class="cls-1" d="M266,222.47a.56.56,0,0,1-.4-.18.62.62,0,0,1-.16-.52l2.28-18a79,79,0,0,0-1.35-27.5.57.57,0,1,1,1.12-.26,80.06,80.06,0,0,1,1.37,27.9L266.52,222A.57.57,0,0,1,266,222.47Z"/><path d="M258.13,239.86h0l-15.31-39.12a38.85,38.85,0,0,0-24.88-23.07l-10.45-3.17a2.41,2.41,0,0,0-2.14,4.22l6.42,5a29.33,29.33,0,0,1,11.29,22.57A29.51,29.51,0,0,0,227.35,221l10.38,17h0Z"/><path class="cls-1" d="M255.87,222.05h-.06a.58.58,0,0,1-.52-.63c2.34-25-2.68-41.06-7.11-55.25a151.9,151.9,0,0,1-5.12-19.42c-5.42-31.44,13.05-58.73,13.24-59a.58.58,0,0,1,.95.65c-.19.27-18.39,27.18-13.06,58.16a151.21,151.21,0,0,0,5.09,19.26c4.46,14.3,9.51,30.5,7.16,55.71A.57.57,0,0,1,255.87,222.05Z"/><path class="cls-1" d="M249.37,210.53a.58.58,0,0,1-.55-.39c-2-6-6.45-12.22-9.85-16.39a.57.57,0,0,1,.2-.88.59.59,0,0,1,.7.17c3.47,4.25,8,10.59,10,16.74a.57.57,0,0,1-.54.75Z"/><path class="cls-1" d="M276.27,205.35h-.1a.58.58,0,0,1-.47-.66c4.17-24.68,2.73-62.66,2.71-63a.58.58,0,0,1,.55-.59.57.57,0,0,1,.6.55c0,.38,1.47,38.48-2.73,63.27A.57.57,0,0,1,276.27,205.35Z"/><path class="cls-1" d="M239.7,225.79a.58.58,0,0,1-.58-.57c-.3-30.7-24.84-44.21-25.08-44.35a.57.57,0,1,1,.54-1c.25.13,25.39,13.95,25.69,45.35a.58.58,0,0,1-.57.58Z"/><path class="cls-1" d="M243,168.28a.58.58,0,0,1-.45-.22c-6.65-8.54-9.6-20.08-9.63-20.2a.58.58,0,0,1,.42-.7.59.59,0,0,1,.7.42c0,.11,2.92,11.43,9.41,19.77a.57.57,0,0,1-.45.93Z"/><path class="cls-1" d="M225.49,230.4h58a0,0,0,0,1,0,0v42.75a12.16,12.16,0,0,1-12.16,12.16h-33.7a12.16,12.16,0,0,1-12.16-12.16V230.4A0,0,0,0,1,225.49,230.4Z"/><path d="M264.11,285.89H244.9a20,20,0,0,1-20-20V230.4a.57.57,0,0,1,.57-.58h58a.58.58,0,0,1,.58.58v35.5A20,20,0,0,1,264.11,285.89Zm-38-54.92V265.9a18.84,18.84,0,0,0,18.83,18.84h19.21A18.85,18.85,0,0,0,283,265.9V231H226.07Z"/><path d="M277.83,240.67H231.21a.59.59,0,0,1-.59-.44.57.57,0,0,1,.56-.71H277.8a.59.59,0,0,1,.59.43A.58.58,0,0,1,277.83,240.67Z"/></svg>