<svg id="Capa_1" data-name="Capa 1" xmlns="http://www.w3.org/2000/svg" viewBox="0 0 352 330"><defs><style>.cls-1{fill:#fff;}</style></defs><path d="M148,52.09a24.88,24.88,0,0,1-.3-2.62c-1.51-12.59-12.5-16.25-20-15-1,.16-1.55-.69-1.69-1.75-.1.14-.2.27-.31.4-7.25,8.95-7.92,9.65-13.14,15.85-9.33,11.07-18,38-6.53,53.45,9.53,12.79,26.48,9.63,34.69-1.85s8.87-33,7.87-40A50,50,0,0,1,148,52.09Z"/><path class="cls-1" d="M111.51,152.14l51.54,1.09-3.32-52.35,13.62-6.75c-6.62-22.15-21.13-30-30.45-30.83a200.57,200.57,0,0,0-26.86-1c-6.7.18-18.65,3.72-23.3,9.18-6,7.09-10.27,18.36-12.7,26.59l26.16,10.14,1.84-4.16S112.74,129.55,111.51,152.14Z"/><path d="M163.05,153.71h0l-51.54-1.09a.46.46,0,0,1-.34-.16.45.45,0,0,1-.13-.35c1-19.09-2.21-40.5-3.19-46.39l-1.2,2.7a.49.49,0,0,1-.62.26L79.87,98.55a.49.49,0,0,1-.29-.59c2-6.71,6.27-19.11,12.79-26.77C97.25,65.45,109.46,62,116,61.84a196.2,196.2,0,0,1,26.34.93l.57,0c10.21.9,24.43,9.6,30.87,31.17a.47.47,0,0,1-.25.57l-13.32,6.61,3.29,52a.49.49,0,0,1-.13.36A.47.47,0,0,1,163.05,153.71Zm-51-2.05,50.52,1.07-3.29-51.82a.48.48,0,0,1,.27-.46l13.25-6.57c-6.36-20.82-20.06-29.23-29.92-30.1l-.56-.05a198.13,198.13,0,0,0-26.23-.93c-6.54.18-18.43,3.69-23,9-6.27,7.37-10.47,19.27-12.48,26l25.31,9.81,1.66-3.74a.48.48,0,0,1,.5-.28.48.48,0,0,1,.42.39C108.56,104.24,113.14,129.4,112,151.66Z"/><path d="M106.2,108.71a.57.57,0,0,1-.18,0l-2.43-1a.48.48,0,0,1-.28-.62.5.5,0,0,1,.63-.28l2,.78,6.81-14.78a.48.48,0,1,1,.88.4l-7,15.2A.49.49,0,0,1,106.2,108.71Z"/><path d="M117.24,142.1l3-52.42a2.57,2.57,0,0,1,2.56-2.53h30.16a2.57,2.57,0,0,1,2.56,2.53l4.4,51.73Z"/><path d="M125.47,89.34s-2.77.15-3-2c-1.23-12.86-5.38-18-8.58-20.1a41.7,41.7,0,0,0-6.68-3.14.65.65,0,0,1,0-1.21c.78-.28,1.69-.6,2.36-.78s2.91-.84,7.48,1.29C124.74,67,128.47,77,129.63,88.7,129.75,90,125.47,89.34,125.47,89.34Z"/><path d="M148.68,93.32l-.12,0c-1.19-.25-2.91-1.58-2.66-2.8,3.71-18.17.54-25-1.52-27.47a.49.49,0,0,1,.48-.79c.83.19,2.69.54,3.22.69,1.79.49,7.12,3.47,3.09,28.62A2.17,2.17,0,0,1,148.68,93.32Z"/><polygon class="cls-1" points="111.42 274.51 112.59 285.64 120.12 286.53 120.12 273.32 111.42 274.51"/><path d="M120.12,287.15h-.07l-7.53-.88a.62.62,0,0,1-.55-.55l-1.17-11.14a.63.63,0,0,1,.54-.68l8.69-1.18a.61.61,0,0,1,.5.15.61.61,0,0,1,.21.46v13.21a.64.64,0,0,1-.21.46A.62.62,0,0,1,120.12,287.15Zm-7-2.06,6.35.74V274l-7.4,1Z"/><path class="cls-1" d="M121.3,305.91a52.41,52.41,0,0,1-14.32,0,3.37,3.37,0,0,1-2.81-4.14c1.33-5.4,3.62-15.66,7.55-20.41l1,2.58,1.35-2.43a1.19,1.19,0,0,1,.89-.61l3-.37a1.2,1.2,0,0,1,1.32.94l.47,2.24,1-2.94,3.44,21.37A3.35,3.35,0,0,1,121.3,305.91Z"/><path d="M114.19,306.88a53.46,53.46,0,0,1-7.28-.49,3.85,3.85,0,0,1-3.21-4.73l.28-1.17c1.36-5.58,3.63-14.92,7.37-19.44a.51.51,0,0,1,.45-.17.49.49,0,0,1,.37.31l.61,1.6.84-1.52a1.71,1.71,0,0,1,1.26-.85l3-.37a1.69,1.69,0,0,1,1.85,1.32l.11.54.46-1.3a.49.49,0,0,1,.94.08l3.43,21.38a3.84,3.84,0,0,1-3.26,4.32h0A51.87,51.87,0,0,1,114.19,306.88Zm-2.62-24.54c-3.29,4.56-5.38,13.15-6.65,18.38l-.29,1.17a2.85,2.85,0,0,0,.42,2.3,2.9,2.9,0,0,0,2,1.24,52.07,52.07,0,0,0,14.19,0,2.89,2.89,0,0,0,2.44-3.23l-3.14-19.48-.4,1.14a.49.49,0,0,1-.93-.06l-.47-2.24A.71.71,0,0,0,118,281l-3,.37a.74.74,0,0,0-.53.36l-1.35,2.43a.48.48,0,0,1-.87-.06Zm9.73,23.57h0Z"/><path d="M114.18,307a52.34,52.34,0,0,1-7.29-.5,4,4,0,0,1-3.33-4.9l.29-1.16c1.36-5.59,3.63-15,7.39-19.5a.63.63,0,0,1,1.06.18l.5,1.33.7-1.26a1.8,1.8,0,0,1,1.36-.92l3-.38a1.83,1.83,0,0,1,2,1.43l0,.06.29-.84a.64.64,0,0,1,.64-.41.62.62,0,0,1,.56.52l3.44,21.38a4,4,0,0,1-3.38,4.48A52.24,52.24,0,0,1,114.18,307Zm7.12-1.11h0Zm-9.76-23.28c-3.19,4.59-5.24,13-6.49,18.12l-.28,1.17a2.7,2.7,0,0,0,.39,2.19,2.75,2.75,0,0,0,1.9,1.18,51.85,51.85,0,0,0,14.16,0,2.75,2.75,0,0,0,2.32-3.07l-3.05-19-.22.63a.64.64,0,0,1-.62.42.63.63,0,0,1-.57-.5l-.47-2.23a.57.57,0,0,0-.63-.45l-3,.37a.57.57,0,0,0-.43.29l-1.35,2.43a.65.65,0,0,1-.59.32.62.62,0,0,1-.53-.4Z"/><path d="M112.58,303.44a28.73,28.73,0,0,1-6.39-.68.61.61,0,0,1-.46-.74.63.63,0,0,1,.74-.47c7.33,1.67,15-.48,15.09-.5a.62.62,0,0,1,.34,1.2A37.71,37.71,0,0,1,112.58,303.44Z"/><path d="M110.78,295.16a.62.62,0,0,1,0-1.24l7.06-.24a.62.62,0,0,1,.64.6.63.63,0,0,1-.6.65l-7.06.23Z"/><polygon class="cls-1" points="146.69 268.58 147.82 284.83 156.88 284.83 157.3 268.58 146.69 268.58"/><path d="M156.88,285.45h-9.06a.62.62,0,0,1-.62-.58l-1.13-16.25a.62.62,0,0,1,.62-.66H157.3a.6.6,0,0,1,.44.19.63.63,0,0,1,.18.45l-.42,16.25A.63.63,0,0,1,156.88,285.45Zm-8.48-1.24h7.87l.39-15h-9.31Z"/><path class="cls-1" d="M145.45,294a3.28,3.28,0,0,0,2.52,3.24c5.21,1.21,16.95,3.91,20.29,4.41,4.35.65,9.69-.68,12-3.23s-5.14-8.6-8.67-10.81c-5.24-3.28-10.27-9.76-12.39-10.05s-6.05,5.83-6.05,5.83l-6.44-2.7A78.88,78.88,0,0,0,145.45,294Z"/><path d="M170.53,302.3a16.53,16.53,0,0,1-2.34-.17c-3.39-.51-15.34-3.26-20.33-4.42A3.77,3.77,0,0,1,145,294a81.24,81.24,0,0,1,1.24-13.41.49.49,0,0,1,.25-.33.46.46,0,0,1,.41,0l6.08,2.55c1-1.55,4.2-6,6.3-5.71,1.21.17,2.93,1.8,5.3,4.05a50.09,50.09,0,0,0,7.28,6.07c2.84,1.78,8.85,6.48,9.3,9.69a2.22,2.22,0,0,1-.53,1.86C178.65,300.91,174.53,302.3,170.53,302.3Zm-23.48-20.94A83.92,83.92,0,0,0,145.93,294a2.82,2.82,0,0,0,2.15,2.76c5,1.16,16.9,3.9,20.26,4.4,4.33.65,9.4-.7,11.54-3.07a1.25,1.25,0,0,0,.29-1.08c-.37-2.68-5.95-7.18-8.85-9a50.21,50.21,0,0,1-7.43-6.19c-2-1.89-3.87-3.67-4.77-3.79-1.25-.18-4,3.18-5.58,5.61a.49.49,0,0,1-.6.19ZM145.45,294Z"/><path d="M170.53,302.43a15.34,15.34,0,0,1-2.36-.17c-3.38-.5-15.35-3.25-20.34-4.41a3.92,3.92,0,0,1-3-3.86,80.94,80.94,0,0,1,1.25-13.43.6.6,0,0,1,.32-.42.62.62,0,0,1,.53,0l6,2.51c1.1-1.65,4.23-6,6.37-5.68,1.26.18,3,1.82,5.38,4.09a49.09,49.09,0,0,0,7.25,6.05c2.86,1.79,8.91,6.54,9.37,9.79a2.36,2.36,0,0,1-.57,2C178.73,301,174.57,302.43,170.53,302.43Zm-23.37-20.87A84,84,0,0,0,146.07,294a2.68,2.68,0,0,0,2,2.63c5,1.15,16.91,3.9,20.25,4.4,4.22.62,9.34-.73,11.42-3a1.14,1.14,0,0,0,.26-1c-.34-2.43-5.33-6.73-8.8-8.9a51,51,0,0,1-7.45-6.21c-1.88-1.79-3.83-3.64-4.69-3.76-1.06-.15-3.65,2.77-5.45,5.56a.61.61,0,0,1-.76.23ZM145.45,294Z"/><path d="M170.45,299.45c-9.48,0-22.15-5.12-22.87-5.41a.63.63,0,0,1,.47-1.16c.23.1,23.06,9.33,29.73,3.31a.62.62,0,0,1,.87,0,.63.63,0,0,1,0,.88C176.72,298.81,173.78,299.45,170.45,299.45Z"/><path d="M160.4,289.61a.62.62,0,0,1-.41-1.08l4.61-4.16a.62.62,0,0,1,.87,0,.63.63,0,0,1,0,.88l-4.61,4.16A.61.61,0,0,1,160.4,289.61Z"/><path d="M111.43,140.72c-6.74,19.08-5.39,72.72-6.86,90.26S108,276.7,108,276.7l14-.73s1-34.28,2-43.79c0,0,5.91-12.91,7.66-24.42s7.72-29.68,7.72-29.68,4.84,90.73,5.31,97.85c0,0,11,.49,14.89-2,0,0,7-33.08,6-51.08s3.06-61.06-2.35-83.14c-.15-.62-.48-1.63-.48-1.63l-34.66,2.15S112.82,136.8,111.43,140.72Z"/><path class="cls-1" d="M121.42,232.79h-4.28a.62.62,0,0,1-.62-.62.62.62,0,0,1,.62-.62h4.28a.62.62,0,0,1,.62.62A.62.62,0,0,1,121.42,232.79Z"/><path class="cls-1" d="M151.87,259.18h0a.62.62,0,0,1-.61-.63c.15-8.44,9.38-23.52,9.78-24.16a.62.62,0,0,1,1.05.65c-.09.16-9.44,15.43-9.59,23.53A.62.62,0,0,1,151.87,259.18Z"/><path class="cls-1" d="M289.17,30.47a45.28,45.28,0,0,0-44.31-3.92c-18,8.15-28.1,26.6-24.54,46.86L84.71,134.75c-9.49,1.77-12.84,10.67-9.43,18.23a15,15,0,0,0,19.88,7.49l135.6-61.33a45.32,45.32,0,0,0,77.76-25.89"/><polyline class="cls-1" points="308.52 73.25 274.89 88.46 243.84 76.74 255.55 45.68 289.17 30.47"/><path d="M309,73.31a45.8,45.8,0,0,1-78.35,26.41L95.35,160.91a15.51,15.51,0,0,1-20.51-7.73,13.85,13.85,0,0,1,.1-12.14,13.32,13.32,0,0,1,9.63-6.76L219.78,73.13a43.62,43.62,0,0,1,4.3-27.92,43.08,43.08,0,0,1,20.58-19.1,45.52,45.52,0,0,1,44.79,4"/><polyline points="289.37 30.91 255.93 46.04 244.46 76.46 274.88 87.94 308.32 72.81"/><path d="M307.93,74.05,275.09,88.9a.47.47,0,0,1-.37,0L243.67,77.19a.47.47,0,0,1-.28-.62l11.7-31.06a.49.49,0,0,1,.26-.27l32.83-14.85A44.56,44.56,0,0,0,245.06,27c-17.95,8.12-27.7,26.75-24.26,46.34a.48.48,0,0,1-.28.52L84.91,135.19a.2.2,0,0,1-.11,0,12.36,12.36,0,0,0-9,6.27,12.85,12.85,0,0,0-.07,11.29A14.52,14.52,0,0,0,95,160L230.56,98.7a.47.47,0,0,1,.55.1,44.84,44.84,0,0,0,76.82-24.75Z"/><path class="cls-1" d="M256.09,45.51l-11.7,31.06a.47.47,0,0,0,.28.62l31.05,11.72a.47.47,0,0,0,.37,0L310,73.33,290.31,29.81l-34,15.43A.49.49,0,0,0,256.09,45.51Z"/><path class="cls-1" d="M123.91,145a4.53,4.53,0,0,1-6.63,2c-8-5.3-14.77-12.16-16.09-18.2-1.93-8.89,3.35-21.22,3.35-21.22L83.69,99.43c-5.28,15.32-5.78,27-1.6,35.86s18.43,16.19,28.42,20.81a21.84,21.84,0,0,0,17.27.6c4.38-1.76,12-8.5,14.46-14.42a1.64,1.64,0,0,0-2.2-2.11l-12,5.44s3.94-7.27.67-7.62C126.87,137.79,124.79,142.94,123.91,145Z"/><path d="M119.94,158.67a23,23,0,0,1-9.63-2.13c-10.28-4.75-24.43-12.1-28.66-21s-3.73-20.82,1.58-36.21a.5.5,0,0,1,.26-.29.52.52,0,0,1,.37,0l20.85,8.15a.51.51,0,0,1,.27.27.5.5,0,0,1,0,.38c0,.12-5.19,12.3-3.31,20.93,1.18,5.43,7.12,12.12,15.88,17.89a4,4,0,0,0,5.92-1.79l.13-.31c1.48-3.5,3.22-7.2,5.13-7a1.75,1.75,0,0,1,1.46.94c.79,1.5-.36,4.46-1.14,6.16l10.79-4.88a2.11,2.11,0,0,1,2.36.42,2.06,2.06,0,0,1,.49,2.32c-2.42,5.82-10,12.79-14.73,14.67A21.34,21.34,0,0,1,119.94,158.67Zm-36-58.6c-5.07,14.91-5.54,26.36-1.46,35s18,15.89,28.2,20.58a21.39,21.39,0,0,0,16.88.59c4.53-1.82,11.87-8.54,14.2-14.15a1.17,1.17,0,0,0-1.56-1.49l-12,5.44a.48.48,0,0,1-.63-.67c1-1.87,2.39-5.28,1.76-6.49a.81.81,0,0,0-.71-.42c-1.36-.14-3.46,4.78-4.14,6.4l-.13.32A5,5,0,0,1,121.2,148a5,5,0,0,1-4.18-.6c-9-5.91-15.06-12.82-16.3-18.49-1.76-8.07,2.23-18.7,3.18-21.06ZM123.91,145h0Z"/><path class="cls-1" d="M223.7,102.33c-1.08.28-57.16,25.86-57.16,25.86,19.39,11.34,39.49-14.29,40.86-14.68,2.8-.8,4.44,1,9.63-1C223.73,109.88,225.05,102,223.7,102.33Z"/><path d="M177,131.57a20.85,20.85,0,0,1-10.73-3,.47.47,0,0,1-.24-.44.48.48,0,0,1,.28-.41c5.75-2.62,56.15-25.61,57.24-25.89a.81.81,0,0,1,1,.63c.52,1.63-1.32,8.09-7.36,10.43a13.22,13.22,0,0,1-6.77.93,7.48,7.48,0,0,0-2.9.12c-.15.09-.87.81-1.63,1.58C201.47,120,189.91,131.57,177,131.57Zm-9.42-3.34c15.88,8.41,32.19-7.93,37.61-13.37,1.33-1.34,1.73-1.73,2-1.81a8.05,8.05,0,0,1,3.25-.16,12.31,12.31,0,0,0,6.34-.87,11.24,11.24,0,0,0,6.5-7,4.77,4.77,0,0,0,.31-2.16C220.8,104,186.54,119.6,167.61,128.23Zm56.09-25.9Z"/><path class="cls-1" d="M124.9,63.64a83,83,0,0,0,2.51-16.46l0-.33c-1.51-13.33,4.77-19.4,11.3-18.92,9.26.69,8.75,6.2,8.75,6.2.23,1.6.74,5.32,1.22,5.89s2.16,1.73,2.32,2.19-.36,1.61-1.77,2.28c0,0,1,7.77-.63,9.45s-9.6.88-9.6.88l.45,8.93,5,2.91c-11.3,3.48-18.33.91-23.24-.91C121.25,65.75,124.77,64.18,124.9,63.64Z"/><path d="M133.83,68.86a34.58,34.58,0,0,1-12.75-2.65.49.49,0,0,1,0-.9,17.51,17.51,0,0,0,3.4-1.84,83.83,83.83,0,0,0,2.48-16.32v-.29c-.79-7.1.58-12.9,3.87-16.32a9.86,9.86,0,0,1,7.95-3.09c3.71.28,6.36,1.33,7.89,3.15A5.22,5.22,0,0,1,148,34.11c.59,4.21.92,5.37,1.1,5.6a8.86,8.86,0,0,0,1.1,1c.75.62,1.18,1,1.31,1.35.26.73-.37,2-1.7,2.71.2,1.66.82,7.88-.82,9.52s-7.47,1.23-9.43,1.07l.41,8.11,4.79,2.78a.47.47,0,0,1,.24.47.48.48,0,0,1-.34.41A36.45,36.45,0,0,1,133.83,68.86ZM122.51,65.7a30.94,30.94,0,0,0,20.76.81l-4-2.34a.49.49,0,0,1-.24-.39l-.46-8.94a.51.51,0,0,1,.15-.37.45.45,0,0,1,.38-.13c3,.29,8.12.35,9.22-.75s.88-6.12.5-9a.48.48,0,0,1,.27-.5c1.21-.58,1.57-1.47,1.52-1.68a7.84,7.84,0,0,0-1-.92,9.29,9.29,0,0,1-1.23-1.12c-.41-.49-.78-2.21-1.32-6.14a.37.37,0,0,1,0-.11,4.18,4.18,0,0,0-1.1-2.88c-1.36-1.59-3.79-2.53-7.21-2.79a9,9,0,0,0-7.18,2.8c-3.1,3.22-4.38,8.75-3.6,15.59v.08l0,.33a83.92,83.92,0,0,1-2.52,16.55C125.32,64,125.21,64.41,122.51,65.7Zm2.39-2.06h0Z"/><path d="M136.55,25.45a.36.36,0,0,1-.55-.16,3.53,3.53,0,0,0-1.69-1.84c-2.49-1.1-2,.74-3.19,1.82A15.89,15.89,0,0,0,127,31.4a.36.36,0,0,1-.49.22c-.75-.31-1.9-3.35-3.4-.88-2.11,3.48-.68,10.76,1.81,14.77,1.28,2.06-.94,3.87.16,4.51.13.07-9.48,11.77-3.11,7.25.12-.08,3.49,5.79,3.63,5.7.72-.48,4.56-15.59,4.06-16.31a6.13,6.13,0,0,1-1-2.43,2.31,2.31,0,0,1,.72-1.9A1.6,1.6,0,0,1,131,42a3,3,0,0,1,.94.44,2.38,2.38,0,0,1,1.85-.78l.29,0,.23-.06c-.7-1.74-2.15-2.17-2-3.19a1.66,1.66,0,0,1,.75-1.19c1.54-1.32,3.72-.72,8.06-.18,5.39.67,5-1.33,5.1-2.41C146.68,28.89,141.6,21.36,136.55,25.45Z"/><path class="cls-1" d="M143.93,25.67l12.13-3.61c2.22-.67,4.47,2,3.87,4.73-.41,1.83-2,3.9-6,5.8a170.11,170.11,0,0,1-17.43,7.25Z"/><path d="M136.48,40.33a.49.49,0,0,1-.37-.18.47.47,0,0,1-.06-.53l7.45-14.18a.5.5,0,0,1,.29-.23l12.13-3.62a3.16,3.16,0,0,1,3.11.85,4.77,4.77,0,0,1,1.37,4.46c-.53,2.35-2.64,4.41-6.29,6.13a171.34,171.34,0,0,1-17.48,7.27A.4.4,0,0,1,136.48,40.33Zm7.79-14.26L137.48,39c2.36-.85,8.24-3.06,16.22-6.83,3.36-1.58,5.3-3.42,5.76-5.46a3.79,3.79,0,0,0-1.09-3.54,2.21,2.21,0,0,0-2.17-.63Z"/><path class="cls-1" d="M125.42,45.37s-11.65-9.9-3-18.53c11.21-11.15,19-5.29,22.49-1.11a5.27,5.27,0,0,1,.71,5.81l0,.06a17.54,17.54,0,0,1-8.12,7.88Z"/><path d="M125.42,45.86a.47.47,0,0,1-.31-.12c-.25-.21-6.12-5.26-6.36-11.44a10.22,10.22,0,0,1,3.34-7.8c4.58-4.55,9.06-6.76,13.33-6.57,4.55.21,7.88,3.1,9.87,5.49a5.76,5.76,0,0,1,.77,6.33l0,.06a18.19,18.19,0,0,1-8.33,8.11l-12.07,5.89A.54.54,0,0,1,125.42,45.86Zm9.48-25c-3.85,0-7.92,2.11-12.13,6.3a9.3,9.3,0,0,0-3,7.07c.2,5.09,4.7,9.54,5.78,10.54l11.77-5.75a17.18,17.18,0,0,0,7.9-7.67l0-.06a4.82,4.82,0,0,0-.65-5.28c-1.87-2.24-5-4.95-9.18-5.14Z"/><path d="M124.7,45.76l3.1-1.55c-.12-.32-.53-1.36-.72-1.72-2.73-5.17-5.17-4.06-6.47-2.93A33.31,33.31,0,0,0,124.7,45.76Z"/></svg>