<svg id="Capa_1" data-name="Capa 1" xmlns="http://www.w3.org/2000/svg" viewBox="0 0 352 330"><defs><style>.cls-1{fill:#fff;}</style></defs><g id="Nail_bar" data-name="Nail bar"><path d="M136.23,170.3h-47c-5.87,0-10.59-5.56-10.74-12.65l-.69-31.41a.37.37,0,0,1,.35-.37.36.36,0,0,1,.37.35l.69,31.41c.15,6.7,4.55,12,10,12h47c5.39,0,9.89-5.38,10-12l1.13-57.79a.37.37,0,0,1,.36-.36h0a.37.37,0,0,1,.36.37L147,157.61C146.83,164.73,142.11,170.3,136.23,170.3Z"/><path class="cls-1" d="M193.39,221.43l-74.34-.74c-13.44,0-24.94-8.77-27.29-22.13L79,126.36a14,14,0,0,1,13.7-16.5h48.5Z"/><path d="M193.39,221.79h0l-74.33-.74c-14,0-25.32-9.22-27.65-22.43l-12.72-72.2a14.44,14.44,0,0,1,3.16-11.83,14.19,14.19,0,0,1,10.89-5.09h48.5a.36.36,0,0,1,.33.21l52.15,111.57a.34.34,0,0,1,0,.35A.37.37,0,0,1,193.39,221.79ZM92.73,110.22a13.49,13.49,0,0,0-10.34,4.84,13.75,13.75,0,0,0-3,11.24l12.73,72.19c2.26,12.86,13.34,21.84,26.93,21.84l73.76.73L141,110.22Z"/><path d="M99.14,166a.35.35,0,0,1-.35-.3l-6.17-35a.36.36,0,1,1,.71-.12l6.17,35a.36.36,0,0,1-.29.42Z"/><path d="M167.33,51.16c4.37,3,8,9,7.3,14.39-.68,5.64-5.74,8.21-9.68,11.52-15.9,13.36-7.77,33.85-20,43.85-11.74,9.63-37,5.2-43.37-9.31-3.85-8.8-1-22,5.82-28.29,6-5.54,12.49-3.18,19.87-11.35,2.71-3,1.85-3.31,6.54-9.18,4.43-5.52,7.55-9.33,12.87-11.81a24.31,24.31,0,0,1,9.2-2.26C159.09,48.59,163.3,48.41,167.33,51.16Z"/><path d="M225.21,267.49c-.1.43,4.87,23.2,4.87,23.2l-11.43-1.92-3.45-19.25Z"/><path class="cls-1" d="M223.65,281.42a4.92,4.92,0,0,1,2.37-2.17,4.76,4.76,0,0,1,5.18,1.17c3.38,3.45,12.53,13.17,17.38,22.08,1.71,3.15.2,6.78-4.52,6-7.73-1.22-19.65-6.15-28.76-16.56a4.66,4.66,0,0,1-1-4.36A22.29,22.29,0,0,1,216,283.4a3.14,3.14,0,0,1,3.8-1.47l1.32.46A2.14,2.14,0,0,0,223.65,281.42Z"/><path d="M245.25,309a7.88,7.88,0,0,1-1.25-.1c-8.05-1.27-19.9-6.32-29-16.68a5,5,0,0,1-1.08-4.7,22.57,22.57,0,0,1,1.68-4.29,3.48,3.48,0,0,1,4.24-1.64l1.32.46a1.8,1.8,0,0,0,2.15-.81,5,5,0,0,1,8.12-1.07c3.63,3.71,12.61,13.29,17.44,22.16a4.77,4.77,0,0,1,0,5A4.27,4.27,0,0,1,245.25,309Zm-26.56-26.88a2.73,2.73,0,0,0-2.42,1.45,21.77,21.77,0,0,0-1.62,4.15,4.29,4.29,0,0,0,.92,4c9,10.22,20.61,15.19,28.55,16.44,1.93.31,3.43-.14,4.21-1.26a4,4,0,0,0-.07-4.24c-4.78-8.79-13.71-18.32-17.32-22a4.4,4.4,0,0,0-4.78-1.08,4.53,4.53,0,0,0-2.2,2,2.51,2.51,0,0,1-3,1.13l-1.32-.45A2.77,2.77,0,0,0,218.69,282.12Z"/><path d="M244.12,305c-3.93,0-12.55-1.94-26.4-14.85a.36.36,0,0,1,0-.51.35.35,0,0,1,.51,0c19,17.7,28.06,14.39,28.15,14.35a.37.37,0,0,1,.47.2.35.35,0,0,1-.2.47A6.79,6.79,0,0,1,244.12,305Z"/><path d="M235.2,295.24a.36.36,0,0,1-.27-.12.36.36,0,0,1,0-.51l4.35-3.88a.36.36,0,0,1,.48.54l-4.35,3.88A.34.34,0,0,1,235.2,295.24Z"/><path d="M232,292a.36.36,0,0,1-.24-.63l5.11-4.52a.36.36,0,0,1,.51,0,.35.35,0,0,1,0,.51l-5.11,4.51A.38.38,0,0,1,232,292Z"/><path d="M183.88,266.15a49.25,49.25,0,0,0-1.22,7.35c-.82,7.51,7.58,14.46,7.58,14.46l-19.9-2.69.76-17.36Z"/><path class="cls-1" d="M174.93,280.23c1.17-.38.9-2.18,1.86-3a4.18,4.18,0,0,1,5-.39c4.29,2.16,16,8.38,23.42,15.24,2.62,2.42,2.34,6.36-2.35,7.21-7.68,1.38-20.51.61-32.42-6.27a4.65,4.65,0,0,1-2.32-3.81,56,56,0,0,1,.26-7.2,3.17,3.17,0,0,1,3.13-2.64h1.38C173.88,279.35,173.94,280.56,174.93,280.23Z"/><path d="M195.85,300.2a51.94,51.94,0,0,1-25.64-6.89,5,5,0,0,1-2.5-4.11,57.41,57.41,0,0,1,.26-7.28,3.5,3.5,0,0,1,3.48-2.94h1.39a1.69,1.69,0,0,1,1.27.63c.29.28.41.38.71.28s.61-.59.84-1.3a3.42,3.42,0,0,1,.89-1.66,4.54,4.54,0,0,1,5.36-.45c4.61,2.33,16.13,8.47,23.5,15.3a4.75,4.75,0,0,1,1.62,4.73c-.47,1.6-1.94,2.7-4.15,3.1A40.13,40.13,0,0,1,195.85,300.2Zm-24.4-20.5a2.78,2.78,0,0,0-2.76,2.34,54.94,54.94,0,0,0-.26,7.13,4.27,4.27,0,0,0,2.14,3.51c11.7,6.75,24.29,7.64,32.18,6.22,1.92-.35,3.2-1.27,3.59-2.59a4.07,4.07,0,0,0-1.42-4c-7.31-6.76-18.76-12.87-23.34-15.18a3.85,3.85,0,0,0-4.55.34,2.75,2.75,0,0,0-.68,1.34c-.23.7-.48,1.5-1.31,1.77a1.29,1.29,0,0,1-1.44-.46,1,1,0,0,0-.76-.41h-1.39Zm3.48.53Z"/><path d="M195.66,296.73c-5,0-12.53-1.36-23.57-6.3a.36.36,0,1,1,.3-.66c23.55,10.55,31.06,4.43,31.13,4.37a.36.36,0,0,1,.51,0,.35.35,0,0,1,0,.51C203.83,294.83,201.55,296.73,195.66,296.73Z"/><path d="M190.11,289.57a.41.41,0,0,1-.18-.05.36.36,0,0,1-.13-.49l2.87-5.11a.36.36,0,0,1,.5-.14.37.37,0,0,1,.14.49l-2.88,5.11A.37.37,0,0,1,190.11,289.57Z"/><path d="M186,287.55a.32.32,0,0,1-.18-.06.35.35,0,0,1-.12-.49l3.24-5.32a.35.35,0,0,1,.49-.13.36.36,0,0,1,.12.5l-3.24,5.32A.35.35,0,0,1,186,287.55Z"/><path d="M130,178.6s69.64-3,77.26,4.05c10.33,9.59,20.7,91.78,20.7,91.78l-12,3s-23.63-66.06-30-66.06-66.7-2.15-66.7-2.15Z"/><path d="M116.27,176.4s-9.19,27-1.88,31.89,60,4.5,58.17,3.88-4.71,44.15-4.71,61.37l16.59.64s26.43-69.24,23.58-77c-5.09-13.83-43.53-18.49-56.09-20.34C149.34,176.49,116.27,176.4,116.27,176.4Z"/><path class="cls-1" d="M199.26,235.14l-.11,0a.35.35,0,0,1-.23-.45l1.77-5.49c4.65-14.38,8.67-26.79,7-31.85-3.19-9.62-23.6-13.84-38.68-16.17a.37.37,0,0,1-.3-.41.37.37,0,0,1,.42-.31c15.26,2.37,35.94,6.66,39.25,16.66,1.75,5.29-2.11,17.21-7,32.3l-1.77,5.49A.37.37,0,0,1,199.26,235.14Z"/><path class="cls-1" d="M208.68,140.55a2.43,2.43,0,0,1,.38-1.72,8.65,8.65,0,0,0,.66-1.14l2.69-5.4c.53-1,2.36-.88,3.4-1.2,3.14-1,9.81-2.77,10.7-.61,1,2.33-4.25,4.61-6.14,5.36-.44.17-2.9,3.75-3.9,4.58a4.17,4.17,0,0,1-2.95,1.15,2.79,2.79,0,0,0-1.25.52,2.45,2.45,0,0,1-2.06.38h0a2.07,2.07,0,0,1-1.48-1.68Z"/><path d="M210.83,142.92a3,3,0,0,1-.72-.1,2.45,2.45,0,0,1-1.76-2l0-.23a2.74,2.74,0,0,1,.44-2,8.3,8.3,0,0,0,.64-1.09l2.69-5.4c.46-.85,1.58-1,2.57-1.18a7.6,7.6,0,0,0,1-.21c4.57-1.42,10.22-2.66,11.14-.4a1.86,1.86,0,0,1,0,1.53c-.81,1.91-4.3,3.52-6.31,4.3A23.2,23.2,0,0,0,219,138a22.4,22.4,0,0,1-2.3,2.71,4.18,4.18,0,0,1-2.7,1.18l-.43.05a2.49,2.49,0,0,0-1.09.45A2.88,2.88,0,0,1,210.83,142.92Zm13.09-13.1a30.21,30.21,0,0,0-8,1.61,6.82,6.82,0,0,1-1.13.23c-.83.13-1.76.28-2.05.8L210,137.85a9.49,9.49,0,0,1-.68,1.19,2,2,0,0,0-.33,1.46h0l0,.23a1.7,1.7,0,0,0,1.22,1.38,2.08,2.08,0,0,0,1.77-.32,3.24,3.24,0,0,1,1.41-.58l.46-.05a3.48,3.48,0,0,0,2.31-1,23.9,23.9,0,0,0,2.19-2.59c1.12-1.43,1.53-1.94,1.81-2.05,1.19-.47,5.15-2.14,5.91-3.91a1.24,1.24,0,0,0,0-1C226,130.08,225.17,129.82,223.92,129.82Z"/><path class="cls-1" d="M166.45,122.61c6.41,25,31.84,15.2,43.21,12.3l2.27,6.81a2,2,0,0,1-1,2.38c-9.48,5-38.27,5.89-43.66,5.25Z"/><path d="M172.26,149.9a48.48,48.48,0,0,1-5-.19.36.36,0,0,1-.32-.34l-.86-26.75a.36.36,0,0,1,.71-.1c1.67,6.5,4.79,11.12,9.29,13.72,8.93,5.15,21.6,1.61,30-.73,1.25-.35,2.44-.68,3.5-.95a.36.36,0,0,1,.43.24l2.27,6.8a2.33,2.33,0,0,1-1.14,2.82C203.43,148.47,182.6,149.9,172.26,149.9Zm-4.59-.87c6.36.6,34-.47,43.14-5.25a1.62,1.62,0,0,0,.78-1.95l-2.16-6.48c-1,.25-2,.54-3.16.86-8.5,2.37-21.35,6-30.54.65-4-2.32-7-6.18-8.83-11.48Z"/><path class="cls-1" d="M124.52,94.64s.25-4.45-2.5,41.9c0,0,1.89,35.86,2.13,39.9s35.3,2.29,35.3,2.29c4.15-18.19,3.7-39.06.8-61.35l6-.54.42-14c-1.09-4.13-5.68-7.09-8.76-8.2C149.7,90.94,135.14,92.13,124.52,94.64Z"/><path d="M143.71,179.47h-1.83c-17.93-.13-18-2.21-18.1-3-.23-4-2.1-39.55-2.12-39.9v-.05c1.15-19.44,1.78-29.94,2.11-35.59.17-2.82.27-4.42.33-5.32l.05-.89s0-.09,0-.13v-.07h0c0-.18.11-.36.38-.35a.28.28,0,0,1,.18.06c10.15-2.36,24.85-3.73,33.33.08,3.58,1.28,7.93,4.47,9,8.44a.31.31,0,0,1,0,.1l-.41,14a.37.37,0,0,1-.33.35l-5.64.5c3.18,24.68,2.9,44.67-.85,61.11a.37.37,0,0,1-.34.28C159.39,179.09,151.78,179.47,143.71,179.47Zm-21.33-42.93c.06,1,1.9,35.92,2.13,39.88,0,.51,1.37,2.2,17.38,2.32,7.82.06,15.72-.29,17.27-.36,3.69-16.39,3.93-36.33.73-61a.39.39,0,0,1,.08-.27.34.34,0,0,1,.25-.13l5.69-.51.41-13.64c-1-3.69-5.12-6.68-8.53-7.9-8.36-3.75-22.89-2.38-32.93,0C124.77,96.45,124.33,103.75,122.38,136.54Z"/><path class="cls-1" d="M169.48,178.25,168,104.33a11.07,11.07,0,0,0-4.94-8,35.52,35.52,0,0,0-7.15-3.17l-.09.9c-2-.05,2.05,1.72,1.89,5.64-.08,2.18,2.69,26.45,3.19,47.24.35,14.56-3.17,27.7-1.68,30.07,1.3,2.06,9.59,2.12,10.24,1.48Z"/><path d="M166.66,179.16a27.26,27.26,0,0,1-2.81-.15c-1.87-.21-4.24-.7-5-1.86s-.37-4.74.27-10a139.54,139.54,0,0,0,1.35-20.22c-.34-14.27-1.74-30-2.58-39.45-.38-4.28-.64-7.11-.61-7.82a6.41,6.41,0,0,0-1.84-4.42c-.46-.54-.73-.87-.56-1.23a.65.65,0,0,1,.54-.32l.06-.59a.4.4,0,0,1,.14-.26.38.38,0,0,1,.29-.06A36.6,36.6,0,0,1,163.22,96a11.48,11.48,0,0,1,5.1,8.31v0l1.52,73.91a.49.49,0,0,1,0,.12l-.07.19a.38.38,0,0,1-.09.15A6,6,0,0,1,166.66,179.16ZM155.72,94.37l.3.38a7.17,7.17,0,0,1,2,4.91c0,.66.23,3.63.6,7.73.84,9.42,2.24,25.2,2.58,39.49a139.55,139.55,0,0,1-1.35,20.33c-.57,4.77-1,8.53-.38,9.56.33.52,1.34,1,2.86,1.28a18.87,18.87,0,0,0,6.76.16v0l-1.52-73.83a10.74,10.74,0,0,0-4.78-7.78,38.51,38.51,0,0,0-6.63-3l-.05.49a.37.37,0,0,1-.36.32h-.06Z"/><path class="cls-1" d="M134.45,92.81s-12.45.24-17.89,7.66-6.06,15.79-5,22.55c1.73,11.48,9,24.54,8.61,28.11a65.83,65.83,0,0,1-8.94,25.05c-5.72,9.07-6.13,38.37-5,39,7.53,4.39,20.53,4,35.23,5.07,2.72.19,4.94-1.21,5.33-3.41,1.57-8.79,5.78-34.26,6.41-58.18.55-20.71-12.08-52.73-12.73-55.43A21.87,21.87,0,0,0,134.45,92.81Z"/><path d="M141.93,220.65l-.54,0c-3.11-.23-6.14-.39-9.08-.54-10.89-.58-20.3-1.07-26.31-4.57a.91.91,0,0,1-.35-.62c-.94-3.83-.09-30.47,5.23-38.91a66.15,66.15,0,0,0,8.89-24.9c.14-1.49-1.24-5.06-2.84-9.19-2.14-5.52-4.8-12.39-5.77-18.83-.9-6-.74-14.81,5.11-22.81,5.48-7.49,17.65-7.8,18.17-7.81a.45.45,0,0,1,.25.09,22.11,22.11,0,0,1,6.08,10.62c.1.42.54,1.68,1.14,3.42,3.3,9.48,12.07,34.68,11.6,52.11-.62,23.65-4.69,48.6-6.41,58.23C146.7,219.17,144.61,220.65,141.93,220.65Zm-35.52-5.73c5.86,3.39,15.17,3.88,25.94,4.45,2.94.15,6,.31,9.09.53,2.55.19,4.58-1.09,4.94-3.11,1.72-9.61,5.79-34.52,6.41-58.12.46-17.29-8.27-42.4-11.56-51.86-.63-1.82-1-3-1.16-3.48a22,22,0,0,0-5.76-10.15c-1.39.06-12.5.74-17.45,7.51-5.71,7.8-5.86,16.42-5,22.28,1,6.35,3.6,13.18,5.73,18.67,1.7,4.39,3,7.86,2.88,9.52a66.57,66.57,0,0,1-9,25.21C106.06,185,105.48,213.13,106.41,214.92Zm0,0Z"/><path d="M128.56,171.36a21.06,21.06,0,0,1-4.91-.6.38.38,0,0,1-.27-.44.38.38,0,0,1,.44-.27c15.26,3.65,20.75-11,20.81-11.13a.35.35,0,0,1,.46-.22.36.36,0,0,1,.22.46C145.26,159.3,140.72,171.36,128.56,171.36Z"/><rect x="220.33" y="122.75" width="2.91" height="24.15" rx="1.21" transform="translate(22.32 300.9) rotate(-71.08)"/><path class="cls-1" d="M180.57,148.62a2.56,2.56,0,0,1,1.19-1.43,11,11,0,0,0,1.16-.76l5.11-3.78c1-.66,2.63.3,3.76.49,3.41.58,10.54,2.09,10.34,4.54-.22,2.64-6.2,2.3-8.33,2.1-.49-.05-4.51,2.13-5.84,2.44a4.44,4.44,0,0,1-3.32-.33,3,3,0,0,0-1.43-.11,2.54,2.54,0,0,1-2.11-.63h0a2.18,2.18,0,0,1-.58-2.29Z"/><path d="M186.59,152.76a4.18,4.18,0,0,1-1.65-.37l-.42-.16a2.62,2.62,0,0,0-1.26-.09,2.94,2.94,0,0,1-2.41-.73,2.56,2.56,0,0,1-.7-2.68l.08-.23a2.86,2.86,0,0,1,1.36-1.63,9.44,9.44,0,0,0,1.12-.73l5.1-3.78c.83-.57,2-.2,3,.12a9.17,9.17,0,0,0,1.07.31c5,.84,10.84,2.38,10.64,4.92a2,2,0,0,1-.76,1.41c-1.67,1.39-5.71,1.24-8,1a20.64,20.64,0,0,0-2.29,1,22.93,22.93,0,0,1-3.44,1.44A6.26,6.26,0,0,1,186.59,152.76Zm-2.88-1.38a3,3,0,0,1,1,.17,4.7,4.7,0,0,1,.45.17,3.75,3.75,0,0,0,2.68.15,25.6,25.6,0,0,0,3.3-1.39c1.72-.81,2.35-1.1,2.65-1.06,1.35.13,5.87.45,7.44-.86a1.25,1.25,0,0,0,.49-.91c.13-1.49-3.72-3.08-10-4.15a7.87,7.87,0,0,1-1.18-.33c-.84-.27-1.79-.58-2.32-.22l-5.09,3.77a10.18,10.18,0,0,1-1.21.79,2.16,2.16,0,0,0-1,1.22l-.08.23a1.82,1.82,0,0,0,.49,1.91,2.2,2.2,0,0,0,1.83.55A3.48,3.48,0,0,1,183.71,151.38Zm-3.14-2.76h0Z"/><path class="cls-1" d="M140.67,128.49c7.86,17.45,28.68,12,42.87,15.95l.28,7.5c-30.81,8.64-37.65,3.32-52.84-11.4Z"/><path d="M160.61,156.59a39.44,39.44,0,0,1-11.08-1.86c-1.33-.36-2.71-.73-4.26-1.1a20,20,0,0,1-11-6.91c-1.5-1.74-2.84-3.63-4.14-5.46-1.15-1.62-2.33-3.29-3.62-4.84a.37.37,0,0,1,0-.51.35.35,0,0,1,.51.05c1.3,1.57,2.5,3.25,3.65,4.88,1.29,1.82,2.62,3.69,4.1,5.4a19.24,19.24,0,0,0,10.65,6.69c1.57.37,2.95.74,4.29,1.1,7,1.88,11.59,3.13,25.38-.49,1.08-.28,5.47-.9,6.62-1l1.89-.55-.42-7.2-30.32-4a.31.31,0,0,1-.18-.09c-3.66-3.08-6.95-8.87-10-14.66a.37.37,0,0,1,.65-.34c3,5.69,6.16,11.36,9.69,14.38l30.52,4.08a.35.35,0,0,1,.31.33l.45,7.79a.37.37,0,0,1-.26.37l-2.19.63h-.07c-1.05.12-5.51.75-6.55,1C168.77,156,164.27,156.59,160.61,156.59Z"/><path class="cls-1" d="M170,80.76a1.3,1.3,0,0,0,1-1.61c-1.29-4.46-1.37-12.25-1.5-12-1.48,2.47-5-.3-9.82-.2a4,4,0,0,0-4.2,3.22.55.55,0,0,1-1,.2c-.77-1-2-1.88-3.68,0-1.85,2.08.08,6.55,1.95,8-.4.51-6.77,8.26-11.66,14.09a2.54,2.54,0,0,0,.54,3.73l4.85,3.25a8.7,8.7,0,0,0,10-.22l.69-.5a1.41,1.41,0,0,0,.13-2.17l-1.5-1.41a4,4,0,0,1-.47-4.48l2.58-5a12.66,12.66,0,0,0,2.39,2.11A3.71,3.71,0,0,0,165,87a13.61,13.61,0,0,0,3.38-5.9Z"/><path d="M151.31,101.19a9.08,9.08,0,0,1-5-1.52l-4.85-3.24a2.89,2.89,0,0,1-.61-4.27c4.47-5.33,10.2-12.3,11.42-13.81a8.9,8.9,0,0,1-2.52-5.14,4,4,0,0,1,.81-3.1,3,3,0,0,1,2.28-1.24,2.65,2.65,0,0,1,2,1.27.19.19,0,0,0,.19.07.19.19,0,0,0,.15-.14,4.38,4.38,0,0,1,4.54-3.5,19.84,19.84,0,0,1,5.23.75c2.33.57,3.58.81,4.29-.38a.39.39,0,0,1,.4-.17c.29.08.29.08.4,1.76a56.65,56.65,0,0,0,1.35,10.52,1.6,1.6,0,0,1-.17,1.3,1.66,1.66,0,0,1-1.09.77l-1.36.27a14.14,14.14,0,0,1-3.42,5.84,4.07,4.07,0,0,1-5.21.74,11.52,11.52,0,0,1-2.11-1.8l-2.35,4.58a3.65,3.65,0,0,0,.42,4.07l1.48,1.39a1.83,1.83,0,0,1,.56,1.41,1.78,1.78,0,0,1-.73,1.32l-.69.51A9.08,9.08,0,0,1,151.31,101.19Zm1.41-31.6a2.38,2.38,0,0,0-1.64,1,3.33,3.33,0,0,0-.64,2.55A7.83,7.83,0,0,0,153,78a.35.35,0,0,1,.14.25.38.38,0,0,1-.07.27c-.39.49-6.78,8.27-11.67,14.11a2.17,2.17,0,0,0-.48,1.7,2.13,2.13,0,0,0,.94,1.49l4.86,3.25a8.35,8.35,0,0,0,9.54-.21l.68-.5a1,1,0,0,0,.43-.79,1.05,1.05,0,0,0-.33-.83l-1.49-1.4a4.31,4.31,0,0,1-.56-4.9l2.58-5.06a.4.4,0,0,1,.28-.19.37.37,0,0,1,.31.11,12.6,12.6,0,0,0,2.32,2,3.33,3.33,0,0,0,4.3-.61,13.21,13.21,0,0,0,3.3-5.74.35.35,0,0,1,.28-.27l1.59-.32a.93.93,0,0,0,.71-1.16,57.27,57.27,0,0,1-1.39-10.68l0-.57c-1.08.86-2.69.47-4.51,0a19,19,0,0,0-5-.73,3.62,3.62,0,0,0-3.85,2.95.91.91,0,0,1-.71.68.9.9,0,0,1-.92-.35,2,2,0,0,0-1.42-1Z"/><path class="cls-1" d="M156.87,84.33l1,1.22Z"/><path d="M157.87,85.91a.34.34,0,0,1-.28-.13l-1-1.23a.37.37,0,0,1,0-.51.36.36,0,0,1,.51.06l1,1.22a.37.37,0,0,1-.05.51A.4.4,0,0,1,157.87,85.91Z"/></g></svg>