<svg id="Capa_1" data-name="Capa 1" xmlns="http://www.w3.org/2000/svg" viewBox="0 0 350 669"><defs><style>.cls-1{fill:#fff;}</style></defs><path class="cls-1" d="M135.31,555.4s-4.69,21.44.5,27.56l1.61,2.63-5,2.14a17.86,17.86,0,0,1-18.92-3.11l-.69-.62,1.22-2.71c2.17-4.82,5.9-19.78,5.54-24.87Z"/><path d="M125.4,589.82a18.58,18.58,0,0,1-12.37-4.7l-.69-.63a.66.66,0,0,1-.16-.76L113.4,581c2.11-4.7,5.83-19.64,5.48-24.55a.67.67,0,0,1,.17-.49.66.66,0,0,1,.46-.23l15.76-1a.75.75,0,0,1,.55.23.68.68,0,0,1,.14.58c0,.21-4.56,21.19.36,27l.06.08,1.61,2.63a.66.66,0,0,1,.06.55.65.65,0,0,1-.37.41l-5,2.14A18.38,18.38,0,0,1,125.4,589.82Zm-11.81-6,.33.29a17.26,17.26,0,0,0,18.22,3l4.31-1.84-1.18-1.93c-4.75-5.7-1.62-23.09-.79-27.23l-14.24.92c0,5.71-3.5,19.8-5.63,24.52Z"/><path class="cls-1" d="M137.14,575.62l2.82,2.51a46.21,46.21,0,0,0,19.7,10.33l1.39.34a1.65,1.65,0,0,1,1.15,1l.1.26c1.08,2.91-1.51,10.18-12.08,13.85-2.75.95-10.09.24-21,.23l-12.44,0a13.93,13.93,0,0,1-7.83-2.32A8.64,8.64,0,0,1,105,592.4a78.41,78.41,0,0,1,6.73-17.2,1.25,1.25,0,0,1,1.86-.36l2.1,5.15a8.17,8.17,0,0,0,8.68,5.16c.23,0,.46-.08.7-.13a10.2,10.2,0,0,0,5.85-4l3.67-5.08A1.71,1.71,0,0,1,137.14,575.62Z"/><path d="M144.79,605.11c-1.64,0-3.55-.05-5.76-.1-2.87-.08-6.12-.16-9.81-.16l-12.44,0a14.53,14.53,0,0,1-8.2-2.44,9.28,9.28,0,0,1-4.21-10.12,78,78,0,0,1,6.8-17.41,1.91,1.91,0,0,1,1.27-.91,2,2,0,0,1,1.56.36.6.6,0,0,1,.22.28l2.11,5.15a7.54,7.54,0,0,0,8,4.75l.65-.12a9.52,9.52,0,0,0,5.46-3.78l3.67-5.08a2.37,2.37,0,0,1,3.51-.39h0l2.83,2.51a45.8,45.8,0,0,0,19.4,10.19l1.4.34a2.32,2.32,0,0,1,1.62,1.44l.09.27a7.31,7.31,0,0,1-.65,5.37c-1.1,2.33-4.1,6.65-11.83,9.34A19.39,19.39,0,0,1,144.79,605.11Zm-32-29.87-.11,0a.56.56,0,0,0-.39.28,78.43,78.43,0,0,0-6.65,17,8,8,0,0,0,3.66,8.76,13.19,13.19,0,0,0,7.45,2.2l12.44,0c3.71,0,7,.08,9.85.16,5.36.13,9.23.23,10.93-.36,7.27-2.53,10.05-6.5,11.06-8.65a6,6,0,0,0,.62-4.34l-.1-.26a1,1,0,0,0-.69-.62l-1.39-.34a47.07,47.07,0,0,1-20-10.48l-2.82-2.51a1,1,0,0,0-1.55.17l-3.67,5.08a10.82,10.82,0,0,1-6.24,4.3l-.75.14a8.79,8.79,0,0,1-9.4-5.57l-2-4.94A.54.54,0,0,0,112.82,575.24Z"/><path d="M122.06,599.78c-8.85,0-13.21-4.67-13.4-4.87a.67.67,0,1,1,1-.9s4.53,4.8,13.47,4.42c6.65-.29,16.48-.17,21.75-.08a14.57,14.57,0,0,0,8.55-2.44,7.73,7.73,0,0,0,1.83-1.62.66.66,0,0,1,1.06.8,8.82,8.82,0,0,1-2.15,1.93,16,16,0,0,1-9.31,2.67c-5.26-.1-15.06-.22-21.67.07C122.79,599.78,122.42,599.78,122.06,599.78Z"/><path class="cls-1" d="M65.13,554.15s-6.46,13.11-4.45,20.55l.37,2.95-21-13.07,2.32-1.49c4.58-3,9.1-7.94,10.62-12.63Z"/><path d="M61.05,578.32a.64.64,0,0,1-.35-.1l-21-13.07a.69.69,0,0,1-.31-.56.67.67,0,0,1,.3-.57l2.32-1.49c4.92-3.26,9-8.08,10.34-12.27a.66.66,0,0,1,.83-.43l12.1,3.69a.67.67,0,0,1,.41.93c-.06.13-6.32,13-4.4,20.07,0,0,0,.07,0,.1l.36,3a.67.67,0,0,1-.3.65A.65.65,0,0,1,61.05,578.32ZM41.34,564.57l18.88,11.78L60,574.83c-1.77-6.68,2.84-17.4,4.17-20.26l-10.76-3.28c-1.62,4.31-5.73,9.09-10.66,12.35Z"/><path class="cls-1" d="M63.06,570.35l.39,3.61a44.55,44.55,0,0,0,7.19,20l3,4.6a1.62,1.62,0,0,1,.15,1.48l-.1.25c-1.1,2.76-7.59,6.18-17.4,1.86-6.06-2.67-12.18-10.84-29.64-27.3-.91-.85-.62-2.4.17-3.36,2.86-3.51,10-11.64,16.4-13.6a1.24,1.24,0,0,1,1.6,1l1.38,7.08a5.78,5.78,0,0,0,6.82,4.6l8-1.62A1.64,1.64,0,0,1,63.06,570.35Z"/><path d="M65.15,604.87a22.38,22.38,0,0,1-9.07-2.11c-4-1.74-7.77-5.58-14.67-12.54-3.91-4-8.78-8.86-15.17-14.88-1.19-1.13-.88-3.06.11-4.27,2.84-3.48,10.14-11.79,16.73-13.82a1.92,1.92,0,0,1,2.45,1.46l1.37,7.08a5.16,5.16,0,0,0,2.2,3.32,5.06,5.06,0,0,0,3.84.76l8-1.63a2.32,2.32,0,0,1,1.82.4,2.35,2.35,0,0,1,.94,1.64h0l.38,3.61a44.23,44.23,0,0,0,7.08,19.71l3,4.59a2.3,2.3,0,0,1,.22,2.1l-.1.24a7,7,0,0,1-3.93,3.38A14,14,0,0,1,65.15,604.87ZM43.65,558.5l-.18,0c-6.23,1.91-13.33,10-16.09,13.38-.59.73-.83,1.89-.23,2.46,6.41,6,11.28,11,15.2,14.91,6.79,6.85,10.54,10.62,14.26,12.26,6.74,3,11.24,2,13.32,1.14A5.64,5.64,0,0,0,73.12,600l.1-.25a.94.94,0,0,0-.09-.86l-3-4.6a45.55,45.55,0,0,1-7.3-20.3l-.38-3.61a1,1,0,0,0-.4-.7,1,1,0,0,0-.77-.17l-8,1.62a6.37,6.37,0,0,1-4.84-1A6.49,6.49,0,0,1,45.59,566L44.22,559a.58.58,0,0,0-.27-.38A.61.61,0,0,0,43.65,558.5Z"/><path d="M66.94,599h-.1l-1.64-.24a25.94,25.94,0,0,1-14.53-7.36L32.43,573a.67.67,0,0,1,1-.94l18.24,18.4a24.56,24.56,0,0,0,13.78,7l1.64.24a.67.67,0,0,1-.1,1.33Z"/><path d="M147.44,339.31c14.35,4,23.23,6.41,23.23,6.41S142.1,448.25,133.83,473.94c-7.5,23.28-56.65,74-65.36,84.27A12.1,12.1,0,0,1,65,560.34a12.61,12.61,0,0,1-13.25-5s-1.58-3.56-1.21-5.37l2.73-13.31c10.36-42.26,30.18-63.18,38.57-107.3,12.67-66.59,22.14-81.62,24.26-86.68C122.67,327,147.44,339.31,147.44,339.31Z"/><path d="M195,341.2c2.54,24,1,65.53-1.29,84.27-6.42,51.59-49.07,124.16-56.93,138.89a6.48,6.48,0,0,1-5,3.41c-6,.69-8.29-.81-11.38-2.4a6.78,6.78,0,0,1-3.57-6c-1.06-50.54,9.71-93.81,20.88-121.38,4.3-10.63,9-71.12,8.43-92.93Z"/><path class="cls-1" d="M118.1,508.79H118a.68.68,0,0,1-.54-.78c5-27.19,9.28-44,14.17-56.35a149.28,149.28,0,0,0,10.66-53.25l.13-9a.64.64,0,0,1,.67-.66.66.66,0,0,1,.66.68l-.12,9a150.78,150.78,0,0,1-10.76,53.72c-4.85,12.23-9.07,29-14.1,56.1A.67.67,0,0,1,118.1,508.79Z"/><path class="cls-1" d="M245.62,238a27.83,27.83,0,0,0,1.89-4.32,3.33,3.33,0,0,0,.31-1.83c-.37-3.24-1.72-11.19.54-14.25a6.87,6.87,0,0,1,8.94-2.24s2.37-4.77,5.41-3c2.33,1.38,4.6,4.4,4.2,9.11-.55,6.4-1.64,12.53-8.44,16.19a6.54,6.54,0,0,0-3,3.23Z"/><path d="M255.52,241.57a.63.63,0,0,1-.19,0l-9.9-2.92a.66.66,0,0,1-.42-.38.65.65,0,0,1,0-.56,26.73,26.73,0,0,0,1.84-4.2.42.42,0,0,1,.06-.14,2.77,2.77,0,0,0,.23-1.43c0-.36-.1-.78-.15-1.24-.51-3.95-1.35-10.55.81-13.49a7.45,7.45,0,0,1,9.2-2.69,6.84,6.84,0,0,1,3.38-3.06,3.25,3.25,0,0,1,2.65.36c1.19.71,5.05,3.51,4.52,9.74s-1.66,12.9-8.78,16.73a5.9,5.9,0,0,0-2.66,2.9A.66.66,0,0,1,255.52,241.57Zm-9-4,8.59,2.53a7.22,7.22,0,0,1,3-3c6.54-3.52,7.55-9.41,8.08-15.66.47-5.46-2.85-7.87-3.87-8.48a1.93,1.93,0,0,0-1.59-.23c-1.37.4-2.54,2.25-2.88,2.93a.67.67,0,0,1-.92.29,6.17,6.17,0,0,0-8.08,2c-1.85,2.51-1,9-.57,12.53.06.47.11.89.15,1.25a3.94,3.94,0,0,1-.35,2.16A24.07,24.07,0,0,1,246.57,237.57Z"/><path class="cls-1" d="M239.51,246.48l-8.92-11,5.53-4.06a2.41,2.41,0,0,1,1-.43l.67-.11a2.41,2.41,0,0,0,1.86-1.53,2.43,2.43,0,0,1,.82-1.1l41-30.2a4.74,4.74,0,0,1,1.1-.61l12-4.67-6.82,10.33a7.63,7.63,0,0,1-1.32,1.52l-38,33.82a2.39,2.39,0,0,1-1.15.56l-.1,0a2.4,2.4,0,0,0-1.79,1.5l-.15.4a2.39,2.39,0,0,1-.64.93Z"/><path d="M239.51,247.14h-.06a.65.65,0,0,1-.46-.25l-8.91-11a.65.65,0,0,1-.15-.5.66.66,0,0,1,.27-.45l5.52-4.06a3.09,3.09,0,0,1,1.32-.56l.68-.11a1.71,1.71,0,0,0,1.33-1.1,3,3,0,0,1,1.06-1.4l41-30.21a5.45,5.45,0,0,1,1.25-.69l12-4.67a.67.67,0,0,1,.76.2.68.68,0,0,1,0,.79l-6.82,10.33a9,9,0,0,1-1.44,1.65l-38,33.82a3.19,3.19,0,0,1-1.46.72l-.11,0a1.71,1.71,0,0,0-1.29,1.08l-.15.39a3,3,0,0,1-.82,1.2L240,247A.66.66,0,0,1,239.51,247.14Zm-8-11.54,8,9.91,4.68-4.17a1.67,1.67,0,0,0,.47-.67l.14-.39a3,3,0,0,1,2.29-1.92l.11,0a1.76,1.76,0,0,0,.83-.41l38-33.82a6.89,6.89,0,0,0,1.2-1.39l5.67-8.58-10,3.91a4.17,4.17,0,0,0-.95.52l-41,30.21a1.68,1.68,0,0,0-.6.79,3,3,0,0,1-2.37,2l-.67.11a1.71,1.71,0,0,0-.75.31Z"/><path d="M284.47,201.24a.67.67,0,0,1-.5-.23l-2.38-2.76a.67.67,0,0,1,.07-.94.66.66,0,0,1,.94.07l2.38,2.76a.66.66,0,0,1-.51,1.1Z"/><path d="M221.39,242.65l9.37-7.36,8.82,11.17-9.37,7.36a3.93,3.93,0,0,1-5.5-.59l-4-5.11A3.89,3.89,0,0,1,221.39,242.65Z"/><path d="M227.74,255.34a4.5,4.5,0,0,1-3.55-1.7l-4-5.11a4.45,4.45,0,0,1-.93-3.3,4.62,4.62,0,0,1,1.76-3.11l9.37-7.36a.67.67,0,0,1,.93.11L240.11,246a.69.69,0,0,1,.14.5.66.66,0,0,1-.25.44l-9.37,7.36A4.7,4.7,0,0,1,227.74,255.34Zm2.91-19.12-8.85,6.95a3.29,3.29,0,0,0-1.25,2.21,3.11,3.11,0,0,0,.65,2.32l4,5.11a3.26,3.26,0,0,0,4.57.48l8.85-6.94Zm-9.26,6.43Z"/><path class="cls-1" d="M227.76,250.41a.65.65,0,0,1-.53-.27.66.66,0,0,1,.12-.93l5.21-3.93a.66.66,0,1,1,.8,1.06l-5.2,3.93A.61.61,0,0,1,227.76,250.41Z"/><path class="cls-1" d="M247.51,233.66s1.3-6.95,5.87-11.41c2.8-2.74,5.41-14.6,10.74-8.91a9,9,0,0,1,2.59,4,18.22,18.22,0,0,1,.7,5.1c-.54,6.42-2.14,11.62-9,15.28a6.56,6.56,0,0,0-2.93,3.22c-.37.89-8.27,55.49-19.63,62.15-12.91,7.56-35.39-21.23-35.39-21.23L220,261.28s9,11.22,10.29,11.76C231.31,273.45,247.51,233.66,247.51,233.66Z"/><path d="M231.05,305c-13.14,0-30.26-21.71-31.07-22.76a.66.66,0,0,1,0-.87l19.52-20.54a.67.67,0,0,1,.51-.2.66.66,0,0,1,.49.25c3.87,4.82,8.26,10,9.68,11.28,2-3.22,10.85-24.43,16.65-38.68.16-.78,1.57-7.33,6-11.7a17.2,17.2,0,0,0,2.36-3.91c1.57-3.11,3.21-6.33,5.66-6.68,1.21-.18,2.45.4,3.67,1.71l.23.24a9.18,9.18,0,0,1,2.5,4,18.57,18.57,0,0,1,.73,5.36c-.57,6.8-2.38,12.09-9.3,15.81a5.85,5.85,0,0,0-2.64,2.89c0,.13-.22,1.22-.46,2.61-6.15,35.76-12.69,55.9-19.44,59.85A10,10,0,0,1,231.05,305Zm-29.67-23.13c2.92,3.59,22.77,27.3,34.18,20.61,4.39-2.57,11.22-14.89,18.8-58.92a25.27,25.27,0,0,1,.54-2.91,7.27,7.27,0,0,1,3.24-3.55c6.42-3.44,8.05-8.19,8.61-14.75a17.5,17.5,0,0,0-.68-4.83,7.9,7.9,0,0,0-2.2-3.47l-.23-.24a3.1,3.1,0,0,0-2.51-1.3c-1.77.25-3.37,3.42-4.66,6a18.13,18.13,0,0,1-2.62,4.27c-4.37,4.26-5.67,11-5.68,11.06a.56.56,0,0,1,0,.12c0,.1-4,9.82-8.08,19.49-8.34,19.8-9,20.06-9.43,20.25a.77.77,0,0,1-.56,0c-1.25-.52-7.52-8.18-10.08-11.35Zm46.13-48.2h0Z"/><path class="cls-1" d="M78.42,361.08c-.37,1.05.56,3.1.43,3.95-.48,3.11-5.11,7.48-8.51,10.32A12,12,0,0,0,66,384.51c0,.83,0,1.74.08,2.72.12,2.25-.6,3.44-1.57,4a3.11,3.11,0,0,1-4.63-2.45c-.53-4.91-1.4-15.1,0-18.69.91-2.36,3.82-5.45,6.56-8a13.13,13.13,0,0,0,4.15-9.7c0-12.72,7-49.87,15.29-75.94L106.6,288S92,322.47,78.42,361.08Z"/><path d="M63,392.38a3.6,3.6,0,0,1-1.61-.39,3.89,3.89,0,0,1-2.18-3.09c-.59-5.53-1.38-15.36,0-19,.79-2.06,3.05-4.83,6.72-8.23a12.5,12.5,0,0,0,4-9.2c-.06-12.49,6.76-49.24,15.32-76.15a.65.65,0,0,1,1-.38l20.72,11.51a.66.66,0,0,1,.29.84c-.14.35-14.72,34.88-28.16,73a4.92,4.92,0,0,0,.22,2,5.3,5.3,0,0,1,.24,1.81c-.51,3.26-5,7.63-8.74,10.73a11.3,11.3,0,0,0-4.08,8.65c0,.83,0,1.74.09,2.69.11,2.23-.52,3.79-1.89,4.64A3.49,3.49,0,0,1,63,392.38ZM86.27,277.49c-8.4,26.73-15.06,62.69-15,75a13.82,13.82,0,0,1-4.37,10.19c-3.47,3.22-5.68,5.89-6.39,7.73-1.34,3.52-.4,14,.07,18.38A2.57,2.57,0,0,0,62,390.8a2.23,2.23,0,0,0,2.18-.09c.92-.58,1.34-1.74,1.26-3.44,0-1-.09-1.9-.09-2.76a12.61,12.61,0,0,1,4.55-9.67c5-4.17,7.94-7.69,8.28-9.91a5.34,5.34,0,0,0-.22-1.31,5.42,5.42,0,0,1-.18-2.76c12.53-35.55,26-68,28-72.55Zm-7.85,83.59h0Z"/><path class="cls-1" d="M123.19,225.08c21.86-7,59.25-3.49,70.6,4.9,14.74,10.9,28.66,28.52,34.12,35.81a6.7,6.7,0,0,1,.61,7c-4.91,9.74-15.81,33.81-22,29.27s-14-13-13.57-8.57c1.18,11.83,3.19,51.33,3.19,51.33s-6.49,2.23-6.77,7.54l-.66,14.39a2.36,2.36,0,0,1-3.43,1.88c-11.92-6.2-59.13-12.14-76.73-21.78a5.64,5.64,0,0,1-2.84-5.91c2.06-12,14-37.36,9.17-52.62-.5-1.58-4.26,4.94-8.81,8.82a2,2,0,0,1-2.54.06L82.7,280.61a5.36,5.36,0,0,1-1.63-6.19C85.39,263.6,99.6,232.66,123.19,225.08Z"/><path d="M186.36,369.58a2.93,2.93,0,0,1-1.38-.34c-5.18-2.69-17.53-5.43-30.6-8.32-17-3.76-36.22-8-46.15-13.46a6.32,6.32,0,0,1-3.18-6.62,120.79,120.79,0,0,1,3.75-13.6c3.86-12.36,8.65-27.7,5.59-38.25a31.13,31.13,0,0,0-2.19,2.52,48.1,48.1,0,0,1-5.7,6.16,2.67,2.67,0,0,1-3.39.07L82.28,281.13a6.06,6.06,0,0,1-1.83-6.95c5-12.44,19.07-42.2,42.53-49.74,22.71-7.29,60-3.3,71.21,5,14.85,11,28.9,28.8,34.25,35.95a7.33,7.33,0,0,1,.68,7.72c-.5,1-1.06,2.12-1.67,3.35-5,10.07-12.45,25.29-18.34,26.74a3.46,3.46,0,0,1-3-.58c-1.89-1.39-3.91-3.11-5.85-4.78-2.42-2.09-5.72-4.92-6.64-4.92h0a1.56,1.56,0,0,0,0,.53c1.16,11.7,3.17,51,3.19,51.35a.68.68,0,0,1-.45.67c-.06,0-6.07,2.16-6.32,6.95l-.67,14.38a3,3,0,0,1-3,2.78Zm-71.75-82.15.19,0a1,1,0,0,1,.72.69c3.47,10.95-1.48,26.78-5.45,39.5a119.35,119.35,0,0,0-3.7,13.43,5,5,0,0,0,2.5,5.22c9.76,5.34,28.91,9.58,45.8,13.33,13.73,3,25.59,5.67,30.92,8.44a1.65,1.65,0,0,0,1.57,0,1.71,1.71,0,0,0,.89-1.35l.66-14.35c.26-4.88,5.17-7.31,6.74-8-.23-4.55-2.07-39.84-3.16-50.81-.09-.94.14-1.56.68-1.84,1.34-.7,3.59,1.16,8.17,5.09,1.92,1.65,3.92,3.36,5.77,4.72a2.14,2.14,0,0,0,1.89.35c5.28-1.29,13.2-17.38,17.46-26l1.66-3.36a6,6,0,0,0-.55-6.32c-5.31-7.1-19.27-24.8-34-35.67-10.76-8-48-11.86-70-4.81-23.57,7.58-37.88,39.39-41.7,49a4.73,4.73,0,0,0,1.42,5.42L104,296.7a1.3,1.3,0,0,0,1.69-.05,47.05,47.05,0,0,0,5.53-6C113.07,288.34,113.86,287.43,114.61,287.43Z"/><path class="cls-1" d="M148.64,223.26l.25-24.4L169,208.18l.21,14.34a8.1,8.1,0,0,1-3.19,6.11c-3.93,3.12-9.61,2.79-13.84.08l-1-.63A5.66,5.66,0,0,1,148.64,223.26Z"/><path d="M159.38,231.54a14,14,0,0,1-7.53-2.27l-1-.63a6.28,6.28,0,0,1-2.9-5.38h0l.25-24.41a.68.68,0,0,1,.31-.55.66.66,0,0,1,.64,0l20.14,9.32a.64.64,0,0,1,.39.59l.21,14.34a8.76,8.76,0,0,1-3.47,6.67A11.31,11.31,0,0,1,159.38,231.54Zm-10.08-8.27a5,5,0,0,0,2.29,4.25l1,.63c4.24,2.72,9.61,2.7,13.07,0a7.51,7.51,0,0,0,2.94-5.59l-.21-13.91-18.82-8.71Z"/><path d="M176,163.33c-5.29-.11-.62,5.78-19.69.63-7.83-2.11-3.6,6.91-5.64,6.4-7.53-1.87-10.17.71-11.85,2.06a9.79,9.79,0,0,0-3.22,8.48c.76,4.33,6.59,5.45,10.13,14.54,2.48,6.38,2.07,10.33,4.71,11.18s4.49-2.73,7.48-2c3.86.93,3.34,7.54,7.17,10.14,2.41,1.64,7.9,2.24,16.5-2.32a3.26,3.26,0,0,0,1.59-3.87c-.6-1.93-1.39-4.36-2.33-6.62-4.49-10.78-8.49-13.1-7.17-16,2-4.42,10.34-2.23,11.58-5.84S183.26,163.48,176,163.33Z"/><path class="cls-1" d="M159.67,189.42a33.76,33.76,0,0,1,2,4c1.07,2.6,2.95,7.06,4.2,9.47,1.54,3,10.38-.2,13.12-1.28a.82.82,0,0,0,.44-1.11l-1.07-2.6,2.17-.63a1.68,1.68,0,0,0,.66-.51,1.56,1.56,0,0,0,0-1.84c-2-2.74-5.58-7.24-7.47-12.89a1.53,1.53,0,0,0-1.31-1,17.14,17.14,0,0,0-11.66,3.2A4,4,0,0,0,159.67,189.42Z"/><path d="M169,204.84c-1.72,0-3.09-.44-3.7-1.6-1.26-2.46-3.19-7-4.22-9.53a30.3,30.3,0,0,0-2-4,4.63,4.63,0,0,1,1.28-6.08,17.93,17.93,0,0,1,12.12-3.33,2.21,2.21,0,0,1,1.87,1.51c1.69,5,4.77,9.2,6.81,11.94l.57.77a2.22,2.22,0,0,1,0,2.62,2.3,2.3,0,0,1-.92.72l-.09,0-1.46.42.78,1.92a1.47,1.47,0,0,1-.81,2C176.35,203.41,172.1,204.84,169,204.84Zm-8.74-15.76a32.25,32.25,0,0,1,2,4.12c1,2.48,2.94,7,4.18,9.43.83,1.61,5.77,1,12.28-1.6a.15.15,0,0,0,.09-.08.15.15,0,0,0,0-.13l-1.07-2.63a.68.68,0,0,1,0-.54.69.69,0,0,1,.42-.35l2.12-.62a.91.91,0,0,0,.35-.28.87.87,0,0,0,0-1l-.56-.77c-2.09-2.81-5.25-7.05-7-12.31a.87.87,0,0,0-.74-.6,16.54,16.54,0,0,0-11.2,3.08A3.28,3.28,0,0,0,160.24,189.08Z"/><path class="cls-1" d="M158.87,199.49c-5.32,2.39-7.64-2.56-6.69-5.72a1.71,1.71,0,0,1,3-.51l4,5.24A.66.66,0,0,1,158.87,199.49Z"/><path d="M228,191a.64.64,0,0,1-.48-.21l-3.12-3.32a.67.67,0,0,1,1-.91l3.12,3.32A.67.67,0,0,1,228,191Z"/><path d="M217.12,179.35a.67.67,0,0,1-.49-.21l-3.12-3.32a.66.66,0,0,1,0-.94.66.66,0,0,1,.94,0l3.12,3.31a.68.68,0,0,1,0,.95A.66.66,0,0,1,217.12,179.35Z"/><path d="M225.15,179.72c-.37,0-.75-.32-.68-.95l3.55-3.23c.43-.39,1.23-.12,1.13.77l-3.55,3.23A.66.66,0,0,1,225.15,179.72Z"/><path d="M213.55,190.29c-.37,0-.75-.32-.68-.94l3.79-3.45c.89,0,1.09.81.66,1.2l-3.32,3A.63.63,0,0,1,213.55,190.29Z"/><path d="M195.07,564h0l-4.55-.15a.67.67,0,1,1,0-1.33l4.55.14a.67.67,0,0,1,0,1.34Z"/><path d="M179.14,563.53h0l-4.55-.15a.66.66,0,0,1-.64-.68.67.67,0,0,1,.69-.65l4.55.14a.67.67,0,0,1,0,1.34Z"/><path d="M185.09,558.11h0a.68.68,0,0,1-.64-.7l.21-4.48a.68.68,0,0,1,.7-.64.66.66,0,0,1,.63.7l-.2,4.48A.68.68,0,0,1,185.09,558.11Z"/><path d="M184.37,573.79h0a.67.67,0,0,1-.64-.7l.21-4.48a.67.67,0,1,1,1.33.06l-.21,4.48A.66.66,0,0,1,184.37,573.79Z"/><path d="M300.71,139.92h-.33a5.88,5.88,0,0,1,.63-11.74,5.88,5.88,0,0,1-.3,11.75Zm0-10.43a4.55,4.55,0,0,0-4.53,4.31,4.55,4.55,0,1,0,4.78-4.3Z"/><path d="M342.54,155c4.9-3.34,9.95,2.27,6.1,6.79h0C343.74,165.09,338.7,159.48,342.54,155Z"/><circle class="cls-1" cx="39.19" cy="241.22" r="5.25"/><path d="M39.2,247.14h-.32a5.92,5.92,0,1,1,6.22-5.59,5.92,5.92,0,0,1-5.9,5.6Zm0-10.5a4.58,4.58,0,1,0,3.07,8,4.53,4.53,0,0,0,1.51-3.16,4.58,4.58,0,0,0-4.33-4.82Z"/></svg>