<svg id="Capa_1" data-name="Capa 1" xmlns="http://www.w3.org/2000/svg" viewBox="0 0 352 330"><defs><style>.cls-1{fill:#fff;}</style></defs><polygon class="cls-1" points="130.5 217.63 123.98 284.36 119.33 284.16 121.64 214.01 130.5 217.63"/><path d="M124,284.78h0l-4.65-.19a.44.44,0,0,1-.41-.44L121.21,214a.42.42,0,0,1,.2-.34.39.39,0,0,1,.39,0l8.86,3.61a.45.45,0,0,1,.27.44l-6.52,66.73A.42.42,0,0,1,124,284.78Zm-4.2-1,3.81.16,6.45-66-8-3.26Z"/><polygon class="cls-1" points="43.09 215.23 49.45 284.52 54.26 284.16 51.95 211.48 43.09 215.23"/><path d="M49.45,285a.44.44,0,0,1-.43-.39l-6.35-69.29a.4.4,0,0,1,.26-.43l8.85-3.75a.44.44,0,0,1,.4,0,.46.46,0,0,1,.2.35l2.31,72.68a.43.43,0,0,1-.4.44l-4.81.36Zm-5.9-69.45,6.29,68.56,4-.3-2.28-71.64Z"/><polygon class="cls-1" points="20.96 198.93 22.83 271.69 26.58 270.87 30.02 195.47 20.96 198.93"/><path d="M22.83,272.11a.44.44,0,0,1-.27-.09.42.42,0,0,1-.16-.32l-1.87-72.76a.42.42,0,0,1,.27-.42l9.07-3.46a.43.43,0,0,1,.41.06.43.43,0,0,1,.17.37L27,270.89a.43.43,0,0,1-.34.4l-3.75.82Zm-1.44-72.89,1.85,71.94,2.93-.64,3.4-74.42Z"/><polygon class="cls-1" points="94.31 197.3 96.18 270.06 100.08 270.08 103.38 193.84 94.31 197.3"/><path class="cls-1" d="M75.46,140.47V157.4c0,16.56,13.06,30,29.17,30s29.17,13.43,29.17,30a2.67,2.67,0,0,1-2.67,2.67H53.92c-24.15,0-43.72-20.12-43.72-44.94V139a17.63,17.63,0,0,1,17.39-17.88h29A19.12,19.12,0,0,1,75.46,140.47Z"/><path d="M131.13,220.46H53.92c-24.34,0-44.15-20.35-44.15-45.37V139a18.09,18.09,0,0,1,17.82-18.31h29c10.63,0,19.28,8.89,19.28,19.81V157.4c0,16.3,12.89,29.55,28.74,29.55,16.32,0,29.6,13.65,29.6,30.41A3.1,3.1,0,0,1,131.13,220.46ZM27.59,121.52a17.23,17.23,0,0,0-17,17.45v36.12c0,24.55,19.42,44.51,43.29,44.51h77.21a2.24,2.24,0,0,0,2.24-2.24c0-16.29-12.89-29.55-28.74-29.55-16.32,0-29.6-13.64-29.6-30.41V140.47c0-10.45-8.26-19-18.42-19Z"/><path d="M2.72,108.88a5.77,5.77,0,0,1-2.88-2.51c-1-1.73-1.49-4.5.69-8.46,4.93-9,13.15-4.72,16.3-5.76,7.06-2.32,5.39-6.13,8.25-9.84,2.15-2.77,9.55-8,20.8,1.74,0,0,5,6.89,10.78,4.27,7-3.22,21.16,4.07,16.69,14.91a12.78,12.78,0,0,1-6.43,6.83,16.79,16.79,0,0,1-1.68.67,5.63,5.63,0,0,0-3.57,4.21c-1.44,6.6-6.88,19.34-27.08,6.52a5.05,5.05,0,0,0-4.9-.36c-1.94.9-4,4.39-13.38,2.92-6-1-7.9-7.93-9.48-11.11A8.19,8.19,0,0,0,2.72,108.88Z"/><path class="cls-1" d="M106.59,157.6c-8,2.48-23.16-4.41-25.76-16-2.06-9.17-5.27-13.82-6.52-15.35a11.37,11.37,0,0,0-2.41-2.88c-7.4-6.5-20.21-4.4-25.76-3.49-6.29,1-11.5,1.89-15,5.88A10.78,10.78,0,0,0,29,129.15h0c-6.77,12.75-1.28,25.91,2.1,32,.56,24.38-7.5,20.55-5.32,31.37,3.07,15.25,27.63,9.55,36.57,7.6,3.13-.68,19.54,4.19,23.56-8.47,2.34-7.39-2.11-10.8-6-23.37C100,180.78,115,159.45,115,159.45l1.55-7.48A28.65,28.65,0,0,1,106.59,157.6Z"/><path d="M43.23,203.22c-4.76,0-9.36-.75-12.75-3a11.49,11.49,0,0,1-5.09-7.66c-1-4.86,0-6.85,1.45-9.62,1.76-3.44,4.16-8.14,3.86-21.73-3.68-6.66-8.78-19.62-2.05-32.3a11.44,11.44,0,0,1,2.12-3.44c3.65-4.11,9.05-5,15.3-6,5.56-.91,18.56-3,26.11,3.59a12,12,0,0,1,2.49,3c1.31,1.63,4.52,6.34,6.58,15.51,1.12,5,4.88,9.63,10.32,12.77,5.14,3,11,4.1,14.89,2.88a28.62,28.62,0,0,0,9.77-5.53.43.43,0,0,1,.71.4l-1.55,7.47a.29.29,0,0,1-.07.16,37,37,0,0,1-10.11,9.23c-5.63,3.39-14.39,6.12-24.55.3a97.72,97.72,0,0,0,3.6,9.2c2.21,5,3.66,8.37,2.09,13.35-3.27,10.3-14.45,9.37-20.46,8.87a16.29,16.29,0,0,0-3.42-.11l-.56.13C57.46,201.63,50.17,203.22,43.23,203.22ZM29.38,129.39c-6.54,12.37-1.48,25.06,2.12,31.54a.36.36,0,0,1,.06.2c.32,13.88-2.15,18.71-4,22.24-1.38,2.71-2.29,4.5-1.37,9.06A10.68,10.68,0,0,0,31,199.54c8,5.25,23.4,1.89,30.78.28l.56-.12a15.52,15.52,0,0,1,3.67.08c6.18.52,16.51,1.38,19.57-8.27,1.48-4.67.15-7.71-2-12.75a94.06,94.06,0,0,1-4-10.36.44.44,0,0,1,.15-.47.44.44,0,0,1,.49,0c8.19,5.09,16.47,5.19,24.61.3a36.21,36.21,0,0,0,9.83-8.93l1.28-6.17a29,29,0,0,1-9.13,4.91c-4.12,1.29-10.24.13-15.58-3-5.65-3.26-9.56-8.11-10.73-13.33-2-9-5.17-13.62-6.43-15.17l0-.06a11.29,11.29,0,0,0-2.32-2.77c-7.25-6.37-20-4.28-25.41-3.38-6.34,1-11.35,1.86-14.79,5.74a10.27,10.27,0,0,0-2,3.22A.41.41,0,0,1,29.38,129.39Zm77.21,28.21Z"/><path class="cls-1" d="M71.47,155.61s14.49-5.29,19-14.94l9.33-8.7s-.14,4.21-2.91,6c0,0,2.38,4.79-1.13,8.09,0,0-2.63,2.09-4.2,2.13,0,0-4.59,15.09-17,19.58A22,22,0,0,1,71.47,155.61Z"/><path d="M74.59,168.16a.44.44,0,0,1-.36-.19A22.21,22.21,0,0,1,71,155.58a.43.43,0,0,1,.29-.38c.14,0,14.37-5.33,18.77-14.72a.41.41,0,0,1,.1-.13l9.32-8.69a.43.43,0,0,1,.47-.08.44.44,0,0,1,.26.41c0,.17-.17,4.15-2.8,6.09.48,1.21,1.76,5.3-1.37,8.25-.13.11-2.49,2-4.18,2.22-.71,2.09-5.64,15.41-17.17,19.59Zm-2.7-12.25a21.93,21.93,0,0,0,2.88,11.3c11.82-4.52,16.36-19,16.4-19.18a.45.45,0,0,1,.4-.31c1.17,0,3.25-1.48,4-2,3.2-3,1.1-7.39,1-7.57a.42.42,0,0,1,.15-.55,6.66,6.66,0,0,0,2.57-4.48l-8.41,7.83C86.55,150,74,155.12,71.89,155.91Z"/><path d="M58.41,172.53c-12.08,0-19-6-19.1-6.07a.43.43,0,1,1,.57-.64c.12.11,12.46,10.72,33,3.1a.44.44,0,0,1,.56.25.43.43,0,0,1-.26.55A42.17,42.17,0,0,1,58.41,172.53Z"/><path d="M65.82,156.19c-10.52,0-16.64-6-20-11.27a37.94,37.94,0,0,1-5-12.88.42.42,0,0,1,.35-.49.42.42,0,0,1,.49.36,37,37,0,0,0,4.9,12.57c5.14,8.07,12.6,11.67,22.17,10.7a.42.42,0,0,1,.47.38.41.41,0,0,1-.38.47A28.5,28.5,0,0,1,65.82,156.19Z"/><path d="M74,148.58h-.06a.44.44,0,0,1-.37-.49c1.9-12.94-4-20.26-4.08-20.33a.43.43,0,0,1,0-.6.44.44,0,0,1,.61,0c.25.31,6.23,7.67,4.27,21A.42.42,0,0,1,74,148.58Z"/><path class="cls-1" d="M71.31,112.23c-.41-2.7.24-9.85.12-9.67-1.15,1.69-5-.31-8.37-.45s-2.27,5-2.27,5-1-3.49-3.14-1.31c-1.24,1.27.13,2.9,1.4,4-.35.4-6.51,7-10.29,11l8.37,6.36,4.2-3.92-.86-1.36a3.25,3.25,0,0,1-.14-3.21l2.05-3.47a9.36,9.36,0,0,0,1.61,1.6,2.63,2.63,0,0,0,3.41-.28,9.71,9.71,0,0,0,2.67-4Z"/><path d="M57.13,127.56a.38.38,0,0,1-.25-.09l-8.38-6.36a.44.44,0,0,1-.17-.3.45.45,0,0,1,.12-.33c3.45-3.61,8.68-9.24,10-10.66a4.57,4.57,0,0,1-1.7-2.79,2,2,0,0,1,.6-1.52,2.13,2.13,0,0,1,2-.8,1.94,1.94,0,0,1,.81.47,4.28,4.28,0,0,1,.78-2.64,2.5,2.5,0,0,1,2.12-.86,22.47,22.47,0,0,1,3.84.64c1.93.44,3.6.83,4.17,0a.43.43,0,0,1,.49-.17c.34.11.34.11.23,2a55.41,55.41,0,0,0-.07,8,.43.43,0,0,1-.35.48l-1,.17a10.19,10.19,0,0,1-2.69,4,3.07,3.07,0,0,1-4,.32,8.63,8.63,0,0,1-1.3-1.22l-1.74,3a2.81,2.81,0,0,0,.14,2.76l.85,1.36a.44.44,0,0,1-.07.55l-4.19,3.91A.42.42,0,0,1,57.13,127.56Zm-7.73-6.84,7.71,5.85,3.66-3.43-.66-1.06a3.69,3.69,0,0,1-.16-3.64L62,115a.42.42,0,0,1,.33-.21.43.43,0,0,1,.37.15,8.68,8.68,0,0,0,1.53,1.53,2.2,2.2,0,0,0,2.87-.24,9.38,9.38,0,0,0,2.55-3.86A.39.39,0,0,1,70,112l.84-.15A63,63,0,0,1,71,104.1c0-.22,0-.44,0-.64-1,.44-2.55.09-4.26-.3a20.51,20.51,0,0,0-3.68-.62,1.68,1.68,0,0,0-1.43.55c-.83,1-.57,3.18-.4,3.93a.43.43,0,0,1-.84.22c-.11-.39-.57-1.53-1.22-1.7-.34-.08-.74.11-1.19.57a1.18,1.18,0,0,0-.37.88,4.2,4.2,0,0,0,1.74,2.47.46.46,0,0,1,.15.29.42.42,0,0,1-.11.32C59.05,110.43,53.28,116.66,49.4,120.72Z"/><path class="cls-1" d="M61.72,114.25l.66.92Z"/><path d="M62.38,115.59a.43.43,0,0,1-.35-.17l-.66-.92a.43.43,0,0,1,.7-.5l.66.92a.43.43,0,0,1-.1.59A.41.41,0,0,1,62.38,115.59Z"/><path class="cls-1" d="M134.52,250c-.09.34,3.92,18.7,3.92,18.7l-9.21-1.55-2.78-15.51Z"/><path d="M138.44,269.12h-.07l-9.22-1.54a.45.45,0,0,1-.35-.35L126,251.7a.42.42,0,0,1,.33-.49l8.07-1.64a.43.43,0,0,1,.39.12.41.41,0,0,1,.12.32c.07.76,2.38,11.51,3.92,18.58a.43.43,0,0,1-.11.39A.41.41,0,0,1,138.44,269.12Zm-8.85-2.35,8.3,1.39c-2.74-12.55-3.51-16.42-3.72-17.66L127,252Z"/><path class="cls-1" d="M133.55,262.67a3.91,3.91,0,0,1,2.39-1,3.83,3.83,0,0,1,3.6,2.32c1.6,3.55,5.81,13.45,7,21.54.42,2.86-1.73,5.18-5.09,3.31-5.51-3.07-13.16-10.12-17.16-20.53a3.81,3.81,0,0,1,.46-3.58,18.33,18.33,0,0,1,2.42-2.73,2.53,2.53,0,0,1,3.29,0l.86.71A1.74,1.74,0,0,0,133.55,262.67Z"/><path d="M143.72,290a5,5,0,0,1-2.48-.73c-5.77-3.21-13.35-10.35-17.35-20.75a4.19,4.19,0,0,1,.52-4,17.86,17.86,0,0,1,2.48-2.8,2.93,2.93,0,0,1,3.84-.06l.87.71a1.3,1.3,0,0,0,1.67,0,4.41,4.41,0,0,1,2.66-1.08,4.29,4.29,0,0,1,4,2.57c1.72,3.82,5.85,13.59,7,21.65a4,4,0,0,1-1.43,3.94A3.22,3.22,0,0,1,143.72,290Zm-14.88-28.15a2.06,2.06,0,0,0-1.38.53A17.15,17.15,0,0,0,125.1,265a3.32,3.32,0,0,0-.41,3.17c3.92,10.18,11.33,17.16,17,20.3,1.33.74,2.54.82,3.4.23a3.15,3.15,0,0,0,1.07-3.1c-1.17-8-5.27-17.64-7-21.43a3.44,3.44,0,0,0-3.19-2.07,3.54,3.54,0,0,0-2.13.88,2.16,2.16,0,0,1-2.78,0l-.86-.71A2.18,2.18,0,0,0,128.84,261.81Z"/><path d="M144.45,286.74c-.73,0-8.5-.45-17.93-19.08a.43.43,0,1,1,.77-.39c9.44,18.67,17.09,18.62,17.17,18.61a.42.42,0,0,1,.44.42.42.42,0,0,1-.41.44Z"/><path d="M138.55,276.49a.43.43,0,0,1-.4-.28.42.42,0,0,1,.24-.55l4.37-1.73a.44.44,0,0,1,.56.25.43.43,0,0,1-.25.55l-4.37,1.73A.4.4,0,0,1,138.55,276.49Z"/><path d="M137,273.14a.43.43,0,0,1-.16-.83l5.13-2a.42.42,0,1,1,.31.79l-5.13,2Z"/><path class="cls-1" d="M94.85,251.66c-.22.27-4.3,18.61-4.3,18.61L82.84,265l4-15.25Z"/><path d="M90.55,270.7a.44.44,0,0,1-.24-.07l-7.71-5.28a.44.44,0,0,1-.18-.46l4-15.25a.43.43,0,0,1,.51-.31l8,1.91a.42.42,0,0,1,.3.28.45.45,0,0,1,0,.34c-.27.72-2.68,11.43-4.26,18.51a.43.43,0,0,1-.42.33Zm-7.22-5.89,6.94,4.75C93.06,257,94,253.18,94.32,252l-7.17-1.7Z"/><path class="cls-1" d="M88.64,262.75a4,4,0,0,1,2.59.12,3.83,3.83,0,0,1,2.28,3.62c0,3.89-.37,14.65-2.69,22.49-.82,2.77-3.76,4-6,.86-3.71-5.1-7.68-14.71-6.93-25.84A3.77,3.77,0,0,1,79.78,261a17.73,17.73,0,0,1,3.35-1.46,2.52,2.52,0,0,1,3,1.33l.49,1A1.73,1.73,0,0,0,88.64,262.75Z"/><path d="M87.77,292.11a4.14,4.14,0,0,1-3.32-2c-3.88-5.34-7.76-15-7-26.12a4.15,4.15,0,0,1,2.14-3.4A18.51,18.51,0,0,1,83,259.08a2.94,2.94,0,0,1,3.52,1.56l.48,1a1.32,1.32,0,0,0,1.53.69,4.42,4.42,0,0,1,2.86.13,4.27,4.27,0,0,1,2.55,4c0,4.19-.4,14.79-2.71,22.61a4,4,0,0,1-3,3A2.59,2.59,0,0,1,87.77,292.11Zm-3.91-32.3a2.08,2.08,0,0,0-.6.09A17,17,0,0,0,80,261.33a3.33,3.33,0,0,0-1.7,2.7c-.73,10.89,3.07,20.34,6.86,25.56.89,1.23,1.95,1.81,3,1.63a3.13,3.13,0,0,0,2.28-2.37c2.28-7.71,2.63-18.21,2.68-22.37a3.42,3.42,0,0,0-2-3.21,3.49,3.49,0,0,0-2.31-.1A2.18,2.18,0,0,1,86.23,262l-.49-1A2.08,2.08,0,0,0,83.86,259.81Z"/><path d="M88.62,289.23a.51.51,0,0,1-.17,0c-.31-.13-7.54-3.42-8.28-24.87a.43.43,0,0,1,.41-.45.45.45,0,0,1,.45.42c.72,20.91,7.68,24.08,7.76,24.11A.42.42,0,0,1,89,289,.41.41,0,0,1,88.62,289.23Z"/><path d="M92.24,277.71h0l-4.69-.27a.43.43,0,0,1-.4-.45.41.41,0,0,1,.45-.4l4.69.27a.43.43,0,0,1,.41.45A.44.44,0,0,1,92.24,277.71Z"/><path d="M93.06,274.1h0l-5.49-.35a.42.42,0,0,1-.4-.45.43.43,0,0,1,.45-.41l5.49.35a.42.42,0,0,1,.4.45A.43.43,0,0,1,93.06,274.1Z"/><path d="M51.73,179.38s56.13-2.44,62.27,3.26c8.33,7.73,22.63,72.08,22.63,72.08l-13.81,3.87s-20.81-52.81-26-52.81-53.76-1.73-53.76-1.73Z"/><path d="M48,178A9.25,9.25,0,0,0,38.57,185c-1.61,6.69-3,15.84.61,18.27,5.89,4,48.35,3.63,46.88,3.13s-3.8,35.59-3.8,49.47l13.37.51s21.31-55.8,19-62c-4.11-11.15-35.74-13.7-45.86-15.19C67.42,179,55.88,178.37,48,178Z"/><path class="cls-1" d="M107.58,225.08a.32.32,0,0,1-.13,0,.43.43,0,0,1-.28-.54c.49-1.5,1-3,1.43-4.42,3.74-11.56,7-21.55,5.64-25.59-2.84-8.57-24.09-11.85-31.07-12.93a.43.43,0,0,1-.35-.49.41.41,0,0,1,.48-.36c12.34,1.91,29.06,5.38,31.75,13.51,1.43,4.31-1.69,13.93-5.63,26.12-.47,1.45-1,2.92-1.43,4.42A.43.43,0,0,1,107.58,225.08Z"/><polygon class="cls-1" points="230.54 207.73 237.06 274.45 241.71 274.26 239.4 204.11 230.54 207.73"/><path d="M237.06,274.88a.43.43,0,0,1-.43-.39l-6.51-66.72a.43.43,0,0,1,.26-.44l8.86-3.61a.42.42,0,0,1,.39,0,.46.46,0,0,1,.2.35l2.31,70.14a.43.43,0,0,1-.41.45l-4.65.19ZM231,208l6.45,66,3.82-.16L239,204.74Z"/><polygon class="cls-1" points="317.95 205.33 311.59 274.62 306.78 274.26 309.09 201.58 317.95 205.33"/><path d="M311.59,275.05h0l-4.81-.36a.45.45,0,0,1-.4-.45l2.31-72.67a.46.46,0,0,1,.2-.35.41.41,0,0,1,.4,0l8.86,3.74a.45.45,0,0,1,.26.44L312,274.66A.43.43,0,0,1,311.59,275.05Zm-4.37-1.19,4,.3,6.29-68.56-8-3.38Z"/><polygon class="cls-1" points="340.08 189.02 338.21 261.78 334.46 260.97 331.02 185.56 340.08 189.02"/><path d="M338.21,262.21h-.09l-3.75-.81a.44.44,0,0,1-.34-.4l-3.44-75.41a.4.4,0,0,1,.18-.36.41.41,0,0,1,.4-.06l9.07,3.46a.42.42,0,0,1,.27.41l-1.87,72.76a.42.42,0,0,1-.16.33A.44.44,0,0,1,338.21,262.21Zm-3.34-1.59,2.93.63,1.85-71.93-8.17-3.12Z"/><polygon class="cls-1" points="266.73 187.4 264.86 260.16 260.96 260.18 257.67 183.94 266.73 187.4"/><path d="M261,260.61a.43.43,0,0,1-.43-.41L257.24,184a.42.42,0,0,1,.17-.36.4.4,0,0,1,.41-.05l9.07,3.45a.42.42,0,0,1,.27.42l-1.87,72.76a.43.43,0,0,1-.43.42l-3.9,0Zm-2.84-76,3.25,75.18,3.07,0,1.86-72Z"/><path class="cls-1" d="M285.58,130.57V147.5c0,16.56-13.06,30-29.17,30s-29.17,13.42-29.17,30a2.67,2.67,0,0,0,2.67,2.67h77.21c24.15,0,43.73-20.12,43.73-44.94V129.06a17.64,17.64,0,0,0-17.4-17.87h-29A19.12,19.12,0,0,0,285.58,130.57Z"/><path d="M307.12,210.56H229.91a3.09,3.09,0,0,1-3.09-3.1c0-16.77,13.27-30.41,29.59-30.41,15.85,0,28.74-13.26,28.74-29.55V130.57c0-10.92,8.65-19.81,19.29-19.81h29a18.08,18.08,0,0,1,17.82,18.3v36.13C351.27,190.21,331.47,210.56,307.12,210.56Zm-2.68-98.94c-10.16,0-18.43,8.5-18.43,18.95V147.5c0,16.77-13.28,30.41-29.6,30.41-15.84,0-28.74,13.26-28.74,29.55a2.24,2.24,0,0,0,2.24,2.24h77.21c23.87,0,43.3-20,43.3-44.51V129.06a17.23,17.23,0,0,0-17-17.44Z"/><path class="cls-1" d="M280.07,131.37s-4.21,38.26-32.47,40.76l32.47.46s12-24.39,12.51-33.88S280.07,131.37,280.07,131.37Z"/><path d="M280.07,173h0l-32.47-.46a.43.43,0,0,1,0-.86c14.39-1.27,22.34-12.15,26.47-21a70,70,0,0,0,5.61-19.33.45.45,0,0,1,.36-.38c.29,0,7.26-1.16,10.9,2.09a6.8,6.8,0,0,1,2.11,5.7c-.49,9.47-12.06,33.05-12.56,34.05A.42.42,0,0,1,280.07,173Zm-27.74-1.25,27.47.39c1.25-2.57,11.9-24.68,12.35-33.48a6,6,0,0,0-1.82-5c-2.92-2.61-8.5-2.1-9.88-1.92A71.06,71.06,0,0,1,274.82,151C269.59,162.27,261.87,169.36,252.33,171.77Z"/><path d="M320.29,107.05c-5.48-1.29-7.77-1.3-27.7-.58-4.87.17-10.66,6.29-11.24,11.14,1.55,4.65,8.7,27.6-3.78,45.53a38.75,38.75,0,0,1-7.47,8,25.22,25.22,0,0,0,8.61,4.61c6.43,1.91,9.66-.16,14.84,0,13.71.41,18.73,15.69,27.59,13.77,2.36-.51,5.49-2.36,8.43-8.55a94.68,94.68,0,0,0,4-18,98.63,98.63,0,0,0-4.69-43.5C327.88,116.45,326.75,108.57,320.29,107.05Z"/><path d="M276.35,135.66s3.23-25.87,12.51-28.08l-2.13,34Z"/><path class="cls-1" d="M323.56,128.75l13.61,5.8v.17l-13.61-5.88Z"/><path d="M337.17,135.14l-.17,0-13.61-5.87a.44.44,0,0,1-.26-.38v-.09a.41.41,0,0,1,.18-.37.43.43,0,0,1,.41-.05c5.19,2.2,9.9,4.21,13.62,5.81a.43.43,0,0,1,.26.38v.17a.41.41,0,0,1-.19.36A.4.4,0,0,1,337.17,135.14Z"/><path d="M339.55,140.4s-.91-15.37-2.23-21.31c-2.79-12.49-19-12.62-19-12.62l2.82,31.79Z"/><path class="cls-1" d="M304.43,104.35l-.55-7.77-.7,0c-2.17,0-2.87-.72-3.06-2.51a13.49,13.49,0,0,1,.39-4.83,1.1,1.1,0,0,0,0-.67l-.38-.87a.79.79,0,0,1,.25-.78l.2-.16a7.86,7.86,0,0,0,1.77-2.08A8.06,8.06,0,0,1,304,82.29c1.43-.68,7.2-3.7,10.43,1.58,2.51,4.12-1.6,9.79-3.09,11.65-.36.45,2.44,9.26,2.44,9.26l3.62.87s-2.8,5-11.28,2.92c-6.05-1.47-5.09-3.72-5.09-3.72Z"/><path d="M310,109.5a16.71,16.71,0,0,1-4-.52c-2.87-.69-4.64-1.66-5.25-2.88a1.71,1.71,0,0,1-.13-1.42.43.43,0,0,1,.33-.25l3-.45-.5-7-.3,0c-2.32,0-3.26-.81-3.48-2.89a13.64,13.64,0,0,1,.39-5,.58.58,0,0,0,0-.39l-.37-.87s0,0,0-.06a1.19,1.19,0,0,1,.39-1.22l.2-.16a7.68,7.68,0,0,0,1.67-2l.19-.33a5.73,5.73,0,0,1,1.67-2.17l.15-.08c5-2.41,8.62-1.79,10.82,1.82,2.56,4.19-1.23,9.78-3.06,12.07a71.83,71.83,0,0,0,2.38,8.7l3.39.82a.42.42,0,0,1,.29.24.39.39,0,0,1,0,.38C317.65,106,315.63,109.5,310,109.5Zm-8.62-4.27a1,1,0,0,0,.15.52c.29.55,1.29,1.59,4.66,2.4,6.48,1.57,9.5-1.09,10.45-2.23l-3-.72a.43.43,0,0,1-.31-.29c-2.87-9-2.53-9.45-2.37-9.66,1.69-2.09,5.37-7.38,3.06-11.15-2.92-4.78-8-2.31-9.72-1.5l-.15.08a7.21,7.21,0,0,0-1.3,1.83l-.19.34A8.5,8.5,0,0,1,300.81,87l-.19.16a.35.35,0,0,0-.12.32l.36.83a1.47,1.47,0,0,1,.06,1,13.05,13.05,0,0,0-.37,4.68c.15,1.45.57,2.1,2.64,2.12l.72.05a.41.41,0,0,1,.4.4l.55,7.77a.42.42,0,0,1-.37.45Z"/><path d="M312.63,77.15c-1.57-.33-3.37-.09-4.13-.37-1.22-.45-1.25-1.92-2.95-2.34-2.05-.5-2.91.38-3.71,1.6a4,4,0,0,0-.35.69c-1.29,3.47.34,5.15,1.07,5.7,0,0,4.61,2.39,5.4,3.07A4.29,4.29,0,0,1,309,89.82a.66.66,0,0,0,.29.72.6.6,0,0,0,.82-.19c.6-.87,1.92-2.56,2.85-2.16,1.17.5.81,4-1.78,4.43a1.68,1.68,0,0,0-1.36,1.77,1.7,1.7,0,0,0,1.32,1.37,1.75,1.75,0,0,0,1.33-.34c1.69-1.08,6.45-5.65,7-9.75C320.24,80.73,314.71,77.6,312.63,77.15Z"/><path d="M303.3,96.93a.43.43,0,0,1,0-.86,5.2,5.2,0,0,0,2.8-1,.43.43,0,0,1,.56.66,6.13,6.13,0,0,1-3.32,1.24Z"/><path class="cls-1" d="M266.29,252.89c-.79-.8-5.35-15-5.35-15l-9,6.44,9.89,13.3Z"/><path d="M261.81,258.05h0a.44.44,0,0,1-.32-.17l-9.88-13.31a.4.4,0,0,1-.08-.32.42.42,0,0,1,.17-.28l9-6.44a.43.43,0,0,1,.38-.06.46.46,0,0,1,.28.28c1.73,5.39,4.68,14.18,5.25,14.84a.45.45,0,0,1,0,.59l-4.48,4.74A.46.46,0,0,1,261.81,258.05Zm-9.28-13.64L261.85,257l3.91-4.13c-1.07-2-4.07-11.23-5.05-14.26Z"/><path d="M250,270.86l6,0a11.78,11.78,0,0,0,9.82-5.37l5.93-9.4a5.28,5.28,0,0,0-2-7.48c-2.47-1.31-5.07-2.6-5.67-2.54-1.24.12-1.74,6-1.74,6l-5.34.21s-2.64,11-5,12.24a10.26,10.26,0,0,0-3.67,3.46A1.92,1.92,0,0,0,250,270.86Z"/><path class="cls-1" d="M250.64,269a.43.43,0,0,1-.42-.37.44.44,0,0,1,.36-.49l8.2-1.24a5.74,5.74,0,0,0,4.11-2.75L270.14,252a.43.43,0,0,1,.74.44l-7.25,12.13a6.62,6.62,0,0,1-4.72,3.16l-8.2,1.24Z"/><path class="cls-1" d="M260.77,259.83l-.11,0-4.57-1.24a.44.44,0,0,1-.31-.53.44.44,0,0,1,.53-.3l4.57,1.24a.44.44,0,0,1,.3.53A.43.43,0,0,1,260.77,259.83Z"/><path class="cls-1" d="M258.39,262.18h-.1l-3.07-.76a.41.41,0,0,1-.31-.51.43.43,0,0,1,.52-.32l3.06.75a.44.44,0,0,1,.32.52A.44.44,0,0,1,258.39,262.18Z"/><polygon class="cls-1" points="235.52 250.18 225.05 260.71 219.5 258.67 229.15 245.19 235.52 250.18"/><path d="M225.05,261.14l-.15,0-5.55-2a.43.43,0,0,1-.26-.28.41.41,0,0,1,.06-.37l9.65-13.48a.48.48,0,0,1,.29-.17.4.4,0,0,1,.33.09l6.37,5a.47.47,0,0,1,.16.31.45.45,0,0,1-.12.33L225.36,261A.48.48,0,0,1,225.05,261.14Zm-4.87-2.68,4.76,1.75,9.94-10-5.64-4.41Z"/><path class="cls-1" d="M290.94,172.43s-47.85-5.87-62.08,7.11,22.46,68.82,22.46,68.82l11.61-9.07-11-39.46,44.23-13.25Z"/><path d="M251.32,248.79h-.07a.47.47,0,0,1-.29-.19c-1.5-2.29-36.72-56.29-22.39-69.38S289,171.76,291,172a.43.43,0,0,1,.35.28l5.21,14.16a.4.4,0,0,1,0,.34.49.49,0,0,1-.27.22l-43.82,13.12,10.89,39.06a.41.41,0,0,1-.15.45l-11.6,9.07A.44.44,0,0,1,251.32,248.79Zm16-77.23c-14.17,0-30.85,1.59-38.2,8.3-13.18,12,19.06,62.88,22.28,67.88l11-8.61-10.93-39.19a.41.41,0,0,1,.29-.52l43.79-13.12-5-13.48A224.92,224.92,0,0,0,267.35,171.56Z"/><path class="cls-1" d="M317.27,198.13c-6.95,2.32-19.38,5.33-36.76,5.08a12.92,12.92,0,0,0-11.75,7.45c-5.15,10.64-16.29,29.81-34.44,42.23L225.65,248l22.13-52.51a18.8,18.8,0,0,1,10.47-10.32l43.85-17s13.6-4,20.26,8.79c1.2,2.29,3.41-1.8,3.93,0C328.1,183.33,323.24,196.13,317.27,198.13Z"/><path d="M234.32,253.32a.39.39,0,0,1-.21-.06l-8.67-4.92a.44.44,0,0,1-.19-.54l22.13-52.51a19.3,19.3,0,0,1,10.71-10.56l43.86-17c.17-.05,14-4,20.8,9,.14.27.29.43.45.47.35.09.87-.26,1.33-.57s1.07-.72,1.57-.53a1,1,0,0,1,.61.75c1.83,6.43-3.07,19.56-9.3,21.65l-.14-.41.14.41c-7.37,2.46-19.75,5.35-36.91,5.1h-.18a12.41,12.41,0,0,0-11.17,7.2c-5.06,10.46-16.28,29.87-34.59,42.4A.43.43,0,0,1,234.32,253.32Zm-8.13-5.54,8.11,4.6c18-12.42,29.08-31.57,34.08-41.91a13.42,13.42,0,0,1,12.13-7.69c17,.25,29.33-2.61,36.63-5.06,5.76-1.93,10.45-14.61,8.74-20.59a.39.39,0,0,0-.09-.2,2.91,2.91,0,0,0-.78.45,2.67,2.67,0,0,1-2,.69,1.64,1.64,0,0,1-1-.91c-6.42-12.32-19.22-8.73-19.76-8.57L258.4,185.53a18.48,18.48,0,0,0-10.23,10.09Z"/><path d="M228.36,259.06a30.08,30.08,0,0,1-.35,8.44,4.62,4.62,0,0,1-4.52,3.6H197.8a2,2,0,0,1-1.26-3.48c4.57-3.83,13-9.68,23.3-11.4l2.89,4Z"/><path class="cls-1" d="M225.65,268H199a.43.43,0,1,1,0-.86h26.63a.43.43,0,1,1,0,.86Z"/><path class="cls-1" d="M213.88,263.25a.44.44,0,0,1-.4-.26l-1.41-3.43a.43.43,0,0,1,.8-.32l1.41,3.42a.43.43,0,0,1-.24.56A.45.45,0,0,1,213.88,263.25Z"/><path class="cls-1" d="M209.24,264.15a.42.42,0,0,1-.4-.29l-1-3.09a.43.43,0,0,1,.81-.27l1,3.09a.43.43,0,0,1-.27.54Z"/><path class="cls-1" d="M325.94,137.42c-4.66,17-18.52,27.84-38.62,33.55l3.06,5.73c27.93-1,42.58-13.12,48.44-36.42Z"/><path d="M290.38,177.13a.42.42,0,0,1-.37-.23l-3.07-5.72a.44.44,0,0,1,0-.37.46.46,0,0,1,.28-.25c21-6,33.91-17.16,38.33-33.25A.43.43,0,0,1,326,137l12.87,2.87a.4.4,0,0,1,.27.19.43.43,0,0,1,.05.33c-6.06,24.11-21.57,35.78-48.83,36.74ZM288,171.24l2.69,5c26.49-1,41.64-12.34,47.65-35.65l-12-2.68C321.68,154,308.8,165.19,288,171.24Z"/><path class="cls-1" d="M292.09,170.5a2.48,2.48,0,0,0-1.35-1.2,11.4,11.4,0,0,1-1.23-.57l-5.47-2.9c-1-.5-2.49.67-3.55,1-3.21,1.05-9.86,3.54-9.31,5.87.59,2.52,6.3,1.33,8.33.82.46-.12,4.66,1.4,6,1.5a4.33,4.33,0,0,0,3.15-.8,2.93,2.93,0,0,1,1.36-.31A2.5,2.5,0,0,0,292,173v0a2.1,2.1,0,0,0,.24-2.29Z"/><path d="M286.1,175.5l-.64,0a24,24,0,0,1-3.54-.89,18.32,18.32,0,0,0-2.35-.62c-2.11.53-6,1.27-7.84.16a2.07,2.07,0,0,1-1-1.3c-.58-2.48,4.9-4.84,9.59-6.38a6.67,6.67,0,0,0,1-.44c.94-.47,2-1,2.9-.55l5.48,2.91a8.61,8.61,0,0,0,1.18.53,2.89,2.89,0,0,1,1.58,1.42l.11.21a2.57,2.57,0,0,1-.28,2.75,2.93,2.93,0,0,1-2.29,1.09,2.48,2.48,0,0,0-1.16.26l-.39.22A4.1,4.1,0,0,1,286.1,175.5Zm-6.52-2.4a13.69,13.69,0,0,1,2.58.66,22.75,22.75,0,0,0,3.37.85,3.49,3.49,0,0,0,2.51-.52l.41-.23a3.37,3.37,0,0,1,1.55-.36,2.07,2.07,0,0,0,1.62-.75,1.69,1.69,0,0,0,.19-1.84l-.1-.21a2,2,0,0,0-1.11-1,9.89,9.89,0,0,1-1.29-.59l-5.47-2.9c-.51-.25-1.37.18-2.12.56a10.13,10.13,0,0,1-1.1.49c-5.89,1.93-9.34,4-9,5.36a1.15,1.15,0,0,0,.58.76c1.13.69,3.83.59,7.23-.26Z"/><path class="cls-1" d="M87.81,178.17H302.7c4,0,7.11,2.64,6.66,5.64l-14.84,98.45H283.81l9.28-92.4c.17-1.62-1.54-3-3.7-3H104.93c-3.23,0-5.78,2.08-5.54,4.51l9.2,91.48H97.88L82.78,182.43C82.44,180.16,84.79,178.17,87.81,178.17Z"/><path d="M108.59,283.26H97.88a.42.42,0,0,1-.43-.36L82.36,182.49a3.53,3.53,0,0,1,.88-2.85,6,6,0,0,1,4.57-1.89H302.7a7.86,7.86,0,0,1,5.95,2.45,4.57,4.57,0,0,1,1.13,3.68l-14.84,98.44a.43.43,0,0,1-.42.37H283.81a.42.42,0,0,1-.32-.14.45.45,0,0,1-.11-.34l9.29-92.39a1.91,1.91,0,0,0-.53-1.46,3.71,3.71,0,0,0-2.75-1.08H104.93a5.78,5.78,0,0,0-4.27,1.69,3,3,0,0,0-.84,2.35l9.2,91.47a.44.44,0,0,1-.11.33A.43.43,0,0,1,108.59,283.26Zm-10.35-.85h9.88L99,191.4a3.87,3.87,0,0,1,1-3,6.69,6.69,0,0,1,4.91-2H289.39a4.62,4.62,0,0,1,3.39,1.36,2.76,2.76,0,0,1,.74,2.13l-9.24,91.92h9.87l14.78-98.08a3.67,3.67,0,0,0-.93-3,7,7,0,0,0-5.3-2.16H87.81a5.17,5.17,0,0,0-3.92,1.6,2.63,2.63,0,0,0-.68,2.16Z"/><path class="cls-1" d="M266.17,175l-11.55-34a3.78,3.78,0,0,0-3.19-1.71H220.65a1.9,1.9,0,0,0-1.84,2.55c.18.48.37.95.53,1.43l10.44,31.83h0a3.42,3.42,0,0,0,3.42,3.35H290a3.42,3.42,0,0,0,3.42-3.42Z"/><path d="M290,178.87H233.2a3.86,3.86,0,0,1-3.84-3.7L218.94,143.4c-.11-.34-.25-.68-.38-1l-.15-.41a2.28,2.28,0,0,1,.26-2.11,2.37,2.37,0,0,1,2-1h30.78a4.19,4.19,0,0,1,3.55,1.91.41.41,0,0,1,.05.09l11.45,33.74h26.94a.44.44,0,0,1,.43.43A3.85,3.85,0,0,1,290,178.87Zm-59.83-4a.39.39,0,0,1,0,.18,3,3,0,0,0,3,2.94H290a3,3,0,0,0,3-2.57H266.17a.41.41,0,0,1-.4-.29l-11.53-34a3.38,3.38,0,0,0-2.81-1.47H220.65a1.53,1.53,0,0,0-1.27.65,1.42,1.42,0,0,0-.17,1.32l.15.4q.21.51.39,1Z"/><path d="M243.29,156.72a2.39,2.39,0,1,1-3-1.92A2.57,2.57,0,0,1,243.29,156.72Z"/><path class="cls-1" d="M81,175.58h62.42a0,0,0,0,1,0,0v1.71a1.64,1.64,0,0,1-1.64,1.64H82.59A1.64,1.64,0,0,1,81,177.3v-1.71A0,0,0,0,1,81,175.58Z"/><path d="M140.56,179.36H83.76a3.24,3.24,0,0,1-3.23-3.24v-.54a.42.42,0,0,1,.42-.43h62.42a.43.43,0,0,1,.43.43v.54A3.24,3.24,0,0,1,140.56,179.36ZM81.38,176v.11a2.38,2.38,0,0,0,2.38,2.38h56.8a2.38,2.38,0,0,0,2.38-2.38V176Z"/><path class="cls-1" d="M143.37,175.64H107.66L119,142.24a3.71,3.71,0,0,1,3.13-1.68h30.19a1.88,1.88,0,0,1,1.81,2.5c-.18.47-.37.93-.53,1.41Z"/><path d="M143.37,176.07H107.66a.44.44,0,0,1-.35-.18.44.44,0,0,1-.06-.39l11.35-33.4a.41.41,0,0,1,.05-.09,4.12,4.12,0,0,1,3.49-1.88h30.19a2.35,2.35,0,0,1,1.95,1,2.27,2.27,0,0,1,.26,2.08l-.16.4c-.12.32-.25.65-.36,1l-10.24,31.18A.43.43,0,0,1,143.37,176.07Zm-35.11-.86h34.8l10.14-30.88c.12-.35.25-.69.38-1l.15-.39a1.39,1.39,0,0,0-.16-1.28,1.47,1.47,0,0,0-1.24-.64H122.14a3.3,3.3,0,0,0-2.75,1.44Z"/><path d="M130.12,157.65a2.35,2.35,0,1,0,3-1.89A2.51,2.51,0,0,0,130.12,157.65Z"/><path class="cls-1" d="M339.57,284.43H281.08a5.54,5.54,0,0,1-5.43-6.66l8.87-43.13a7.81,7.81,0,0,1,7.65-6.24h50.16Z"/><path d="M339.57,284.86H281.08a6,6,0,0,1-5.85-7.18l8.87-43.13a8.27,8.27,0,0,1,8.07-6.57h50.16a.4.4,0,0,1,.31.13.41.41,0,0,1,.12.32l-2.76,56A.44.44,0,0,1,339.57,284.86Zm-47.4-56a7.41,7.41,0,0,0-7.23,5.89l-8.87,43.13a5.12,5.12,0,0,0,5,6.15h58.08l2.72-55.17Z"/><path class="cls-1" d="M347.05,284.43H335.71a5.54,5.54,0,0,1-5.43-6.66l9.77-47.51a2.32,2.32,0,0,1,2.27-1.86h2.92a2.33,2.33,0,0,1,2.32,2.14l4,49A4.52,4.52,0,0,1,347.05,284.43Z"/><path d="M347.05,284.86H335.71a6,6,0,0,1-5.86-7.18l9.78-47.51a2.75,2.75,0,0,1,2.69-2.19h2.92A2.77,2.77,0,0,1,348,230.5l4,49a5,5,0,0,1-4.93,5.35Zm-4.73-56a1.9,1.9,0,0,0-1.85,1.52l-9.77,47.5a5.11,5.11,0,0,0,5,6.15h11.34a4.09,4.09,0,0,0,4.08-4.42l-4-49a1.91,1.91,0,0,0-1.89-1.74Z"/><path d="M331.6,251.48H285.81a.43.43,0,0,1-.43-.43.43.43,0,0,1,.43-.43H331.6a2.49,2.49,0,0,0,2.43-1.93l4-17a.41.41,0,0,1,.51-.31.42.42,0,0,1,.32.51l-4,17A3.36,3.36,0,0,1,331.6,251.48Z"/><path class="cls-1" d="M313.92,251.05l-1.28,5.17a1.94,1.94,0,0,1-1.89,1.49h-9.07a1.49,1.49,0,0,1-1.43-1.89l1.32-4.77Z"/><path d="M310.75,258.14h-9.07a1.9,1.9,0,0,1-1.53-.76,1.92,1.92,0,0,1-.32-1.67l1.33-4.78a.43.43,0,0,1,.41-.31h12.35a.43.43,0,0,1,.34.16.45.45,0,0,1,.08.37l-1.28,5.17A2.37,2.37,0,0,1,310.75,258.14Zm-8.85-6.66-1.24,4.46a1,1,0,0,0,.18.92,1,1,0,0,0,.84.42h9.07a1.49,1.49,0,0,0,1.47-1.16l1.16-4.64Z"/><path d="M327.42,280.52H278.77a.43.43,0,1,1,0-.85h48.65a.43.43,0,1,1,0,.85Z"/><path d="M303.72,226.45h-3.79a1.85,1.85,0,0,0-1.86,1.85h7.51A1.85,1.85,0,0,0,303.72,226.45Z"/><path d="M305.58,228.73h-7.51a.43.43,0,0,1-.43-.43,2.28,2.28,0,0,1,2.29-2.28h3.79A2.29,2.29,0,0,1,306,228.3.43.43,0,0,1,305.58,228.73Zm-7-.85h6.53a1.44,1.44,0,0,0-1.37-1h-3.79A1.44,1.44,0,0,0,298.56,227.88Z"/><path d="M334.16,226.45h-3.8a1.85,1.85,0,0,0-1.86,1.85H336A1.85,1.85,0,0,0,334.16,226.45Z"/><path d="M336,228.73H328.5a.43.43,0,0,1-.43-.43,2.29,2.29,0,0,1,2.29-2.28h3.8a2.28,2.28,0,0,1,2.28,2.28A.43.43,0,0,1,336,228.73Zm-7-.85h6.52a1.43,1.43,0,0,0-1.36-1h-3.8A1.42,1.42,0,0,0,329,227.88Z"/><path class="cls-1" d="M333.16,226.35l.62-3.64a3.84,3.84,0,0,0-3.88-4.66H307.12a5.75,5.75,0,0,0-5.45,4.66l-.61,3.64h1.74l.48-2.83a4.47,4.47,0,0,1,4.24-3.63h21.36a3,3,0,0,1,3,3.63l-.48,2.83Z"/><path d="M333.16,226.78h-1.74a.45.45,0,0,1-.33-.16.41.41,0,0,1-.09-.34l.48-2.83a2.71,2.71,0,0,0-.56-2.24,2.59,2.59,0,0,0-2-.9H307.52a4,4,0,0,0-3.82,3.28l-.47,2.83a.45.45,0,0,1-.43.36h-1.74a.42.42,0,0,1-.33-.16.41.41,0,0,1-.09-.34l.61-3.64a6.2,6.2,0,0,1,5.87-5H329.9a4.32,4.32,0,0,1,3.37,1.49,4.45,4.45,0,0,1,.93,3.67l-.61,3.64A.45.45,0,0,1,333.16,226.78Zm-1.23-.86h.87l.55-3.28a3.6,3.6,0,0,0-.73-3,3.49,3.49,0,0,0-2.72-1.2H307.12a5.32,5.32,0,0,0-5,4.31l-.52,3.14h.87l.42-2.47a4.92,4.92,0,0,1,4.66-4h21.36a3.45,3.45,0,0,1,2.7,1.19,3.56,3.56,0,0,1,.74,2.94Z"/><path d="M328.76,216.54h-20a1.79,1.79,0,0,0-1.7,1.46l-.3,1.75a1.21,1.21,0,0,0,1.22,1.46h20a1.8,1.8,0,0,0,1.7-1.46L330,218A1.21,1.21,0,0,0,328.76,216.54Z"/><path d="M328,221.64H308a1.64,1.64,0,0,1-1.64-2l.29-1.75a2.23,2.23,0,0,1,2.13-1.82h20a1.66,1.66,0,0,1,1.29.57,1.7,1.7,0,0,1,.35,1.39l-.29,1.75A2.22,2.22,0,0,1,328,221.64ZM308.76,217a1.37,1.37,0,0,0-1.28,1.1l-.29,1.75a.77.77,0,0,0,.79,1h20a1.38,1.38,0,0,0,1.28-1.1l.29-1.75a.82.82,0,0,0-.16-.69.79.79,0,0,0-.63-.27Z"/><path d="M335.6,280.52a.4.4,0,0,1-.37-.21.43.43,0,0,1,.16-.59l7.62-4.34V231.75a.43.43,0,0,1,.43-.43.44.44,0,0,1,.43.43v43.88a.45.45,0,0,1-.22.37l-7.84,4.47A.41.41,0,0,1,335.6,280.52Z"/></svg>