<svg id="Capa_1" data-name="Capa 1" xmlns="http://www.w3.org/2000/svg" viewBox="0 0 352 330"><defs><style>.cls-1{fill:#fff;}</style></defs><path d="M217.5,182.62l-43.16-6.45c-.28,0-.37.26-.37.51V213.4c0,3.51-24.52,12.65-24.76,12.18l0,3.89a1.42,1.42,0,0,0,1.45,1.36h.55l36.18,6.72a12.58,12.58,0,0,0,4.86-1l19.89-8.38a9.12,9.12,0,0,0,5.84-8.28V183.13A.48.48,0,0,0,217.5,182.62Z"/><path class="cls-1" d="M169.6,174v36.72a9.38,9.38,0,0,1-6,8.48L150.19,225a.81.81,0,0,0,.4,1.55l36.87,6.71a12.4,12.4,0,0,0,4.79-.95L207.12,226a9.4,9.4,0,0,0,6-8.51V180.75a.29.29,0,0,0-.3-.27l-43-6.72A.3.3,0,0,0,169.6,174Z"/><path d="M187.46,233.6h-.07l-36.84-6.71a1.22,1.22,0,0,1-1.22-1,1.15,1.15,0,0,1,.72-1.29l13.42-5.73a9.06,9.06,0,0,0,5.77-8.14V174a.65.65,0,0,1,.67-.64H170l42.93,6.72a.65.65,0,0,1,.64.63v36.76a9.78,9.78,0,0,1-6.27,8.84l-14.87,6.26A12.73,12.73,0,0,1,187.46,233.6ZM170,174.14v36.62a9.81,9.81,0,0,1-6.21,8.82l-13.42,5.72a.41.41,0,0,0-.29.47.49.49,0,0,0,.54.38h.06l36.84,6.71a12.29,12.29,0,0,0,4.62-.93L207,225.68a9.07,9.07,0,0,0,5.82-8.17V180.84Z"/><path d="M284.58,212.05l-4.82,4.49-178.5-30.89L103.18,70.1,109,67a5.41,5.41,0,0,1,3.47-.54L281.84,97a5.33,5.33,0,0,1,4.39,5.25l0,105.87A5.33,5.33,0,0,1,284.58,212.05Z"/><path class="cls-1" d="M275.63,217.18,104.76,186.33a4.46,4.46,0,0,1-3.66-4.39V74.51a4.46,4.46,0,0,1,5.25-4.39L277.22,101a4.45,4.45,0,0,1,3.66,4.39V212.79A4.46,4.46,0,0,1,275.63,217.18Z"/><path d="M276.43,217.62a4.91,4.91,0,0,1-.86-.08L104.7,186.69a4.83,4.83,0,0,1-4-4.75V74.51a4.83,4.83,0,0,1,5.69-4.75l170.86,30.86a4.82,4.82,0,0,1,4,4.75V212.79a4.84,4.84,0,0,1-4.82,4.83Zm-.73-.8a4.1,4.1,0,0,0,4.82-4V105.37a4.09,4.09,0,0,0-3.37-4L106.29,70.48a4.1,4.1,0,0,0-4.83,4V181.94a4.1,4.1,0,0,0,3.37,4Z"/><path class="cls-1" d="M248.44,192.78l-118-21.3a1.49,1.49,0,0,1-1.22-1.46V94.66A1.49,1.49,0,0,1,131,93.2l118,21.31a1.48,1.48,0,0,1,1.22,1.46v75.35A1.48,1.48,0,0,1,248.44,192.78Z"/><path d="M248.71,193.17a2,2,0,0,1-.34,0l-118-21.3a1.85,1.85,0,0,1-1.52-1.82V94.66a1.86,1.86,0,0,1,.66-1.42,1.88,1.88,0,0,1,1.52-.4l118,21.31a1.85,1.85,0,0,1,1.52,1.82v75.35a1.84,1.84,0,0,1-1.84,1.85Zm-.21-.75a1.12,1.12,0,0,0,.92-.24,1.09,1.09,0,0,0,.4-.86V116a1.11,1.11,0,0,0-.92-1.1l-118-21.31a1.1,1.1,0,0,0-.92.25,1.08,1.08,0,0,0-.4.85V170a1.11,1.11,0,0,0,.92,1.1Z"/><path d="M240.31,131.57h-.07L138.82,113.25a.35.35,0,0,1-.29-.42.36.36,0,0,1,.42-.3l101.42,18.32a.36.36,0,0,1-.06.72Z"/><path d="M227.48,136.55h-.06l-88.6-16a.35.35,0,0,1-.29-.42.36.36,0,0,1,.42-.3l88.6,16a.36.36,0,0,1,.29.42A.37.37,0,0,1,227.48,136.55Z"/><path d="M240.31,146.15h-.07L139.12,127.92a.36.36,0,0,1-.3-.42.38.38,0,0,1,.43-.3l101.12,18.22a.38.38,0,0,1,.3.43A.36.36,0,0,1,240.31,146.15Z"/><path d="M240.31,153.44h-.07l-28.63-5.17a.36.36,0,0,1-.3-.42.37.37,0,0,1,.43-.3l28.63,5.17a.38.38,0,0,1,.3.43A.37.37,0,0,1,240.31,153.44Z"/><path d="M180.08,142.56H180l-41.2-7.44a.36.36,0,0,1-.29-.43.36.36,0,0,1,.42-.29l41.2,7.44a.35.35,0,0,1,.29.42A.36.36,0,0,1,180.08,142.56Z"/><path d="M240.31,160.73h-.07l-20.15-3.64a.36.36,0,0,1-.3-.42.38.38,0,0,1,.43-.3L240.37,160a.38.38,0,0,1,.3.43A.37.37,0,0,1,240.31,160.73Z"/><path d="M201.66,153.75h-.07l-62.77-11.33a.36.36,0,0,1-.29-.43.35.35,0,0,1,.42-.29L201.72,153a.37.37,0,0,1-.06.73Z"/><path d="M240.31,168h-.07L138.46,149.54a.35.35,0,0,1-.29-.42.36.36,0,0,1,.42-.3l101.78,18.47a.37.37,0,0,1-.06.73Z"/><path d="M218.9,171.44h-.06l-80-14.44a.36.36,0,0,1-.29-.43.35.35,0,0,1,.42-.29l80,14.44a.37.37,0,0,1,.29.43A.37.37,0,0,1,218.9,171.44Z"/><ellipse class="cls-1" cx="240.41" cy="246.24" rx="15.32" ry="8.95" transform="translate(-55.38 70.35) rotate(-14.95)"/><path d="M236.4,256.11c-5.65,0-10.17-2.17-11.14-5.82-.66-2.44.34-5.15,2.79-7.62a22.14,22.14,0,0,1,10-5.42c8.35-2.23,16.23,0,17.55,4.95s-4.4,10.81-12.75,13A25,25,0,0,1,236.4,256.11Zm8.07-19a24.45,24.45,0,0,0-6.28.85,21.52,21.52,0,0,0-9.62,5.23c-2.26,2.28-3.19,4.74-2.61,6.92,1.22,4.57,8.7,6.56,16.66,4.43s13.45-7.57,12.23-12.14C254,239.06,249.76,237.1,244.47,237.1Z"/><path class="cls-1" d="M229,251.56a6.72,6.72,0,0,1,3.23-1.35c3.63-.47,4.21-.85,11.49-4.47,5.45-2.7,11.75.57,15-4,1.87-2.67-6.64-13.06-19.93-10.05-7.56,1.71-6.49,5.54-16.42,11.41,0,0-40.92,25.56-49.48,17.19C163.36,251,155,236.41,155,236.41l-24.73,29.92s31.27,21.41,50,20.61C191.17,286.48,229,251.56,229,251.56Z"/><path d="M179.21,287.33c-18.72,0-48.86-20.48-49.16-20.7a.34.34,0,0,1-.16-.25.4.4,0,0,1,.08-.28l24.73-29.92a.32.32,0,0,1,.31-.13.35.35,0,0,1,.29.18c.08.14,8.46,14.62,17.81,23.77,8.25,8.07,48.62-17,49-17.24a38.38,38.38,0,0,0,8.5-6.68c2.21-2.22,3.81-3.82,8-4.78,10.38-2.35,17.3,3.24,19.51,6.52,1.12,1.68,1.42,3.21.8,4.1-1.94,2.77-4.91,2.84-8.06,2.91-2.34.06-4.77.11-7,1.24l-1.4.7c-6,3-6.76,3.36-10.2,3.8a6.37,6.37,0,0,0-3,1.27c-1.7,1.57-38.07,35-49,35.47Zm-48.42-21.07c3.35,2.23,31,20.33,48.4,20.34l1,0c10.69-.46,48.17-34.94,48.54-35.28l0,0a6.87,6.87,0,0,1,3.4-1.43c3.32-.43,3.95-.74,10-3.74l1.41-.7c2.41-1.2,4.92-1.25,7.34-1.31,3.09-.07,5.76-.13,7.48-2.6.43-.61.11-1.9-.81-3.27-2.11-3.14-8.74-8.48-18.74-6.22-4,.91-5.55,2.45-7.67,4.58a39,39,0,0,1-8.64,6.8c-1.43.89-30.46,18.9-44.33,18.91-2.39,0-4.32-.54-5.59-1.78-8.49-8.3-16.16-20.93-17.67-23.48Z"/><path d="M114.06,190.81c-14.1-4.57-37.18-8-46.42-6.84-10.27,1.26-21.87,12.72-14.25,58.61,1.49,9,2.6,17.11,4.19,24.3a104.4,104.4,0,0,0,39,34.29c7.42,3.81,37.78,12.59,73.88,14.89-16.09-16.86-21.11-30.53-22.38-34.85a.79.79,0,0,1,1-1l1.78.59a3.45,3.45,0,0,0,4-1.39c4.39-6.8,16.62-27.72,10.8-42C163.77,233,138.42,198.69,114.06,190.81Z"/><path class="cls-1" d="M114.71,139.18s3.38,5.06,3.59,9.25a17,17,0,0,0,3.24,8.51.9.9,0,0,1-.15,1.19l-2.6,2.32a.82.82,0,0,0-.28.62c0,1.48-.06,6.93-.23,8a4.1,4.1,0,0,1-1.63,2.48c-1.24.67-6.63,0-6.63,0s-1.44.14-4.27,7.8c-3.06,8.28,3.28,11.41,3.28,11.41,2.38,1.24,2.43,2.44-.15,3.27-8.88,2.83-27.26,4.9-36.53-5.52a1.09,1.09,0,0,1,.51-1.77c23.57-6.95,12.34-27,12.83-27.12,1.28-.34,8.6-8.05,12.89-10.25,2.92-1.49,6.47.67,8.85-1.59Z"/><path d="M93.58,196.62c-7.79,0-16.12-1.89-21.51-7.93a1.46,1.46,0,0,1,.68-2.37c6.64-2,11.1-5.15,13.28-9.5,3.23-6.45.5-13.79-.4-16.2-.31-.85-.38-1-.27-1.23a.38.38,0,0,1,.24-.19A27.92,27.92,0,0,0,89.46,156c2.84-2.55,6.38-5.73,9-7a8.33,8.33,0,0,1,4.39-.57c1.63.08,3.18.16,4.36-.95l7.27-8.52a.42.42,0,0,1,.3-.13.35.35,0,0,1,.28.17c.14.21,3.44,5.19,3.65,9.43a16.73,16.73,0,0,0,3.17,8.32,1.26,1.26,0,0,1-.19,1.67L119,160.72a.48.48,0,0,0-.16.35c0,1.62-.05,7-.23,8a4.45,4.45,0,0,1-1.81,2.74c-1.26.68-5.9.14-6.77,0-.24.12-1.58,1.08-4,7.55-2.9,7.86,2.86,10.83,3.11,11,1.4.73,2,1.45,2,2.2s-.78,1.3-2.19,1.74A52.92,52.92,0,0,1,93.58,196.62ZM86.1,159.77c.05.16.14.38.22.59.92,2.49,3.73,10,.36,16.79C84.41,181.68,79.8,185,73,187a.69.69,0,0,0-.49.5.7.7,0,0,0,.15.68c9.29,10.43,27.71,8.1,36.15,5.41,1.47-.47,1.67-.94,1.68-1.11s-.11-.72-1.59-1.49c-.06,0-6.59-3.37-3.45-11.85,2.7-7.32,4.19-8,4.58-8h.08c2,.26,5.58.5,6.41,0a3.71,3.71,0,0,0,1.44-2.21c.13-.78.2-4.59.22-7.89a1.19,1.19,0,0,1,.41-.89l2.6-2.32a.54.54,0,0,0,.09-.71,17.45,17.45,0,0,1-3.31-8.7c-.17-3.36-2.48-7.38-3.26-8.66l-7,8.16,0,0c-1.41,1.35-3.2,1.26-4.92,1.17a7.79,7.79,0,0,0-4,.49c-2.49,1.27-6,4.41-8.8,6.93A33.72,33.72,0,0,1,86.1,159.77Z"/><path d="M121.31,156.69a.38.38,0,0,1-.37-.34.37.37,0,0,1,.34-.39,2.44,2.44,0,0,0,1.88-1c1.37-1.79.92-5.44.73-6.57l-18.44,2.89a.36.36,0,1,1-.12-.72l18.81-2.95a.36.36,0,0,1,.41.29c0,.2,1,5.11-.8,7.5a3.17,3.17,0,0,1-2.42,1.28Z"/><path d="M105.32,158.9a5.52,5.52,0,0,1-5.31-3.82c-.82-2-.55-3.77.71-4.74a4.1,4.1,0,0,1,4.89.3,8.61,8.61,0,0,1,1.45,1.82.36.36,0,0,1-.62.38,8.43,8.43,0,0,0-1.27-1.62,3.39,3.39,0,0,0-4-.3c-1,.77-1.17,2.18-.48,3.88a4.83,4.83,0,0,0,5.86,3.23.36.36,0,0,1,.45.24.37.37,0,0,1-.24.46A6,6,0,0,1,105.32,158.9Z"/><path d="M121.64,126.64c-1.72-2.9-3.58-5.38-9.26-6.5-3.89-.77-10.23,2.1-13.35,5.41a.59.59,0,0,1-.9,0c-.67-.85-2.26-2.76-3.67-2.93-4.08-.49-8.27,4.8-9.75,7.52a42.12,42.12,0,0,0-3.84,11.71.66.66,0,0,1-.68.54,8.35,8.35,0,0,0-9.33,9.15c.54,6,6.67,10.48,11.31,12.9a20.76,20.76,0,0,0,6.2,2.3.5.5,0,0,0,.32,0,16.08,16.08,0,0,0,7.54-.71c4.93-1.71,4.56-9.9,4.56-9.9l-.62-1.54a3.91,3.91,0,0,1,0-2.93c1.17-2.85,5.47-.71,5.62-.74,8.09-1.68,11-4,12.42-5.66C123.42,139.48,125.83,133.66,121.64,126.64Z"/><path d="M122.66,251.32h-.06L105,249.92a96.88,96.88,0,0,1-45.28-15.4l-.31-.2a9.18,9.18,0,0,0-7.18-1.19l-2.4.6a9.12,9.12,0,0,0-4,2.2c-.26.24-.43.43-.43.5l2.27,13.09c10.09,21.3,25.47,39.63,48.91,51.65,4.84,2.48,19.45,7.09,39.05,10.63,0-4.74-.08-11.26-.08-11.27V267A16,16,0,0,0,122.66,251.32Z"/><path class="cls-1" d="M135.59,312.16h-.07c-18.61-3.36-33.78-7.91-39.15-10.66a105,105,0,0,1-29.56-22.43,117.76,117.76,0,0,1-19.51-29.4.16.16,0,0,1,0-.09L45,236.49a.13.13,0,0,1,0-.06c0-.18.08-.33.55-.77a9.53,9.53,0,0,1,4.2-2.28l2.39-.6A9.55,9.55,0,0,1,59.6,234l.31.21A96.74,96.74,0,0,0,105,249.55l17.69,1.4h0a16.41,16.41,0,0,1,13.14,16v33.53l.08,11.26a.36.36,0,0,1-.13.29A.38.38,0,0,1,135.59,312.16ZM48,249.4c11,23.19,27.39,40.5,48.73,51.45,4.27,2.19,18,6.78,38.51,10.51l-.06-8.69c0-1.29,0-2.14,0-2.14V267a15.68,15.68,0,0,0-12.54-15.32h0L105,250.28a97.54,97.54,0,0,1-45.45-15.45l-.31-.2a8.77,8.77,0,0,0-6.89-1.14l-2.4.6a8.77,8.77,0,0,0-3.87,2.1l-.3.31Zm-2.29-12.84Z"/><path class="cls-1" d="M98.43,311.35C71.68,306,60.3,299.61,52.11,294.81a17.09,17.09,0,0,1-8.44-14.74V240.2a5.5,5.5,0,0,1,8.21-4.77c1.35.77,2.64,1.57,3.88,2.38a96.25,96.25,0,0,0,45.08,15.33l17.75,1.4a16,16,0,0,1,12.88,15.69s-.14,43.87-.68,44.23C128.35,316.09,98.43,311.35,98.43,311.35Z"/><path d="M118.92,308.65h-.09c-5.16-1.25-10-2.61-14.09-3.92a62.5,62.5,0,0,1-8.37-3.22c-2.89-1.48-5.72-3.1-8.42-4.8C70.6,285.76,57,270,47.38,249.85a.37.37,0,0,1,.66-.32c9.52,20,23.07,35.69,40.3,46.55,2.68,1.69,5.49,3.29,8.37,4.77A61.86,61.86,0,0,0,105,304c4.05,1.31,8.9,2.67,14,3.91a.37.37,0,0,1-.08.72Z"/><polygon points="223.75 72.18 193.43 67.31 208.88 26.4 239.2 31.27 223.75 72.18"/><polygon points="189.33 66.02 164.99 56.28 179.37 18.15 203.56 28.3 189.33 66.02"/><path d="M193.49,67.32a3.38,3.38,0,0,1-4.16-1.3l14.32-38.25a3.37,3.37,0,0,0,4.12,1.44Z"/><path d="M194.23,65.28a3.38,3.38,0,0,1-4.16-1.3l14.17-37.82a3.37,3.37,0,0,0,4.12,1.43Z"/><path d="M193,65.91a3.7,3.7,0,0,1-3.22-1.76.35.35,0,0,1,0-.3L203.9,26a.37.37,0,0,1,.67,0,3,3,0,0,0,3.65,1.27.35.35,0,0,1,.39.07.36.36,0,0,1,.09.39L194.57,65.41a.37.37,0,0,1-.19.2A3.4,3.4,0,0,1,193,65.91Zm1.26-.63Zm-3.76-1.34A3.07,3.07,0,0,0,193.94,65l13.83-36.86a3.9,3.9,0,0,1-3.44-1.2Z"/><polygon class="cls-1" points="167.06 54.98 190.04 64.2 191.65 62.84 204.61 28.27 201.88 27.2 180.69 15.7 166.37 49.73 167.06 54.98"/><path d="M190.05,64.57a.32.32,0,0,1-.14,0l-23-9.23a.37.37,0,0,1-.23-.29l-.7-5.24a.63.63,0,0,1,0-.19l14.32-34a.35.35,0,0,1,.51-.18L202,26.87l2.7,1.06a.37.37,0,0,1,.21.47L192,63a.4.4,0,0,1-.1.15l-1.61,1.36A.35.35,0,0,1,190.05,64.57ZM167.4,54.72,190,63.78l1.36-1.15,12.8-34.15-2.39-.94,0,0L180.87,16.21,166.74,49.78Z"/><path class="cls-1" d="M166.4,49.59a.24.24,0,0,0,.14.32c2,.71,16.44,5.9,21.54,10l3.57,2.89,13.53-36.09-2.85-2.41c-4.53-3.82-17.17-8.65-21.22-10.15a1.37,1.37,0,0,0-1.75.8Z"/><path d="M191.65,63.21a.4.4,0,0,1-.23-.08l-3.57-2.9c-5.08-4.13-19.77-9.39-21.43-10a.6.6,0,0,1-.35-.31.66.66,0,0,1,0-.48h0l13-34.6a1.72,1.72,0,0,1,2.21-1c3.85,1.41,16.74,6.34,21.33,10.21l2.85,2.41a.35.35,0,0,1,.11.4L192,63a.39.39,0,0,1-.24.23ZM166.78,49.6c2.16.77,16.46,5.95,21.54,10.06l3.17,2.58,13.26-35.38-2.66-2.24c-4.5-3.8-17.29-8.68-21.11-10.09a1,1,0,0,0-1.27.59Z"/><path class="cls-1" d="M191.65,62.84l2.79,2.39,27.83,4.57L236,32.48,234,29a.26.26,0,0,0-.26-.13c-1.14.13-7.58.85-10.25.15A27.33,27.33,0,0,0,211,28.88L205.62,30Z"/><path d="M222.27,70.17h-.06l-27.83-4.57a.37.37,0,0,1-.18-.08l-2.79-2.39a.37.37,0,0,1-.1-.42l14-32.85a.33.33,0,0,1,.26-.21l5.32-1.12a28,28,0,0,1,12.73.17c2.65.69,9.36-.08,10.11-.17a.63.63,0,0,1,.62.32l2,3.45a.37.37,0,0,1,0,.31L222.61,69.93A.37.37,0,0,1,222.27,70.17ZM194.6,64.89,222,69.39l13.59-36.88-1.89-3.25c-1.4.16-7.64.84-10.32.14A27.2,27.2,0,0,0,211,29.23l-5.13,1.09-13.8,32.42Z"/><path class="cls-1" d="M204.27,61.17a29.67,29.67,0,0,1,5.38.76c5.84,1.38,10.83,2.89,10.83,2.89l13.39-35.74a.35.35,0,0,0-.23-.46c-1.25-.38-5.58-1.64-10.52-2.81a29.31,29.31,0,0,0-12.78-.16l-5.17,1.09-13.52,36.1,5.42-1.1A29,29,0,0,1,204.27,61.17Z"/><path d="M220.48,65.19l-.11,0-2.2-.64a59,59,0,0,0-16.1-2.24h-4.33a.37.37,0,0,1,0-.73h4.34a59.72,59.72,0,0,1,16.29,2.28l1.88.54L233.53,29c-1.2-.34-5.55-1.61-10.49-2.79A29.2,29.2,0,0,0,210.42,26l-5,1L192,63a.36.36,0,0,1-.47.21.37.37,0,0,1-.22-.47l13.53-36.09a.37.37,0,0,1,.27-.23l5.17-1.09a29.73,29.73,0,0,1,12.94.15c5,1.18,9.32,2.45,10.54,2.82a.72.72,0,0,1,.44.36.78.78,0,0,1,0,.58L220.82,65A.36.36,0,0,1,220.48,65.19Z"/><path d="M227.21,33.06l-.1,0-.83-.24c-1.53-.44-2.63-.75-5.62-1.46a29,29,0,0,0-12.61-.15.37.37,0,1,1-.15-.72,29.84,29.84,0,0,1,12.93.16c3,.71,4.12,1,5.65,1.47l.83.24a.36.36,0,0,1,.25.45A.37.37,0,0,1,227.21,33.06Z"/><path d="M226.08,37.59l-.1,0c-1.95-.55-3.34-.92-6.9-1.76a28.84,28.84,0,0,0-12.61-.15.36.36,0,0,1-.43-.29.36.36,0,0,1,.28-.43,29.84,29.84,0,0,1,12.93.15c3.57.85,5,1.22,6.93,1.78a.36.36,0,0,1,.25.45A.36.36,0,0,1,226.08,37.59Z"/><path d="M223.81,41.77h-.1c-1.54-.44-2.42-.65-4.36-1.1l-2-.48a28.35,28.35,0,0,0-6.63-.78.36.36,0,0,1-.37-.36.37.37,0,0,1,.37-.37,29.33,29.33,0,0,1,6.8.8l2,.47c1.95.46,2.83.67,4.39,1.11a.37.37,0,0,1-.1.72Z"/><path d="M222.7,46.48l-.1,0-1.31-.38c-1.47-.43-3-.88-5.7-1.52A29,29,0,0,0,203,44.41a.37.37,0,0,1-.15-.72,29.88,29.88,0,0,1,12.94.16c2.73.65,4.26,1.09,5.74,1.53l1.3.38a.37.37,0,0,1,.26.45A.38.38,0,0,1,222.7,46.48Z"/><path d="M218.89,49.63h-.1c-1.68-.45-3.32-.86-4.88-1.23a29,29,0,0,0-12.61-.15.38.38,0,0,1-.44-.28.38.38,0,0,1,.29-.44,29.84,29.84,0,0,1,12.93.16c1.56.37,3.21.78,4.9,1.23a.37.37,0,0,1-.09.72Z"/><path d="M212,52.39H212a28.62,28.62,0,0,0-12,0,.36.36,0,0,1-.15-.71,29.38,29.38,0,0,1,12.28,0,.38.38,0,0,1,.29.44A.37.37,0,0,1,212,52.39Z"/><path d="M216.88,58.55h-.1c-1.85-.53-2.73-.74-5.64-1.43l-.72-.17a29,29,0,0,0-12.61-.15.37.37,0,0,1-.43-.28.37.37,0,0,1,.28-.44,29.84,29.84,0,0,1,12.93.16l.72.17c2.92.69,3.8.9,5.67,1.43a.37.37,0,0,1,.26.45A.38.38,0,0,1,216.88,58.55Z"/><path d="M191.67,25.27a.29.29,0,0,1-.18-.05A70.08,70.08,0,0,0,182,20.68a.35.35,0,0,1-.21-.47.37.37,0,0,1,.47-.22,70,70,0,0,1,9.55,4.6.35.35,0,0,1,.13.5A.34.34,0,0,1,191.67,25.27Z"/><path d="M196.78,36.81a.34.34,0,0,1-.29-.14c-2.62-3.28-7-5.59-10.84-7.5a.37.37,0,1,1,.32-.66c3.95,1.95,8.38,4.31,11.09,7.71a.36.36,0,0,1-.06.51A.32.32,0,0,1,196.78,36.81Z"/><path d="M194.63,43a.37.37,0,0,1-.26-.1,36.4,36.4,0,0,0-10.24-6.77c-2.5-1.24-4-1.87-5.37-2.47l-1.24-.54a.37.37,0,1,1,.29-.67l1.24.54c1.42.61,2.89,1.24,5.41,2.48a37.35,37.35,0,0,1,10.42,6.9.37.37,0,0,1,0,.52A.34.34,0,0,1,194.63,43Z"/><path d="M193.32,47.37a.35.35,0,0,1-.26-.1c-2.92-2.87-5.47-4.11-8.7-5.67l-1.45-.7c-1.44-.71-3-1.44-4.55-2.17a.35.35,0,0,1-.17-.48.35.35,0,0,1,.48-.18c1.58.73,3.12,1.46,4.57,2.17.49.25,1,.48,1.44.7a29.6,29.6,0,0,1,8.89,5.8.37.37,0,0,1,0,.52A.38.38,0,0,1,193.32,47.37Z"/><path d="M191.71,51.54a.33.33,0,0,1-.26-.11A29.43,29.43,0,0,0,183.14,46l-2-1a.37.37,0,1,1,.34-.65l2,1c3,1.51,5.87,2.93,8.5,5.56a.36.36,0,0,1,0,.51A.34.34,0,0,1,191.71,51.54Z"/><path d="M190.32,56.21a.38.38,0,0,1-.29-.14c-2.72-3.42-12.4-7.53-16.73-8.87a.37.37,0,1,1,.22-.7c4.4,1.36,14.26,5.57,17.09,9.12a.37.37,0,0,1-.06.51A.4.4,0,0,1,190.32,56.21Z"/><path d="M222.27,70.17a.37.37,0,0,1-.34-.24l-1.82-4.86a.36.36,0,0,1,.21-.47.37.37,0,0,1,.47.22l1.82,4.85a.36.36,0,0,1-.21.47A.31.31,0,0,1,222.27,70.17Z"/><path class="cls-1" d="M275.13,110.56a42.89,42.89,0,0,0,25.24,32.17.33.33,0,0,0,.24,0c1.78-.48,22.31-6.57,35-34.46a.36.36,0,0,0-.26-.51c-2.91-.57-19.06-4-25.72-12.08a.36.36,0,0,0-.58,0c-1.59,2.37-10.51,14-33.55,14.41A.37.37,0,0,0,275.13,110.56Z"/><path d="M300.52,143.13a.77.77,0,0,1-.3-.06,43,43,0,0,1-25.45-32.46.75.75,0,0,1,.16-.58.78.78,0,0,1,.55-.26c22.88-.43,31.71-11.94,33.25-14.25a.73.73,0,0,1,.57-.32.74.74,0,0,1,.6.27c6.56,7.93,22.4,11.35,25.51,12a.73.73,0,0,1,.51.38.74.74,0,0,1,0,.65c-12.66,27.85-32.95,34-35.23,34.65A.57.57,0,0,1,300.52,143.13Zm8.82-47.19c-1.57,2.35-10.6,14.12-33.84,14.57h0a42.55,42.55,0,0,0,25,31.89c2.24-.61,22.24-6.71,34.76-34.26C332.12,107.53,316.05,104.06,309.34,95.94Z"/><path d="M327.93,111.14h-.08c-10-2.21-19.26-9.16-19.35-9.23a.36.36,0,0,1,.44-.58c.09.07,9.2,6.92,19.07,9.1a.36.36,0,0,1-.08.72Z"/><path d="M325.41,116.64h-.1a40.69,40.69,0,0,1-13.73-6.75.37.37,0,0,1,.43-.59,40.1,40.1,0,0,0,13.49,6.63.37.37,0,0,1,.26.45A.36.36,0,0,1,325.41,116.64Z"/><path d="M308.79,107.56a.34.34,0,0,1-.23-.08,37,37,0,0,1-3.21-3.06.37.37,0,0,1,0-.52.35.35,0,0,1,.51,0,39.29,39.29,0,0,0,3.14,3,.36.36,0,0,1-.24.64Z"/><path d="M321,121.78a.35.35,0,0,1-.14,0,46.94,46.94,0,0,1-19-14.71.36.36,0,0,1,.1-.5.37.37,0,0,1,.51.09,46.36,46.36,0,0,0,18.66,14.45.37.37,0,0,1,.19.48A.39.39,0,0,1,321,121.78Z"/><path d="M317,126.39a.33.33,0,0,1-.17,0A48.38,48.38,0,0,1,298,108.9a.36.36,0,1,1,.64-.34,47.85,47.85,0,0,0,18.52,17.14.36.36,0,0,1,.15.49A.35.35,0,0,1,317,126.39Z"/><path d="M311.75,130.65a.47.47,0,0,1-.16,0,34.79,34.79,0,0,1-6.74-4.64.35.35,0,0,1,0-.51.36.36,0,0,1,.51,0,34.31,34.31,0,0,0,6.59,4.54.36.36,0,0,1-.17.69Z"/><path d="M301.83,122.88a.36.36,0,0,1-.27-.12,46.89,46.89,0,0,1-8-11.92.37.37,0,0,1,.2-.48.38.38,0,0,1,.48.2,45.81,45.81,0,0,0,7.81,11.7.37.37,0,0,1,0,.52A.39.39,0,0,1,301.83,122.88Z"/><path d="M299.84,134.37h0a.38.38,0,0,1-.36-.38l0-2.64a.29.29,0,0,0-.1-.23.27.27,0,0,0-.23-.08l-3.7.31a1,1,0,0,1-.9-.41,1,1,0,0,1-.16-1l.18-.5a.31.31,0,0,0-.36-.41,1,1,0,0,1-.9-1.82l.72-.6a.3.3,0,0,0,.09-.35.29.29,0,0,0-.28-.21h0l-3.86.06h0a.37.37,0,0,1,0-.74l3.86,0h0a1,1,0,0,1,1,.68,1,1,0,0,1-.32,1.18l-.72.59a.3.3,0,0,0-.08.39.31.31,0,0,0,.35.16,1,1,0,0,1,1,.31,1.05,1.05,0,0,1,.21,1.06l-.18.5a.32.32,0,0,0,.05.3.29.29,0,0,0,.26.12l3.7-.31a1,1,0,0,1,.79.28,1.07,1.07,0,0,1,.33.78l0,2.63A.38.38,0,0,1,299.84,134.37Z"/><path class="cls-1" d="M293.82,54.19c1.17.91,2.36,1.78,3.59,2.6l.76.51a2.06,2.06,0,0,1,.24,2.89L294,65.37l2.83,2.13a2.6,2.6,0,0,1-.41,4.12l-1.08.44a47.48,47.48,0,0,0-13.68,8.59,2.8,2.8,0,0,1-3.23-.22l-5.9-3.82a84.62,84.62,0,0,1-14.41-11.74l-4-4.06a1.94,1.94,0,0,1-.3-2.7l3.07-4.48a89.43,89.43,0,0,1,14.18-16.46,2,2,0,0,1,2.89-.26l4.88,5a64.13,64.13,0,0,0,6.29,5.58Z"/><path d="M280.21,81.42a3.11,3.11,0,0,1-2-.7l-5.89-3.8a85.39,85.39,0,0,1-14.47-11.8l-4-4a2.3,2.3,0,0,1-.35-3.19l3.06-4.47a90.23,90.23,0,0,1,14.21-16.5,2.41,2.41,0,0,1,3.4-.29l4.9,5a64.64,64.64,0,0,0,6.25,5.56l8.68,6.75c1.15.89,2.35,1.76,3.56,2.58l.76.51,0,0a2.37,2.37,0,0,1,.85,1.64,2.39,2.39,0,0,1-.57,1.76l-4.14,4.89,2.52,1.9a3,3,0,0,1-.44,4.72l-.05,0-1.08.44a46.8,46.8,0,0,0-13.57,8.52l-.06,0A3.14,3.14,0,0,1,280.21,81.42Zm-7.54-44.63h-.16a1.69,1.69,0,0,0-1.14.6.08.08,0,0,1,0,0,90.16,90.16,0,0,0-14.12,16.39l-3.07,4.49a1.59,1.59,0,0,0,.23,2.21l0,0,4,4A83.91,83.91,0,0,0,272.74,76.3l5.9,3.82,0,0a2.43,2.43,0,0,0,2.78.21,47.67,47.67,0,0,1,13.77-8.62l1-.43a2.23,2.23,0,0,0,1-1.67,2.21,2.21,0,0,0-.71-1.86l-2.8-2.11a.35.35,0,0,1-.14-.25.4.4,0,0,1,.08-.28l4.4-5.18a1.69,1.69,0,0,0-.18-2.36l-.75-.5c-1.22-.82-2.44-1.7-3.6-2.61l-8.68-6.75a63.45,63.45,0,0,1-6.32-5.62l-4.88-5A1.68,1.68,0,0,0,272.67,36.79Z"/><path d="M294,65.74a.37.37,0,0,1-.22-.08l-3.15-2.37a72.33,72.33,0,0,1-11.95-11.38l-2.25-2.72c-.63-.56-1.34-.65-2.59-.3l-2.66.87a47,47,0,0,0-11.78,5.75l-5.66,4.12a.36.36,0,0,1-.51-.08.37.37,0,0,1,.08-.51L259,54.91a47.61,47.61,0,0,1,12-5.84l2.68-.88a3.22,3.22,0,0,1,3.31.48l0,0,2.27,2.73a71.33,71.33,0,0,0,11.83,11.27l3.15,2.37a.37.37,0,0,1,.07.51A.35.35,0,0,1,294,65.74Z"/><path class="cls-1" d="M299.84,35.14l-4-3.46a2.52,2.52,0,0,0-3.36.08l-2,1.92a39.63,39.63,0,0,0-7.55,9.77L280.4,48a1.17,1.17,0,0,0,.22,1.42c1.81,1.72,6.66,7.31,11,9.87a1.55,1.55,0,0,0,2.12-.57l2.88-5a39.92,39.92,0,0,1,6.12-8L305.42,43a2.5,2.5,0,0,0-.32-3.79l-1.32-.94C302.42,37.26,301.1,36.22,299.84,35.14Z"/><path d="M292.4,59.86a2,2,0,0,1-1-.26c-3.4-2-7-5.75-9.41-8.24-.67-.69-1.25-1.3-1.66-1.68a1.55,1.55,0,0,1-.29-1.87l2.48-4.53a40.17,40.17,0,0,1,7.62-9.87l2-1.91a2.87,2.87,0,0,1,3.86-.09l4,3.45c1.26,1.08,2.58,2.11,3.92,3.07l1.32.94a2.87,2.87,0,0,1,.37,4.35L303,45.93a39.13,39.13,0,0,0-6.06,8l-2.88,5a1.91,1.91,0,0,1-1.18.9A1.66,1.66,0,0,1,292.4,59.86Zm1.78-28.42a2.13,2.13,0,0,0-1.47.59l-2,1.91a39.38,39.38,0,0,0-7.48,9.69l-2.48,4.53a.82.82,0,0,0,.15,1c.42.39,1,1,1.69,1.71,2.36,2.45,5.94,6.16,9.25,8.11a1.2,1.2,0,0,0,.89.12,1.18,1.18,0,0,0,.73-.56l2.89-5a40,40,0,0,1,6.17-8.12l2.67-2.71a2.14,2.14,0,0,0,.61-1.68,2.11,2.11,0,0,0-.89-1.55l-1.31-.95c-1.37-1-2.7-2-4-3.11l-4-3.45A2.14,2.14,0,0,0,294.18,31.44Z"/><path d="M302.75,46a.38.38,0,0,1-.22-.07l-3.11-2.34a2.73,2.73,0,0,1-1.09-1.86,2.78,2.78,0,0,1,.59-2.08l2.3-2.84a.37.37,0,1,1,.57.46l-2.3,2.84a2,2,0,0,0,.36,2.9L303,45.38a.36.36,0,0,1,.07.51A.37.37,0,0,1,302.75,46Z"/><path d="M298.19,46.21a.36.36,0,0,1-.2-.06c-3.21-2.15-7.72-7.55-7.92-7.78a.39.39,0,0,1,.05-.52.37.37,0,0,1,.52,0c0,.05,4.64,5.55,7.76,7.64a.37.37,0,0,1,.1.51A.36.36,0,0,1,298.19,46.21Z"/><path d="M295.32,49.31a.34.34,0,0,1-.22-.07A39.12,39.12,0,0,1,287.52,42a.37.37,0,0,1,.6-.42,39,39,0,0,0,7.42,7.13.37.37,0,0,1,.07.51A.37.37,0,0,1,295.32,49.31Z"/><path d="M52.57,127.66a17.24,17.24,0,0,1-10.66-3.44c-6.59-5.09-8.61-14.7-5.27-25.09a.38.38,0,0,1,.46-.24.37.37,0,0,1,.24.46c-3.25,10.09-1.32,19.4,5,24.29,4,3.06,9.32,4,15.08,2.74a33.14,33.14,0,0,0,16.22-9.67c.93-1,5.93.78,8.92,2-1.76-2.71-4.54-7.25-4-8.29,0,0,0,0,0,0,7.7-12.25,7.25-26.32-1.06-32.72-4.15-3.21-9.78-4.12-15.84-2.56A33.89,33.89,0,0,0,45,86a.37.37,0,0,1-.56-.48A34.67,34.67,0,0,1,61.53,74.36C67.81,72.74,73.66,73.69,78,77c8.6,6.63,9.13,21.12,1.23,33.69-.23.66,2.21,4.93,4.61,8.51a.36.36,0,0,1,0,.43.36.36,0,0,1-.42.11c-4.54-1.86-8.76-3-9.22-2.57a33.75,33.75,0,0,1-16.58,9.88A23.31,23.31,0,0,1,52.57,127.66Z"/><path d="M53.29,107.29l-2.59,1.94a.86.86,0,0,1-1.17-.15l-14-17.33a.83.83,0,0,1,.15-1.2l3.93-2.94a.85.85,0,0,1,1.2.21l12.62,18.32A.85.85,0,0,1,53.29,107.29Z"/><ellipse cx="55.56" cy="114.11" rx="2.59" ry="2.81" transform="translate(-51.53 45.99) rotate(-31.58)"/><path d="M64,102.52l-.48-1.12c-1.06-2.3-1.14-5.17.17-8.54,1.2-3,1.73-5.08,1.06-7.07-.75-2.25-2.69-2.92-5.48-2.05a8.27,8.27,0,0,0-3.81,3.18l-2.14-3.17a12,12,0,0,1,5.7-3.83c5.07-1.66,8.4.73,9.53,4.09,1,3,.06,5.72-1.21,8.93-1.17,2.94-1.22,5.11-.34,7.32l.43,1.14Zm1.1,6.51a2.76,2.76,0,1,1,5.24-1.71,2.69,2.69,0,0,1-1.73,3.6A2.74,2.74,0,0,1,65.14,109Z"/><ellipse cx="117.37" cy="36.18" rx="21.58" ry="21.71" transform="translate(-5.36 31.58) rotate(-14.99)"/><ellipse class="cls-1" cx="114.57" cy="36.71" rx="21.58" ry="21.71" transform="translate(-5.6 30.87) rotate(-14.99)"/><path d="M114.64,58.79a22.11,22.11,0,0,1-9.61-42,21.67,21.67,0,0,1,16.72-.93,22.11,22.11,0,0,1,2.35,40.73A21.69,21.69,0,0,1,114.64,58.79Zm-.15-43.43a21.11,21.11,0,0,0-9.14,2.1,21.39,21.39,0,0,0,2.27,39.39,21,21,0,0,0,16.17-.9,21.38,21.38,0,0,0-2.28-39.38A21,21,0,0,0,114.49,15.36Z"/><path d="M125.72,44.48a.42.42,0,0,1-.21-.06L114.36,37a.38.38,0,0,1-.15-.22l-2.35-10a.38.38,0,0,1,.27-.44.37.37,0,0,1,.44.27l2.32,9.83,11,7.33a.37.37,0,0,1,.1.51A.38.38,0,0,1,125.72,44.48Z"/><path d="M108.25,20.6a1.38,1.38,0,1,1-1.84-.65A1.39,1.39,0,0,1,108.25,20.6Z"/><path d="M101.09,25.91a1.39,1.39,0,0,1,.36,1.93,1.37,1.37,0,0,1-1.91.36,1.4,1.4,0,0,1-.37-1.93A1.38,1.38,0,0,1,101.09,25.91Z"/><ellipse cx="97.59" cy="35.35" rx="1.38" ry="1.39" transform="translate(-5.82 26.44) rotate(-14.99)"/><path d="M98.56,43a1.39,1.39,0,1,1-.65,1.85A1.38,1.38,0,0,1,98.56,43Z"/><path d="M104,50.07a1.38,1.38,0,1,1,.36,1.93A1.38,1.38,0,0,1,104,50.07Z"/><path d="M112.18,53.66a1.38,1.38,0,1,1,2.75.21,1.37,1.37,0,0,1-1.48,1.28A1.4,1.4,0,0,1,112.18,53.66Z"/><path d="M121,52.67a1.38,1.38,0,1,1,1.84.65A1.38,1.38,0,0,1,121,52.67Z"/><ellipse cx="128.97" cy="46.21" rx="1.38" ry="1.39" transform="matrix(0.97, -0.26, 0.26, 0.97, -7.56, 34.93)"/><ellipse cx="131.69" cy="37.92" rx="1.38" ry="1.39" transform="translate(-5.33 35.36) rotate(-14.99)"/><ellipse cx="129.98" cy="29.16" rx="1.38" ry="1.39" transform="translate(-3.12 34.6) rotate(-14.99)"/><ellipse cx="124.13" cy="22.41" rx="1.38" ry="1.39" transform="matrix(0.97, -0.26, 0.26, 0.97, -1.57, 32.89)"/><path d="M117.1,19.61a1.38,1.38,0,1,1-1.27-1.49A1.38,1.38,0,0,1,117.1,19.61Z"/><path d="M238.52,294a.35.35,0,0,1-.25-.1.37.37,0,0,1,0-.52l1.72-1.8a.37.37,0,0,1,.52,0,.35.35,0,0,1,0,.51l-1.72,1.81A.39.39,0,0,1,238.52,294Z"/><path d="M232.48,300.29a.36.36,0,0,1-.25-.11.35.35,0,0,1,0-.51l1.72-1.81a.37.37,0,0,1,.52,0,.37.37,0,0,1,0,.52l-1.72,1.8A.37.37,0,0,1,232.48,300.29Z"/><path d="M234.17,294.07a.36.36,0,0,1-.25-.11l-1.75-1.72a.37.37,0,0,1,0-.52.36.36,0,0,1,.52,0l1.75,1.72a.36.36,0,0,1,0,.52A.36.36,0,0,1,234.17,294.07Z"/><path d="M240.31,300.11a.35.35,0,0,1-.26-.1l-1.75-1.73a.36.36,0,0,1,0-.52.36.36,0,0,1,.51,0l1.75,1.73a.35.35,0,0,1,0,.51A.34.34,0,0,1,240.31,300.11Z"/><path d="M61.59,34a.36.36,0,0,1-.36-.36l-.06-2.5a.37.37,0,0,1,.36-.37.36.36,0,0,1,.37.36L62,33.6a.38.38,0,0,1-.36.38Z"/><path d="M61.78,42.71a.36.36,0,0,1-.36-.35l-.06-2.5a.37.37,0,0,1,.36-.37.35.35,0,0,1,.37.35l.06,2.5a.37.37,0,0,1-.36.37Z"/><path d="M56.13,37.14a.37.37,0,0,1-.37-.37.37.37,0,0,1,.36-.37h2.46a.36.36,0,0,1,.37.36.37.37,0,0,1-.36.37l-2.46,0Z"/><path d="M64.74,37.07a.37.37,0,1,1,0-.73l2.46,0h0a.37.37,0,0,1,.36.37.37.37,0,0,1-.36.37Z"/><path d="M264.23,288.48a3.23,3.23,0,1,1,3.22-3.23A3.23,3.23,0,0,1,264.23,288.48Zm0-5.72a2.49,2.49,0,1,0,2.49,2.49A2.5,2.5,0,0,0,264.23,282.76Z"/><path d="M320.93,81.43a3.23,3.23,0,1,1,3.23-3.23A3.23,3.23,0,0,1,320.93,81.43Zm0-5.72a2.5,2.5,0,1,0,2.5,2.49A2.5,2.5,0,0,0,320.93,75.71Z"/><circle cx="320.46" cy="57.95" r="2.42"/></svg>