<svg id="Capa_1" data-name="Capa 1" xmlns="http://www.w3.org/2000/svg" viewBox="0 0 352 330"><defs><style>.cls-1{fill:#fff;}</style></defs><path class="cls-1" d="M97.36,245c-.28.43-10.92,15.64-10.92,15.64s.27,3.88,3,4.63l12.65-13.68Z"/><path d="M89.46,265.72h-.1c-3-.83-3.32-4.83-3.33-5a.42.42,0,0,1,.08-.26c3.67-5.26,10.68-15.29,10.9-15.63a.44.44,0,0,1,.33-.19.39.39,0,0,1,.35.17l4.76,6.59a.4.4,0,0,1,0,.51L89.76,265.59A.4.4,0,0,1,89.46,265.72Zm-2.6-4.93c.08.64.51,3.33,2.48,4l12.25-13.25-4.23-5.84C95.63,248.25,87.84,259.39,86.86,260.79Z"/><path class="cls-1" d="M80.64,263.36s.91,12,6.21,18.32,13.82,4.3,13.82,4.3.64-5.34-.46-6.73S93,270.43,93,263.75l-3.24-4.41-1.92,2.47-.82-4Z"/><path d="M97.53,286.69a14,14,0,0,1-11-4.74c-5.33-6.35-6.27-18.07-6.3-18.56a.4.4,0,0,1,.14-.34l6.4-5.59a.39.39,0,0,1,.4-.08.4.4,0,0,1,.26.31l.65,3.17,1.36-1.77a.44.44,0,0,1,.33-.16.4.4,0,0,1,.33.17l3.24,4.41a.43.43,0,0,1,.08.24c0,2.89,1.19,7.85,7,15.1l.12.14c1.17,1.49.61,6.48.54,7a.4.4,0,0,1-.31.35A15.22,15.22,0,0,1,97.53,286.69ZM81.07,263.53c.15,1.59,1.31,12.19,6.1,17.89,4.54,5.42,11.64,4.49,13.12,4.22.17-1.62.37-5.17-.4-6.14l-.12-.14c-5.84-7.33-7.13-12.44-7.16-15.47L89.77,260l-1.58,2a.4.4,0,0,1-.42.15.4.4,0,0,1-.31-.31l-.68-3.36Z"/><path class="cls-1" d="M82.78,263.82S84.16,283.77,99,283.34Z"/><path d="M98.5,283.75c-14.58,0-16.11-19.7-16.12-19.9a.41.41,0,1,1,.81-.06c0,.19,1.53,19.56,15.76,19.14a.4.4,0,0,1,.42.4.41.41,0,0,1-.39.42Z"/><path d="M121.17,138.87S133.69,175.7,133.75,200,99.5,256.37,99.5,256.37l-7.09-6.15s12.62-13.38,15-31.48-4.92-52.3-4.92-52.3L99.79,142.3Z"/><path class="cls-1" d="M102.72,258.09c-.06.65.61,9.77,3.44,15.49,0,0-1.31,4.2-5.31,3.45,0,0-6.14-11.69-7.42-19.26Z"/><path d="M101.79,277.53a5.23,5.23,0,0,1-1-.1.42.42,0,0,1-.29-.21c-.06-.12-6.18-11.84-7.47-19.38a.42.42,0,0,1,.1-.34.39.39,0,0,1,.32-.14l9.29.32a.47.47,0,0,1,.3.14.39.39,0,0,1,.09.31c0,.44.59,9.57,3.4,15.27a.39.39,0,0,1,0,.3S105.31,277.53,101.79,277.53Zm-.67-.87c3.09.46,4.33-2.36,4.6-3.05-2.52-5.21-3.34-13.09-3.41-15.12l-8.39-.3C95.25,265.1,100.37,275.19,101.12,276.66Z"/><path class="cls-1" d="M98.63,272.65s-1,12,.48,15.35a60.09,60.09,0,0,0,24.59,5.83,1.69,1.69,0,0,0,1.69-1.69,13,13,0,0,0-4.22-9.66c-5.26-4.76-16.53-12.56-16.53-12.56l-2.28,2.75,1,4.36Z"/><path d="M123.64,294.24c-13.13,0-24.6-5.82-24.72-5.88a.39.39,0,0,1-.18-.2c-1.53-3.44-.56-15.05-.52-15.54a.4.4,0,0,1,.26-.35.43.43,0,0,1,.43.09l3.73,3.48-.68-3.08a.45.45,0,0,1,.09-.35l2.27-2.75a.41.41,0,0,1,.55-.08c.11.08,11.36,7.88,16.57,12.59a13.49,13.49,0,0,1,4.36,10,2,2,0,0,1-.6,1.48,2.07,2.07,0,0,1-1.5.63ZM99.43,287.7c1.3.64,12,5.73,24.21,5.73a1.41,1.41,0,0,0,1-.39,1.26,1.26,0,0,0,.37-.9,12.68,12.68,0,0,0-4.1-9.36c-4.69-4.25-14.33-11-16.18-12.31l-1.91,2.31.92,4.16a.43.43,0,0,1-.2.44.41.41,0,0,1-.48-.05L99,273.53C98.78,276.26,98.28,284.82,99.43,287.7Z"/><path class="cls-1" d="M100,284.46s10.82,6.84,23.77,6.05Z"/><path d="M121.71,291a46,46,0,0,1-21.93-6.17.42.42,0,0,1-.13-.57.4.4,0,0,1,.56-.12c.11.06,10.87,6.75,23.53,6a.4.4,0,0,1,.43.38.41.41,0,0,1-.38.43C123.09,291,122.39,291,121.71,291Z"/><path d="M82.76,138.87S74.84,192,93.43,262.29l11.21-1.61s-6-61.42,8.44-93.89l3.23-29.35Z"/><path class="cls-1" d="M105,199.53a.4.4,0,0,1-.41-.4c0-8.12,3.24-23.9,6.67-28.91a.41.41,0,0,1,.57-.1.4.4,0,0,1,.1.56c-3.29,4.82-6.57,20.61-6.53,28.44a.4.4,0,0,1-.4.41Z"/><path class="cls-1" d="M103.84,245.45a.41.41,0,0,1-.4-.39c-.42-7.47-.36-19.74-.36-19.86a.43.43,0,0,1,.41-.41h0a.42.42,0,0,1,.4.41c0,.13-.06,12.37.35,19.82a.41.41,0,0,1-.38.43Z"/><path class="cls-1" d="M143.48,124.87c-3.87.44.32-9.65.32-9.65l15.35-.79,11.61-3.2a2.27,2.27,0,0,1,1.22,4.38l-5.19,1.44a1,1,0,0,0-.48,1.65,9.58,9.58,0,0,0,2.71,2.11,65.64,65.64,0,0,0,8.58,3.73c1.61.55,1.9,2.59.3,3.15l-11-.48c-2.79-.12-6.29-2.18-8.15-4.27C158.71,122.94,150.13,124.12,143.48,124.87Z"/><path d="M177.9,128.09h0l-11-.47c-3-.13-6.43-2.25-8.3-4.25-1.37.19-9,1.23-15,1.91a1.63,1.63,0,0,1-1.61-.62c-1.55-2,1.2-8.83,1.51-9.6a.42.42,0,0,1,.36-.25l15.3-.78,11.57-3.19a2.68,2.68,0,0,1,3.28,1.83,2.62,2.62,0,0,1-.22,2,2.66,2.66,0,0,1-1.62,1.28l-5.19,1.45a.56.56,0,0,0-.42.41.6.6,0,0,0,.13.57,9.11,9.11,0,0,0,2.6,2,65.6,65.6,0,0,0,8.52,3.71,2.31,2.31,0,0,1,1.64,2.13,1.86,1.86,0,0,1-1.34,1.78A.3.3,0,0,1,177.9,128.09Zm-19.19-5.56a.41.41,0,0,1,.3.14c1.74,1.94,5.16,4,7.87,4.14l11,.46a1,1,0,0,0,.73-1,1.52,1.52,0,0,0-1.1-1.36,64.72,64.72,0,0,1-8.62-3.75A10,10,0,0,1,166,119a1.42,1.42,0,0,1,.68-2.31l5.19-1.45a1.85,1.85,0,0,0,1.28-2.31,1.88,1.88,0,0,0-2.28-1.28l-11.61,3.21h-.09l-15.09.77c-1.11,2.76-2.45,7.33-1.52,8.56a.83.83,0,0,0,.87.29c6.57-.74,15.13-1.91,15.22-1.92Z"/><path d="M105.67,54.51A46.68,46.68,0,0,0,90.82,60.8s-13.31,8.49-13,24.68c.25,12.56,8.55,26.28,8.48,27.35-.82,12-9.73,30.4-8.49,34.67,3,10.37,55.64,10.66,56.39,5.9.34-2.12-4.68-18.91-1.55-33.44a251.8,251.8,0,0,0,4.29-29c6.54,11.3,14.61,18.36,33.4,15.71s29.45-5,29.45-5l-1.48-10.47s-14.21-4.92-29.65-3.26c-9.2,1-22.71-21.14-27.36-25.27a34.47,34.47,0,0,0-16.53-8.23A46.81,46.81,0,0,0,105.67,54.51Z"/><path d="M97.19,62s-9.47,4-14.47,20.4c-2.77,9-2.26,21.93,11.36,39.06,2.72,3.43,6.55,6.83,10.87,7.33l41.38-1.95-.18-13.37s-32.1-1.85-36.92-3.68C105,108.14,98.77,87,98.12,76.67Z"/><path class="cls-1" d="M105,129.16h0c-4.72-.54-8.67-4.36-11.14-7.48-1.47-1.84-2.88-3.71-4.21-5.56a.41.41,0,0,1,.67-.47c1.31,1.83,2.72,3.69,4.18,5.52,2.37,3,6.13,6.66,10.56,7.18l41-1.93-.17-12.6c-3.81-.22-32.07-1.94-36.67-3.68-3.85-1.46-8.39-16.12-10.25-25.57a.41.41,0,0,1,.32-.48.42.42,0,0,1,.48.33c2.14,10.86,6.67,23.79,9.74,25,4.71,1.79,36.48,3.64,36.8,3.66a.41.41,0,0,1,.39.4l.18,13.37a.41.41,0,0,1-.39.41l-41.38,2Z"/><path class="cls-1" d="M112.19,156.63c-17.89,0-25.48-2.76-30.11-5.35a.41.41,0,0,1-.15-.56.4.4,0,0,1,.55-.16C88,153.68,98,157,125.61,155.38a.41.41,0,1,1,0,.81C120.61,156.5,116.14,156.63,112.19,156.63Z"/><path d="M122.56,16.83a13.22,13.22,0,0,0-8.34,1.93c-3.53,2.32-3.2,5-6.6,6.49-2.54,1.14-3.86.36-6.92.74-4.57.56-10.12,3.48-12.43,8-3.61,7.11.68,18.27,8.58,21.25,5.13,1.93,10.08-.22,11.08-.67,2.39-1.1,4.75-4.18,9.48-10.34,4.89-6.38,7.33-9.57,7.4-12.29,0-.4,0-1.84.88-2.44s1.54,0,2.53-.07c2.1-.12,4.31-2.72,4.48-4.86C133,20.93,127.36,17.35,122.56,16.83Z"/><path class="cls-1" d="M120.05,51.19l-.23-6c4.8.05,5.35-8.18,5.35-8.18l.43-8.25a10.13,10.13,0,0,1-4.6-1.15c-2-1.18-8.86-2.45-9.71,2l-.1,1.77a2,2,0,0,0-3,0c-1.48,1.63,2,5.06,2.84,6,0,0,.09.25.26.66l-.54,13.32a2.38,2.38,0,0,1-1.42,2.08l-7,3,16.77,5.69,8.3-6.6-5.86-2.21A2.39,2.39,0,0,1,120.05,51.19Z"/><path d="M119.14,62.54l-.13,0-16.77-5.7a.41.41,0,0,1-.28-.36.45.45,0,0,1,.25-.4l7-3a2,2,0,0,0,1.18-1.73l.54-13.22-.21-.52-.14-.16c-1.28-1.35-4.28-4.51-2.65-6.31a2.32,2.32,0,0,1,1.73-.86h0a2.38,2.38,0,0,1,1.18.34l.06-1a.13.13,0,0,1,0-.06,3.78,3.78,0,0,1,2.28-2.89c2.62-1.19,6.56-.24,8,.62a9.76,9.76,0,0,0,4.39,1.09.45.45,0,0,1,.3.12.43.43,0,0,1,.12.31L125.58,37c0,.35-.6,8.16-5.33,8.55l.21,5.62a2,2,0,0,0,1.27,1.77l5.85,2.21a.41.41,0,0,1,.26.32.37.37,0,0,1-.15.38l-8.29,6.6A.43.43,0,0,1,119.14,62.54ZM103.5,56.39l15.56,5.28,7.56-6-5.18-2a2.78,2.78,0,0,1-1.8-2.5l-.23-6a.42.42,0,0,1,.12-.3.44.44,0,0,1,.3-.12h0c4.32,0,4.89-7.72,4.9-7.8l.4-7.83a10.13,10.13,0,0,1-4.38-1.19c-1.3-.76-5-1.63-7.28-.58a3.05,3.05,0,0,0-1.82,2.28l-.1,1.75a.4.4,0,0,1-.7.25,2,2,0,0,0-1.25-.59h0a1.53,1.53,0,0,0-1.12.59c-.75.82.14,2.57,2.63,5.2l.21.22a.38.38,0,0,1,.09.15s.08.24.25.63a.52.52,0,0,1,0,.18l-.54,13.32a2.8,2.8,0,0,1-1.67,2.43Z"/><path d="M113.85,42.07a.39.39,0,0,1-.34-.19l-2.79-4.33a.44.44,0,0,1-.06-.16,26,26,0,0,1-.35-3.71.41.41,0,0,1,.41-.41.41.41,0,0,1,.41.41,24.26,24.26,0,0,0,.32,3.5l2.74,4.26a.41.41,0,0,1-.12.57A.43.43,0,0,1,113.85,42.07Z"/><path class="cls-1" d="M222.66,179.92,236,171.45a2.73,2.73,0,0,0,.83-3.8l-7.26-11.16L211.61,167.9l7.28,11.2A2.74,2.74,0,0,0,222.66,179.92Z"/><path d="M221.2,180.75a3.15,3.15,0,0,1-2.65-1.43l-7.28-11.2a.42.42,0,0,1-.06-.31.38.38,0,0,1,.18-.25l17.92-11.42a.41.41,0,0,1,.56.13l7.25,11.16a3.14,3.14,0,0,1-1,4.37l-13.29,8.46A3,3,0,0,1,221.2,180.75Zm-9-12.73,7,10.86a2.35,2.35,0,0,0,3.21.7l13.29-8.47a2.32,2.32,0,0,0,1-1.47,2.34,2.34,0,0,0-.32-1.77l-7-10.82Zm10.48,11.9h0Z"/><rect class="cls-1" x="157.19" y="47.89" width="18.28" height="57.25" transform="matrix(-0.84, 0.54, -0.54, -0.84, 347.73, 51.68)"/><path d="M174,106a.39.39,0,0,1-.34-.18L142.9,57.5a.41.41,0,0,1,.13-.56l15.42-9.83a.41.41,0,0,1,.56.13l30.76,48.28a.49.49,0,0,1,0,.31.4.4,0,0,1-.18.26l-15.42,9.82A.43.43,0,0,1,174,106ZM143.81,57.41,174.13,105l14.73-9.38L158.54,48Z"/><polygon points="160.89 280.04 199.53 280.04 199.53 245.05 182.93 245.05 160.89 280.04"/><path d="M199.53,280.45H160.89a.4.4,0,0,1-.34-.63l22-35a.39.39,0,0,1,.34-.19h16.6a.41.41,0,0,1,.41.41v35A.41.41,0,0,1,199.53,280.45Zm-37.9-.82h37.5V245.46h-16Z"/><polygon class="cls-1" points="149.84 280.04 188.49 280.04 188.49 245.05 171.88 245.05 149.84 280.04"/><path d="M188.49,280.45H149.84a.39.39,0,0,1-.35-.21.4.4,0,0,1,0-.42l22-35a.39.39,0,0,1,.34-.19h16.61a.41.41,0,0,1,.41.41v35A.42.42,0,0,1,188.49,280.45Zm-37.91-.82h37.5V245.46h-16Z"/><path d="M191.16,125,205,146.73a49.46,49.46,0,0,0-6.25-.4,48.65,48.65,0,0,0,0,97.3,49.52,49.52,0,0,0,36.31-16.12h26.19A70.39,70.39,0,1,1,191.16,125Z"/><path d="M198.76,265.79a70.82,70.82,0,0,1-7.64-141.21.43.43,0,0,1,.39.19l13.85,21.74a.43.43,0,0,1,0,.44.41.41,0,0,1-.4.19,49.39,49.39,0,0,0-6.2-.4,48.24,48.24,0,0,0,0,96.48,49.16,49.16,0,0,0,36-16,.43.43,0,0,1,.3-.13h26.19a.4.4,0,0,1,.34.2.41.41,0,0,1,0,.4A70.62,70.62,0,0,1,198.76,265.79ZM191,125.42a70,70,0,1,0,69.63,102.5H235.25A50,50,0,0,1,198.76,244a49.06,49.06,0,0,1,0-98.12,49.78,49.78,0,0,1,5.45.31Z"/><path class="cls-1" d="M183.17,125,197,146.73a49.58,49.58,0,0,0-6.25-.4,48.65,48.65,0,0,0,0,97.3,49.53,49.53,0,0,0,36.31-16.12h26.18A70.39,70.39,0,1,1,183.17,125Z"/><path d="M190.77,265.79a70.82,70.82,0,0,1-7.65-141.21.42.42,0,0,1,.39.19l13.85,21.74a.39.39,0,0,1,0,.44.38.38,0,0,1-.39.19,49.39,49.39,0,0,0-6.2-.4,48.24,48.24,0,0,0,0,96.48,49.18,49.18,0,0,0,36-16,.4.4,0,0,1,.3-.13h26.18a.4.4,0,0,1,.35.2.38.38,0,0,1,0,.4A70.6,70.6,0,0,1,190.77,265.79ZM183,125.42a70,70,0,1,0,69.63,102.5H227.26A50,50,0,0,1,190.77,244a49.06,49.06,0,1,1,5.44-97.81Z"/><polygon class="cls-1" points="195.83 167.53 210.47 157.98 179.02 108.62 164.39 118.17 195.83 167.53"/><path d="M195.83,167.94h-.08a.44.44,0,0,1-.26-.18L164,118.38a.41.41,0,0,1,.13-.56l14.63-9.54a.38.38,0,0,1,.31-.06.4.4,0,0,1,.26.18l31.44,49.36a.4.4,0,0,1-.12.56l-14.64,9.55A.41.41,0,0,1,195.83,167.94ZM165,118.29,196,167l14-9.1-31-48.68Z"/><path class="cls-1" d="M213,171.9l19.91-12.67a3.53,3.53,0,0,0,1.07-4.87L186,79a3.07,3.07,0,0,0-4.24-.94L161.06,91.23a3.06,3.06,0,0,0-.94,4.23l48,75.36A3.52,3.52,0,0,0,213,171.9Z"/><path d="M211.1,172.86a4.19,4.19,0,0,1-.86-.09,3.9,3.9,0,0,1-2.46-1.73l-48-75.36a3.48,3.48,0,0,1,1.07-4.8l20.67-13.16a3.45,3.45,0,0,1,2.62-.47,3.53,3.53,0,0,1,2.18,1.53l48,75.36a3.94,3.94,0,0,1-1.2,5.43L213.2,172.25A4,4,0,0,1,211.1,172.86ZM183.37,78a2.65,2.65,0,0,0-1.43.42L161.28,91.57a2.66,2.66,0,0,0-.82,3.67l48,75.36a3.12,3.12,0,0,0,4.3,1l19.91-12.68a3.13,3.13,0,0,0,1-4.3l-48-75.36A2.68,2.68,0,0,0,184,78.05,2.86,2.86,0,0,0,183.37,78Z"/><rect class="cls-1" x="136.3" y="46.1" width="25.21" height="6.98" rx="1.56" transform="translate(-3.33 87.76) rotate(-32.5)"/><path d="M140.63,59.12a2,2,0,0,1-1.67-.91h0L136.89,55a2,2,0,0,1,.6-2.72l18.64-11.86a1.93,1.93,0,0,1,1.48-.27,2,2,0,0,1,1.24.87l2.07,3.25a2,2,0,0,1-.61,2.72L141.68,58.81A1.94,1.94,0,0,1,140.63,59.12Zm-1-1.35a1.16,1.16,0,0,0,1.59.35l18.64-11.87a1.16,1.16,0,0,0,.35-1.59l-2.07-3.25a1.17,1.17,0,0,0-1.6-.36L137.93,52.92a1.16,1.16,0,0,0-.35,1.59Z"/><rect class="cls-1" x="207.01" y="219.8" width="66.58" height="7.63" transform="translate(480.6 447.22) rotate(180)"/><path d="M273.59,227.83H207a.41.41,0,0,1-.41-.41V219.8a.41.41,0,0,1,.41-.41h66.58a.41.41,0,0,1,.41.41v7.62A.41.41,0,0,1,273.59,227.83ZM207.42,227h65.76V220.2H207.42Z"/><rect x="139.46" y="279.95" width="117.91" height="13.68" transform="translate(396.84 573.58) rotate(180)"/><path d="M257.38,294H139.46a.41.41,0,0,1-.41-.41V280a.42.42,0,0,1,.41-.41H257.38a.41.41,0,0,1,.4.41v13.68A.4.4,0,0,1,257.38,294Zm-117.51-.82H257V280.36H139.87Z"/><rect class="cls-1" x="121.89" y="279.95" width="121.78" height="13.68" transform="translate(365.56 573.58) rotate(180)"/><path d="M243.67,294H121.89a.41.41,0,0,1-.41-.41V280a.41.41,0,0,1,.41-.41H243.67a.41.41,0,0,1,.41.41v13.68A.41.41,0,0,1,243.67,294Zm-121.37-.82h121V280.36h-121Z"/><circle cx="170.55" cy="141.19" r="17.9"/><path d="M170.55,159.5a18.31,18.31,0,1,1,18.31-18.31A18.32,18.32,0,0,1,170.55,159.5Zm0-35.79A17.49,17.49,0,1,0,188,141.19,17.5,17.5,0,0,0,170.55,123.71Z"/><circle class="cls-1" cx="170.55" cy="141.19" r="9.45"/><path d="M170.55,151.05a9.86,9.86,0,1,1,9.86-9.86A9.86,9.86,0,0,1,170.55,151.05Zm0-18.9a9,9,0,1,0,9,9A9.06,9.06,0,0,0,170.55,132.15Z"/><path class="cls-1" d="M255.09,218.81a1,1,0,0,0,1-1.36c-1.13-3.73-6.86-6.57-13.75-6.57s-12.6,2.83-13.75,6.56a1.05,1.05,0,0,0,1,1.36Z"/><path d="M255.09,219.22H229.57a1.46,1.46,0,0,1-1.38-1.89c1.22-4,7.17-6.85,14.14-6.85s12.93,2.89,14.14,6.86a1.46,1.46,0,0,1-1.38,1.89Zm-12.76-7.93c-6.52,0-12.26,2.7-13.36,6.27a.67.67,0,0,0,.1.58.62.62,0,0,0,.5.25h25.52a.6.6,0,0,0,.5-.25.64.64,0,0,0,.1-.58C254.6,214,248.86,211.29,242.33,211.29Z"/><path d="M234.93,216.23a.41.41,0,0,1-.32-.15.4.4,0,0,1,.06-.57,12.26,12.26,0,0,1,7.22-2.26.41.41,0,1,1,0,.81,11.6,11.6,0,0,0-6.73,2.09A.38.38,0,0,1,234.93,216.23Z"/><path class="cls-1" d="M155.13,114.65l3.26-.17,3.82-.8,8.8-2.43a2.27,2.27,0,0,1,1.21,4.38L167,117.07a1,1,0,0,0-.48,1.65,9.51,9.51,0,0,0,2.72,2.12,66.8,66.8,0,0,0,8.57,3.73c1.61.54,1.91,2.58.3,3.14l-11-.47a10.45,10.45,0,0,1-6-2.21C157.1,121.89,155.13,114.65,155.13,114.65Z"/><path d="M178.14,128.12h0l-11-.48a10.77,10.77,0,0,1-6.82-2.81l-1.46-1.44-9.9,1.26a.41.41,0,0,1-.46-.36.4.4,0,0,1,.36-.45l10.09-1.28a.4.4,0,0,1,.34.11l1.59,1.57a10,10,0,0,0,6.3,2.59l11,.47a1,1,0,0,0,.72-1,1.51,1.51,0,0,0-1.09-1.36,65.51,65.51,0,0,1-8.63-3.75,9.94,9.94,0,0,1-2.83-2.21,1.43,1.43,0,0,1-.31-1.34,1.41,1.41,0,0,1,1-1l5.19-1.44a1.86,1.86,0,0,0,1.29-2.32,1.87,1.87,0,0,0-2.28-1.27l-10.61,2.92h0s-4.63.68-13.55,1a.41.41,0,0,1-.42-.4.4.4,0,0,1,.39-.42c8.54-.32,13.07-.94,13.44-1l10.58-2.92a2.68,2.68,0,0,1,3,3.88,2.63,2.63,0,0,1-1.62,1.28l-5.19,1.45a.57.57,0,0,0-.41.41.6.6,0,0,0,.13.57,9,9,0,0,0,2.6,2,64.75,64.75,0,0,0,8.51,3.71,2.33,2.33,0,0,1,1.65,2.13,1.86,1.86,0,0,1-1.34,1.78A.35.35,0,0,1,178.14,128.12Z"/><path class="cls-1" d="M197.59,90.35l0,0a17,17,0,0,0-9.06.11c-.54,1,1.61,1.53,5.42,2.42a46.72,46.72,0,0,0-4.28,8.47,2.09,2.09,0,0,0,2.23,2.79,29.87,29.87,0,0,0,6-1.63l1.84-.88C200.13,95.73,199.82,91.11,197.59,90.35Z"/><path d="M191.67,104.53a2.52,2.52,0,0,1-2-1,2.47,2.47,0,0,1-.38-2.4,46.57,46.57,0,0,1,4-8.07c-3.08-.71-4.79-1.15-5.18-2a1,1,0,0,1,0-.88.43.43,0,0,1,.24-.2,17.33,17.33,0,0,1,9.29-.12.37.37,0,0,1,.2.12c2,.88,2.69,4.38,2.29,11.58a.42.42,0,0,1-.24.35l-1.84.88,0,0a29.89,29.89,0,0,1-6.11,1.64A1.62,1.62,0,0,1,191.67,104.53Zm-2.78-13.77h0c.25.53,2.49,1,5.08,1.65l.1,0a.42.42,0,0,1,.29.24.4.4,0,0,1,0,.37,46.53,46.53,0,0,0-4.24,8.4,1.64,1.64,0,0,0,.25,1.61,1.68,1.68,0,0,0,1.54.63,29.75,29.75,0,0,0,5.92-1.59l1.6-.77c.23-4.27.25-9.86-1.94-10.61a.24.24,0,0,1-.11-.06A16.52,16.52,0,0,0,188.89,90.76ZM199.8,101.6Z"/></svg>