<svg id="Capa_1" data-name="Capa 1" xmlns="http://www.w3.org/2000/svg" viewBox="0 0 350 669"><defs><style>.cls-1{fill:#fff;}</style></defs><polygon class="cls-1" points="160.72 562.13 160.72 586.6 172.48 585.88 174.79 562.13 160.72 562.13"/><path d="M160.72,587.5a.86.86,0,0,1-.61-.25.89.89,0,0,1-.29-.65V562.13a.89.89,0,0,1,.9-.89h14.07a.89.89,0,0,1,.89,1L173.37,586a.9.9,0,0,1-.84.81l-11.75.71Zm.9-24.47v22.62l10-.62,2.14-22Z"/><path class="cls-1" d="M174.24,617.1c-4.79.52-18,.92-21.75-.72-3.31-1.45-6.23-8.23-4.55-10.77,4.19-6.35,7-17.35,9.49-26a.59.59,0,0,1,1.07-.16l2.51,3.79,1.83-4.45a1.81,1.81,0,0,1,1.39-.88l4.12-.07c.94-.09,2,.82,2.52,1.69l3,3.71,1.65-3a.6.6,0,0,1,1.12.21L180.06,609C180.16,613.58,177,616.81,174.24,617.1Z"/><path d="M164,618.45c-4.8,0-9.73-.3-11.9-1.25-2.44-1.07-4.38-4.33-5.14-6.92-.64-2.16-.57-4,.2-5.17,3.68-5.58,6.3-14.84,8.61-23l.76-2.7a1.5,1.5,0,0,1,1.21-1.06,1.47,1.47,0,0,1,1.47.65l1.58,2.38L162,578.5a.34.34,0,0,1,.06-.12,2.72,2.72,0,0,1,2.07-1.31l4.19-.08c1.33-.13,2.61,1,3.29,2.09l2.08,2.6,1-1.85a1.5,1.5,0,0,1,2.8.53L181,608.89c.12,5-3.33,8.75-6.61,9.11C172.25,618.22,168.18,618.45,164,618.45Zm-5.92-37.91c-.19.67-.39,1.36-.58,2.06-2.35,8.29-5,17.69-8.84,23.5-.46.7-.46,2.07,0,3.67.77,2.6,2.55,5.09,4.14,5.78,3.31,1.45,15.84,1.25,21.29.66,2.45-.26,5.11-3.28,5-7.2l-3.33-27.49-1.2,2.2a.88.88,0,0,1-.71.46.9.9,0,0,1-.78-.33l-3-3.71c-.54-.82-1.31-1.4-1.74-1.36l-4.19.08a.89.89,0,0,0-.6.39l-1.8,4.38a.9.9,0,0,1-.75.55.87.87,0,0,1-.83-.4Z"/><path d="M164.44,613A41,41,0,0,1,154,611.65a.89.89,0,1,1,.45-1.73,39.48,39.48,0,0,0,20.38-.13.9.9,0,1,1,.57,1.7A37.49,37.49,0,0,1,164.44,613Z"/><path d="M169.57,600.18H158.84a.9.9,0,0,1,0-1.8h10.73a.9.9,0,0,1,0,1.8Z"/><polygon class="cls-1" points="247.2 549.19 250.67 578.69 261.69 578.3 261.69 549.19 247.2 549.19"/><path d="M250.67,579.58a.9.9,0,0,1-.89-.79l-3.47-29.49a.92.92,0,0,1,.22-.71.89.89,0,0,1,.67-.3h14.49a.9.9,0,0,1,.9.9V578.3a.9.9,0,0,1-.87.9l-11,.38Zm-2.46-29.49,3.26,27.67,9.32-.32V550.09Z"/><path class="cls-1" d="M247.07,571.67s-.44,13.08,0,18.35c.31,3.77,5.48,15.16,8.4,21.33a9.45,9.45,0,0,0,6.16,5.06,24.06,24.06,0,0,0,11.19.31c5.78-.94,7.57-6.23,5.87-11.29a66.08,66.08,0,0,0-8.5-16.13c-3.13-4.58-6-18.14-6-18.14h-9l-2.54,7.52Z"/><path d="M267.73,618.13a27.7,27.7,0,0,1-6.3-.84,10.4,10.4,0,0,1-6.78-5.56c-3.69-7.83-8.17-18-8.47-21.64-.44-5.26,0-17.91,0-18.45a.89.89,0,0,1,.62-.82.9.9,0,0,1,1,.29l4.59,5.73,2-6a.9.9,0,0,1,.85-.61h9a.91.91,0,0,1,.88.71c0,.14,2.85,13.45,5.85,17.83a67,67,0,0,1,8.61,16.35,10.36,10.36,0,0,1-.58,8.63,8.25,8.25,0,0,1-6,3.83A32.14,32.14,0,0,1,267.73,618.13Zm-19.83-44c-.1,4-.25,12,.07,15.8.21,2.64,3.24,10.3,8.31,21a8.62,8.62,0,0,0,5.55,4.57,23.4,23.4,0,0,0,10.85.3,6.52,6.52,0,0,0,4.75-3,8.61,8.61,0,0,0,.41-7.13,65.53,65.53,0,0,0-8.39-15.91c-2.82-4.11-5.33-14.85-6-17.75h-7.61L253.53,579a.9.9,0,0,1-.69.6.91.91,0,0,1-.86-.33Z"/><path d="M269.13,612.7a21.12,21.12,0,0,1-2.24-.12,11.23,11.23,0,0,1-6.8-3.52,18.62,18.62,0,0,1-3-4.14c-1.12-2.26-2.26-4.83-3.09-6.7-.56-1.27-1.15-2.59-1.33-2.89a.9.9,0,0,1,1.25-1.28c.28.23.43.52,1.72,3.44.83,1.86,2,4.41,3.06,6.63a16.78,16.78,0,0,0,2.71,3.72,9.43,9.43,0,0,0,5.7,3,16.23,16.23,0,0,0,6.55-.57.91.91,0,0,1,1.17.51.9.9,0,0,1-.51,1.16A15,15,0,0,1,269.13,612.7Z"/><path d="M271,600.54h-9.83a.9.9,0,0,1,0-1.79H271a.9.9,0,1,1,0,1.79Z"/><path d="M141.83,317.55s1.18,90,4.95,148.62C150,516.57,156,556.76,157.6,567a3.57,3.57,0,0,0,3,3,44.34,44.34,0,0,0,13.5-.13,3.59,3.59,0,0,0,2.85-2.74c2.23-10.08,11.32-52.22,11.32-68.32,0-17.45-3.13-21.83-3.48-36.05-.26-10.65,3.3-48.51,5.11-66.88a2.26,2.26,0,0,1,4.38-.52C200.11,412,212.46,448,224,485c.59,1.89,3.53,18,4.1,19.9,7.16,23.07,13.9,41.57,16.37,52.42a4.42,4.42,0,0,0,3.61,3.38c3.42.56,9.18,1.06,14.28-.55a4.39,4.39,0,0,0,3-4.25c-.1-11.94-.54-56.3-1.55-63.75-2.17-16-14.63-31.72-16.87-48.69s-3.54-59.57-9.71-85.12S219,304,219,304Z"/><path class="cls-1" d="M167.35,571.38a52.29,52.29,0,0,1-6.83-.47,4.49,4.49,0,0,1-3.8-3.74c-1.73-11-7.6-50.85-10.83-100.94-3.74-58-4.94-147.77-4.95-148.67a.88.88,0,0,1,.74-.89l77.19-13.52a.9.9,0,0,1,1,.54c.12.28,12.19,29.06,18.31,54.39,4.2,17.43,6.12,42.4,7.67,62.46.71,9.31,1.33,17.34,2,22.75,1.12,8.51,4.91,16.84,8.58,24.9C260,476,263.67,484,264.75,492c1,7.42,1.45,50.76,1.56,63.86a5.33,5.33,0,0,1-3.67,5.11c-5.13,1.62-10.82,1.22-14.7.59a5.29,5.29,0,0,1-4.33-4.07c-1.53-6.68-4.63-16.15-8.57-28.14-2.37-7.23-5.06-15.42-7.78-24.22-.3-1-1.15-5.31-2-9.9-.83-4.26-1.77-9.09-2.06-10-11.4-36.45-23.49-71.75-29.68-89.55a1.36,1.36,0,0,0-2.64.32c-1.62,16.49-5.37,56-5.1,66.77a99.68,99.68,0,0,0,1.63,15.31,111.69,111.69,0,0,1,1.85,20.76c0,15.94-8.68,56.47-11.34,68.51a4.48,4.48,0,0,1-3.57,3.43A37.21,37.21,0,0,1,167.35,571.38ZM142.74,318.3c.13,8.9,1.39,92.76,4.94,147.82,3.22,50,9.09,89.78,10.81,100.78a2.67,2.67,0,0,0,2.27,2.23A43.91,43.91,0,0,0,174,569a2.7,2.7,0,0,0,2.15-2.06c1.88-8.54,11.29-52,11.29-68.12a110.25,110.25,0,0,0-1.82-20.47,101.92,101.92,0,0,1-1.66-15.56c-.26-10.47,3.09-46.46,5.11-67a3.15,3.15,0,0,1,6.12-.73c6.2,17.81,18.3,53.13,29.71,89.6.31,1,1.18,5.46,2.1,10.19.85,4.34,1.73,8.84,2,9.71,2.72,8.78,5.41,17,7.78,24.19,3.95,12,7.07,21.54,8.61,28.3a3.5,3.5,0,0,0,2.87,2.7c3,.49,8.82,1.07,13.87-.53a3.51,3.51,0,0,0,2.41-3.38c-.11-13.08-.55-56.32-1.54-63.64-1.05-7.72-4.49-15.28-8.14-23.29-3.72-8.17-7.58-16.63-8.73-25.4-.72-5.46-1.34-13.52-2.06-22.85-1.54-20-3.46-44.88-7.63-62.18-5.56-23.06-16.11-49-17.94-53.46Z"/><path d="M182.81,143.24c-7-2.42-16.44,2.28-17.74,13.19-1,8.92,7.58,13.37,10.89,18.9,10.73,17.87,2.7,63.94,20.77,81.77,14.41,14.23,45.67,19.43,67.19,2.72,20.46-15.88,29.95-43.9,15.56-61.16-12.93-15.51-26.65-3.08-40.75-18-13.9-14.73-7.26-25-16.41-31.86C209.8,139.47,202.65,150.08,182.81,143.24Z"/><path class="cls-1" d="M224.18,351a1,1,0,0,1-.34-.06c-16.46-6.76-21.19-22.42-21.39-23.09a.91.91,0,0,1,.61-1.11.9.9,0,0,1,1.12.61c0,.15,4.7,15.51,20.34,21.93a.89.89,0,0,1,.49,1.17A.9.9,0,0,1,224.18,351Z"/><path class="cls-1" d="M72,131.88l4.56,12.38a12.84,12.84,0,0,1-1.17,11.61l-4.08,6.55a6.29,6.29,0,0,0-.77,3.63c.09,2.86.73,7.2.73,7.2l-10.48.7s.87-5.59,1.31-7.52a10.78,10.78,0,0,0-.74-7.36,29.38,29.38,0,0,1-3.12-14.48l7.29,1.55s2-3.89,1.28-10.48a9.52,9.52,0,0,1,.2-3.8A2.61,2.61,0,0,1,72,131.88Z"/><path d="M60.79,174.84a.89.89,0,0,1-.88-1c0-.23.88-5.64,1.31-7.58a9.88,9.88,0,0,0-.65-6.74,29.85,29.85,0,0,1-3.22-15,.88.88,0,0,1,.36-.64.89.89,0,0,1,.72-.16l6.56,1.4a20.14,20.14,0,0,0,.93-9.34,10.48,10.48,0,0,1,.23-4.16,3.4,3.4,0,0,1,3.29-2.48h0a3.48,3.48,0,0,1,3.38,2.46L77.4,144a13.81,13.81,0,0,1-1.25,12.41l-4.08,6.53a5.45,5.45,0,0,0-.64,3.13c.09,2.78.73,7,.73,7.09a.9.9,0,0,1-.83,1l-10.48.7Zm-1.68-29.15a28.6,28.6,0,0,0,3,13,11.65,11.65,0,0,1,.81,8c-.3,1.35-.84,4.62-1.12,6.35l8.4-.57c-.2-1.45-.55-4.25-.61-6.33a7.23,7.23,0,0,1,.91-4.14l4.08-6.54a12,12,0,0,0,1.09-10.81l-4.57-12.4v-.05a1.7,1.7,0,0,0-1.67-1.21h0a1.61,1.61,0,0,0-1.59,1.18,8.84,8.84,0,0,0-.17,3.45c.77,6.78-1.29,10.83-1.38,11a.88.88,0,0,1-1,.46Z"/><path class="cls-1" d="M195.34,209.31c-14.2-5.65-39.9-6.06-58.52,1.06-12.23,3.74-31,8.84-44-3.17C75.91,191.48,74,169.55,74,169.55L58.19,169s-9.54,26.31,3.23,55.78c11.87,27.41,59.31,36.48,67.63,37.87l.62,12.77q.41,8.38.13,16.78c-.6,18.41-1.16,64.43,7.89,71.68,21.25,17,94.31,8.84,101.85-12.69C247.81,327.61,225.5,221.3,195.34,209.31Z"/><path d="M176.51,373.93c-16.18,0-31.28-2.87-39.38-9.36-9-7.2-9-48.45-8.22-72.41.18-5.51.13-11.13-.14-16.71l-.58-12.05c-10.77-1.87-55.89-11.25-67.6-38.27-12.76-29.46-3.34-56.18-3.24-56.45a.86.86,0,0,1,.87-.59l15.82.57a.89.89,0,0,1,.87.81c0,.22,2.08,21.79,18.55,37.07,13.08,12.15,32.6,6.18,43.09,3,19.69-7.52,45.54-6.44,59.12-1,31.17,12.4,52.92,119.61,44.72,143-2.48,7.07-11.88,13.27-26.49,17.45A140.5,140.5,0,0,1,176.51,373.93Zm-117.68-204a82,82,0,0,0,3.41,54.51c11.62,26.81,57.82,35.81,67,37.34a.89.89,0,0,1,.75.84l.62,12.77c.27,5.62.31,11.29.13,16.85-1.3,39.6,1.53,66.12,7.55,70.95,13.86,11.1,50.74,11,75.16,4,14-4,23-9.82,25.29-16.32,4-11.36.66-43.5-7.72-74.76-9.7-36.22-23.15-60.89-36-66-13.27-5.27-38.54-6.32-57.87,1.07-10.9,3.33-31.06,9.5-44.9-3.35-15.18-14.09-18.48-33.33-19-37.44Z"/><path class="cls-1" d="M140.73,266.25c-1.67,1.85,1.62,4.41,2.93,6.51.81,1.29-.2,2.21-1.6,1.62-4.06-1.7-17.43-7.6-20.38-3.92-1,1.29-.34,4,1.73,6.53,4.33,5.31,17.68,11.75,25.16,13.48,4.44,1,11.66,5.12,12.43,4.91,3.29-.89,2.91-5,3.6-8.8.07-.39-6-4.08-12.34-13.27C149,268.53,142.28,264.54,140.73,266.25Z"/><path d="M160.93,296.29c-.57,0-1.46-.39-4.08-1.6a52.49,52.49,0,0,0-8.48-3.35c-8-1.85-21.27-8.41-25.66-13.78-2.37-2.91-3.07-6-1.73-7.66,2.85-3.55,12.11-.28,20.78,3.38l.64.27c.41.17.63.11.66.08a.9.9,0,0,0-.16-.39,18.1,18.1,0,0,0-1.27-1.67c-1.48-1.78-3.31-4-1.56-5.93h0a2.38,2.38,0,0,1,2-.69c3,.2,8.2,3.94,10.91,7.85a57.67,57.67,0,0,0,11.17,12.14c1.1.91,1.43,1.18,1.32,1.8-.15.79-.25,1.62-.34,2.41-.37,3.07-.75,6.24-3.92,7.1A1,1,0,0,1,160.93,296.29Zm-35.85-26.16a3.33,3.33,0,0,0-2.7.89c-.66.82-.19,3.06,1.72,5.41,4.06,5,17,11.39,24.68,13.16a53.56,53.56,0,0,1,8.82,3.47,35.11,35.11,0,0,0,3.29,1.42c1.79-.57,2.11-2.49,2.48-5.54.08-.68.16-1.39.28-2.1l-.63-.52a59.43,59.43,0,0,1-11.5-12.5c-2.59-3.75-7.34-6.93-9.54-7.08-.34,0-.52,0-.58.11-.66.72.21,1.89,1.61,3.58a17.45,17.45,0,0,1,1.41,1.85,2.09,2.09,0,0,1,0,2.52,2.34,2.34,0,0,1-2.72.41l-.64-.27C133.5,271.74,128.15,270.13,125.08,270.13Z"/><path class="cls-1" d="M157.37,298.66l9.06-15.05s25.78,7.53,36,3c17.91-7.88,14.52-35.42,11.48-49.12s-20.26-27-20.26-27,30.06,9.68,43,31.24c12,20,19.59,69.84-17.73,78.11C194.53,325.27,157.37,298.66,157.37,298.66Z"/><path d="M211.83,321.49c-23.82,0-53.6-21.1-55-22.1a.9.9,0,0,1-.25-1.19l9.06-15.05a.9.9,0,0,1,1-.4c.26.08,25.59,7.38,35.43,3.05,8.38-3.68,12.87-12.29,13.34-25.58a.89.89,0,0,1,.93-.87.9.9,0,0,1,.86.93c-.49,14-5.34,23.18-14.41,27.17-9.62,4.23-31.77-1.61-36-2.78l-8.28,13.74c4.64,3.18,31.94,21.27,53.36,21.27a31.78,31.78,0,0,0,6.83-.7c11-2.45,18.82-8.76,23.12-18.75,8.21-19.08,1.29-45.91-6-58-12.61-21-42.2-30.75-42.5-30.85a.9.9,0,1,1,.55-1.71c.31.1,30.54,10,43.48,31.64,7.46,12.44,14.55,40,6.09,59.65-4.54,10.56-12.75,17.22-24.39,19.8A33.7,33.7,0,0,1,211.83,321.49Z"/><path class="cls-1" d="M188.88,178.71a1,1,0,0,1-1.15-1.1c.18-3.07.87-8.85-2.19-11.28-3.91-3.11-10.4-7.8-12.67-4.62-2,2.8-3.85,8.36-8.87,10.65-.48.22-.49.93-.25,1.4l1.21,2.67a3.91,3.91,0,0,1-.08,2.34c-.62,1.74-2.09,5.36-1.73,6.08.69,1.42,6.41,3.72,6.41,3.72L166.74,206c-.11.67-.49,1.78-1.15,1.65l-6.8.85s.9,9.35,15.55,11.2c19.15,2.43,21.26-5.78,21.26-5.78s-18.83-4-11.77-24.65a1.36,1.36,0,0,1,1-.88c1.79-.37,6.74-1.6,7.52-4.86C193.2,180.1,191.07,178.51,188.88,178.71Z"/><path d="M180.91,221.09a52.57,52.57,0,0,1-6.68-.46c-15.19-1.92-16.3-11.59-16.34-12a.9.9,0,0,1,.79-1l6.8-.85h.07a2.59,2.59,0,0,0,.3-.89l2.71-16.77c-1.85-.78-5.53-2.48-6.22-3.88-.4-.83.07-2.41,1.36-5.87.13-.33.24-.65.34-.91a3.58,3.58,0,0,0,.12-1.64l-1.22-2.7a2.17,2.17,0,0,1-.14-1.66,1.55,1.55,0,0,1,.83-.92c3.49-1.6,5.4-5,6.94-7.75.54-1,1.05-1.87,1.57-2.61a3.34,3.34,0,0,1,2.32-1.4c2.53-.36,6.11,1.45,11.64,5.84,3.16,2.51,2.81,7.73,2.58,11.18l-.05.85a.16.16,0,0,0,0,.12.17.17,0,0,0,.12,0,4.22,4.22,0,0,1,3.65,1.36,4.88,4.88,0,0,1,.79,4.6c-.85,3.52-5.51,5-8.21,5.52a.47.47,0,0,0-.34.3c-2.15,6.28-2,11.58.32,15.73,3.47,6.13,10.72,7.74,10.79,7.76a.87.87,0,0,1,.57.4.91.91,0,0,1,.11.7C196.39,214.51,194.51,221.09,180.91,221.09Zm-21-11.78c.62,2.23,3.32,8.12,14.59,9.54,14.29,1.81,18.67-2.45,19.87-4.31-2.34-.72-7.83-2.93-10.88-8.32-2.63-4.63-2.78-10.41-.46-17.2a2.24,2.24,0,0,1,1.68-1.47c1.84-.38,6.19-1.54,6.83-4.19a3.32,3.32,0,0,0-.41-3,2.44,2.44,0,0,0-2.12-.74,1.95,1.95,0,0,1-2.12-2.05l0-.87c.2-2.89.52-7.73-1.9-9.65-4.91-3.9-8.36-5.73-10.27-5.47a1.58,1.58,0,0,0-1.12.66c-.47.67-.95,1.53-1.47,2.45-1.64,2.94-3.69,6.59-7.63,8.44a.5.5,0,0,0,.05.23l1.23,2.71a4.71,4.71,0,0,1-.05,3l-.35.93a24.35,24.35,0,0,0-1.39,4.51c.43.62,3.12,2.1,5.91,3.22a.88.88,0,0,1,.55,1l-2.83,17.48a3.46,3.46,0,0,1-1.1,2.14,1.45,1.45,0,0,1-.92.26Zm5.91-2.5ZM164,184.57Zm24.89-5.86h0Z"/></svg>