<svg id="Capa_1" data-name="Capa 1" xmlns="http://www.w3.org/2000/svg" viewBox="0 0 352 330"><defs><style>.cls-1{fill:#fff;}</style></defs><path d="M159.55,123.28c4.92,13,9.83,54.22-9.09,79.79s-64.31,39.16-94.38,19.06c-36.27-24.23-31.06-84.69-9-109.95C59.48,98,71.27,101.63,88.34,81.34s13.69-33.8,28.58-42c17.92-9.83,44.06-2.08,48.71,8.55,4.15,9.51-9.11,17.26-11.64,39.48A45.54,45.54,0,0,0,153.91,98,116.25,116.25,0,0,0,159.55,123.28Z"/><path d="M108.75,29.29c2.8,4.12,5,17.46-1.18,21.66s-18.5-2.3-21.29-6.43,0-10.89,6.17-15.09S106,25.16,108.75,29.29Z"/><path class="cls-1" d="M93.08,167.41s-13.43-33.76-5.52-40.88c.42-.37,5.76-.92,11.24,4.09,5.16,4.73,10.49,15,10.49,15l1.76,23.3Z"/><path d="M111.05,169.44h0L93,167.9a.48.48,0,0,1-.42-.31c-.55-1.39-13.47-34.16-5.39-41.43.74-.66,6.37-1,11.9,4.1,5.17,4.73,10.38,14.73,10.6,15.15a.45.45,0,0,1,0,.19l1.76,23.31a.46.46,0,0,1-.15.38A.45.45,0,0,1,111.05,169.44ZM93.43,167l17.08,1.45-1.7-22.62c-.54-1-5.55-10.41-10.35-14.8-5.16-4.72-10-4.3-10.6-4.06C80.73,133.46,92.16,163.68,93.43,167Z"/><path class="cls-1" d="M195.24,106.14s5.24,1.12,9.35,7.48c8.21,12.68,20.9,35.74,41.21,39.18,30.48,5.17,48.94-31.91,46.32-40.22A22.71,22.71,0,0,0,280.55,105s-.07-5.79,6.18-3.05,8.76,1.07,11.55.41c4.92-1.15,15.36-13,19.25-14.45s2.67,1.74,2.67,1.74,3.81-4.29,6.44-2.14l-5.6,7.4s4.53-6,7.15-3l-11.71,13.71,8.58-6.74s1.2,1.32-1.05,3.65-11.37,15.07-20.11,15.07c0,0,4.71,70.22-47.88,73.07-45.18,2.45-63.57-34-63.57-34Z"/><path d="M251.76,191.31A67.56,67.56,0,0,1,207,175a66.51,66.51,0,0,1-15-18.07.54.54,0,0,1-.06-.25l2.8-50.57a.52.52,0,0,1,.19-.37.55.55,0,0,1,.41-.09c.22,0,5.48,1.25,9.66,7.7l2.45,3.84c8.06,12.76,20.25,32,38.42,35.12,16.8,2.85,28.78-7.6,34.43-14.08,8.76-10,12.5-21.51,11.37-25.42a22.38,22.38,0,0,0-11.24-7.32.49.49,0,0,1-.38-.47c0-.11,0-2.58,1.73-3.73,1.22-.81,2.95-.74,5.14.22,5,2.21,7.47,1.48,9.82.78.48-.15.94-.28,1.42-.4,2.64-.61,7.16-4.64,11.16-8.19,3.34-3,6.23-5.55,8-6.24,1.49-.58,2.5-.58,3.08,0a1.45,1.45,0,0,1,.42.89c1.41-1.22,4-2.92,6.1-1.21a.49.49,0,0,1,.08.68l-2.52,3.33a4.33,4.33,0,0,1,1.82-.54,2.76,2.76,0,0,1,2.24,1,.49.49,0,0,1,0,.64l-8.49,9.94,4.68-3.68a.5.5,0,0,1,.67.06c.06.07,1.47,1.69-1.06,4.32-.33.35-.83.94-1.46,1.69-3.61,4.29-11,13.12-18.49,13.51.2,4.58,1.05,38.5-16.57,58.4-8,9-18.71,14-31.8,14.7C254.59,191.28,253.16,191.31,251.76,191.31ZM193,156.6a66.15,66.15,0,0,0,14.7,17.68c9.27,8,25.19,17.19,48.35,15.93,12.81-.69,23.28-5.53,31.11-14.37,18.56-21,16.32-57.81,16.3-58.18a.46.46,0,0,1,.13-.37.48.48,0,0,1,.36-.16c7.18,0,14.66-8.9,18.26-13.18.64-.76,1.15-1.36,1.5-1.73,1.16-1.21,1.29-2,1.21-2.53L316.78,106a.49.49,0,0,1-.66,0,.52.52,0,0,1,0-.67L327.52,92a1.72,1.72,0,0,0-1.15-.38c-1.84.07-4.19,2.64-4.94,3.63h0a.48.48,0,0,1-.69.09.47.47,0,0,1-.17-.53h0a.35.35,0,0,1,.08-.16l5.28-7C323.7,86.51,320.6,90,320.57,90a.48.48,0,0,1-.62.09.48.48,0,0,1-.21-.59c.11-.31.27-1.06,0-1.33-.1-.09-.53-.36-2,.22s-4.58,3.26-7.72,6.05c-4.28,3.81-8.7,7.75-11.59,8.43-.45.1-.89.23-1.36.37-2.4.73-5.12,1.54-10.5-.82-1.85-.81-3.27-.91-4.2-.3a3.46,3.46,0,0,0-1.26,2.52,23.21,23.21,0,0,1,11.45,7.65.51.51,0,0,1,.07.15C294,117,289.66,129,281.05,138.88c-5.11,5.87-15.3,14.9-29.51,14.9a33.82,33.82,0,0,1-5.83-.49c-18.6-3.16-30.93-22.66-39.09-35.57-.85-1.35-1.67-2.64-2.44-3.83a17.13,17.13,0,0,0-8.48-7.1Z"/><path d="M310.38,100.17A.52.52,0,0,1,310,100a.49.49,0,0,1,0-.7l9.82-10a.49.49,0,1,1,.7.69l-9.82,10A.49.49,0,0,1,310.38,100.17Z"/><path d="M314.38,102.19a.47.47,0,0,1-.35-.14.49.49,0,0,1,0-.69l6.67-6.78a.49.49,0,0,1,.7,0,.5.5,0,0,1,0,.7l-6.66,6.78A.49.49,0,0,1,314.38,102.19Z"/><path d="M296.85,113.1a.46.46,0,0,1-.2,0,.49.49,0,0,1-.25-.65c.12-.27,3.05-6.61,7.81-5.63a14.49,14.49,0,0,0,7.28-.23.49.49,0,0,1,.64.29.5.5,0,0,1-.29.63,15.31,15.31,0,0,1-7.83.28c-4-.82-6.68,5-6.71,5.07A.49.49,0,0,1,296.85,113.1Z"/><path class="cls-1" d="M87.56,126.53s92.53-25.93,111.23-22.82l6.54,43.6,12.37,33.35a27.33,27.33,0,0,1-5.36,28c-7.71,8.43-20.53,17.35-40.61,18.25-39,1.76-57.95,11.37-60-5.86s-4.52-58.56-4.52-58.56C101,146,93.37,127,87.56,126.53Z"/><path d="M125.31,231.6c-4.48,0-7.88-.67-10.25-2.52-2.14-1.68-3.39-4.3-3.84-8-2-16.7-4.4-56.51-4.52-58.51C102,150.26,93.41,127.5,87.52,127a.48.48,0,0,1-.45-.44.49.49,0,0,1,.36-.52c3.78-1.06,92.84-25.94,111.44-22.83a.48.48,0,0,1,.4.41l6.54,43.55,12.35,33.3a27.7,27.7,0,0,1-5.45,28.45c-7.21,7.88-20.17,17.48-41,18.41-11.44.52-21.3,1.73-29.23,2.7A154.13,154.13,0,0,1,125.31,231.6Zm-36.06-105c5.65,3.14,12.17,19.26,18.4,35.7a.32.32,0,0,1,0,.14c0,.41,2.48,41.51,4.52,58.53.42,3.5,1.52,5.84,3.47,7.36,4.47,3.51,13.33,2.42,26.73.77,7.94-1,17.83-2.18,29.31-2.7,20.45-.92,33.19-10.35,40.27-18.09a26.74,26.74,0,0,0,5.26-27.45l-12.38-33.35a.3.3,0,0,1,0-.1l-6.49-43.23C180.58,101.65,101.39,123.22,89.25,126.57Z"/><path class="cls-1" d="M150.3,96.85c3.34.53,6.58,0,8.22-1.5,2-1.82,1.86-4.44,2.09-7.67a8.57,8.57,0,0,1,1.12-4.49,6.79,6.79,0,0,1,1.89-2,2.06,2.06,0,0,0,.61-2.62l-.38-.52c-3-4-4.36-11.26-3.88-18.77l-2.08-3.83c-5.76-.85-10.34-.58-10.86.43-.2.37-.54.66-.17,2.14C148.64,65.22,142,66,136.32,66s-1.46,9.5-1.46,9.5-4.37-3.53-7.2,1.1c-2,3.32,4.2,6.5,7.89,8,0,0,0,23.23-4.66,26.33l-13.06,8.31s28.58,7,48.26-9.73c0,0-8.75.47-12.6-2.51S150.7,97.6,150.3,96.85Z"/><path d="M132,121.14a66.68,66.68,0,0,1-14.23-1.42.49.49,0,0,1-.15-.89l13.06-8.32c3.6-2.37,4.41-19,4.43-25.58-3.33-1.41-7.32-3.58-8.14-6.1a2.92,2.92,0,0,1,.32-2.53,5,5,0,0,1,3.39-2.56,5.49,5.49,0,0,1,3.24.55c-.69-2-1.67-5.56-.4-7.5a3.19,3.19,0,0,1,2.85-1.33c3.49,0,7.71-.22,9.48-2.47.91-1.15,1.1-2.72.58-4.8a2.79,2.79,0,0,1,.14-2.38.41.41,0,0,0,.07-.11c.78-1.51,6.44-1.42,11.37-.69a.46.46,0,0,1,.36.25l2.08,3.84a.48.48,0,0,1,.06.26c-.48,7.54,1,14.61,3.79,18.45l.37.52,0,.06a2.53,2.53,0,0,1-.76,3.25,6.34,6.34,0,0,0-1.76,1.82,7.65,7.65,0,0,0-1,3.88l0,.38c0,.45-.06.89-.08,1.31-.15,2.68-.27,5-2.17,6.69-1.63,1.47-4.64,2.11-8,1.71,0,.21,0,.47,0,.8.05,2.19.13,6.26,2.88,8.38,3.66,2.83,12.18,2.41,12.27,2.41a.49.49,0,0,1,.48.31.5.5,0,0,1-.14.56C155.6,119.06,142,121.14,132,121.14ZM119.12,119c5.44,1,28.61,4.42,45.56-9-2.7,0-8.46-.3-11.49-2.64s-3.21-6.79-3.26-9.14a7.38,7.38,0,0,0-.07-1.19.47.47,0,0,1,0-.51.5.5,0,0,1,.48-.19c3.24.52,6.31,0,7.81-1.37s1.7-3.45,1.84-6c0-.43.05-.88.09-1.33l0-.37a8.39,8.39,0,0,1,1.17-4.35,7.46,7.46,0,0,1,2-2.1,1.54,1.54,0,0,0,.48-2l-.36-.48c-3-4.06-4.46-11.14-4-19L157.57,56c-6.1-.87-9.82-.34-10.11.2a.8.8,0,0,1-.08.16c-.16.26-.32.54,0,1.64.59,2.37.33,4.27-.76,5.65-2,2.59-6.55,2.88-10.27,2.85a2.22,2.22,0,0,0-2,.88c-1.22,1.87.32,6.36,1,7.93a.48.48,0,0,1-.15.59.5.5,0,0,1-.61,0,5.42,5.42,0,0,0-3.76-1.13,4,4,0,0,0-2.71,2.1,2,2,0,0,0-.22,1.71c.56,1.74,3.36,3.74,7.88,5.62a.48.48,0,0,1,.3.45c0,1,0,23.53-4.88,26.74Z"/><path d="M150.3,97.34h-.05c-6.46-.66-10.88-8.32-11.07-8.64a.51.51,0,0,1,.19-.68.49.49,0,0,1,.67.19c.05.07,4.36,7.54,10.31,8.15a.49.49,0,0,1,0,1Z"/><path d="M205.6,207.77a5.56,5.56,0,0,0-5.12-3.44c-21,0-42.24,5.24-63.86,16a10.16,10.16,0,0,0-4.37,4.19c-4,7.16-14.54,27.09-20,45.11-1.93,6.43-4,14.74-5.67,21.82,1.31.69,2.62,1.36,4,2C134.25,305.1,160.79,311,189.48,311h0a229.66,229.66,0,0,0,47.74-5.22C230,268,211,220.7,205.6,207.77Z"/><path d="M239.86,220.82H170.51a3.53,3.53,0,0,1-3.45-4.11L182,123.36a3.5,3.5,0,0,1,3.45-3h69.34a3.53,3.53,0,0,1,3.45,4.11l-14.91,93.35A3.52,3.52,0,0,1,239.86,220.82Z"/><path class="cls-1" d="M237.65,220.58H168.31a3.53,3.53,0,0,1-3.45-4.11l14.91-93.18a3.52,3.52,0,0,1,3.45-3h69.34a3.52,3.52,0,0,1,3.45,4.11L241.1,217.61A3.5,3.5,0,0,1,237.65,220.58Z"/><path d="M237.65,221.07H168.31a4,4,0,0,1-3-1.4,4.07,4.07,0,0,1-.92-3.27l14.92-93.19a4,4,0,0,1,3.93-3.39h69.34a4,4,0,0,1,3,1.4,4,4,0,0,1,.91,3.28l-14.91,93.18A4,4,0,0,1,237.65,221.07ZM183.22,120.81a3,3,0,0,0-3,2.55l-14.91,93.19A3.08,3.08,0,0,0,166,219a3,3,0,0,0,2.27,1.06h69.34a3,3,0,0,0,3-2.56l14.92-93.19a3.06,3.06,0,0,0-.7-2.48,3,3,0,0,0-2.27-1Z"/><path d="M237.65,221.07H168.31a4,4,0,0,1-3-1.4,4.07,4.07,0,0,1-.92-3.27l14.92-93.07a4,4,0,0,1,3.93-3.39h69.34a4,4,0,0,1,3,1.4,4,4,0,0,1,.91,3.27l-14.91,93.08A4,4,0,0,1,237.65,221.07ZM183.22,120.93a3,3,0,0,0-3,2.55l-14.91,93.08A3.06,3.06,0,0,0,166,219a3,3,0,0,0,2.27,1.06h69.34a3,3,0,0,0,3-2.56l14.92-93.07a3.09,3.09,0,0,0-.69-2.48,3,3,0,0,0-2.28-1Z"/><path class="cls-1" d="M226.31,129h-20.1a5.23,5.23,0,0,1-5.11-6.13l.47-2.81a.58.58,0,0,1,.57-.49h31a.59.59,0,0,1,.58.69l-.47,2.85A7,7,0,0,1,226.31,129Z"/><path d="M226.31,129.46h-20.1a5.63,5.63,0,0,1-4.31-2,5.78,5.78,0,0,1-1.29-4.69l.47-2.81a1.08,1.08,0,0,1,1.06-.91h31a1,1,0,0,1,.82.39,1.08,1.08,0,0,1,.25.88l-.48,2.85A7.48,7.48,0,0,1,226.31,129.46ZM202.14,120a.11.11,0,0,0-.09.08l-.47,2.81a4.79,4.79,0,0,0,1.07,3.89,4.64,4.64,0,0,0,3.56,1.66h20.1a6.5,6.5,0,0,0,6.41-5.48l.47-2.84a.09.09,0,0,0,0-.09.09.09,0,0,0-.07,0Z"/><path class="cls-1" d="M212.78,125.69h8.59a.65.65,0,0,0,.65-.54l1.18-7.6a4.9,4.9,0,1,0-9.68-1.57l-1.39,9A.65.65,0,0,0,212.78,125.69Zm3.52-9.22v0a2,2,0,1,1,3.95.67v.06a2,2,0,0,1-2,1.69A2,2,0,0,1,216.3,116.47Z"/><path d="M221.37,126.18h-8.59a1.18,1.18,0,0,1-.88-.4,1.16,1.16,0,0,1-.26-.93l1.39-8.94a5.37,5.37,0,0,1,9.4-2.73,5.53,5.53,0,0,1,1.26,4.45l-1.18,7.59A1.14,1.14,0,0,1,221.37,126.18Zm-3-13.89a4.4,4.4,0,0,0-4.35,3.77l-1.39,9a.12.12,0,0,0,0,.12.15.15,0,0,0,.13.06h8.59s.15,0,.17-.12l1.17-7.59a4.5,4.5,0,0,0-1-3.65A4.37,4.37,0,0,0,218.36,112.29Zm-.09,7a2.46,2.46,0,0,1-1.89-.88,2.55,2.55,0,0,1-.57-2.07v0a2.48,2.48,0,0,1,4.35-1.23,2.52,2.52,0,0,1,.57,2.06v.06A2.5,2.5,0,0,1,218.27,119.34Zm0-4.13a1.51,1.51,0,0,0-1.49,1.29v0a1.57,1.57,0,0,0,.35,1.27,1.49,1.49,0,0,0,1.14.53,1.52,1.52,0,0,0,1.49-1.28V117a1.57,1.57,0,0,0-.35-1.27A1.52,1.52,0,0,0,218.28,115.21Zm-2,1.26Z"/><path class="cls-1" d="M194.28,169.05c-4.13-3.09-17.63-12.1-22.4-9.29-3.18,1.87-6.31,4.76-8.85,13l-54,19,.15-16.43A50.43,50.43,0,0,0,104,152.66L93.91,132.14a36.55,36.55,0,0,0-14,17.16c-11.09,28.48-8,79.76,2.71,82.45,28.66,7.23,84.08-50.27,84.08-50.27s15.08-.08,18-.37C197,179.87,197.05,171.13,194.28,169.05Z"/><path d="M88.06,232.88a22.92,22.92,0,0,1-5.54-.65c-1.72-.44-3.29-2-4.66-4.66-7.2-14-7.71-54.51,1.62-78.45a36.84,36.84,0,0,1,14.16-17.39.51.51,0,0,1,.4-.07.51.51,0,0,1,.31.26l10.09,20.53a51,51,0,0,1,5.21,22.88l-.14,15.73,53.12-18.73c2.62-8.31,5.87-11.16,9-13,5.81-3.42,22.25,8.81,23,9.33,1.46,1.1,2.06,3.55,1.42,5.84-.51,1.85-2.63,6.24-11.19,7.1-2.79.28-16,.36-17.87.37a327.11,327.11,0,0,1-31.2,27.74C115.81,225.11,99.81,232.88,88.06,232.88Zm5.66-100A35.78,35.78,0,0,0,80.4,149.48c-4.28,11-6.8,26.6-6.91,42.84-.11,15,1.9,28.31,5.24,34.8,1.24,2.39,2.59,3.79,4,4.15,28.06,7.08,83.05-49.56,83.6-50.14a.53.53,0,0,1,.36-.15c.15,0,15.09-.07,18-.36,8-.8,9.88-4.73,10.34-6.38.6-2.15-.1-4.07-1.07-4.79-4.6-3.45-17.49-11.83-21.85-9.27-3,1.76-6.1,4.51-8.63,12.68a.49.49,0,0,1-.31.32l-54,19a.51.51,0,0,1-.45-.06.52.52,0,0,1-.21-.41l.16-16.44a50.11,50.11,0,0,0-5.11-22.44Z"/><path d="M195.76,173.18a.47.47,0,0,1-.16,0l-18.82-6.46a.49.49,0,0,1-.31-.62.5.5,0,0,1,.63-.31l18.82,6.45a.5.5,0,0,1,.31.63A.48.48,0,0,1,195.76,173.18Z"/><path d="M194.7,176.72l-.14,0-18.37-5.47a.49.49,0,0,1,.28-.94l18.37,5.46a.5.5,0,0,1-.14,1Z"/><path d="M191.2,179.83a.34.34,0,0,1-.14,0c-6-1.67-15.17-4.18-15.82-4.24a.48.48,0,0,1-.48-.5.5.5,0,0,1,.5-.49c.63,0,12.46,3.28,16.07,4.28a.49.49,0,0,1,.34.61A.49.49,0,0,1,191.2,179.83Z"/></svg>