<svg id="Capa_1" data-name="Capa 1" xmlns="http://www.w3.org/2000/svg" viewBox="0 0 352 330"><defs><style>.cls-1{fill:#fff;}</style></defs><path d="M116.26,52.47c0,13.31-8.85,28.51-22.17,28.51S67.22,69.51,67.22,56.19s11.2-26.14,24.52-26.14S116.26,39.15,116.26,52.47Z"/><path d="M72.75,63.6A2.77,2.77,0,1,1,70,60.83,2.77,2.77,0,0,1,72.75,63.6Z"/><circle cx="74.19" cy="68.87" r="4.2"/><circle cx="79.45" cy="73.25" r="5.04"/><circle cx="87.15" cy="76.06" r="5.72" transform="translate(-13.89 19.75) rotate(-11.98)"/><path d="M89,76.7a6.3,6.3,0,1,0,5.62-6.92A6.3,6.3,0,0,0,89,76.7Z"/><circle cx="69.91" cy="54.06" r="5.14"/><circle cx="72.8" cy="47.98" r="5.59"/><circle cx="69.91" cy="59.67" r="3.19"/><circle cx="113.36" cy="53.24" r="4.33" transform="translate(-4.45 95.75) rotate(-45)"/><circle cx="113.62" cy="47.68" r="4.58"/><circle cx="110.43" cy="42.21" r="4.85" transform="translate(-7.49 33.81) rotate(-16.85)"/><circle cx="106.99" cy="36.27" r="4.54"/><circle cx="101.23" cy="33.16" r="3.11"/><path d="M99.6,32.13a3.93,3.93,0,1,1-3.93-3.93A3.93,3.93,0,0,1,99.6,32.13Z"/><circle cx="89.39" cy="34.52" r="5.32" transform="translate(35.26 113.58) rotate(-76.72)"/><circle cx="83.14" cy="34.8" r="4.75"/><circle cx="78.39" cy="37.36" r="5.17" transform="translate(-7.46 24.32) rotate(-16.84)"/><circle cx="71.54" cy="41.5" r="3.51"/><polygon class="cls-1" points="97.77 286.06 97.06 297.12 105.68 296.53 109.22 285.24 97.77 286.06"/><path d="M97.06,297.72a.6.6,0,0,1-.42-.18.57.57,0,0,1-.17-.46l.7-11.05a.6.6,0,0,1,.55-.56l11.46-.83a.59.59,0,0,1,.51.23.6.6,0,0,1,.1.55l-3.54,11.29a.6.6,0,0,1-.53.42l-8.62.59Zm1.27-11.1-.63,9.86,7.54-.52,3.15-10.06Z"/><path class="cls-1" d="M63.09,266.54c-1.31,1-8.86,12.78-8.86,12.78l7.24,7.82,9.9-12.58Z"/><path d="M61.47,287.73a.61.61,0,0,1-.44-.19l-7.24-7.81a.6.6,0,0,1-.06-.73c.78-1.21,7.64-11.89,9-12.93a.61.61,0,0,1,.78,0l8.27,8a.6.6,0,0,1,0,.8L61.94,287.5a.6.6,0,0,1-.45.23ZM55,279.26l6.45,7,9.13-11.61-7.46-7.23C61.7,269,57.62,275.15,55,279.26Z"/><path class="cls-1" d="M56.32,272.49,48.44,281a4.74,4.74,0,0,0-.15,6.26c6.06,7.21,20.54,24,23.47,23.1,6.89-2.12-5.18-28.24-5.18-28.24l-4.63,2Z"/><path d="M71.59,311c-2.76,0-10.75-7.84-23.76-23.34a5.36,5.36,0,0,1,.17-7.05l7.88-8.52a.58.58,0,0,1,.53-.19.58.58,0,0,1,.44.33l5.39,11.1,4.11-1.74a.6.6,0,0,1,.78.3c.39.85,9.61,20.95,6.81,27.2a3.16,3.16,0,0,1-2,1.86A1.16,1.16,0,0,1,71.59,311ZM56.16,273.54l-7.28,7.88a4.14,4.14,0,0,0-.13,5.47c13.39,16,21,22.94,22.69,22.94a.32.32,0,0,0,.14,0,2,2,0,0,0,1.27-1.2c2.35-5.25-5.12-22.46-6.57-25.7l-4.1,1.74a.6.6,0,0,1-.77-.29Z"/><path d="M70.8,307.29a.6.6,0,0,1-.46-.21L49.48,282.44a.58.58,0,0,1,.07-.84.6.6,0,0,1,.84.07l20.86,24.64a.59.59,0,0,1-.07.84A.56.56,0,0,1,70.8,307.29Z"/><path d="M64.81,293.12a.6.6,0,0,1-.51-.3.59.59,0,0,1,.21-.81l4.45-2.6a.6.6,0,0,1,.82.21.59.59,0,0,1-.22.81L65.11,293A.61.61,0,0,1,64.81,293.12Z"/><path d="M68.43,297.41a.61.61,0,0,1-.49-.25.59.59,0,0,1,.14-.83l2.43-1.72a.6.6,0,0,1,.69,1l-2.43,1.72A.53.53,0,0,1,68.43,297.41Z"/><path d="M60.78,265.26l10.57,11.62s29.27-26,40.68-40.33,31.34-36.45,22.75-76.89l-32.28-.17S94.51,225.06,60.78,265.26Z"/><path class="cls-1" d="M96,293.78l-2.16,11.38a5.08,5.08,0,0,0,5,4.51c10.07.15,33.78.19,35.1-2.8,3.11-7.06-26.45-15.59-26.45-15.59l-1.66,5.12Z"/><path d="M106.71,310.33c-2.46,0-5.09,0-7.88-.07a5.68,5.68,0,0,1-5.54-5,1.09,1.09,0,0,1,0-.18l2.16-11.39a.6.6,0,0,1,.74-.46l9.24,2.48,1.48-4.58a.59.59,0,0,1,.73-.39c1,.28,23.64,6.89,26.74,13.51a3.34,3.34,0,0,1,.09,2.89C133.54,309.25,124.21,310.33,106.71,310.33Zm-12.22-5.15a4.46,4.46,0,0,0,4.36,3.89c24.54.38,33.94-1.08,34.54-2.44a2.19,2.19,0,0,0-.08-1.91c-2.62-5.59-21.9-11.63-25.43-12.7l-1.48,4.57a.6.6,0,0,1-.72.39l-9.17-2.46Z"/><path d="M130.29,305.66h0l-34.52-.38a.59.59,0,0,1-.59-.6.58.58,0,0,1,.6-.59l34.52.38a.6.6,0,0,1,0,1.19Z"/><path d="M114.64,300.58h-.11a.6.6,0,0,1-.47-.7l1-5.42a.6.6,0,0,1,1.17.22l-1,5.42A.61.61,0,0,1,114.64,300.58Z"/><path d="M120.64,300.66h-.06a.6.6,0,0,1-.53-.65l.31-3.17a.59.59,0,0,1,1.18.12l-.31,3.16A.59.59,0,0,1,120.64,300.66Z"/><path d="M84.13,153.57a140.08,140.08,0,0,0,2.9,45c5.62,23.5,10.29,80.58,8.58,91.41l14.22.07s26.43-88.43,5.69-131.36Z"/><path class="cls-1" d="M93.66,257.09h0a.59.59,0,0,1-.56-.63c.35-6.43-4.22-36.08-4.26-36.38A.59.59,0,1,1,90,219.9c.19,1.23,4.63,30.08,4.28,36.63A.6.6,0,0,1,93.66,257.09Z"/><path class="cls-1" d="M132.81,92.39l69.65,11.37-10,7.12s-52.6,8.45-69.82,3.36Z"/><path d="M139.33,116.48c-6.78,0-12.75-.46-16.83-1.67a.56.56,0,0,1-.38-.32.58.58,0,0,1,0-.5l10.14-21.85a.6.6,0,0,1,.64-.34l69.65,11.37a.59.59,0,0,1,.48.45.58.58,0,0,1-.23.62l-10,7.12a.64.64,0,0,1-.26.1C190.94,111.73,161.05,116.48,139.33,116.48Zm-15.83-2.62c17.11,4.48,65.8-3.08,68.76-3.55l8.68-6.2L133.16,93.05Z"/><path class="cls-1" d="M81.9,168.09l56.2-8.42-7.48-41,6.55-.14,8.66-26.81s-38-6-63.85-5.27a24.09,24.09,0,0,0-16.51,7.2C59.4,99.85,51.15,109.3,48.89,117l27.19,10.26,2.59-3.81S73.85,149.15,81.9,168.09Z"/><path d="M81.9,168.68a.6.6,0,0,1-.55-.36C74.83,153,76.72,133,77.68,125.92l-1.1,1.63a.6.6,0,0,1-.71.22L48.68,117.51a.6.6,0,0,1-.36-.73c2.26-7.67,10.34-17,16.73-23.52A24.49,24.49,0,0,1,82,85.88c25.6-.69,63.57,5.21,63.95,5.27a.6.6,0,0,1,.42.28.61.61,0,0,1,.06.49l-8.67,26.81a.58.58,0,0,1-.55.41l-5.85.13,7.35,40.3a.59.59,0,0,1-.49.69L82,168.68ZM78.67,122.8a.64.64,0,0,1,.23,0,.6.6,0,0,1,.36.66c-.05.25-4.62,25.41,3,43.92l55.13-8.26L130,118.79a.59.59,0,0,1,.13-.48.56.56,0,0,1,.45-.22l6.12-.13,8.32-25.74c-5.27-.79-39.46-5.79-63.05-5.15a23.32,23.32,0,0,0-16.1,7c-6.14,6.25-13.87,15.16-16.28,22.5l26.23,9.9,2.33-3.43A.61.61,0,0,1,78.67,122.8Z"/><path d="M78.67,124a.56.56,0,0,1-.25,0,.6.6,0,0,1-.29-.79l4.79-10.27a.61.61,0,0,1,.8-.28.59.59,0,0,1,.28.79l-4.79,10.26A.58.58,0,0,1,78.67,124Z"/><path class="cls-1" d="M227.52,81.35,209.15,62.12,29,234.89c-1.91,1.84-1.82,5.36.31,8.61a37.53,37.53,0,0,0,9.49,9.93c3.14,2.28,6.66,2.53,8.57.69Z"/><path d="M209.11,63.8l16.72,17.51-179.28,172a3.53,3.53,0,0,1-2.5.89,8,8,0,0,1-4.55-1.68,36.57,36.57,0,0,1-9.19-9.62c-1.77-2.69-2-5.67-.48-7.1Zm0-1.68L29,234.89c-1.91,1.84-1.82,5.36.31,8.61a37.53,37.53,0,0,0,9.49,9.93,9.2,9.2,0,0,0,5.25,1.91,4.71,4.71,0,0,0,3.32-1.22L227.52,81.35Z"/><path d="M69.48,207.24a.61.61,0,0,1-.43-.18.59.59,0,0,1,0-.84l76.14-73a.6.6,0,0,1,.83.86l-76.15,73A.57.57,0,0,1,69.48,207.24Z"/><path d="M163,117.52a.6.6,0,0,1-.41-1l33-31.69a.59.59,0,0,1,.84,0,.6.6,0,0,1,0,.84l-33.05,31.69A.63.63,0,0,1,163,117.52Z"/><path d="M54,235.55a.6.6,0,0,1-.43-.18.59.59,0,0,1,0-.84l126.6-121.42a.59.59,0,1,1,.82.86L54.37,235.39A.57.57,0,0,1,54,235.55Z"/><path class="cls-1" d="M259.48,42.08l0,0a37.24,37.24,0,0,1-6.11-5.31,21.92,21.92,0,0,1-3.68-4.93l-40.5,30.23a42.08,42.08,0,0,0,18.37,19.23Z"/><path d="M249.32,33.61a22.54,22.54,0,0,0,3.17,4,45.17,45.17,0,0,0,5.23,4.74L227.25,79.8a41,41,0,0,1-16.57-17.35Zm.35-1.76-40.5,30.24a42.08,42.08,0,0,0,18.37,19.23L259.46,42.1a37.24,37.24,0,0,1-6.11-5.31A21.76,21.76,0,0,1,249.67,31.85Zm9.81,10.23,0,0Z"/><path d="M253.92,37.6a29.13,29.13,0,0,0,5.54,4.5l19.52-24c1.72-2.12-2.36-6.39-4.54-4.76l-24.77,18.5A29.49,29.49,0,0,0,253.92,37.6Z"/><path class="cls-1" d="M200.46,107.3s15.76-5.72,4.35-15.56Z"/><path d="M200.46,107.89a.61.61,0,0,1-.41-.15.62.62,0,0,1-.17-.6l4.36-15.56a.59.59,0,0,1,1-.29c3.33,2.87,4.76,5.72,4.25,8.47-.95,5.2-8.47,8-8.79,8.1A.69.69,0,0,1,200.46,107.89Zm4.67-15.06-3.76,13.44c2-1,6.28-3.3,6.91-6.73C208.67,97.43,207.61,95.17,205.13,92.83Z"/><path class="cls-1" d="M51.89,118.25l20.2,7.46s-3.41,31.56,18.41,42.42c0,0,11.83-1.46,15.92,5.56a57.5,57.5,0,0,0-15.21,1.53C84.28,177.13,43,165.23,51.89,118.25Z"/><path d="M89.45,176c-5.31,0-16.53-3.36-25.47-11.6-8.33-7.67-17.28-21.93-12.68-46.27a.61.61,0,0,1,.29-.41.63.63,0,0,1,.5,0l20.21,7.46a.6.6,0,0,1,.39.62c0,.31-3.1,31.13,17.92,41.75,1.59-.17,12.32-1,16.33,5.87a.61.61,0,0,1,0,.61.59.59,0,0,1-.54.29,56.64,56.64,0,0,0-15,1.51A7.34,7.34,0,0,1,89.45,176Zm-37.11-57c-4.2,23.39,4.42,37.09,12.45,44.49C75.4,173.32,88,175.48,91.05,174.65a55.4,55.4,0,0,1,14.23-1.58c-4.32-5.55-14.6-4.36-14.71-4.35a.66.66,0,0,1-.34-.06c-20.48-10.19-19.07-38.56-18.77-42.55Z"/><path d="M101,74.64c-2.84.73-6-1.86-6.93-2.64-3.09-2.55-4.75-6.67-3.34-7.85.89-.75,2.39.21,3.39-.56,1.56-1.22-1.56-4.77-.31-7,1.41-2.47,6.16.2,12.53-2.65,2.92-1.31,3.51-2.57,5.51-2.42,3.07.24,6.39,3.59,6,6.21-.47,3.23-6.1,2.26-10.7,7.49C103.24,69.72,104.26,73.82,101,74.64Z"/><path class="cls-1" d="M114.66,71a16.63,16.63,0,0,1-2.94-5.56c-.83-2.68-1.65-4.61-1.65-4.61-11.55,1.56-8,8.7-8,8.7S98.92,68.07,98.9,71c0,1.06,1.37,2.58,2.23,3L94.8,87c10.09,4.25,16,1.12,16,1.12l-2.09-9.2a11.08,11.08,0,0,0,3.87-.15,9.72,9.72,0,0,0,.77-3.9,3.42,3.42,0,0,1,2-3Z"/><path d="M104.91,89.83a26.63,26.63,0,0,1-10.34-2.29.6.6,0,0,1-.3-.81l6.09-12.5a4.9,4.9,0,0,1-2-3.25,2.3,2.3,0,0,1,1-2.09,2.7,2.7,0,0,1,1.91-.29,5.87,5.87,0,0,1,.43-4.09c1.2-2.27,4-3.72,8.39-4.31a.6.6,0,0,1,.63.36c0,.08.84,2,1.67,4.66a16.06,16.06,0,0,0,2.83,5.37l.73.84A.61.61,0,0,1,116,72a.59.59,0,0,1-.33.41A2.84,2.84,0,0,0,114,74.87a10,10,0,0,1-.82,4.14.57.57,0,0,1-.39.32,11.31,11.31,0,0,1-3.25.26l1.9,8.39a.6.6,0,0,1-.3.66A14.09,14.09,0,0,1,104.91,89.83Zm-9.29-3.15c7.88,3.14,13.08,1.64,14.53,1.08l-2-8.71a.63.63,0,0,1,.14-.54.6.6,0,0,1,.52-.18,11.2,11.2,0,0,0,3.37-.09,9.45,9.45,0,0,0,.59-3.39,4,4,0,0,1,1.69-3.18l-.27-.32,0,0a17.19,17.19,0,0,1-3-5.76c-.59-1.9-1.17-3.42-1.46-4.12-3.69.56-6,1.78-7,3.61a5,5,0,0,0,0,4.17.61.61,0,0,1-.1.68.6.6,0,0,1-.67.13c-.34-.15-1.43-.5-2-.15a1.25,1.25,0,0,0-.4,1.1,4.12,4.12,0,0,0,1.9,2.5.59.59,0,0,1,.26.79Z"/><path d="M108.75,79.51a.39.39,0,0,1-.15,0l-1.2-.31a.59.59,0,0,1-.43-.72.6.6,0,0,1,.73-.43l1.2.31a.59.59,0,0,1,.43.72A.6.6,0,0,1,108.75,79.51Z"/></svg>