<svg id="Capa_1" data-name="Capa 1" xmlns="http://www.w3.org/2000/svg" viewBox="0 0 352 330"><defs><style>.cls-1{fill:#fff;}</style></defs><path d="M104.23,12.2C99.9,8.11,91.92,9.28,87.48,11a22.15,22.15,0,0,0-9.73,7.58c-11,14.56-2.08,29.83-2.08,29.83s.82-4.13,3.64-6.26c1.62.53,10.85,3.36,18.63-1.73C107.71,34,110.54,18.16,104.23,12.2Z"/><path d="M113.33,26.19c0,9.61-7.48,21-16.71,21s-16.7-7.79-16.7-17.41,7.48-17.41,16.7-17.41S113.33,16.57,113.33,26.19Z"/><polygon class="cls-1" points="87.36 268.77 84.98 287.35 78.33 287.39 77.1 267.02 87.36 268.77"/><path d="M78.33,287.78a.39.39,0,0,1-.39-.36L76.71,267a.4.4,0,0,1,.46-.41l10.26,1.76a.38.38,0,0,1,.32.43L85.37,287.4a.41.41,0,0,1-.39.34l-6.65,0Zm-.81-20.3L78.7,287l5.94,0,2.29-17.87Z"/><polygon class="cls-1" points="124.08 278.66 123.63 293.6 114.86 293.44 113.33 277.57 124.08 278.66"/><path d="M123.63,294h0l-8.76-.17a.38.38,0,0,1-.38-.35l-1.54-15.86a.36.36,0,0,1,.12-.31.36.36,0,0,1,.31-.11l10.75,1.08a.39.39,0,0,1,.35.4L124,293.62A.39.39,0,0,1,123.63,294Zm-8.41-.94,8,.16.43-14.2-9.92-1Z"/><path class="cls-1" d="M111.89,299.59a2.22,2.22,0,0,1-.8-1.9c.16-2.18.62-6.82,1.68-8.47,1.39-2.2,5.88,1.51,5.88,1.51s3.2-3.61,4.93-4.27c.9-.34,5.55,3.49,10.12,8.53,5,5.51,7.34,7.35,8.1,11.75a3.36,3.36,0,0,1-3.42,3.87C133.28,310.46,123.13,308.82,111.89,299.59Z"/><path d="M138.48,311h-.11c-5.11-.15-15.39-1.79-26.72-11.11a2.61,2.61,0,0,1-1-2.23c.19-2.51.66-7,1.74-8.65a1.8,1.8,0,0,1,1.3-.85c1.66-.26,4,1.41,4.86,2,.8-.87,3.31-3.52,4.85-4.1,1.39-.53,7,4.73,10.54,8.62.79.87,1.52,1.65,2.18,2.36,3.56,3.85,5.36,5.77,6,9.59a3.65,3.65,0,0,1-.85,3A3.79,3.79,0,0,1,138.48,311Zm-24.36-22.09-.26,0a1,1,0,0,0-.77.49c-1,1.61-1.47,6.34-1.62,8.3a1.88,1.88,0,0,0,.67,1.57h0c11.16,9.17,21.24,10.78,26.25,10.93a3,3,0,0,0,2.35-1,2.91,2.91,0,0,0,.67-2.39c-.61-3.59-2.35-5.46-5.81-9.19-.67-.71-1.39-1.49-2.18-2.36-4.73-5.21-9-8.52-9.71-8.42-1.61.61-4.74,4.12-4.77,4.16a.39.39,0,0,1-.54,0C117.65,290.41,115.52,288.91,114.12,288.91Z"/><path d="M137.48,307.11a35.78,35.78,0,0,1-23.47-9.5.38.38,0,0,1,0-.55.39.39,0,0,1,.55,0c11.58,10.41,24,9.28,24.15,9.26a.4.4,0,0,1,.43.35.39.39,0,0,1-.35.43S138.28,307.11,137.48,307.11Z"/><path class="cls-1" d="M87.62,292.19,88.56,282s-1.73-3.3-4.79-1.07c0,0-1.55-2.7-5.11-1.27a7.22,7.22,0,0,0-3.27,2.74c-2.19,3.3-7.92,12.07-10.92,17.82-1,1.93-.48,5.32,2.41,5.73a13.88,13.88,0,0,0,9-1.57c2.92-1.57,8.19-6.93,10.5-9.35A4.74,4.74,0,0,0,87.62,292.19Z"/><path d="M69.15,306.49a17.49,17.49,0,0,1-2.32-.17,3.48,3.48,0,0,1-2.72-1.93,5,5,0,0,1,0-4.37c3-5.73,8.65-14.39,10.95-17.85a7.54,7.54,0,0,1,3.44-2.89c3-1.22,4.75.36,5.35,1.1a3.38,3.38,0,0,1,2.62-.56,4.11,4.11,0,0,1,2.42,2,.34.34,0,0,1,0,.22L88,292.23a5.15,5.15,0,0,1-1.39,3c-2.72,2.85-7.71,7.87-10.6,9.43A14.05,14.05,0,0,1,69.15,306.49Zm11.49-26.88a5,5,0,0,0-1.84.39,6.83,6.83,0,0,0-3.09,2.6c-2.28,3.44-7.93,12.08-10.9,17.78a4.23,4.23,0,0,0,0,3.66,2.75,2.75,0,0,0,2.14,1.51A13.47,13.47,0,0,0,75.65,304c2.9-1.56,8.25-7,10.41-9.28a4.27,4.27,0,0,0,1.17-2.59l.93-10.08a3.34,3.34,0,0,0-1.86-1.49,2.81,2.81,0,0,0-2.3.65.39.39,0,0,1-.31.06.36.36,0,0,1-.26-.19A3.29,3.29,0,0,0,80.64,279.61Zm7,12.58h0Z"/><path d="M70.21,302.72a4.74,4.74,0,0,1-3.63-1.48.39.39,0,1,1,.57-.53c2.48,2.7,7.39.19,8.83-.64,2.2-1.27,5.76-4.86,8.36-7.65a.4.4,0,0,1,.56,0,.39.39,0,0,1,0,.55c-2.63,2.82-6.26,6.47-8.54,7.79A13.57,13.57,0,0,1,70.21,302.72Z"/><path d="M83.21,286.8h0a.39.39,0,0,1-.34-.43l.55-5.5a.39.39,0,1,1,.77.08l-.55,5.5A.39.39,0,0,1,83.21,286.8Z"/><path class="cls-1" d="M123.16,280.2a4.19,4.19,0,0,0,4-3.54c1.46-9.61,5.66-40,5.11-68.19-.67-34.1-10.94-83.74-10.94-83.74s-16.22-2.39-28.24-2S76.52,121,76.52,121s-9.88,9.24-11.09,28.37c-1.15,18.25,8.91,117.42,8.91,117.42s.38,3.67,2.9,4.49a32.73,32.73,0,0,0,8.86,1.92,3.79,3.79,0,0,0,4-3.54l7-105.25s5.46,23.08,7.54,38.73a79.6,79.6,0,0,0,4.06,16.63,25.52,25.52,0,0,1,1.45,10.5c-.65,9.24-1.43,28,1.16,45.31a4.18,4.18,0,0,0,3,3.4A29.09,29.09,0,0,0,123.16,280.2Z"/><path d="M122.3,280.6a29.85,29.85,0,0,1-8.18-1.23,4.59,4.59,0,0,1-3.24-3.71c-2.57-17.21-1.83-35.83-1.16-45.4a25,25,0,0,0-1.43-10.34,80.73,80.73,0,0,1-4.08-16.71c-1.64-12.4-5.46-29.67-6.94-36.13L90.45,269.7a4.19,4.19,0,0,1-4.37,3.9,32.09,32.09,0,0,1-8.77-1.86l-.19-.07C74.39,270.78,74,267,74,266.85c-.1-1-10-99.41-8.91-117.49,1.2-19.06,11.1-28.53,11.2-28.63a.4.4,0,0,1,.43-.07s4.62,2.07,16.37,1.69c11.92-.39,28.14,2,28.3,2a.39.39,0,0,1,.33.31c.1.5,10.29,50.06,10.95,83.81.55,28.48-3.78,59.45-5.12,68.26a4.57,4.57,0,0,1-4.34,3.87ZM97.06,164a.4.4,0,0,1,.38.3c0,.23,5.49,23.28,7.54,38.77a79.84,79.84,0,0,0,4,16.55,25.59,25.59,0,0,1,1.48,10.66c-.67,9.53-1.41,28.09,1.15,45.22a3.79,3.79,0,0,0,2.69,3.08,28.57,28.57,0,0,0,8.8,1.19,3.79,3.79,0,0,0,3.6-3.2c1.34-8.8,5.66-39.72,5.11-68.14-.63-32.38-10.07-79.41-10.88-83.4-2.16-.3-16.89-2.31-27.89-1.95-10.57.35-15.36-1.21-16.47-1.65-1.33,1.36-9.7,10.61-10.79,27.94-1.13,18,8.81,116.37,8.91,117.36,0,0,.39,3.43,2.63,4.16l.2.07a31.67,31.67,0,0,0,8.55,1.83,3.44,3.44,0,0,0,3.57-3.18l7-105.24A.4.4,0,0,1,97,164Z"/><path d="M83.54,220.67a11.8,11.8,0,0,1-7.9-2.65.38.38,0,0,1,0-.55.39.39,0,0,1,.55,0c3.44,3.14,9,2.36,9.06,2.35a.39.39,0,0,1,.44.33.39.39,0,0,1-.33.44A13.5,13.5,0,0,1,83.54,220.67Z"/><path d="M69.72,155.62a.39.39,0,0,1-.39-.37.4.4,0,0,1,.37-.41c.47,0,11.49-.83,13.82-18.29a.38.38,0,0,1,.43-.33.39.39,0,0,1,.34.44c-2.42,18.12-14.43,19-14.55,19Z"/><path class="cls-1" d="M181.15,35.69a49.82,49.82,0,0,0-1.21-6.11c-1.42-4.86-7.16-1.89-7.49-1.64.23-1,.54-2.52.71-3.47s.34-4-.8-5.42c-.53-.68-1.66-1.3-2.47-.79-1.56,1,.78,3.79-1.14,8.12-.9,2.06-1.53,2.38-2.53,4.78s-.78,6.2-.78,6.2c.88,17.36-11.91,40.06-19.31,40.82-5.39.55-14.32-18.32-19.78-20.12l-9,20.12s8.78,21.26,29.85,19.14c30.21-3,25.69-54.14,25.69-54.14h.29a27,27,0,0,0,3.48-.43c2.41-.47,2.93-1,3.75-1.88S181.52,38,181.15,35.69Z"/><path d="M144.26,97.86a27.7,27.7,0,0,1-20.22-9,38.33,38.33,0,0,1-7.1-10.48.42.42,0,0,1,0-.31L126,57.9a.38.38,0,0,1,.48-.21c2.61.86,5.81,5.23,9.2,9.85,3.61,4.93,7.72,10.52,10.41,10.25,3.4-.35,8.4-6,12.45-14,4.47-8.84,6.9-18.72,6.51-26.44a18.64,18.64,0,0,1,.81-6.37,16.85,16.85,0,0,1,1.42-2.71,15.73,15.73,0,0,0,1.12-2.08,9.71,9.71,0,0,0,.63-5.46c-.14-1.2-.26-2.24.65-2.82a2.39,2.39,0,0,1,3,.87c1.29,1.63,1,5,.89,5.73s-.34,1.77-.54,2.68a7.26,7.26,0,0,1,4.79-.58,3.88,3.88,0,0,1,2.51,2.83,48.34,48.34,0,0,1,1.22,6.16c.42,2.54.12,4.38-.88,5.49s-1.45,1.51-4,2a26.42,26.42,0,0,1-3.42.43,104.38,104.38,0,0,1-1.56,25.64c-3.5,17.39-12,27.25-24.51,28.52C146.18,97.81,145.21,97.85,144.26,97.86ZM117.72,78.18a38,38,0,0,0,6.9,10.11c4.34,4.54,11.77,9.72,22.49,8.64,12.33-1.24,20.35-10.62,23.83-27.88a103.68,103.68,0,0,0,1.51-25.83.38.38,0,0,1,.09-.29.42.42,0,0,1,.28-.14h.29a24.76,24.76,0,0,0,3.42-.42c2.38-.47,2.8-.93,3.54-1.76s1.06-2.58.7-4.85a48.34,48.34,0,0,0-1.21-6.06,3.18,3.18,0,0,0-2-2.3c-2-.68-4.63.66-4.91.86a.39.39,0,0,1-.45,0,.4.4,0,0,1-.17-.4c.23-1,.54-2.53.71-3.46s.28-3.82-.73-5.11c-.41-.53-1.34-1.09-2-.7s-.44.89-.3,2.08a10.28,10.28,0,0,1-.69,5.87,16.22,16.22,0,0,1-1.17,2.17,15.57,15.57,0,0,0-1.36,2.6,17.94,17.94,0,0,0-.75,6c.85,16.84-11.63,40.4-19.66,41.21-3.15.33-7-5-11.12-10.56-3-4.13-6.15-8.39-8.49-9.45Z"/><path d="M175.51,41.55h-.09c-2.3-.53-3.64-1.93-3.59-3.75v-.25a15.55,15.55,0,0,0-1-6.29,3.3,3.3,0,0,1,1.65-3.81.39.39,0,0,1,.38.68c-.07,0-1.88,1.11-1.29,2.89a16.63,16.63,0,0,1,1,6.55v.25c-.06,2,2.07,2.76,3,3a.39.39,0,0,1,.29.47A.38.38,0,0,1,175.51,41.55Z"/><path d="M128.7,106.6,128,91.32l14.77-18.49L129.68,59.21a8.35,8.35,0,0,0-5.31-2.53c-16.69-1.47-41.21-.31-54.21.5a6,6,0,0,0-5.47,7.42C66,70,67.05,77.67,68.37,83.7c0,0-2.14,24.61-2.42,35s11.75,6.33,34.92,8.69c11.4,1.16,30.62.14,28.47-14.57C129,110.73,128.8,108.67,128.7,106.6Z"/><path class="cls-1" d="M118.9,78.94H77.4A2.39,2.39,0,0,0,75,81.32v47.11q24.46,7.66,46.29,1V81.32A2.39,2.39,0,0,0,118.9,78.94Z"/><path d="M100.46,132.9a85.49,85.49,0,0,1-25.56-4.09.39.39,0,0,1-.27-.38V81.32a2.77,2.77,0,0,1,2.77-2.77h41.5a2.78,2.78,0,0,1,2.78,2.77v48.12a.38.38,0,0,1-.28.37A71.55,71.55,0,0,1,100.46,132.9ZM75.4,128.15c16,4.94,31.26,5.28,45.51,1V81.32a2,2,0,0,0-2-2H77.4a2,2,0,0,0-2,2Z"/><path class="cls-1" d="M111.78,56.05s3,8,1.51,23.44a2.85,2.85,0,0,0,5.66.69c.73-5.15,1.94-17.19-1.65-24Z"/><path d="M116.13,83a3.24,3.24,0,0,1-3.22-3.57c1.5-15.11-1.46-23.19-1.49-23.27a.38.38,0,0,1,0-.36.39.39,0,0,1,.33-.16l5.52.17a.42.42,0,0,1,.33.21c3.67,6.91,2.4,19.22,1.69,24.2A3.25,3.25,0,0,1,116.13,83Zm-3.8-26.57c.64,2.06,2.67,9.81,1.35,23.07a2.46,2.46,0,0,0,.63,1.91,2.43,2.43,0,0,0,1.82.81,2.47,2.47,0,0,0,2.43-2.11c.7-4.85,1.93-16.78-1.5-23.53Z"/><path class="cls-1" d="M83.9,56.05s-3,8-1.51,23.44a2.85,2.85,0,0,1-5.66.69C76,75,74.79,63,78.39,56.22Z"/><path d="M79.56,83a3.26,3.26,0,0,1-3.21-2.78c-.71-5-2-17.29,1.69-24.2a.42.42,0,0,1,.33-.21l5.52-.17a.39.39,0,0,1,.33.16.42.42,0,0,1,0,.36c0,.08-3,8.16-1.49,23.27A3.26,3.26,0,0,1,79.56,83ZM78.63,56.6c-3.43,6.75-2.2,18.68-1.51,23.53a2.47,2.47,0,0,0,2.44,2.11,2.41,2.41,0,0,0,1.81-.81A2.46,2.46,0,0,0,82,79.52c-1.31-13.26.71-21,1.35-23.07Z"/><path class="cls-1" d="M81.43,88.54h32.65a0,0,0,0,1,0,0v10.3a14.64,14.64,0,0,1-14.64,14.64H96.07A14.64,14.64,0,0,1,81.43,98.84V88.54A0,0,0,0,1,81.43,88.54Z"/><path d="M104.48,113.87H91a10,10,0,0,1-10-10V88.54a.38.38,0,0,1,.39-.39h32.64a.38.38,0,0,1,.39.39v15.34A10,10,0,0,1,104.48,113.87ZM81.82,88.93v14.95a9.22,9.22,0,0,0,9.2,9.21h13.46a9.22,9.22,0,0,0,9.2-9.21V88.93Z"/><path d="M111.17,93H84.33a.39.39,0,0,1-.39-.39.38.38,0,0,1,.39-.39h26.84a.38.38,0,0,1,.39.39A.39.39,0,0,1,111.17,93Z"/><path d="M92.88,110.23a.39.39,0,0,1-.38-.39V94.65a.39.39,0,1,1,.77,0v15.19A.39.39,0,0,1,92.88,110.23Z"/><path d="M102.62,110.23a.39.39,0,0,1-.39-.39V94.65a.39.39,0,1,1,.77,0v15.19A.39.39,0,0,1,102.62,110.23Z"/><path d="M118,78.86a1.57,1.57,0,1,1-1.57-1.57A1.57,1.57,0,0,1,118,78.86Z"/><path d="M80.93,78.86a1.57,1.57,0,1,1-1.57-1.57A1.57,1.57,0,0,1,80.93,78.86Z"/><path class="cls-1" d="M86,127.49s-4.26-7.12-8.07-7.86-10.38,4.94-10.38,4.94S54.06,111,56.35,100.13c1.34-6.37,5-14.47,8.17-17.64-1.53-.88-6.25-10.58-8-13.15C52.85,74.18,42,88,41.32,99.21,39.94,122,66.7,132.6,70.25,131.45s10.29-3,11.4-1.87,3.07,0,3.07,0l-1.3-1.16C84.72,129.58,86,127.49,86,127.49Z"/><path d="M69.58,131.92c-2.86,0-9.91-2.7-15.95-7.38-6.21-4.8-13.44-13.09-12.7-25.36.66-11,11-24.46,14.91-29.54l.41-.54a.36.36,0,0,1,.32-.15.37.37,0,0,1,.31.17c.62.92,1.58,2.68,2.69,4.72,1.79,3.29,4.25,7.8,5.14,8.31a.39.39,0,0,1,.19.29.38.38,0,0,1-.11.33c-3,3-6.7,11-8.06,17.44-2,9.75,9.05,21.91,10.86,23.83,1.33-1.1,6.89-5.48,10.43-4.79,3.94.76,8.16,7.74,8.33,8a.36.36,0,0,1,0,.4,3.5,3.5,0,0,1-1.6,1.39l.23.21a.4.4,0,0,1,.13.33.37.37,0,0,1-.19.29c-.09.06-2.24,1.3-3.55-.06-.68-.71-5.3.12-11,2A2.49,2.49,0,0,1,69.58,131.92ZM56.53,70l-.07.1c-3.86,5-14.11,18.38-14.76,29.12-.72,11.92,6.35,20,12.4,24.69,6.87,5.32,14.39,7.69,16,7.16,3.1-1,10.44-3.19,11.8-1.77a2,2,0,0,0,2.09.17l-.85-.77a.36.36,0,0,1-.13-.29.38.38,0,0,1,.64-.29.79.79,0,0,0,.68.24,2.11,2.11,0,0,0,1.19-.89c-.73-1.18-4.44-6.84-7.68-7.47-3.58-.69-10,4.8-10.05,4.85a.39.39,0,0,1-.53,0C66.73,124.28,53.66,111,56,100.05c1.36-6.46,4.89-14.17,8-17.53-1.06-1-2.79-4.16-5-8.31C58,72.57,57.13,71,56.53,70Z"/><path d="M71.08,94.65,49.43,76.21S59.1,60,67.9,57.77C67.9,57.77,75.84,78.49,71.08,94.65Z"/><path class="cls-1" d="M93.52,41.67,91.69,55.62l-6.88,1s2.63,8.38,11.75,9S110,59.9,110.5,56.54L104,55.62l-1.11-13.54Z"/><path d="M97.78,66.09c-.4,0-.82,0-1.25,0-9.27-.63-12.07-9.17-12.09-9.26a.39.39,0,0,1,.31-.5l6.6-1,1.79-13.66a.38.38,0,0,1,.4-.34l9.39.41a.39.39,0,0,1,.37.36l1.08,13.23,6.17.87a.43.43,0,0,1,.26.15.39.39,0,0,1,.07.29C110.41,59.68,106.47,66.09,97.78,66.09ZM85.34,57a13.18,13.18,0,0,0,11.25,8.29c8.66.58,12.72-5.27,13.45-8.41L104,56a.38.38,0,0,1-.33-.35l-1.08-13.2-8.69-.38L92.08,55.67a.4.4,0,0,1-.33.34Zm6.35-1.36h0Z"/><path class="cls-1" d="M107.65,31.12a1.33,1.33,0,0,0-1.12.32c0-.08,0-.16,0-.23V22.78C97,29.69,95.23,25.27,89.22,27.25c0,0-.07,3.92-.09,4.19A1.28,1.28,0,0,0,88,31.12c-.93.23-1.34,1.77-.92,3.44s2,3.4,3,3.31c1.45,4.25,4.38,7.91,7.75,7.91s6.31-3.66,7.76-7.91c.94.09,2.58-1.7,3-3.31S108.58,31.35,107.65,31.12Z"/><path d="M97.83,46.17c-3.84,0-6.7-4.21-8-7.93-1.21-.2-2.69-2.05-3.08-3.59-.48-1.9,0-3.62,1.2-3.91a1.42,1.42,0,0,1,.84.05c0-.86,0-2.42.07-3.55a.39.39,0,0,1,.26-.36,13,13,0,0,1,5.56-.49c2.78.2,5.66.41,11.63-3.92a.4.4,0,0,1,.41,0,.39.39,0,0,1,.21.35v8a1.46,1.46,0,0,1,.85-.05c1.15.29,1.68,2,1.2,3.91-.39,1.54-1.87,3.39-3.08,3.59C104.54,42,101.68,46.17,97.83,46.17Zm-7.75-8.69a.4.4,0,0,1,.37.26c1.3,3.81,4.09,7.65,7.38,7.65s6.09-3.84,7.39-7.65a.39.39,0,0,1,.41-.26c.62.05,2.17-1.44,2.56-3s0-2.81-.63-3a.94.94,0,0,0-.79.25.39.39,0,0,1-.63-.27v0c0-.07,0-.13,0-.19V23.54c-5.79,4-8.7,3.83-11.52,3.62a12.44,12.44,0,0,0-5,.38c0,.94-.06,3.69-.08,3.93a.4.4,0,0,1-.23.33.41.41,0,0,1-.4-.05.91.91,0,0,0-.78-.25c-.61.15-1,1.41-.64,3s1.93,3.08,2.57,3Z"/></svg>