<svg id="Capa_1" data-name="Capa 1" xmlns="http://www.w3.org/2000/svg" viewBox="0 0 352 330"><defs><style>.cls-1{fill:#fff;}</style></defs><path class="cls-1" d="M191,295.93H46.91a13.67,13.67,0,0,1-13.38-16.42L55.39,173.22a19.21,19.21,0,0,1,18.82-15.35H197.79Z"/><path d="M191,296.34H46.91a14.08,14.08,0,0,1-13.78-16.91L55,173.14a19.7,19.7,0,0,1,19.22-15.69H197.79a.39.39,0,0,1,.29.13.43.43,0,0,1,.12.31L191.38,296A.41.41,0,0,1,191,296.34ZM74.21,158.28a18.88,18.88,0,0,0-18.42,15L33.94,279.6a13.25,13.25,0,0,0,13,15.92H190.58l6.77-137.24Z"/><path class="cls-1" d="M209.42,295.93h-28a13.67,13.67,0,0,1-13.38-16.42l24.08-117.07a5.72,5.72,0,0,1,5.6-4.57H205a5.72,5.72,0,0,1,5.71,5.26l9.85,120.76A11.13,11.13,0,0,1,209.42,295.93Z"/><path d="M209.42,296.34h-28a14.08,14.08,0,0,1-13.78-16.91l24.07-117.08a6.17,6.17,0,0,1,6-4.9H205a6.18,6.18,0,0,1,6.12,5.64l9.85,120.77a11.55,11.55,0,0,1-11.5,12.48ZM197.76,158.28a5.33,5.33,0,0,0-5.2,4.24L168.49,279.6a13.25,13.25,0,0,0,13,15.92h28a10.71,10.71,0,0,0,10.67-11.59l-9.84-120.77a5.35,5.35,0,0,0-5.3-4.88Z"/><path d="M200.51,292.19h-19a9.93,9.93,0,0,1-9.71-11.92l7.9-38.43a.41.41,0,0,1,.81.16l-7.9,38.43a9.1,9.1,0,0,0,8.9,10.93h19a.42.42,0,0,1,0,.83Z"/><path d="M209.42,292.19a.42.42,0,0,1,0-.83,6.55,6.55,0,0,0,6.53-7.09l-2.24-27.53a.41.41,0,1,1,.82-.06l2.25,27.52a7.39,7.39,0,0,1-7.36,8Z"/><path d="M207.88,180.53a.4.4,0,0,1-.41-.38l-.47-5.73a.41.41,0,1,1,.82-.07l.47,5.73a.42.42,0,0,1-.38.45Z"/><path d="M189.62,195.79h-.08a.41.41,0,0,1-.32-.48l6.6-32.11a2,2,0,0,1,1.94-1.58H205a2,2,0,0,1,2,1.82l.31,3.76a.43.43,0,0,1-.38.44.42.42,0,0,1-.45-.38l-.3-3.75a1.17,1.17,0,0,0-1.16-1.07h-7.19a1.16,1.16,0,0,0-1.13.93l-6.6,32.1A.41.41,0,0,1,189.62,195.79Z"/><path d="M171.34,214.07H58.55a.41.41,0,1,1,0-.82H171.34A6.77,6.77,0,0,0,178,208l9.95-42a.41.41,0,0,1,.49-.31.43.43,0,0,1,.31.5l-10,42A7.59,7.59,0,0,1,171.34,214.07Z"/><path class="cls-1" d="M127.81,213.66l-3.16,12.75a4.78,4.78,0,0,1-4.65,3.68H97.66a3.68,3.68,0,0,1-3.55-4.66l3.28-11.77Z"/><path d="M120,230.51H97.66a4.09,4.09,0,0,1-3.94-5.19L97,213.55a.41.41,0,0,1,.4-.3h30.42a.39.39,0,0,1,.32.16.41.41,0,0,1,.08.35l-3.16,12.75A5.19,5.19,0,0,1,120,230.51ZM97.7,214.07l-3.19,11.47a3.27,3.27,0,0,0,3.15,4.14H120a4.35,4.35,0,0,0,4.25-3.36l3-12.25Z"/><path d="M161.05,285.66H41.22a.41.41,0,1,1,0-.82H161.05a.41.41,0,0,1,0,.82Z"/><path class="cls-1" d="M102.68,153H93.33a4.58,4.58,0,0,0-4.58,4.58h18.5A4.57,4.57,0,0,0,102.68,153Z"/><path d="M107.25,158H88.75a.41.41,0,0,1-.41-.41,5,5,0,0,1,5-5h9.35a5,5,0,0,1,5,5A.41.41,0,0,1,107.25,158Zm-18.07-.82h17.64a4.16,4.16,0,0,0-4.14-3.76H93.33A4.18,4.18,0,0,0,89.18,157.21Z"/><path d="M177.64,153h-9.35a4.57,4.57,0,0,0-4.57,4.58h18.5A4.58,4.58,0,0,0,177.64,153Z"/><path d="M182.22,158h-18.5a.41.41,0,0,1-.42-.41,5,5,0,0,1,5-5h9.35a5,5,0,0,1,5,5A.41.41,0,0,1,182.22,158Zm-18.07-.82h17.64a4.18,4.18,0,0,0-4.15-3.76h-9.35A4.17,4.17,0,0,0,164.15,157.21Z"/><path class="cls-1" d="M175.2,152.79l1.51-8.95c1.07-6.36-3.21-11.5-9.56-11.5H111.06a14.16,14.16,0,0,0-13.43,11.5l-1.51,8.95h4.29l1.18-7A11,11,0,0,1,112,136.87h52.6a7.36,7.36,0,0,1,7.44,8.95l-1.17,7Z"/><path d="M175.2,153.21h-4.29a.4.4,0,0,1-.31-.15.4.4,0,0,1-.1-.33l1.18-7a7.35,7.35,0,0,0-1.5-6,7.13,7.13,0,0,0-5.54-2.43H112A10.62,10.62,0,0,0,102,145.89l-1.17,7a.42.42,0,0,1-.41.35H96.12a.4.4,0,0,1-.31-.15.4.4,0,0,1-.1-.33l1.51-9a14.62,14.62,0,0,1,13.84-11.85h56.09a10,10,0,0,1,7.83,3.46,10.33,10.33,0,0,1,2.14,8.53l-1.51,9A.42.42,0,0,1,175.2,153.21Zm-3.8-.83h3.45l1.45-8.61a9.49,9.49,0,0,0-2-7.86,9.22,9.22,0,0,0-7.2-3.16H111.06a13.76,13.76,0,0,0-13,11.16l-1.42,8.47h3.45l1.12-6.63A11.46,11.46,0,0,1,112,136.46h52.6a7.9,7.9,0,0,1,6.16,2.72,8.08,8.08,0,0,1,1.69,6.71Z"/><path class="cls-1" d="M164.36,128.63H115.09a4.44,4.44,0,0,0-4.2,3.59l-.72,4.31a3,3,0,0,0,3,3.6h49.27a4.44,4.44,0,0,0,4.2-3.6l.72-4.31A3,3,0,0,0,164.36,128.63Z"/><path d="M162.43,140.54H113.16a3.43,3.43,0,0,1-2.67-1.18,3.55,3.55,0,0,1-.73-2.9l.73-4.31a4.86,4.86,0,0,1,4.6-3.94h49.27A3.41,3.41,0,0,1,167,129.4a3.52,3.52,0,0,1,.73,2.89L167,136.6A4.86,4.86,0,0,1,162.43,140.54ZM115.09,129a4,4,0,0,0-3.79,3.25l-.73,4.31a2.7,2.7,0,0,0,.55,2.22,2.6,2.6,0,0,0,2,.89h49.27a4,4,0,0,0,3.79-3.25l.73-4.31a2.71,2.71,0,0,0-.55-2.22,2.6,2.6,0,0,0-2-.89Z"/><path d="M134.18,140.54h-21a3.43,3.43,0,0,1-2.67-1.18,3.55,3.55,0,0,1-.73-2.9l.73-4.31a4.86,4.86,0,0,1,4.6-3.94h16.44a.42.42,0,0,1,0,.83H115.09a4,4,0,0,0-3.79,3.25l-.73,4.31a2.7,2.7,0,0,0,.55,2.22,2.6,2.6,0,0,0,2,.89h21a.42.42,0,0,1,0,.83Z"/><path d="M181.2,285.66a.39.39,0,0,1-.36-.21.41.41,0,0,1,.15-.56L200.1,274V166.12a.41.41,0,1,1,.82,0V274.24a.41.41,0,0,1-.21.36l-19.31,11A.46.46,0,0,1,181.2,285.66Z"/><path d="M180.44,155.17s8.6,3.2,12,.5-5.22-7.25-7.25-6.91S180.44,155.17,180.44,155.17Z"/><polygon class="cls-1" points="137.25 223.92 145.34 238.08 149.72 232.01 142.64 218.18 137.25 223.92"/><path d="M145.34,238.49h0a.39.39,0,0,1-.33-.21l-8.09-14.16a.41.41,0,0,1,.06-.49l5.39-5.73a.42.42,0,0,1,.67.1l7.08,13.82a.42.42,0,0,1,0,.43l-4.38,6.07A.4.4,0,0,1,145.34,238.49ZM137.76,224l7.62,13.34,3.86-5.35-6.7-13.08Z"/><path d="M142.53,235.92c2.14,4.4,7.54,15.07,12.74,20.19a2.32,2.32,0,0,0,3.87-1.06c1.63-6.16,2.71-19-3.35-29.11a30.64,30.64,0,0,0-8.28.67l1.2,5.06-.67-.47a2.67,2.67,0,0,0-3.28.14l-1.55,1.34A2.71,2.71,0,0,0,142.53,235.92Z"/><path class="cls-1" d="M156.12,254.68a.35.35,0,0,1-.14,0,.41.41,0,0,1-.24-.53c4.6-12.18-1.62-26.52-1.68-26.67a.41.41,0,0,1,.75-.33c.07.15,6.42,14.8,1.7,27.29A.41.41,0,0,1,156.12,254.68Z"/><path class="cls-1" d="M145.67,242.47a.42.42,0,0,1-.34-.19.41.41,0,0,1,.12-.57l4-2.63a.41.41,0,0,1,.57.12.4.4,0,0,1-.12.57l-4,2.63A.48.48,0,0,1,145.67,242.47Z"/><path class="cls-1" d="M147.7,246.06a.39.39,0,0,1-.33-.16.41.41,0,0,1,.08-.58l3.7-2.85a.42.42,0,0,1,.58.08.41.41,0,0,1-.08.58L148,246A.49.49,0,0,1,147.7,246.06Z"/><path class="cls-1" d="M111.63,224.25c0,.34-7.42,16.53-7.42,16.53l8.43.67,5.73-13.82Z"/><path d="M112.64,241.86h0l-8.43-.67a.41.41,0,0,1-.34-.58c2.86-6.25,7.17-15.74,7.38-16.43a.45.45,0,0,1,.19-.28.43.43,0,0,1,.4,0l6.74,3.38a.4.4,0,0,1,.2.52L113,241.61A.4.4,0,0,1,112.64,241.86Zm-7.81-1.45,7.54.61,5.47-13.2-6-3C111.39,226,109.87,229.4,104.83,240.41Z"/><path d="M112,237.41a4.25,4.25,0,0,0-6.06-2s-8.05,11.63-11,21.23a3.32,3.32,0,0,0,4.53,4c6.07-2.74,15.57-8.49,21-19.15,0,0-1.68-4.38-4.38-6.4Z"/><path class="cls-1" d="M97.34,258.08a4.15,4.15,0,0,1-.6,0,.41.41,0,0,1,.11-.82c.1,0,9.05,1,21.19-15.68a.41.41,0,1,1,.66.48C107.88,257,99.59,258.08,97.34,258.08Z"/><path class="cls-1" d="M104.21,249a.42.42,0,0,1-.21-.06l-4-2.36a.41.41,0,0,1-.15-.56.4.4,0,0,1,.56-.15l4,2.36a.41.41,0,0,1,.15.56A.43.43,0,0,1,104.21,249Z"/><path class="cls-1" d="M106.23,245.91a.34.34,0,0,1-.19,0l-4.38-2.36a.41.41,0,1,1,.39-.72l4.38,2.36a.41.41,0,0,1,.17.55A.42.42,0,0,1,106.23,245.91Z"/><path class="cls-1" d="M154.77,142.64s-22,3.93-37.8,20.54a16,16,0,0,0-3.69,15.76c3.51,11.35,11.17,32.08,24,47.67l9.77-8.43s-2.36-19.56-8.76-31.7,31-38.44,31-38.44Z"/><path d="M137.25,227h0a.42.42,0,0,1-.28-.14c-12.9-15.73-20.6-36.71-24.05-47.82a16.45,16.45,0,0,1,3.79-16.17c15.75-16.51,37.81-20.61,38-20.65a.34.34,0,0,1,.22,0l14.49,5.39a.4.4,0,0,1,.27.33.41.41,0,0,1-.17.39c-.37.27-37,26.24-30.89,37.92,6.37,12.07,8.79,31.65,8.81,31.84a.43.43,0,0,1-.14.37l-9.77,8.43A.47.47,0,0,1,137.25,227Zm17.49-84c-1.69.33-22.48,4.67-37.47,20.39a15.58,15.58,0,0,0-3.6,15.35c3.4,11,11,31.64,23.63,47.22l9.29-8c-.29-2.18-2.76-20.09-8.7-31.35-6.11-11.58,25.42-34.86,30.51-38.52Z"/><path class="cls-1" d="M108.93,227.29l11.46,3.37s20.9-44.18,27-50.59,17.86-16.86,30.34-20.57,12.47-13.15,12.47-13.15l-21.24-6.07s-29.66,12.82-39.44,27.32S108.93,227.29,108.93,227.29Z"/><path d="M120.39,231.07h-.11l-11.47-3.38a.41.41,0,0,1-.28-.49c.11-.45,10.92-45.43,20.62-59.82S168.47,140,168.77,139.9a.44.44,0,0,1,.28,0L190.28,146a.43.43,0,0,1,.3.4c0,.1-.14,9.79-12.77,13.55-13.92,4.14-26.6,16.71-30.15,20.46-6,6.29-26.69,50-26.9,50.48A.4.4,0,0,1,120.39,231.07Zm-11-4.07,10.75,3.17c2-4.31,21-44.21,26.89-50.38,3.59-3.79,16.4-16.48,30.52-20.68,10.78-3.21,12-10.83,12.16-12.45L169,140.72c-2.18,1-29.86,13.37-39.13,27.11C120.69,181.4,110.5,222.6,109.42,227Z"/><path class="cls-1" d="M207.36,111.62c-5.73-11.47-15.17-13.16-15.17-13.16L176,97.11a13,13,0,0,0-12.43,7.45l-14.87,34.71s3,8.09,16.51,9.44,22.76.51,27.14,5.9c2.89,3.56,2.8-20.16,1.14-38.93Z"/><path d="M192.9,155.38a1.11,1.11,0,0,1-.86-.51c-3.28-4-9.63-4.47-18.4-5.07-2.54-.18-5.42-.37-8.46-.68-13.58-1.36-16.73-9.37-16.86-9.71a.39.39,0,0,1,0-.3L163.2,104.4A13.48,13.48,0,0,1,176,96.7l16.19,1.35c.13,0,9.74,1.86,15.5,13.38a.43.43,0,0,1,0,.35.42.42,0,0,1-.26.23l-13.54,4c1.16,13.35,2.12,38.19-.73,39.34A.75.75,0,0,1,192.9,155.38Zm-43.74-16.11c.49,1.08,4.05,7.83,16.11,9,3,.3,5.89.5,8.42.67,9,.62,15.48,1.06,19,5.38.15.19.23.21.23.21s1.28-.65,1.33-13.14c0-7.56-.4-17.17-1.15-25.7a.4.4,0,0,1,.29-.43l13.39-3.93c-5.59-10.76-14.56-12.48-14.65-12.49L176,97.52a12.65,12.65,0,0,0-12,7.2Z"/><path class="cls-1" d="M164.09,141.5l7.41-3.37,5.73,2.36s31.06-3.11,17.32-25.12c-.06-.09,10.48-3.07,10.48-3.07s12.53,29.88-27.12,30.55a6.58,6.58,0,0,1-4.72-.67C170.49,140.83,165.77,143.53,164.09,141.5Z"/><path d="M176.56,143.43a8,8,0,0,1-3.55-.88c-1.15-.58-2.78-.33-4.35-.1-2,.29-3.84.57-4.89-.68a.42.42,0,0,1-.08-.36.41.41,0,0,1,.23-.28l7.41-3.37a.42.42,0,0,1,.33,0l5.63,2.32c1.34-.15,15.4-2,19.33-10,1.94-4,1.12-8.83-2.42-14.5a.44.44,0,0,1,0-.37c.1-.25.12-.31,10.76-3.32a.42.42,0,0,1,.49.24c.05.12,4.84,11.8-1,20.77-4.33,6.64-13.22,10.12-26.42,10.35A5.3,5.3,0,0,1,176.56,143.43Zm-5.37-2.06a4.78,4.78,0,0,1,2.18.44,6.26,6.26,0,0,0,4.41.65l.12,0c12.94-.22,21.63-3.58,25.8-10,5.08-7.77,1.81-17.71,1.08-19.66-3.43,1-8.17,2.33-9.62,2.79,3.48,5.74,4.22,10.74,2.2,14.86-4.31,8.77-19.44,10.39-20.08,10.45a.34.34,0,0,1-.2,0l-5.57-2.29-6.65,3c.86.46,2.23.25,3.68,0A17.38,17.38,0,0,1,171.19,141.37Z"/><path d="M135.82,144.18h29.24l-21.68-33.35a3.7,3.7,0,0,0-3.12-1.67H116.53a1.86,1.86,0,0,0-1.62,2.85Z"/><ellipse class="cls-1" cx="132.84" cy="120.85" rx="2.01" ry="3.74" transform="translate(-40.9 166.31) rotate(-56.96)"/><path d="M134.56,123.91a6.55,6.55,0,0,1-4.91-2.84,2.37,2.37,0,0,1-.36-2.38,2,2,0,0,1,1.83-.9,6.53,6.53,0,0,1,4.9,2.84,2.33,2.33,0,0,1,.36,2.38A1.93,1.93,0,0,1,134.56,123.91Zm-3.44-5.29a1.17,1.17,0,0,0-1.1.46,1.62,1.62,0,0,0,.32,1.55,5.81,5.81,0,0,0,4.22,2.45,1.16,1.16,0,0,0,1.09-.46,1.59,1.59,0,0,0-.32-1.55A5.79,5.79,0,0,0,131.12,118.62Z"/><path d="M137.58,144h45.59a1.86,1.86,0,0,1,1.86,1.86v.87a0,0,0,0,1,0,0h-49.3a0,0,0,0,1,0,0v-.87A1.86,1.86,0,0,1,137.58,144Z" transform="translate(320.74 290.65) rotate(-180)"/><path d="M195.23,19.55C207.6,15.64,223.61,33.41,220.39,48c-.89,4,.09,10.13-4.33,12.35-7.83,3.95-12.76-.83-14.77,2.35-1.74,2.75,4.46,6.72,3.71,12.47-1.11,8.56-16.46,12.69-18.2,13.16-1.3.35-19.62,5-28.32-4.73-2.09-2.34-4.84-6.89-3.37-9.78s5.7-2.16,6.74-5c.91-2.51-2-3.92-1.68-6.75.56-5.46,11.83-5.74,13.14-11.46,1.05-4.58-5.5-7.27-4.38-11.81.9-3.65,5.62-3.75,13.15-8.43C191.1,24.74,190.54,21,195.23,19.55Z"/><path class="cls-1" d="M181.4,96.1c-.3-.15-4.35-4.94-6.72-7.76a6.11,6.11,0,0,0,.08-2.21,3,3,0,0,0,.74-2.84c-.57-1.86-2.34-.36-2.34-.36s-.82-1.43-3.89,1-6.32-.53-6.32-.53a7.71,7.71,0,0,0,1.62,4.09,7.74,7.74,0,0,1,1.09,4.4l1.73-.25a6.73,6.73,0,0,0,3,2.22,5.09,5.09,0,0,0,2.1-1.08l1.89,4.3-1.93,1s-.43,2.69,4.62,3.37,9.1-3.37,9.1-3.37S183.43,97.11,181.4,96.1Z"/><path d="M178.18,102a10.1,10.1,0,0,1-1.21-.08c-2.15-.29-3.64-1-4.43-2a2.63,2.63,0,0,1-.55-1.82.43.43,0,0,1,.22-.3l1.58-.83-1.52-3.47a5.41,5.41,0,0,1-1.85.83.4.4,0,0,1-.24,0,7.1,7.1,0,0,1-3-2.16l-1.5.22a.45.45,0,0,1-.32-.09.42.42,0,0,1-.15-.31,7.41,7.41,0,0,0-1-4.17,8.05,8.05,0,0,1-1.7-4.33.41.41,0,0,1,.24-.38.43.43,0,0,1,.45.07c.12.12,3,2.73,5.78.52,1.46-1.17,2.67-1.68,3.58-1.5a1.51,1.51,0,0,1,.61.25,2.14,2.14,0,0,1,1.67-.39,1.58,1.58,0,0,1,1,1.17,3.32,3.32,0,0,1-.71,3.1v0a6.22,6.22,0,0,1-.07,1.94c5.41,6.43,6.34,7.38,6.5,7.52,2,1,4.62,2,4.65,2a.42.42,0,0,1,.26.3.44.44,0,0,1-.11.38C186.26,98.57,182.79,102,178.18,102Zm-5.37-3.61a1.93,1.93,0,0,0,.41,1c.64.84,2,1.42,3.86,1.67,3.81.51,7.07-1.83,8.27-2.82-.93-.37-2.7-1.09-4.13-1.8-.14-.07-.42-.21-6.86-7.86a.46.46,0,0,1-.09-.36,5.13,5.13,0,0,0,.09-1.91v-.19a.43.43,0,0,1,.12-.31,2.61,2.61,0,0,0,.64-2.42c-.11-.36-.27-.57-.47-.63-.38-.11-1,.26-1.21.45a.42.42,0,0,1-.34.09.4.4,0,0,1-.29-.2h0a.6.6,0,0,0-.4-.19c-.37-.06-1.25,0-2.87,1.34a5,5,0,0,1-6,.06,8.35,8.35,0,0,0,1.4,2.94,7.57,7.57,0,0,1,1.15,4.17l1.27-.18a.38.38,0,0,1,.37.14,6.26,6.26,0,0,0,2.68,2,5,5,0,0,0,1.8-1,.38.38,0,0,1,.35-.09.44.44,0,0,1,.29.24L174.7,97a.41.41,0,0,1-.18.53Z"/><path class="cls-1" d="M172.44,92.81l.55-.5Z"/><path d="M172.44,93.22a.42.42,0,0,1-.31-.13.41.41,0,0,1,0-.58l.56-.5a.4.4,0,0,1,.58,0,.41.41,0,0,1,0,.58l-.56.5A.38.38,0,0,1,172.44,93.22Z"/></svg>